<?xml version="1.0" encoding="utf-8"?>
<!-- Generator: Adobe Illustrator 17.1.0, SVG Export Plug-In . SVG Version: 6.00 Build 0)  -->
<!DOCTYPE svg PUBLIC "-//W3C//DTD SVG 1.1//EN" "http://www.w3.org/Graphics/SVG/1.1/DTD/svg11.dtd">
<svg version="1.1" id="Layer_1" xmlns="http://www.w3.org/2000/svg" xmlns:xlink="http://www.w3.org/1999/xlink" x="0px" y="0px"
	 width="469.8px" height="88.2px" viewBox="0 0 469.8 88.2" enable-background="new 0 0 469.8 88.2" xml:space="preserve">
<g>
	<path fill="#00C750" d="M44.8,39.1c-5.5,1.1-17.2,1.1-22,1.1c0.2-0.6,0.4-1.3,0.6-1.9c7-22.2,6.4-29.4,6.4-29.4S42.8,9.2,48,9.2
		c5.2,0,6,5.2,6,5.2C63.4,7.5,60.6,0,60.6,0C50.1,2,29.5,0.8,20.3,0.8c-9.2,0-8.3,8.3-8.3,8.3c7.6,9.2-10.8,62.8-10.8,62.8
		s-4.8,14.6,4.3,14.6c9.1,0,12.1-2.5,12.1-2.5c-2.8-4.8-1.8-18.1,2.8-35.5c5.3,0.2,25.1,0.6,27.7-4.2C51.2,38.6,51.8,37.7,44.8,39.1
		z"/>
	<path fill="#00C750" d="M116.2,25.4c-25.7,0-33.7,34.3-33.7,34.3c-0.4,1.8-0.7,3.4-0.9,5c-4.9,4.4-11.9,9.8-16.6,9.8
		c-4.7,0-3.8-11.1-1.5-22.4c8.6-11,15.2-24.9,17.8-32.1c3.1-8.6-0.5-11.5-0.6-11.5C78.1,5.3,70-2.7,63.8,12.1
		c-6.6,15.6-27,74.2-8.1,74.2c13.4,0,21.8-10.8,25.6-17.2c0.4,16,15.5,17.2,19.7,17.2c4.9,0,14.9-0.6,27.3-17.3
		C140.8,52.4,141.9,25.4,116.2,25.4z M68.6,32.6c2.7-7.9,6.8-19,10.2-22.3c0.6,1.5,0.8,4.8-1.6,12.1c-2.8,8.6-8.5,15.9-11.3,19.2
		C66.9,38,67.9,34.8,68.6,32.6z M117.6,61.5c-4.5,10.5-9.7,15.2-14.7,15.2c-5,0-7.9-4.7-5.8-13.7c0,0,4.2-27.8,16.2-27.8
		C125.2,35.1,122.2,50.9,117.6,61.5z"/>
	<path fill="#00C750" d="M175.7,25.9c-11.4,0-14.1,5.9-14.1,5.9s0.2-6.4-6.4-6.4c-11.3,0-15.4,5.7-13.8,12.8c0,0,5.9-3.1,5.1,0.4
		l-9.2,41c0,0-1.7,6.8,4.2,6.8c5.9,0,9.7-5,10.8-10.2c1.1-5.3,3.9-37.4,16-37.4c3.6,0,0.9,7.1,6,7.1
		C179.5,45.8,187.1,25.9,175.7,25.9z"/>
	<path fill="#00C750" d="M409.2,28.7c-11.4,0-14.1,5.7-14.1,5.7s0.2-6.1-6.4-6.1c-11.3,0-15.4,5.4-13.8,12.2c0,0,5.9-3,5.1,0.4
		l-9.2,39.1c0,0-1.7,6.5,4.2,6.5c5.9,0,9.7-4.7,10.8-9.8c1.1-5,3.9-35.7,16-35.7c3.6,0,0.9,6.8,6,6.8
		C413,47.7,420.7,28.7,409.2,28.7z"/>
	<path fill="#00C750" d="M464.8,68.4c-1.6,1.6-3.2,3.1-4.7,4.3c-9.7,7.4,2.7-37.8,3-39.7c0.3-1.9-1.9-4-6.9-4c-5,0-6.3,3.6-6.3,3.6
		s-3.2,11.7-5.1,24.2c-4.5,5.8-10,12.3-14.8,16c-9.7,7.4,2.7-37.8,3-39.7c0.3-1.9-1.9-4-6.9-4c-5,0-6.3,3.6-6.3,3.6
		s-14.6,53.9-0.6,53.9c7.9,0,17.4-9.7,24.2-18.2c-0.7,10,0.4,18.2,5.8,18.2c0,0,13.2-0.8,20.6-18.8
		C469.8,67.5,470.4,62.9,464.8,68.4z"/>
	<path fill="#00C750" d="M341,57.2L341,57.2l1.6,0.1h1.6l0-0.1c4.1-0.3,9.2-2,10.3-5.1c0.4-1.3,0.4-3.2-2.2-5.3
		c-1.2-0.9-2.3-1.4-3.5-1.4c-3.1,0-5.1,3.3-6.2,6.2c-1.1-2.9-3.1-6.2-6.2-6.2c-1.2,0-2.3,0.5-3.5,1.4c-2.6,2.1-2.6,4.1-2.2,5.3
		C331.8,55.3,337,56.9,341,57.2z M348.8,47.9c0.5,0,1.2,0.3,1.9,0.8c0.8,0.7,1.7,1.6,1.4,2.5c-0.6,1.6-4.1,3-7.8,3.4
		C345.1,51.8,346.8,47.9,348.8,47.9z M334.5,48.8c0.7-0.6,1.3-0.8,1.9-0.8c2,0,3.7,3.8,4.5,6.7c-3.7-0.4-7.2-1.8-7.8-3.4
		C332.8,50.4,333.7,49.4,334.5,48.8z"/>
	<rect x="340.6" y="67.7" fill="#00C750" width="4" height="20.5"/>
	<rect x="347.2" y="59.3" fill="#00C750" width="13.4" height="5.8"/>
	<rect x="328" y="67.7" fill="#00C750" width="9.9" height="20.5"/>
	<rect x="347.2" y="67.7" fill="#00C750" width="9.9" height="20.5"/>
	<rect x="324.6" y="59.3" fill="#00C750" width="13.4" height="5.8"/>
	<rect x="340.6" y="59.3" fill="#00C750" width="4" height="5.8"/>
</g>
<g>
	<path fill="#CE007C" d="M220.5-0.6c-24.3,0-26.7,14.9-26.7,14.9c-0.6,4.3,1.7,7.2,4.3,7.2c2.7,0,3.7-2,3.7-2
		c4.3-6,8.5-8.9,15.4-8.9c6.9,0,10.2,4,10.2,10.4c0,6.5-4.3,11-4.3,11L184,72.6c0,0-5.5,3.8-5.5,8.2c0,4.4,4,5.5,4,5.5
		s27.2,0,40.3,0c13.1,0,8.3-17.1,8.3-17.1c-3.9,4.9-9.5,4.9-9.5,4.9h-22c0,0,18.4-19.7,33.5-35.4C248.1,23,244.7-0.6,220.5-0.6z"/>
	<path fill="#CE007C" d="M322.4,6.3c0,0,1.7-6.2-7.2-6.2l-3.7,0c0,0-5.4-0.5-7,7.1c-1,4.9-5.9,26.5-8.8,45.2
		c-4.2,10.4-11,22.1-21,22.1c-13,0-8.5-21.7-8.5-21.7s9.5-37.9,10.5-42.4c1-4.5,0.2-11.1-6.6-11.1c-6.8,0-12.1,5-12.1,5
		s3.2,3.5,2.1,8.2c-1.1,4.7-7.6,42.7-7.6,42.7s-3.6,32.5,15.4,32.5c12.4,0,21.2-9.2,25.8-15.6c0,2,0,3.8,0.2,5.2
		c1.9,14.4,15.4,11.2,20.9,5.6c0,0-7-2.6-6-12C309.8,61.6,322.4,6.3,322.4,6.3z"/>
</g>
</svg>
