<?xml version="1.0" standalone="no"?>
<!DOCTYPE svg PUBLIC "-//W3C//DTD SVG 1.1//EN" "http://www.w3.org/Graphics/SVG/1.1/DTD/svg11.dtd" >
<svg xmlns="http://www.w3.org/2000/svg" xmlns:xlink="http://www.w3.org/1999/xlink" version="1.1">
<metadata>
Created by FontForge 20170731 at Fri Feb 22 07:27:53 2019
 By Aleksey,,,
Copyright 2016 Dalton Maag Ltd. Modification of this file requires prior written permission from Dalton Maag Ltd. |DCNT
</metadata>
<defs>
<font id="InterFace-Bold" horiz-adv-x="0" >
  <font-face 
    font-family="InterFace"
    font-weight="700"
    font-stretch="normal"
    units-per-em="1000"
    panose-1="2 11 7 3 2 2 3 2 2 4"
    ascent="771"
    descent="-229"
    x-height="482"
    cap-height="667"
    bbox="-252 -432 1415 920"
    underline-thickness="60"
    underline-position="-340"
    unicode-range="U+0008-FEFC"
  />
<missing-glyph horiz-adv-x="500" 
d="M450 0h-400v750h400v-750zM100 50h300v650h-300v-650z" />
    <glyph glyph-name="f_b" unicode="fb" horiz-adv-x="858" 
d="M214 0h-131v382h-67v100h68v15q0 53 22.5 90.5t61.5 57t80 27.5t89 8q82 0 164 -15v-182q44 11 85 11q113 0 175 -72t62 -172q0 -132 -73.5 -196.5t-188.5 -64.5q-91 0 -191 41v535q-16 3 -53 3q-104 0 -104 -74v-12h102v-100h-101v-382zM501 378v-275q43 -9 55 -9
q64 0 102 40t38 113q0 69 -37 105.5t-94 36.5q-28 0 -64 -11z" />
    <glyph glyph-name="f_j" unicode="fj" horiz-adv-x="559" 
d="M214 0h-131v382h-67v100h67v17q0 94 59.5 138t149.5 44q109 0 175 -46l-61 -95q-39 31 -105 31q-39 0 -63.5 -18.5t-24.5 -58.5v-12h109v-100h-108v-382zM366 -196l-72 80q50 34 66.5 61t16.5 74v463h130v-463q0 -77 -33.5 -126.5t-107.5 -88.5z" />
    <glyph glyph-name="f_k" unicode="fk" horiz-adv-x="826" 
d="M214 0h-131v382h-67v100h68v15q0 53 22.5 90.5t61.5 57t80 27.5t89 8q81 0 163 -15v-319l151 136h157l-166 -149l190 -333h-147l-138 249l-47 -44v-205h-130v565q-16 3 -53 3q-104 0 -104 -74v-12h102v-100h-101v-382z" />
    <glyph glyph-name="f_t" unicode="ft" horiz-adv-x="706" 
d="M214 0h-131v382h-67v100h67v17q0 91 46 136.5t122 45.5q88 0 148 -29l-38 -100q-42 20 -89 20q-59 0 -59 -74v-16h211v125h130v-125h117v-100h-117v-246q0 -21 9.5 -30.5t21.5 -9.5q33 0 72 31l47 -89q-74 -49 -147 -49q-56 0 -94.5 31.5t-38.5 96.5v265h-210v-382z" />
    <glyph glyph-name="f_h" unicode="fh" horiz-adv-x="881" 
d="M214 0h-131v382h-67v100h68v15q0 53 22.5 90.5t61.5 57t80 27.5t89 8q81 0 163 -15v-215q59 44 138 44q181 0 181 -208v-286h-131v277q0 57 -23 85t-58 28q-50 0 -107 -47v-343h-130v565q-16 3 -53 3q-104 0 -104 -74v-12h102v-100h-101v-382z" />
    <glyph glyph-name="f_f" unicode="ff" horiz-adv-x="675" 
d="M214 0h-131v382h-67v100h67v17q0 91 46 136.5t122 45.5q88 0 148 -29l-38 -100q-42 20 -89 20q-59 0 -59 -74v-16h210v17q0 91 46 136.5t122 45.5q88 0 148 -29l-38 -100q-42 20 -89 20q-59 0 -59 -74v-16h109v-100h-108v-382h-131v382h-209v-382z" />
    <glyph glyph-name="f_i" unicode="fi" horiz-adv-x="566" 
d="M501 0h-130v482h130v-482zM214 0h-131v382h-67v100h67v17q0 94 59.5 138t149.5 44q109 0 175 -46l-61 -95q-39 31 -105 31q-39 0 -63.5 -18.5t-24.5 -58.5v-12h109v-100h-108v-382z" />
    <glyph glyph-name="f_l" unicode="fl" horiz-adv-x="565" 
d="M214 0h-131v382h-67v100h68v15q0 53 22.5 90.5t61.5 57t80 27.5t89 8q81 0 163 -15v-665h-130v565q-16 3 -53 3q-104 0 -104 -74v-12h102v-100h-101v-382z" />
    <glyph glyph-name="f_f_i" unicode="ffi" horiz-adv-x="904" 
d="M214 0h-131v382h-67v100h67v17q0 91 46 136.5t122 45.5q88 0 148 -29l-38 -100q-42 20 -89 20q-59 0 -59 -74v-16h208v17q0 94 59.5 138t149.5 44q109 0 175 -46l-61 -95q-39 31 -105 31q-39 0 -63.5 -18.5t-24.5 -58.5v-12h109v-100h-108v-382h-131v382h-207v-382z
M839 0h-130v482h130v-482z" />
    <glyph glyph-name="f_f_l" unicode="ffl" horiz-adv-x="903" 
d="M214 0h-131v382h-67v100h67v17q0 91 46 136.5t122 45.5q88 0 148 -29l-38 -100q-42 20 -89 20q-59 0 -59 -74v-16h209v15q0 53 22.5 90.5t61.5 57t80 27.5t89 8q81 0 163 -15v-665h-130v565q-16 3 -53 3q-104 0 -104 -74v-12h102v-100h-101v-382h-131v382h-207v-382z" />
    <glyph glyph-name="aAllah" unicode="&#x627;&#xfedf;&#xfee0;&#xfeea;" horiz-adv-x="1235" arabic-form="isolated" 
d="M477 0q-90 0 -142 60q-46 -70 -147 -70q-75 0 -119 43t-44 118q0 66 36 113t123 88q41 17 108 38v69h105v-271q0 -28 24.5 -42.5t64.5 -14.5q89 0 89 57v341h107v-338q0 -60 92 -60q47 0 68.5 15.5t21.5 50.5v365h107v-360q0 -99 -50.5 -150.5t-146.5 -51.5
q-125 0 -157 63q-32 -63 -140 -63zM292 150v129q-32 -7 -70 -19q-51 -17 -72 -38t-21 -49q0 -53 72 -53q58 0 91 30zM1182 667l-1 -689h-104l-2 689h107zM572 597q-28 0 -44 18t-16 50q0 39 21 70l40 -17q-13 -24 -13 -45q0 -23 21 -23q14 0 19.5 7.5t5.5 25.5v32h44v-31
q0 -34 27 -34q21 0 21 20q0 21 -20 48l41 25q27 -34 27 -75q0 -32 -17 -51.5t-46 -19.5q-43 0 -55 35q-13 -35 -56 -35zM659 920l-5 -147h-51l-4 147h60z" />
    <glyph glyph-name="aLam_aAlifMadda.isol" unicode="&#xfedf;&#xfe82;" horiz-adv-x="695" arabic-form="isolated" 
d="M517 669h112q15 -51 15 -118q0 -116 -67 -228q76 -92 76 -181q0 -76 -47.5 -124t-131.5 -48q-59 0 -112 23t-81 59q-109 -52 -209 -52q-31 0 -49 6l-7 127q22 -2 62 -2q111 0 210.5 48t163.5 130q-124 91 -280 91q-56 0 -96 -15v115q44 19 106 19q82 0 166 -33.5
t155 -89.5q29 67 29 141q0 70 -15 132zM391 118q46 -27 87 -27q79 0 79 56q0 45 -36 94q-59 -71 -130 -123zM290 675l20 -26q-5 -29 -27 -46.5t-54 -17.5q-25 0 -50 11q-33 17 -52 17q-28 0 -46 -24l-27 22q7 32 27 50.5t49 18.5q28 0 54 -14q30 -14 54 -14q33 0 52 23z" />
    <glyph glyph-name="aLam_aAlifMadda.fina" unicode="&#xfee0;&#xfe82;" horiz-adv-x="738" arabic-form="final" 
d="M517 669h112q15 -51 15 -118q0 -116 -67 -228q64 -78 74 -156q23 -36 76 -36h11l16 -11v-110l-16 -10h-10q-68 0 -100 46q-47 -76 -154 -76q-59 0 -112 23t-81 59q-109 -52 -209 -52q-31 0 -49 6l-7 127q22 -2 62 -2q111 0 210.5 48t163.5 130q-124 91 -280 91
q-58 0 -96 -15v115q44 19 106 19q82 0 166 -33.5t155 -89.5q29 67 29 141q0 70 -15 132zM391 118q46 -27 87 -27q79 0 79 56q0 45 -36 94q-59 -71 -130 -123zM290 675l20 -26q-5 -29 -27 -46.5t-54 -17.5q-25 0 -50 11q-33 17 -52 17q-28 0 -46 -24l-27 22q7 32 27 50.5
t49 18.5q28 0 54 -14q30 -14 54 -14q33 0 52 23z" />
    <glyph glyph-name="aLam_aAlifHamza.isol" unicode="&#xfedf;&#xfe84;" horiz-adv-x="695" arabic-form="isolated" 
d="M517 669h112q15 -51 15 -118q0 -116 -67 -228q76 -92 76 -181q0 -76 -47.5 -124t-131.5 -48q-59 0 -112 23t-81 59q-109 -52 -209 -52q-31 0 -49 6l-7 127q22 -2 62 -2q111 0 210.5 48t163.5 130q-124 91 -280 91q-56 0 -96 -15v115q44 19 106 19q82 0 166 -33.5
t155 -89.5q29 67 29 141q0 70 -15 132zM391 118q46 -27 87 -27q79 0 79 56q0 45 -36 94q-59 -71 -130 -123zM279 639v-50h-194v50h43q-17 15 -17 44q0 33 21.5 53.5t57.5 20.5q35 0 56 -19t21 -50q0 -11 -1 -14h-45v4q0 12 -9 19t-22 7q-30 0 -30 -27q0 -38 77 -38h42z" />
    <glyph glyph-name="aLam_aAlifHamza.fina" unicode="&#xfee0;&#xfe84;" horiz-adv-x="738" arabic-form="final" 
d="M517 669h112q15 -51 15 -118q0 -116 -67 -228q64 -78 74 -156q23 -36 76 -36h11l16 -11v-110l-16 -10h-10q-68 0 -100 46q-47 -76 -154 -76q-59 0 -112 23t-81 59q-109 -52 -209 -52q-31 0 -49 6l-7 127q22 -2 62 -2q111 0 210.5 48t163.5 130q-124 91 -280 91
q-58 0 -96 -15v115q44 19 106 19q82 0 166 -33.5t155 -89.5q29 67 29 141q0 70 -15 132zM391 118q46 -27 87 -27q79 0 79 56q0 45 -36 94q-59 -71 -130 -123zM279 639v-50h-194v50h43q-17 15 -17 44q0 33 21.5 53.5t57.5 20.5q35 0 56 -19t21 -50q0 -11 -1 -14h-45v4
q0 12 -9 19t-22 7q-30 0 -30 -27q0 -38 77 -38h42z" />
    <glyph glyph-name="aLam_aAlifHamzabelow.isol" unicode="&#xfedf;&#xfe88;" horiz-adv-x="695" arabic-form="isolated" 
d="M517 669h112q15 -51 15 -118q0 -116 -67 -228q76 -92 76 -181q0 -76 -47.5 -124t-131.5 -48q-59 0 -112 23t-81 59q-109 -52 -209 -52q-31 0 -49 6l-7 127q22 -2 62 -2q111 0 210.5 48t163.5 130q-124 91 -280 91q-56 0 -96 -15v115q44 19 106 19q82 0 166 -33.5
t155 -89.5q29 67 29 141q0 70 -15 132zM391 118q46 -27 87 -27q79 0 79 56q0 45 -36 94q-59 -71 -130 -123zM378 -181v-50h-194v50h43q-17 15 -17 44q0 33 21.5 53.5t57.5 20.5q35 0 56 -19t21 -50q0 -11 -1 -14h-45v4q0 12 -9 19t-22 7q-30 0 -30 -27q0 -38 77 -38h42z" />
    <glyph glyph-name="aLam_aAlifHamzabelow.fina" unicode="&#xfee0;&#xfe88;" horiz-adv-x="738" arabic-form="final" 
d="M517 669h112q15 -51 15 -118q0 -116 -67 -228q64 -78 74 -156q23 -36 76 -36h11l16 -11v-110l-16 -10h-10q-68 0 -100 46q-47 -76 -154 -76q-59 0 -112 23t-81 59q-109 -52 -209 -52q-31 0 -49 6l-7 127q22 -2 62 -2q111 0 210.5 48t163.5 130q-124 91 -280 91
q-58 0 -96 -15v115q44 19 106 19q82 0 166 -33.5t155 -89.5q29 67 29 141q0 70 -15 132zM391 118q46 -27 87 -27q79 0 79 56q0 45 -36 94q-59 -71 -130 -123zM378 -181v-50h-194v50h43q-17 15 -17 44q0 33 21.5 53.5t57.5 20.5q35 0 56 -19t21 -50q0 -11 -1 -14h-45v4
q0 12 -9 19t-22 7q-30 0 -30 -27q0 -38 77 -38h42z" />
    <glyph glyph-name="aLam_aAlif.isol" unicode="&#xfedf;&#xfe8e;" horiz-adv-x="695" arabic-form="isolated" 
d="M517 669h112q15 -51 15 -118q0 -116 -67 -228q76 -92 76 -181q0 -76 -47.5 -124t-131.5 -48q-59 0 -112 23t-81 59q-109 -52 -209 -52q-31 0 -49 6l-7 127q22 -2 62 -2q111 0 210.5 48t163.5 130q-124 91 -280 91q-56 0 -96 -15v115q44 19 106 19q82 0 166 -33.5
t155 -89.5q29 67 29 141q0 70 -15 132zM391 118q46 -27 87 -27q79 0 79 56q0 45 -36 94q-59 -71 -130 -123z" />
    <glyph glyph-name="aLam_aAlif.fina" unicode="&#xfee0;&#xfe8e;" horiz-adv-x="738" arabic-form="final" 
d="M517 669h112q15 -51 15 -118q0 -116 -67 -228q64 -78 74 -156q23 -36 76 -36h11l16 -11v-110l-16 -10h-10q-68 0 -100 46q-47 -76 -154 -76q-59 0 -112 23t-81 59q-109 -52 -209 -52q-31 0 -49 6l-7 127q22 -2 62 -2q111 0 210.5 48t163.5 130q-124 91 -280 91
q-58 0 -96 -15v115q44 19 106 19q82 0 166 -33.5t155 -89.5q29 67 29 141q0 70 -15 132zM391 118q46 -27 87 -27q79 0 79 56q0 45 -36 94q-59 -71 -130 -123z" />
    <glyph glyph-name="aLam_aLam_aHeh.isol" unicode="&#xfedf;&#xfee0;&#xfeea;" horiz-adv-x="1024" 
d="M477 0q-90 0 -142 60q-46 -70 -147 -70q-75 0 -119 43t-44 118q0 66 36 113t123 88q41 17 108 38v69h105v-271q0 -28 24.5 -42.5t64.5 -14.5q89 0 89 57v341h107v-338q0 -60 92 -60q47 0 68.5 15.5t21.5 50.5v365h107v-360q0 -99 -50.5 -150.5t-146.5 -51.5
q-125 0 -157 63q-32 -63 -140 -63zM292 150v129q-32 -7 -70 -19q-51 -17 -72 -38t-21 -49q0 -53 72 -53q58 0 91 30z" />
    <glyph glyph-name="aLam_aAlifWasla.fina" unicode="&#xfee0;&#xfb51;" horiz-adv-x="738" 
d="M517 669h112q15 -51 15 -118q0 -116 -67 -228q64 -78 74 -156q23 -36 76 -36h11l16 -11v-110l-16 -10h-10q-68 0 -100 46q-47 -76 -154 -76q-59 0 -112 23t-81 59q-109 -52 -209 -52q-31 0 -49 6l-7 127q22 -2 62 -2q111 0 210.5 48t163.5 130q-124 91 -280 91
q-58 0 -96 -15v115q44 19 106 19q82 0 166 -33.5t155 -89.5q29 67 29 141q0 70 -15 132zM391 118q46 -27 87 -27q79 0 79 56q0 45 -36 94q-59 -71 -130 -123zM206 726q36 0 58.5 -21t22.5 -57q0 -34 -24 -46.5t-95 -12.5h-88l-3 50h26q9 39 37 63t66 24zM136 639h59
q46 0 46 10q0 26 -39 26q-43 0 -66 -36z" />
    <glyph glyph-name="aLam_aAlifWasla.isol" unicode="&#xfedf;&#xfb51;" horiz-adv-x="695" 
d="M517 669h112q15 -51 15 -118q0 -116 -67 -228q76 -92 76 -181q0 -76 -47.5 -124t-131.5 -48q-59 0 -112 23t-81 59q-109 -52 -209 -52q-31 0 -49 6l-7 127q22 -2 62 -2q111 0 210.5 48t163.5 130q-124 91 -280 91q-56 0 -96 -15v115q44 19 106 19q82 0 166 -33.5
t155 -89.5q29 67 29 141q0 70 -15 132zM391 118q46 -27 87 -27q79 0 79 56q0 45 -36 94q-59 -71 -130 -123zM206 726q36 0 58.5 -21t22.5 -57q0 -34 -24 -46.5t-95 -12.5h-88l-3 50h26q9 39 37 63t66 24zM136 639h59q46 0 46 10q0 26 -39 26q-43 0 -66 -36z" />
    <glyph glyph-name="aFehdotless.init" unicode="&#x6a1;" horiz-adv-x="461" 
d="M196 206q-81 0 -128 44t-47 120q0 84 51.5 143t125.5 59q91 0 156 -92t65 -222q0 -133 -77.5 -195.5t-242.5 -62.5h-99l-16 10v110l16 11h88q128 0 180.5 23.5t54.5 82.5q-54 -31 -127 -31zM197 455q-35 0 -58.5 -23.5t-23.5 -60.5q0 -61 96 -61q57 0 103 22
q-13 55 -44.5 89t-72.5 34z" />
    <glyph glyph-name="aFehdotless.medi" unicode="&#x6a1;" horiz-adv-x="486" 
d="M502 121v-111l-16 -10h-24q-114 0 -224 52q-110 -52 -226 -52h-12l-16 10v111l16 10h45q44 0 76 4q-65 68 -65 140q0 79 53.5 132t131.5 53q80 0 133 -55t53 -140q0 -69 -67 -131q30 -3 62 -3h64zM332 261q0 34 -27 57t-66 23q-38 0 -62.5 -19.5t-24.5 -50.5
q0 -63 92 -107q88 38 88 97z" />
    <glyph glyph-name="aFehdotless.fina" unicode="&#x6a1;" horiz-adv-x="887" 
d="M903 121v-111l-16 -10h-25q-118 0 -224 52q-113 -52 -244 -52h-19q-163 1 -251.5 66.5t-88.5 186.5q0 117 76 202l85 -50q-51 -61 -51 -132q0 -69 63.5 -105.5t181.5 -36.5h24q58 0 107 6q-64 69 -64 142q0 75 54 128t130 53q78 0 132 -54.5t54 -135.5q0 -71 -65 -136
q28 -3 60 -3h65zM732 260q0 35 -26 58t-68 23q-38 0 -62 -19.5t-24 -51.5q0 -62 89 -105q91 35 91 95z" />
    <glyph glyph-name="aFeh1belowright.init" unicode="&#x6a2;" horiz-adv-x="461" 
d="M196 206q-81 0 -128 44t-47 120q0 84 51.5 143t125.5 59q91 0 156 -92t65 -222q0 -133 -77.5 -195.5t-242.5 -62.5h-99l-16 10v110l16 11h88q128 0 180.5 23.5t54.5 82.5q-54 -31 -127 -31zM197 455q-35 0 -58.5 -23.5t-23.5 -60.5q0 -61 96 -61q57 0 103 22
q-13 55 -44.5 89t-72.5 34zM267 -116q0 -24 -16 -37t-43 -13t-43 13t-16 37q0 23 16 36.5t43 13.5t43 -13.5t16 -36.5z" />
    <glyph glyph-name="aFeh1belowright.medi" unicode="&#x6a2;" horiz-adv-x="486" 
d="M502 121v-111l-16 -10h-24q-114 0 -224 52q-110 -52 -226 -52h-12l-16 10v111l16 10h45q44 0 76 4q-65 68 -65 140q0 79 53.5 132t131.5 53q80 0 133 -55t53 -140q0 -69 -67 -131q30 -3 62 -3h64zM332 261q0 34 -27 57t-66 23q-38 0 -62.5 -19.5t-24.5 -50.5
q0 -63 92 -107q88 38 88 97zM302 -116q0 -24 -16 -37t-43 -13t-43 13t-16 37q0 23 16 36.5t43 13.5t43 -13.5t16 -36.5z" />
    <glyph glyph-name="aFeh1belowright.fina" unicode="&#x6a2;" horiz-adv-x="887" 
d="M903 121v-111l-16 -10h-25q-118 0 -224 52q-113 -52 -244 -52h-19q-163 1 -251.5 66.5t-88.5 186.5q0 117 76 202l85 -50q-51 -61 -51 -132q0 -69 63.5 -105.5t181.5 -36.5h24q58 0 107 6q-64 69 -64 142q0 75 54 128t130 53q78 0 132 -54.5t54 -135.5q0 -71 -65 -136
q28 -3 60 -3h65zM732 260q0 35 -26 58t-68 23q-38 0 -62 -19.5t-24 -51.5q0 -62 89 -105q91 35 91 95zM464 -116q0 -24 -16 -37t-43 -13t-43 13t-16 37q0 23 16 36.5t43 13.5t43 -13.5t16 -36.5z" />
    <glyph glyph-name="aFeh3dbelow.init" unicode="&#x6a5;" horiz-adv-x="461" 
d="M196 206q-81 0 -128 44t-47 120q0 84 51.5 143t125.5 59q91 0 156 -92t65 -222q0 -133 -77.5 -195.5t-242.5 -62.5h-99l-16 10v110l16 11h88q128 0 180.5 23.5t54.5 82.5q-54 -31 -127 -31zM197 455q-35 0 -58.5 -23.5t-23.5 -60.5q0 -61 96 -61q57 0 103 22
q-13 55 -44.5 89t-72.5 34zM337 -114q0 -48 -56 -48q-25 0 -40.5 12.5t-15.5 35.5q0 47 56 47t56 -47zM190 -114q0 -48 -56 -48q-25 0 -40.5 12.5t-15.5 35.5q0 47 56 47t56 -47zM264 -227q0 -48 -56 -48q-25 0 -40.5 12.5t-15.5 35.5q0 47 56 47t56 -47z" />
    <glyph glyph-name="aFeh3dbelow.medi" unicode="&#x6a5;" horiz-adv-x="486" 
d="M502 121v-111l-16 -10h-24q-114 0 -224 52q-110 -52 -226 -52h-12l-16 10v111l16 10h45q44 0 76 4q-65 68 -65 140q0 79 53.5 132t131.5 53q80 0 133 -55t53 -140q0 -69 -67 -131q30 -3 62 -3h64zM332 261q0 34 -27 57t-66 23q-38 0 -62.5 -19.5t-24.5 -50.5
q0 -63 92 -107q88 38 88 97zM372 -114q0 -48 -56 -48q-25 0 -40.5 12.5t-15.5 35.5q0 47 56 47t56 -47zM225 -114q0 -48 -56 -48q-25 0 -40.5 12.5t-15.5 35.5q0 47 56 47t56 -47zM299 -227q0 -48 -56 -48q-25 0 -40.5 12.5t-15.5 35.5q0 47 56 47t56 -47z" />
    <glyph glyph-name="aFeh3dbelow.fina" unicode="&#x6a5;" horiz-adv-x="887" 
d="M903 121v-111l-16 -10h-25q-118 0 -224 52q-113 -52 -244 -52h-19q-163 1 -251.5 66.5t-88.5 186.5q0 117 76 202l85 -50q-51 -61 -51 -132q0 -69 63.5 -105.5t181.5 -36.5h24q58 0 107 6q-64 69 -64 142q0 75 54 128t130 53q78 0 132 -54.5t54 -135.5q0 -71 -65 -136
q28 -3 60 -3h65zM732 260q0 35 -26 58t-68 23q-38 0 -62 -19.5t-24 -51.5q0 -62 89 -105q91 35 91 95zM534 -114q0 -48 -56 -48q-25 0 -40.5 12.5t-15.5 35.5q0 47 56 47t56 -47zM387 -114q0 -48 -56 -48q-25 0 -40.5 12.5t-15.5 35.5q0 47 56 47t56 -47zM461 -227
q0 -48 -56 -48q-25 0 -40.5 12.5t-15.5 35.5q0 47 56 47t56 -47z" />
    <glyph glyph-name="aQaf1above.init" unicode="&#x6a7;" horiz-adv-x="461" 
d="M196 206q-81 0 -128 44t-47 120q0 84 51.5 143t125.5 59q91 0 156 -92t65 -222q0 -133 -77.5 -195.5t-242.5 -62.5h-99l-16 10v110l16 11h88q128 0 180.5 23.5t54.5 82.5q-54 -31 -127 -31zM197 455q-35 0 -58.5 -23.5t-23.5 -60.5q0 -61 96 -61q57 0 103 22
q-13 55 -44.5 89t-72.5 34zM258 693q0 -24 -16 -37t-43 -13t-43 13t-16 37q0 23 16 36t43 13t43 -13t16 -36z" />
    <glyph glyph-name="aQaf1above.medi" unicode="&#x6a7;" horiz-adv-x="486" 
d="M502 121v-111l-16 -10h-24q-114 0 -224 52q-110 -52 -226 -52h-12l-16 10v111l16 10h45q44 0 76 4q-65 68 -65 140q0 79 53.5 132t131.5 53q80 0 133 -55t53 -140q0 -69 -67 -131q30 -3 62 -3h64zM332 261q0 34 -27 57t-66 23q-38 0 -62.5 -19.5t-24.5 -50.5
q0 -63 92 -107q88 38 88 97zM300 577q0 -24 -16 -37t-43 -13t-43 13t-16 37q0 23 16 36t43 13t43 -13t16 -36z" />
    <glyph glyph-name="aQaf1above.fina" unicode="&#x6a7;" horiz-adv-x="733" 
d="M749 120v-110l-16 -10h-72q-30 -91 -114 -141.5t-209 -50.5q-145 0 -224 73t-79 208q0 131 97 237l83 -61q-70 -86 -70 -168q0 -74 50 -115.5t141 -41.5q164 0 224 73h-104q-81 0 -129 49.5t-48 132.5q0 88 52 150t124 62q86 0 148.5 -79.5t72.5 -196.5h57zM457 287
q-36 0 -59.5 -25t-23.5 -64q0 -67 102 -67h101q-10 67 -43.5 111.5t-76.5 44.5zM514 548q0 -24 -16 -37t-43 -13t-43 13t-16 37q0 23 16 36t43 13t43 -13t16 -36z" />
    <glyph glyph-name="aQaf3uabove.init" unicode="&#x6a8;" horiz-adv-x="461" 
d="M196 206q-81 0 -128 44t-47 120q0 84 51.5 143t125.5 59q91 0 156 -92t65 -222q0 -133 -77.5 -195.5t-242.5 -62.5h-99l-16 10v110l16 11h88q128 0 180.5 23.5t54.5 82.5q-54 -31 -127 -31zM197 455q-35 0 -58.5 -23.5t-23.5 -60.5q0 -61 96 -61q57 0 103 22
q-13 55 -44.5 89t-72.5 34zM255 802q0 -48 -56 -48q-25 0 -40.5 12.5t-15.5 35.5q0 47 56 47t56 -47zM182 691q0 -48 -56 -48q-25 0 -40.5 12.5t-15.5 35.5q0 47 56 47t56 -47zM328 691q0 -48 -56 -48q-25 0 -40.5 12.5t-15.5 35.5q0 47 56 47t56 -47z" />
    <glyph glyph-name="aQaf3uabove.medi" unicode="&#x6a8;" horiz-adv-x="486" 
d="M502 121v-111l-16 -10h-24q-114 0 -224 52q-110 -52 -226 -52h-12l-16 10v111l16 10h45q44 0 76 4q-65 68 -65 140q0 79 53.5 132t131.5 53q80 0 133 -55t53 -140q0 -69 -67 -131q30 -3 62 -3h64zM332 261q0 34 -27 57t-66 23q-38 0 -62.5 -19.5t-24.5 -50.5
q0 -63 92 -107q88 38 88 97zM297 686q0 -48 -56 -48q-25 0 -40.5 12.5t-15.5 35.5q0 47 56 47t56 -47zM224 575q0 -48 -56 -48q-25 0 -40.5 12.5t-15.5 35.5q0 47 56 47t56 -47zM370 575q0 -48 -56 -48q-25 0 -40.5 12.5t-15.5 35.5q0 47 56 47t56 -47z" />
    <glyph glyph-name="aQaf3uabove.fina" unicode="&#x6a8;" horiz-adv-x="733" 
d="M749 120v-110l-16 -10h-72q-30 -91 -114 -141.5t-209 -50.5q-145 0 -224 73t-79 208q0 131 97 237l83 -61q-70 -86 -70 -168q0 -74 50 -115.5t141 -41.5q164 0 224 73h-104q-81 0 -129 49.5t-48 132.5q0 88 52 150t124 62q86 0 148.5 -79.5t72.5 -196.5h57zM457 287
q-36 0 -59.5 -25t-23.5 -64q0 -67 102 -67h101q-10 67 -43.5 111.5t-76.5 44.5zM511 657q0 -48 -56 -48q-25 0 -40.5 12.5t-15.5 35.5q0 47 56 47t56 -47zM438 546q0 -48 -56 -48q-25 0 -40.5 12.5t-15.5 35.5q0 47 56 47t56 -47zM584 546q0 -48 -56 -48q-25 0 -40.5 12.5
t-15.5 35.5q0 47 56 47t56 -47z" />
    <glyph glyph-name="aNunGhunna.init" unicode="&#x6ba;" horiz-adv-x="275" 
d="M27 0h-27l-16 10v110l16 11h20q107 0 107 93q0 69 -61 173l94 54q75 -107 75 -226q0 -107 -54 -166t-154 -59z" />
    <glyph glyph-name="aNunGhunna.medi" unicode="&#x6ba;" horiz-adv-x="328" 
d="M344 120v-110l-17 -10h-9q-53 0 -92 20t-57 54q-14 -33 -56.5 -53.5t-96.5 -20.5h-16l-16 10v110l16 11h15q96 0 96 79v160h105v-151q0 -88 99 -88h12z" />
    <glyph glyph-name="aHehGoalHamzaabove.fina" unicode="&#x6c2;" horiz-adv-x="542" 
d="M558 120v-109l-16 -11h-12q-64 0 -108.5 31t-92.5 109q-27 45 -49.5 63t-47.5 18q-62 0 -114 -100l-91 44q75 179 209 179q47 0 84 -24t79 -82q44 -62 72 -84.5t63 -22.5h8zM333 479v-50h-194v50h43q-17 15 -17 44q0 33 21.5 53.5t57.5 20.5q35 0 56 -19t21 -50
q0 -11 -1 -14h-45v4q0 12 -9 19t-22 7q-30 0 -30 -27q0 -38 77 -38h42z" />
    <glyph glyph-name="aTehMarbutaGoal.fina" unicode="&#x6c3;" horiz-adv-x="542" 
d="M558 120v-109l-16 -11h-12q-64 0 -108.5 31t-92.5 109q-27 45 -49.5 63t-47.5 18q-62 0 -114 -100l-91 44q75 179 209 179q47 0 84 -24t79 -82q44 -62 72 -84.5t63 -22.5h8zM218 477q0 -49 -57 -49q-26 0 -41.5 12.5t-15.5 36.5q0 23 15 35.5t42 12.5t42 -12.5t15 -35.5z
M368 477q0 -49 -58 -49q-25 0 -40.5 12.5t-15.5 36.5q0 48 56 48q58 0 58 -48z" />
    <glyph glyph-name="aAe.fina" unicode="&#x6d5;" horiz-adv-x="492" 
d="M508 121v-111l-16 -10h-14q-93 0 -144 60q-46 -70 -147 -70q-75 0 -118.5 43t-43.5 118q0 69 37 115.5t122 85.5q42 19 108 37v70h105v-271q0 -27 23 -42t66 -15h6zM292 150v129q-29 -8 -70 -20q-50 -17 -72 -37t-22 -49q0 -53 73 -53q55 0 91 30z" />
    <glyph glyph-name="aAlifWasla.isol" unicode="&#x671;" horiz-adv-x="213" arabic-form="isolated" 
d="M160 667l-1 -689h-104l-2 689h107zM130 877q36 0 58.5 -21t22.5 -57q0 -34 -24 -46.5t-95 -12.5h-88l-3 50h26q9 39 37 63t66 24zM60 790h59q46 0 46 10q0 26 -39 26q-43 0 -66 -36z" />
    <glyph glyph-name="aAlifWasla.fina" unicode="&#x671;" horiz-adv-x="261" arabic-form="final" 
d="M277 120v-110l-16 -10h-7q-38 0 -69 15t-43 39q-5 -54 -12 -80l-96 10q24 131 24 387q0 88 -0.5 179t-0.5 117h107v-465q0 -32 23 -51.5t62 -19.5h12zM131 877q36 0 58.5 -21t22.5 -57q0 -34 -24 -46.5t-95 -12.5h-88l-3 50h26q9 39 37 63t66 24zM61 790h59q46 0 46 10
q0 26 -39 26q-43 0 -66 -36z" />
    <glyph glyph-name="aPeh.isol" unicode="&#x67e;" horiz-adv-x="796" arabic-form="isolated" 
d="M408 0h-38q-163 2 -249 67.5t-86 185.5q0 117 76 202l85 -50q-51 -64 -51 -133q0 -67 63.5 -104t182.5 -37h41q216 0 216 100q0 57 -42 143l95 52q55 -82 55 -196q0 -230 -348 -230zM523 -114q0 -48 -56 -48q-25 0 -40.5 12.5t-15.5 35.5q0 47 56 47t56 -47zM376 -114
q0 -48 -56 -48q-25 0 -40.5 12.5t-15.5 35.5q0 47 56 47t56 -47zM450 -227q0 -48 -56 -48q-25 0 -40.5 12.5t-15.5 35.5q0 47 56 47t56 -47z" />
    <glyph glyph-name="aPeh.fina" unicode="&#x67e;" horiz-adv-x="869" arabic-form="final" 
d="M885 120v-110l-16 -10h-9q-55 0 -97 19.5t-57 58.5q-40 -78 -261 -78h-69q-165 0 -253 67t-88 185q0 116 76 203l85 -50q-51 -64 -51 -133q0 -67 64 -104t181 -37h46q122 0 169.5 21t47.5 74v144h105v-151q0 -88 99 -88h12zM543 -114q0 -48 -56 -48q-25 0 -40.5 12.5
t-15.5 35.5q0 47 56 47t56 -47zM396 -114q0 -48 -56 -48q-25 0 -40.5 12.5t-15.5 35.5q0 47 56 47t56 -47zM470 -227q0 -48 -56 -48q-25 0 -40.5 12.5t-15.5 35.5q0 47 56 47t56 -47z" />
    <glyph glyph-name="aPeh.init" unicode="&#x67e;" horiz-adv-x="275" arabic-form="initial" 
d="M27 0h-27l-16 10v110l16 11h20q107 0 107 93q0 69 -61 173l94 54q75 -107 75 -226q0 -107 -54 -166t-154 -59zM265 -114q0 -48 -56 -48q-25 0 -40.5 12.5t-15.5 35.5q0 47 56 47t56 -47zM118 -114q0 -48 -56 -48q-25 0 -40.5 12.5t-15.5 35.5q0 47 56 47t56 -47z
M192 -227q0 -48 -56 -48q-25 0 -40.5 12.5t-15.5 35.5q0 47 56 47t56 -47z" />
    <glyph glyph-name="aPeh.medi" unicode="&#x67e;" horiz-adv-x="328" arabic-form="medial" 
d="M344 120v-110l-17 -10h-9q-53 0 -92 20t-57 54q-14 -33 -56.5 -53.5t-96.5 -20.5h-16l-16 10v110l16 11h15q96 0 96 79v160h105v-151q0 -88 99 -88h12zM293 -114q0 -48 -56 -48q-25 0 -40.5 12.5t-15.5 35.5q0 47 56 47t56 -47zM146 -114q0 -48 -56 -48q-25 0 -40.5 12.5
t-15.5 35.5q0 47 56 47t56 -47zM220 -227q0 -48 -56 -48q-25 0 -40.5 12.5t-15.5 35.5q0 47 56 47t56 -47z" />
    <glyph glyph-name="aTteh.isol" unicode="&#x679;" horiz-adv-x="796" arabic-form="isolated" 
d="M408 0h-38q-163 2 -249 67.5t-86 185.5q0 117 76 202l85 -50q-51 -64 -51 -133q0 -67 63.5 -104t182.5 -37h41q216 0 216 100q0 57 -42 143l95 52q55 -82 55 -196q0 -230 -348 -230zM318 495l44 141l44 -12l-23 -56q24 11 45 11q34 0 54 -21t20 -55q0 -32 -23.5 -45
t-82.5 -13h-100l-4 50h26zM352 495h55q49 0 49 10q0 24 -37 24q-45 0 -67 -34z" />
    <glyph glyph-name="aTteh.fina" unicode="&#x679;" horiz-adv-x="869" arabic-form="final" 
d="M885 120v-110l-16 -10h-9q-55 0 -97 19.5t-57 58.5q-40 -78 -261 -78h-69q-165 0 -253 67t-88 185q0 116 76 203l85 -50q-51 -64 -51 -133q0 -67 64 -104t181 -37h46q122 0 169.5 21t47.5 74v144h105v-151q0 -88 99 -88h12zM359 495l44 141l44 -12l-23 -56q24 11 45 11
q34 0 54 -21t20 -55q0 -32 -23.5 -45t-82.5 -13h-100l-4 50h26zM393 495h55q49 0 49 10q0 24 -37 24q-45 0 -67 -34z" />
    <glyph glyph-name="aTteh.init" unicode="&#x679;" horiz-adv-x="275" arabic-form="initial" 
d="M27 0h-27l-16 10v110l16 11h20q107 0 107 93q0 69 -61 173l94 54q75 -107 75 -226q0 -107 -54 -166t-154 -59zM40 578l44 141l44 -12l-23 -56q24 11 45 11q34 0 54 -21t20 -55q0 -32 -23.5 -45t-82.5 -13h-100l-4 50h26zM74 578h55q49 0 49 10q0 24 -37 24q-45 0 -67 -34
z" />
    <glyph glyph-name="aTteh.medi" unicode="&#x679;" horiz-adv-x="328" arabic-form="medial" 
d="M344 120v-110l-17 -10h-9q-53 0 -92 20t-57 54q-14 -33 -56.5 -53.5t-96.5 -20.5h-16l-16 10v110l16 11h15q96 0 96 79v160h105v-151q0 -88 99 -88h12zM83 495l44 141l44 -12l-23 -56q24 11 45 11q34 0 54 -21t20 -55q0 -32 -23.5 -45t-82.5 -13h-100l-4 50h26zM117 495
h55q49 0 49 10q0 24 -37 24q-45 0 -67 -34z" />
    <glyph glyph-name="aVeh.isol" unicode="&#x6a4;" horiz-adv-x="800" arabic-form="isolated" 
d="M536 206q-81 0 -128 43.5t-47 120.5q0 84 51 143t124 59q93 0 158 -93.5t65 -228.5q0 -129 -81.5 -189.5t-255.5 -60.5h-37q-170 0 -260 65t-90 188q0 117 76 202l85 -50q-51 -61 -51 -133q0 -68 64 -104.5t183 -36.5h27q130 0 187 24.5t57 80.5q-52 -30 -127 -30z
M536 455q-35 0 -58 -24t-23 -60q0 -32 23 -46.5t74 -14.5q55 0 102 21q-12 56 -44 90t-74 34zM589 802q0 -48 -56 -48q-25 0 -40.5 12.5t-15.5 35.5q0 47 56 47t56 -47zM516 691q0 -48 -56 -48q-25 0 -40.5 12.5t-15.5 35.5q0 47 56 47t56 -47zM662 691q0 -48 -56 -48
q-25 0 -40.5 12.5t-15.5 35.5q0 47 56 47t56 -47z" />
    <glyph glyph-name="aVeh.fina" unicode="&#x6a4;" horiz-adv-x="887" arabic-form="final" 
d="M903 121v-111l-16 -10h-25q-118 0 -224 52q-113 -52 -244 -52h-19q-163 1 -251.5 66.5t-88.5 186.5q0 117 76 202l85 -50q-51 -61 -51 -132q0 -69 63.5 -105.5t181.5 -36.5h24q58 0 107 6q-64 69 -64 142q0 75 54 128t130 53q78 0 132 -54.5t54 -135.5q0 -71 -65 -136
q28 -3 60 -3h65zM732 260q0 35 -26 58t-68 23q-38 0 -62 -19.5t-24 -51.5q0 -62 89 -105q91 35 91 95zM697 686q0 -48 -56 -48q-25 0 -40.5 12.5t-15.5 35.5q0 47 56 47t56 -47zM624 575q0 -48 -56 -48q-25 0 -40.5 12.5t-15.5 35.5q0 47 56 47t56 -47zM770 575
q0 -48 -56 -48q-25 0 -40.5 12.5t-15.5 35.5q0 47 56 47t56 -47z" />
    <glyph glyph-name="aVeh.init" unicode="&#x6a4;" horiz-adv-x="461" arabic-form="initial" 
d="M196 206q-81 0 -128 44t-47 120q0 84 51.5 143t125.5 59q91 0 156 -92t65 -222q0 -133 -77.5 -195.5t-242.5 -62.5h-99l-16 10v110l16 11h88q128 0 180.5 23.5t54.5 82.5q-54 -31 -127 -31zM197 455q-35 0 -58.5 -23.5t-23.5 -60.5q0 -61 96 -61q57 0 103 22
q-13 55 -44.5 89t-72.5 34zM255 802q0 -48 -56 -48q-25 0 -40.5 12.5t-15.5 35.5q0 47 56 47t56 -47zM182 691q0 -48 -56 -48q-25 0 -40.5 12.5t-15.5 35.5q0 47 56 47t56 -47zM328 691q0 -48 -56 -48q-25 0 -40.5 12.5t-15.5 35.5q0 47 56 47t56 -47z" />
    <glyph glyph-name="aVeh.medi" unicode="&#x6a4;" horiz-adv-x="486" arabic-form="medial" 
d="M502 121v-111l-16 -10h-24q-114 0 -224 52q-110 -52 -226 -52h-12l-16 10v111l16 10h45q44 0 76 4q-65 68 -65 140q0 79 53.5 132t131.5 53q80 0 133 -55t53 -140q0 -69 -67 -131q30 -3 62 -3h64zM332 261q0 34 -27 57t-66 23q-38 0 -62.5 -19.5t-24.5 -50.5
q0 -63 92 -107q88 38 88 97zM297 686q0 -48 -56 -48q-25 0 -40.5 12.5t-15.5 35.5q0 47 56 47t56 -47zM224 575q0 -48 -56 -48q-25 0 -40.5 12.5t-15.5 35.5q0 47 56 47t56 -47zM370 575q0 -48 -56 -48q-25 0 -40.5 12.5t-15.5 35.5q0 47 56 47t56 -47z" />
    <glyph glyph-name="aTcheh.isol" unicode="&#x686;" horiz-adv-x="603" arabic-form="isolated" 
d="M543 -92l32 -114q-36 -38 -109 -61.5t-153 -23.5q-126 0 -209.5 62.5t-83.5 169.5q0 108 106.5 190t293.5 118q-17 13 -70 49q-70 41 -122 41q-38 0 -60.5 -22t-22.5 -55q0 -21 7 -37l-88 -42q-27 39 -27 97q0 76 53.5 127.5t137.5 51.5q86 0 191 -74q22 -15 58 -43
t60.5 -45t43.5 -25l-26 -125q-178 -9 -300.5 -62.5t-122.5 -133.5q0 -55 49 -82.5t125 -27.5q134 0 237 67zM297 -1q0 -35 -44 -35q-18 0 -31 9.5t-13 25.5q0 38 44 38t44 -38zM413 0q0 -36 -44 -36q-18 0 -31 9.5t-13 26.5t12 27t32 10q44 0 44 -37zM355 -74q0 -36 -44 -36
q-43 0 -43 36t43 36q44 0 44 -36z" />
    <glyph glyph-name="aTcheh.fina" unicode="&#x686;" horiz-adv-x="640" arabic-form="final" 
d="M543 -92l32 -114q-36 -38 -109 -61.5t-153 -23.5q-126 0 -209.5 62.5t-83.5 169.5q0 108 106.5 190t293.5 118q-17 13 -70 49q-70 41 -122 41q-38 0 -60.5 -22t-22.5 -55q0 -21 7 -37l-88 -42q-27 39 -27 97q0 76 53.5 127.5t137.5 51.5q86 0 191 -74q22 -15 58 -43
t60.5 -45t43.5 -25l-20 -95q14 -46 72 -46h6l17 -11v-110l-17 -10h-5q-66 0 -102.5 39.5t-37.5 102.5q-156 -16 -259 -67.5t-103 -123.5q0 -55 49 -82.5t125 -27.5q134 0 237 67zM293 1q0 -35 -44 -35q-18 0 -31 9.5t-13 25.5q0 38 44 38t44 -38zM409 2q0 -36 -44 -36
q-18 0 -31 9.5t-13 26.5t12 27t32 10q44 0 44 -37zM351 -72q0 -36 -44 -36q-43 0 -43 36t43 36q44 0 44 -36z" />
    <glyph glyph-name="aTcheh.init" unicode="&#x686;" horiz-adv-x="617" arabic-form="initial" 
d="M595 242l-25 -124q-36 0 -123.5 -29.5t-199.5 -59t-210 -29.5h-37l-16 10v110l16 11h39q66 0 132.5 12t157 37t110.5 30q-35 28 -60 44q-86 59 -139 59q-36 0 -58 -20t-22 -52q0 -19 6 -29l-97 -26q-16 29 -16 71q0 80 53.5 128t133.5 48q84 0 200 -83q12 -9 40 -30.5
t44 -33t36.5 -25t34.5 -19.5zM420 -114q0 -48 -56 -48q-25 0 -40.5 12.5t-15.5 35.5q0 47 56 47t56 -47zM273 -114q0 -48 -56 -48q-25 0 -40.5 12.5t-15.5 35.5q0 47 56 47t56 -47zM347 -227q0 -48 -56 -48q-25 0 -40.5 12.5t-15.5 35.5q0 47 56 47t56 -47z" />
    <glyph glyph-name="aTcheh.medi" unicode="&#x686;" horiz-adv-x="655" arabic-form="medial" 
d="M671 120v-110l-16 -10h-7q-52 0 -87.5 29t-37.5 83q-32 -7 -122.5 -37.5t-184 -52.5t-179.5 -22h-37l-16 10v110l16 11h39q66 0 132.5 12t157 37t110.5 30q-35 28 -60 44q-86 59 -139 59q-36 0 -58 -20t-22 -52q0 -19 6 -29l-97 -26q-16 29 -16 71q0 80 53.5 128
t133.5 48q84 0 200 -83q12 -9 40 -30.5t44 -33t36.5 -25t34.5 -19.5l-15 -71q10 -38 67 -40h8zM420 -114q0 -48 -56 -48q-25 0 -40.5 12.5t-15.5 35.5q0 47 56 47t56 -47zM273 -114q0 -48 -56 -48q-25 0 -40.5 12.5t-15.5 35.5q0 47 56 47t56 -47zM347 -227q0 -48 -56 -48
q-25 0 -40.5 12.5t-15.5 35.5q0 47 56 47t56 -47z" />
    <glyph glyph-name="aDdal.isol" unicode="&#x688;" horiz-adv-x="528" arabic-form="isolated" 
d="M22 131h273q54 0 73.5 10t19.5 39q0 54 -93 54h-69q-91 0 -131.5 38.5t-40.5 124.5q0 59 8 85h106q-5 -35 -5 -68q0 -62 64 -62h52q106 0 164 -48.5t58 -137.5q0 -87 -56 -126.5t-178 -39.5h-239zM239 502l44 141l44 -12l-23 -56q24 11 45 11q34 0 54 -21t20 -55
q0 -32 -23.5 -45t-82.5 -13h-100l-4 50h26zM273 502h55q49 0 49 10q0 24 -37 24q-45 0 -67 -34z" />
    <glyph glyph-name="aDdal.fina" unicode="&#x688;" horiz-adv-x="564" arabic-form="final" 
d="M580 120v-110l-17 -10h-8q-67 0 -96 51q-55 -51 -192 -51h-239l-6 131h272q55 0 74.5 10t19.5 39q0 54 -94 54h-68q-91 0 -131.5 38.5t-40.5 124.5q0 59 8 85h106q-5 -35 -5 -68q0 -62 64 -62h52q106 0 164 -48.5t58 -137.5q0 -13 -1 -18q19 -17 55 -17h9zM237 502
l44 141l44 -12l-23 -56q24 11 45 11q34 0 54 -21t20 -55q0 -32 -23.5 -45t-82.5 -13h-100l-4 50h26zM271 502h55q49 0 49 10q0 24 -37 24q-45 0 -67 -34z" />
    <glyph glyph-name="aJeh.isol" unicode="&#x698;" horiz-adv-x="475" arabic-form="isolated" 
d="M-37 -155l23 113q52 -22 112 -22q98 0 162.5 55t64.5 140q0 94 -69 213l103 54q78 -121 78 -265q0 -149 -86.5 -237t-233.5 -88q-103 0 -154 37zM356 615q0 -48 -56 -48q-25 0 -40.5 12.5t-15.5 35.5q0 47 56 47t56 -47zM283 504q0 -48 -56 -48q-25 0 -40.5 12.5
t-15.5 35.5q0 47 56 47t56 -47zM429 504q0 -48 -56 -48q-25 0 -40.5 12.5t-15.5 35.5q0 47 56 47t56 -47z" />
    <glyph glyph-name="aJeh.fina" unicode="&#x698;" horiz-adv-x="548" arabic-form="final" 
d="M564 120v-109l-16 -11h-7q-38 0 -68 17.5t-42 45.5q-20 -120 -102 -187.5t-210 -67.5q-105 0 -156 37l23 113q52 -22 113 -22q98 0 162 55t64 139q0 75 -62 218l102 50l67 -172q23 -55 48 -75t60 -20h8zM356 615q0 -48 -56 -48q-25 0 -40.5 12.5t-15.5 35.5q0 47 56 47
t56 -47zM283 504q0 -48 -56 -48q-25 0 -40.5 12.5t-15.5 35.5q0 47 56 47t56 -47zM429 504q0 -48 -56 -48q-25 0 -40.5 12.5t-15.5 35.5q0 47 56 47t56 -47z" />
    <glyph glyph-name="aRreh.isol" unicode="&#x691;" horiz-adv-x="475" arabic-form="isolated" 
d="M-37 -155l23 113q52 -22 112 -22q98 0 162.5 55t64.5 140q0 94 -69 213l103 54q78 -121 78 -265q0 -149 -86.5 -237t-233.5 -88q-103 0 -154 37zM219 507l44 141l44 -12l-23 -56q24 11 45 11q34 0 54 -21t20 -55q0 -32 -23.5 -45t-82.5 -13h-100l-4 50h26zM253 507h55
q49 0 49 10q0 24 -37 24q-45 0 -67 -34z" />
    <glyph glyph-name="aRreh.fina" unicode="&#x691;" horiz-adv-x="548" arabic-form="final" 
d="M564 120v-109l-16 -11h-7q-38 0 -68 17.5t-42 45.5q-20 -120 -102 -187.5t-210 -67.5q-105 0 -156 37l23 113q52 -22 113 -22q98 0 162 55t64 139q0 75 -62 218l102 50l67 -172q23 -55 48 -75t60 -20h8zM219 507l44 141l44 -12l-23 -56q24 11 45 11q34 0 54 -21t20 -55
q0 -32 -23.5 -45t-82.5 -13h-100l-4 50h26zM253 507h55q49 0 49 10q0 24 -37 24q-45 0 -67 -34z" />
    <glyph glyph-name="aKeheh.isol" unicode="&#x6a9;" horiz-adv-x="743" arabic-form="isolated" 
d="M499 249h-224q-70 0 -108 31t-38 80q0 65 67 146.5t181 160.5l69 -92q-209 -152 -209 -191q0 -19 30 -19h207q115 0 175.5 -51t60.5 -152q0 -84 -51.5 -123t-169.5 -39h-462l-7 131h489q53 0 71.5 10.5t18.5 39.5q0 31 -26.5 49.5t-73.5 18.5z" />
    <glyph glyph-name="aKeheh.fina" unicode="&#x6a9;" horiz-adv-x="770" arabic-form="final" 
d="M786 120v-110l-16 -10h-7q-62 0 -94 47q-52 -47 -180 -47h-462l-7 131h489q53 0 71.5 10.5t18.5 39.5q0 31 -27 49.5t-73 18.5h-224q-72 0 -109 30.5t-37 80.5q0 65 67 146.5t181 160.5l69 -92q-209 -152 -209 -191q0 -19 30 -19h207q115 0 175.5 -51t60.5 -152
q0 -13 -1 -16q19 -15 54 -15h7z" />
    <glyph glyph-name="aKeheh.init" unicode="&#x6a9;" horiz-adv-x="643" arabic-form="initial" 
d="M389 0h-389l-16 11v109l16 11h410q52 0 71 10.5t19 39.5q0 31 -27 49.5t-73 18.5h-224q-72 0 -109.5 31t-37.5 80q0 65 67 146t182 161l69 -92q-209 -152 -209 -191q0 -19 29 -19h208q115 0 175 -51t60 -152q0 -84 -51.5 -123t-169.5 -39z" />
    <glyph glyph-name="aKeheh.medi" unicode="&#x6a9;" horiz-adv-x="671" arabic-form="medial" 
d="M687 120v-110l-16 -10h-8q-63 0 -94 48q-49 -48 -180 -48h-389l-16 11v109l16 11h409q53 0 71.5 10.5t18.5 39.5q0 31 -27 49.5t-73 18.5h-223q-72 0 -109.5 31t-37.5 80q0 65 67 146t182 161l69 -92q-209 -152 -209 -191q0 -19 29 -19h208q115 0 175 -51t60 -152
q0 -12 -1 -15q19 -16 54 -16h8z" />
    <glyph glyph-name="aGaf.isol" unicode="&#x6af;" horiz-adv-x="743" arabic-form="isolated" 
d="M499 249h-224q-70 0 -108 31t-38 80q0 65 67 146.5t181 160.5l69 -92q-209 -152 -209 -191q0 -19 30 -19h207q115 0 175.5 -51t60.5 -152q0 -84 -51.5 -123t-169.5 -39h-462l-7 131h489q53 0 71.5 10.5t18.5 39.5q0 31 -26.5 49.5t-73.5 18.5zM281 770l49 -63
q-46 -35 -105 -91.5t-94 -99.5l-50 62q31 41 89 97t111 95z" />
    <glyph glyph-name="aGaf.fina" unicode="&#x6af;" horiz-adv-x="770" arabic-form="final" 
d="M786 120v-110l-16 -10h-7q-62 0 -94 47q-52 -47 -180 -47h-462l-7 131h489q53 0 71.5 10.5t18.5 39.5q0 31 -27 49.5t-73 18.5h-224q-72 0 -109 30.5t-37 80.5q0 65 67 146.5t181 160.5l69 -92q-209 -152 -209 -191q0 -19 30 -19h207q115 0 175.5 -51t60.5 -152
q0 -13 -1 -16q19 -15 54 -15h7zM281 770l49 -63q-46 -35 -105 -91.5t-94 -99.5l-50 62q31 41 89 97t111 95z" />
    <glyph glyph-name="aGaf.init" unicode="&#x6af;" horiz-adv-x="643" arabic-form="initial" 
d="M389 0h-389l-16 11v109l16 11h410q52 0 71 10.5t19 39.5q0 31 -27 49.5t-73 18.5h-224q-72 0 -109.5 31t-37.5 80q0 65 67 146t182 161l69 -92q-209 -152 -209 -191q0 -19 29 -19h208q115 0 175 -51t60 -152q0 -84 -51.5 -123t-169.5 -39zM181 770l49 -63
q-46 -35 -105 -91.5t-94 -99.5l-50 62q31 41 89 97t111 95z" />
    <glyph glyph-name="aGaf.medi" unicode="&#x6af;" horiz-adv-x="671" arabic-form="medial" 
d="M687 120v-110l-16 -10h-8q-63 0 -94 48q-49 -48 -180 -48h-389l-16 11v109l16 11h409q53 0 71.5 10.5t18.5 39.5q0 31 -27 49.5t-73 18.5h-223q-72 0 -109.5 31t-37.5 80q0 65 67 146t182 161l69 -92q-209 -152 -209 -191q0 -19 29 -19h208q115 0 175 -51t60 -152
q0 -12 -1 -15q19 -16 54 -16h8zM181 770l49 -63q-46 -35 -105 -91.5t-94 -99.5l-50 62q31 41 89 97t111 95z" />
    <glyph glyph-name="aNunGhunna.isol" unicode="&#x6ba;" horiz-adv-x="632" arabic-form="isolated" 
d="M417 301l99 56q38 -54 61 -126.5t23 -138.5q0 -128 -77 -206t-203 -78q-131 0 -208 74.5t-77 200.5q0 141 97 243l83 -61q-70 -86 -70 -167q0 -75 48.5 -116.5t136.5 -41.5q72 0 115.5 36.5t43.5 96.5q0 112 -72 228z" />
    <glyph glyph-name="aNunGhunna.fina" unicode="&#x6ba;" horiz-adv-x="692" arabic-form="final" 
d="M708 120v-110l-16 -10h-11q-58 0 -88 32q-16 -103 -88 -163.5t-183 -60.5q-132 0 -209.5 75t-77.5 201q0 138 97 242l83 -61q-70 -87 -70 -169q0 -73 48.5 -114.5t139.5 -41.5q73 0 115 38t42 102q0 73 -71 225l101 52q11 -25 31 -74.5t34 -79.5q18 -41 40.5 -56.5
t54.5 -15.5h12z" />
    <glyph glyph-name="aHehYeh.isol" unicode="&#x6c0;" horiz-adv-x="462" arabic-form="isolated" 
d="M231 -6q-94 0 -145.5 54.5t-51.5 153.5q0 97 56 162.5t139 65.5q86 0 142.5 -65.5t56.5 -167.5q0 -203 -197 -203zM325 200q0 45 -28 74t-72 29q-39 0 -64.5 -26.5t-25.5 -65.5q0 -41 25.5 -63t71.5 -22q93 0 93 74zM326 578v-50h-194v50h43q-17 15 -17 44
q0 33 21.5 53.5t57.5 20.5q35 0 56 -19t21 -50q0 -11 -1 -14h-45v4q0 12 -9 19t-22 7q-30 0 -30 -27q0 -38 77 -38h42z" />
    <glyph glyph-name="aHehYeh.fina" unicode="&#x6c0;" horiz-adv-x="492" arabic-form="final" 
d="M508 121v-111l-16 -10h-14q-93 0 -144 60q-46 -70 -147 -70q-75 0 -118.5 43t-43.5 118q0 69 37 115.5t122 85.5q42 19 108 37v70h105v-271q0 -27 23 -42t66 -15h6zM292 150v129q-29 -8 -70 -20q-50 -17 -72 -37t-22 -49q0 -53 73 -53q55 0 91 30zM248 502v-50h-194v50
h43q-17 15 -17 44q0 33 21.5 53.5t57.5 20.5q35 0 56 -19t21 -50q0 -11 -1 -14h-45v4q0 12 -9 19t-22 7q-30 0 -30 -27q0 -38 77 -38h42z" />
    <glyph glyph-name="aHehGoal.isol" unicode="&#x6c1;" horiz-adv-x="462" arabic-form="isolated" 
d="M231 -6q-94 0 -145.5 54.5t-51.5 153.5q0 97 56 162.5t139 65.5q86 0 142.5 -65.5t56.5 -167.5q0 -203 -197 -203zM325 200q0 45 -28 74t-72 29q-39 0 -64.5 -26.5t-25.5 -65.5q0 -41 25.5 -63t71.5 -22q93 0 93 74z" />
    <glyph glyph-name="aHehGoal.fina" unicode="&#x6c1;" horiz-adv-x="542" arabic-form="final" 
d="M558 120v-109l-16 -11h-12q-64 0 -108.5 31t-92.5 109q-27 45 -49.5 63t-47.5 18q-62 0 -114 -100l-91 44q75 179 209 179q47 0 84 -24t79 -82q44 -62 72 -84.5t63 -22.5h8z" />
    <glyph glyph-name="aHehGoal.init" unicode="&#x6c1;" horiz-adv-x="275" arabic-form="initial" 
d="M27 0h-27l-16 10v110l16 11h20q107 0 107 93q0 69 -61 173l94 54q75 -107 75 -226q0 -107 -54 -166t-154 -59zM199 -227l-55 -60q-36 7 -58 31t-22 56q0 79 98 141l45 -46q-44 -36 -44 -70q0 -32 36 -52z" />
    <glyph glyph-name="aHehGoal.medi" unicode="&#x6c1;" horiz-adv-x="493" arabic-form="medial" 
d="M421 -132l-59 -76q-86 30 -151.5 100.5t-87.5 154.5q-45 -45 -111 -47h-11l-17 12v107l16 12h4q76 0 97 73l25 86l95 -18q-11 -50 -11 -94q0 -121 101 -215q-6 22 -6 46q0 55 43.5 88.5t113.5 33.5h31l16 -12v-107l-16 -12h-10q-44 0 -63 -14.5t-19 -46.5q0 -39 20 -71z
M173 -324l-55 -60q-36 7 -58 31t-22 56q0 79 98 141l45 -46q-44 -36 -44 -70q0 -32 36 -52z" />
    <glyph glyph-name="aHehDoachashmi.isol" unicode="&#x6be;" horiz-adv-x="714" arabic-form="isolated" 
d="M687 154q0 -78 -50.5 -119t-145.5 -41q-98 0 -196 54q-104 -48 -225 -48h-46l-7 131h74q45 0 93 5q-65 73 -65 146q0 78 51.5 129t131.5 51q47 0 86.5 -22t63.5 -59q98 -16 166.5 -81t68.5 -146zM390 265q0 34 -25.5 55t-66.5 21q-40 0 -63.5 -19.5t-23.5 -53.5
q0 -62 83 -106q96 38 96 103zM408 126q29 -5 68 -5q105 0 105 55q0 29 -29 57.5t-72 43.5q-4 -83 -72 -151z" />
    <glyph glyph-name="aHehDoachashmi.fina" unicode="&#x6be;" horiz-adv-x="550" arabic-form="final" 
d="M566 121v-111l-16 -10q-38 0 -51 1q21 -35 21 -70q0 -66 -43 -105t-117 -39q-99 0 -166 57t-91 156h-81l-6 131h79q8 135 65.5 221t140.5 86q64 0 111.5 -61.5t47.5 -145.5q0 -59 -22 -99q32 -1 112 -1zM371 226q0 38 -20.5 65.5t-48.5 27.5q-40 0 -73 -55t-39 -131
q93 6 137 28.5t44 64.5zM208 8q43 -100 145 -100q77 0 77 50q0 30 -25.5 53t-65.5 31q-56 -24 -131 -34z" />
    <glyph glyph-name="aHehDoachashmi.init" unicode="&#x6be;" horiz-adv-x="653" arabic-form="initial" 
d="M625 154q0 -77 -50.5 -118.5t-144.5 -41.5q-97 0 -195 54q-99 -48 -216 -48h-19l-16 10v111l16 10h30q45 0 92 5q-64 72 -64 146q0 78 51 129t131 51q47 0 86.5 -22t63.5 -59q99 -16 167 -81t68 -146zM328 265q0 34 -25 55t-66 21q-39 0 -63 -19.5t-24 -53.5
q0 -62 83 -106q95 38 95 103zM418 276q-4 -83 -71 -150q29 -5 68 -5q104 0 104 55q0 30 -28.5 58t-72.5 42z" />
    <glyph glyph-name="aHehDoachashmi.medi" unicode="&#x6be;" horiz-adv-x="518" arabic-form="medial" 
d="M534 121v-111l-16 -10h-50q21 -31 21 -69q0 -66 -43 -105t-118 -39q-98 0 -166 57t-90 156h-72l-16 10v111l16 10h64q8 135 66 221t141 86q63 0 110 -61.5t47 -145.5q0 -57 -21 -99q32 -1 111 -1zM340 226q0 38 -20.5 65.5t-48.5 27.5q-41 0 -73.5 -55t-38.5 -131
q93 6 137 28.5t44 64.5zM177 8q43 -100 145 -100q77 0 77 49q0 30 -25 53.5t-67 31.5q-55 -24 -130 -34z" />
    <glyph glyph-name="aYehBarri.isol" unicode="&#x6d2;" horiz-adv-x="701" arabic-form="isolated" 
d="M676 131l-6 -131h-443q-103 0 -149.5 28.5t-46.5 91.5q0 41 42.5 103t101.5 117t125.5 95t110.5 40q77 0 125 -120l-87 -54q-29 51 -55 51q-40 0 -145.5 -82.5t-105.5 -112.5q0 -14 14.5 -20t49.5 -6h469z" />
    <glyph glyph-name="aYehBarri.fina" unicode="&#x6d2;" horiz-adv-x="548" arabic-form="final" 
d="M484 -116l-6 -127q-54 -8 -161 -8q-163 0 -236.5 41.5t-73.5 133.5q0 89 73.5 148t184.5 59h283l16 -10v-111l-16 -10h-329q-51 0 -79 -17.5t-28 -49.5q0 -29 28 -41t95 -12q216 0 249 4z" />
    <glyph glyph-name="aYehBarriHamzaabove.isol" unicode="&#x6d3;" horiz-adv-x="701" arabic-form="isolated" 
d="M676 131l-6 -131h-443q-103 0 -149.5 28.5t-46.5 91.5q0 41 42.5 103t101.5 117t125.5 95t110.5 40q77 0 125 -120l-87 -54q-29 51 -55 51q-40 0 -145.5 -82.5t-105.5 -112.5q0 -14 14.5 -20t49.5 -6h469zM508 578v-50h-194v50h43q-17 15 -17 44q0 33 21.5 53.5
t57.5 20.5q35 0 56 -19t21 -50q0 -11 -1 -14h-45v4q0 12 -9 19t-22 7q-30 0 -30 -27q0 -38 77 -38h42z" />
    <glyph glyph-name="aYehBarriHamzaabove.fina" unicode="&#x6d3;" horiz-adv-x="548" arabic-form="final" 
d="M484 -116l-6 -127q-54 -8 -161 -8q-163 0 -236.5 41.5t-73.5 133.5q0 89 73.5 148t184.5 59h283l16 -10v-111l-16 -10h-329q-51 0 -79 -17.5t-28 -49.5q0 -29 28 -41t95 -12q216 0 249 4zM385 255v-50h-194v50h43q-17 15 -17 44q0 33 21.5 53.5t57.5 20.5q35 0 56 -19
t21 -50q0 -11 -1 -14h-45v4q0 12 -9 19t-22 7q-30 0 -30 -27q0 -38 77 -38h42z" />
    <glyph glyph-name="aAlifMaksura.init" unicode="&#x649;" horiz-adv-x="275" arabic-form="initial" 
d="M27 0h-27l-16 10v110l16 11h20q107 0 107 93q0 69 -61 173l94 54q75 -107 75 -226q0 -107 -54 -166t-154 -59z" />
    <glyph glyph-name="aAlifMaksura.medi" unicode="&#x649;" horiz-adv-x="328" arabic-form="medial" 
d="M344 120v-110l-17 -10h-9q-53 0 -92 20t-57 54q-14 -33 -56.5 -53.5t-96.5 -20.5h-16l-16 10v110l16 11h15q96 0 96 79v160h105v-151q0 -88 99 -88h12z" />
    <glyph glyph-name="aYehFarsi.isol" unicode="&#x6cc;" horiz-adv-x="686" arabic-form="isolated" 
d="M666 387l-44 -97q-53 38 -131 38q-48 0 -77 -18.5t-29 -48.5q0 -38 63 -55l56 -15q76 -20 112 -60t36 -104q0 -95 -77 -157t-196 -62q-158 0 -251 83t-93 231q0 124 64 222l95 -43q-49 -81 -49 -165q0 -88 66.5 -142t174.5 -54q75 0 117 20.5t42 57.5q0 23 -17 37.5
t-58 25.5l-47 13q-137 38 -137 150q0 87 64 146t158 59q48 0 94 -18t64 -44z" />
    <glyph glyph-name="aYehFarsi.fina" unicode="&#x6cc;" horiz-adv-x="803" arabic-form="final" 
d="M819 120v-109l-16 -11h-10q-70 0 -123.5 49t-77.5 136l-58 -54q54 -57 54 -129q0 -87 -70.5 -140.5t-185.5 -53.5q-136 0 -216.5 74t-80.5 200q0 122 80 205l84 -60q-54 -63 -54 -133q0 -69 55 -111.5t143 -42.5q63 0 99 19t36 52q0 46 -59 84l16 110l177 152l48 -19
q28 -207 137 -207h6z" />
    <glyph glyph-name="aYehFarsi.init" unicode="&#x6cc;" horiz-adv-x="275" arabic-form="initial" 
d="M27 0h-27l-16 10v110l16 11h20q107 0 107 93q0 69 -61 173l94 54q75 -107 75 -226q0 -107 -54 -166t-154 -59zM268 -114q0 -49 -58 -49q-25 0 -40.5 12.5t-15.5 36.5q0 48 56 48q58 0 58 -48zM118 -114q0 -49 -57 -49q-26 0 -41.5 12.5t-15.5 36.5q0 23 15 35.5t42 12.5
t42 -12.5t15 -35.5z" />
    <glyph glyph-name="aYehFarsi.medi" unicode="&#x6cc;" horiz-adv-x="328" arabic-form="medial" 
d="M344 120v-110l-17 -10h-9q-53 0 -92 20t-57 54q-14 -33 -56.5 -53.5t-96.5 -20.5h-16l-16 10v110l16 11h15q96 0 96 79v160h105v-151q0 -88 99 -88h12zM296 -114q0 -49 -58 -49q-25 0 -40.5 12.5t-15.5 36.5q0 48 56 48q58 0 58 -48zM146 -114q0 -49 -57 -49
q-26 0 -41.5 12.5t-15.5 36.5q0 23 15 35.5t42 12.5t42 -12.5t15 -35.5z" />
    <glyph glyph-name="aHamza.isol" unicode="&#x621;" horiz-adv-x="531" arabic-form="isolated" 
d="M499 131v-131h-470v131h95q-42 47 -42 114q0 81 55 131t144 50q76 0 126.5 -44t50.5 -112q0 -20 -3 -34l-96 -6v6q0 29 -23 49t-56 20q-39 0 -62.5 -21.5t-23.5 -56.5q0 -40 37.5 -68t93.5 -28h174z" />
    <glyph glyph-name="aAlifMadda.isol" unicode="&#x622;" horiz-adv-x="213" arabic-form="isolated" 
d="M160 667l-1 -689h-104l-2 689h107zM214 826l20 -26q-5 -29 -27 -46.5t-54 -17.5q-25 0 -50 11q-33 17 -52 17q-28 0 -46 -24l-27 22q7 32 27 50.5t49 18.5q28 0 54 -14q30 -14 54 -14q33 0 52 23z" />
    <glyph glyph-name="aAlifMadda.fina" unicode="&#x622;" horiz-adv-x="261" arabic-form="final" 
d="M277 120v-110l-16 -10h-7q-38 0 -69 15t-43 39q-5 -54 -12 -80l-96 10q24 131 24 387q0 88 -0.5 179t-0.5 117h107v-465q0 -32 23 -51.5t62 -19.5h12zM215 826l20 -26q-5 -29 -27 -46.5t-54 -17.5q-25 0 -50 11q-33 17 -52 17q-28 0 -46 -24l-27 22q7 32 27 50.5t49 18.5
q28 0 54 -14q30 -14 54 -14q33 0 52 23z" />
    <glyph glyph-name="aAlifHamza.isol" unicode="&#x623;" horiz-adv-x="213" arabic-form="isolated" 
d="M160 667l-1 -689h-104l-2 689h107zM203 790v-50h-194v50h43q-17 15 -17 44q0 33 21.5 53.5t57.5 20.5q35 0 56 -19t21 -50q0 -11 -1 -14h-45v4q0 12 -9 19t-22 7q-30 0 -30 -27q0 -38 77 -38h42z" />
    <glyph glyph-name="aAlifHamza.fina" unicode="&#x623;" horiz-adv-x="261" arabic-form="final" 
d="M277 120v-110l-16 -10h-7q-38 0 -69 15t-43 39q-5 -54 -12 -80l-96 10q24 131 24 387q0 88 -0.5 179t-0.5 117h107v-465q0 -32 23 -51.5t62 -19.5h12zM204 790v-50h-194v50h43q-17 15 -17 44q0 33 21.5 53.5t57.5 20.5q35 0 56 -19t21 -50q0 -11 -1 -14h-45v4q0 12 -9 19
t-22 7q-30 0 -30 -27q0 -38 77 -38h42z" />
    <glyph glyph-name="aWawHamza.isol" unicode="&#x624;" horiz-adv-x="485" arabic-form="isolated" 
d="M230 21q-84 0 -132 46t-48 124q0 92 50.5 154t126.5 62q92 0 157 -91t65 -223q0 -136 -72 -210.5t-203 -74.5q-118 0 -184 63l36 102q27 -18 70 -30.5t84 -12.5q72 0 121 34.5t53 88.5q-46 -32 -124 -32zM226 287q-35 0 -58 -26t-23 -66q0 -61 98 -61q55 0 101 19
q-15 61 -46 97.5t-72 36.5zM324 549v-50h-194v50h43q-17 15 -17 44q0 33 21.5 53.5t57.5 20.5q35 0 56 -19t21 -50q0 -11 -1 -14h-45v4q0 12 -9 19t-22 7q-30 0 -30 -27q0 -38 77 -38h42z" />
    <glyph glyph-name="aWawHamza.fina" unicode="&#x624;" horiz-adv-x="503" arabic-form="final" 
d="M519 120v-110l-16 -10h-66q-23 -93 -91 -142.5t-173 -49.5q-53 0 -105.5 18t-77.5 45l36 102q27 -18 70 -30.5t84 -12.5q57 0 100 22t61 61h-110q-85 0 -133 48t-48 132q0 90 51 152t126 62q85 0 147 -79t72 -197h57zM226 287q-35 0 -58 -25t-23 -61q0 -37 23.5 -53.5
t76.5 -16.5h102q-10 69 -43.5 112.5t-77.5 43.5zM324 549v-50h-194v50h43q-17 15 -17 44q0 33 21.5 53.5t57.5 20.5q35 0 56 -19t21 -50q0 -11 -1 -14h-45v4q0 12 -9 19t-22 7q-30 0 -30 -27q0 -38 77 -38h42z" />
    <glyph glyph-name="aAlifHamzabelow.isol" unicode="&#x625;" horiz-adv-x="213" arabic-form="isolated" 
d="M160 667l-1 -689h-104l-2 689h107zM203 -193v-50h-194v50h43q-17 15 -17 44q0 33 21.5 53.5t57.5 20.5q35 0 56 -19t21 -50q0 -11 -1 -14h-45v4q0 12 -9 19t-22 7q-30 0 -30 -27q0 -38 77 -38h42z" />
    <glyph glyph-name="aAlifHamzabelow.fina" unicode="&#x625;" horiz-adv-x="261" arabic-form="final" 
d="M277 120v-110l-16 -10h-7q-38 0 -69 15t-43 39q-5 -54 -12 -80l-96 10q24 131 24 387q0 88 -0.5 179t-0.5 117h107v-465q0 -32 23 -51.5t62 -19.5h12zM222 -193v-50h-194v50h43q-17 15 -17 44q0 33 21.5 53.5t57.5 20.5q35 0 56 -19t21 -50q0 -11 -1 -14h-45v4
q0 12 -9 19t-22 7q-30 0 -30 -27q0 -38 77 -38h42z" />
    <glyph glyph-name="aYehHamza.isol" unicode="&#x626;" horiz-adv-x="686" arabic-form="isolated" 
d="M666 387l-44 -97q-53 38 -131 38q-48 0 -77 -18.5t-29 -48.5q0 -38 63 -55l56 -15q76 -20 112 -60t36 -104q0 -95 -77 -157t-196 -62q-158 0 -251 83t-93 231q0 124 64 222l95 -43q-49 -81 -49 -165q0 -88 66.5 -142t174.5 -54q75 0 117 20.5t42 57.5q0 23 -17 37.5
t-58 25.5l-47 13q-137 38 -137 150q0 87 64 146t158 59q48 0 94 -18t64 -44zM318 481v-50h-194v50h43q-17 15 -17 44q0 33 21.5 53.5t57.5 20.5q35 0 56 -19t21 -50q0 -11 -1 -14h-45v4q0 12 -9 19t-22 7q-30 0 -30 -27q0 -38 77 -38h42z" />
    <glyph glyph-name="aYehHamza.fina" unicode="&#x626;" horiz-adv-x="803" arabic-form="final" 
d="M819 120v-109l-16 -11h-10q-70 0 -123.5 49t-77.5 136l-58 -54q54 -57 54 -129q0 -87 -70.5 -140.5t-185.5 -53.5q-136 0 -216.5 74t-80.5 200q0 122 80 205l84 -60q-54 -63 -54 -133q0 -69 55 -111.5t143 -42.5q63 0 99 19t36 52q0 46 -59 84l16 110l177 152l48 -19
q28 -207 137 -207h6zM323 407v-50h-194v50h43q-17 15 -17 44q0 33 21.5 53.5t57.5 20.5q35 0 56 -19t21 -50q0 -11 -1 -14h-45v4q0 12 -9 19t-22 7q-30 0 -30 -27q0 -38 77 -38h42z" />
    <glyph glyph-name="aYehHamza.init" unicode="&#x626;" horiz-adv-x="275" arabic-form="initial" 
d="M27 0h-27l-16 10v110l16 11h20q107 0 107 93q0 69 -61 173l94 54q75 -107 75 -226q0 -107 -54 -166t-154 -59zM218 578v-50h-194v50h43q-17 15 -17 44q0 33 21.5 53.5t57.5 20.5q35 0 56 -19t21 -50q0 -11 -1 -14h-45v4q0 12 -9 19t-22 7q-30 0 -30 -27q0 -38 77 -38h42z
" />
    <glyph glyph-name="aYehHamza.medi" unicode="&#x626;" horiz-adv-x="328" arabic-form="medial" 
d="M344 120v-110l-17 -10h-9q-53 0 -92 20t-57 54q-14 -33 -56.5 -53.5t-96.5 -20.5h-16l-16 10v110l16 11h15q96 0 96 79v160h105v-151q0 -88 99 -88h12zM261 495v-50h-194v50h43q-17 15 -17 44q0 33 21.5 53.5t57.5 20.5q35 0 56 -19t21 -50q0 -11 -1 -14h-45v4
q0 12 -9 19t-22 7q-30 0 -30 -27q0 -38 77 -38h42z" />
    <glyph glyph-name="aAlif.isol" unicode="&#x627;" horiz-adv-x="213" arabic-form="isolated" 
d="M160 667l-1 -689h-104l-2 689h107z" />
    <glyph glyph-name="aAlif.fina" unicode="&#x627;" horiz-adv-x="261" arabic-form="final" 
d="M277 120v-110l-16 -10h-7q-38 0 -69 15t-43 39q-5 -54 -12 -80l-96 10q24 131 24 387q0 88 -0.5 179t-0.5 117h107v-465q0 -32 23 -51.5t62 -19.5h12z" />
    <glyph glyph-name="aBeh.isol" unicode="&#x628;" horiz-adv-x="796" arabic-form="isolated" 
d="M408 0h-38q-163 2 -249 67.5t-86 185.5q0 117 76 202l85 -50q-51 -64 -51 -133q0 -67 63.5 -104t182.5 -37h41q216 0 216 100q0 57 -42 143l95 52q55 -82 55 -196q0 -230 -348 -230zM453 -116q0 -24 -16 -37t-43 -13t-43 13t-16 37q0 23 16 36.5t43 13.5t43 -13.5
t16 -36.5z" />
    <glyph glyph-name="aBeh.fina" unicode="&#x628;" horiz-adv-x="869" arabic-form="final" 
d="M885 120v-110l-16 -10h-9q-55 0 -97 19.5t-57 58.5q-40 -78 -261 -78h-69q-165 0 -253 67t-88 185q0 116 76 203l85 -50q-51 -64 -51 -133q0 -67 64 -104t181 -37h46q122 0 169.5 21t47.5 74v144h105v-151q0 -88 99 -88h12zM473 -116q0 -24 -16 -37t-43 -13t-43 13
t-16 37q0 23 16 36.5t43 13.5t43 -13.5t16 -36.5z" />
    <glyph glyph-name="aBeh.init" unicode="&#x628;" horiz-adv-x="275" arabic-form="initial" 
d="M27 0h-27l-16 10v110l16 11h20q107 0 107 93q0 69 -61 173l94 54q75 -107 75 -226q0 -107 -54 -166t-154 -59zM195 -116q0 -24 -16 -37t-43 -13t-43 13t-16 37q0 23 16 36.5t43 13.5t43 -13.5t16 -36.5z" />
    <glyph glyph-name="aBeh.medi" unicode="&#x628;" horiz-adv-x="328" arabic-form="medial" 
d="M344 120v-110l-17 -10h-9q-53 0 -92 20t-57 54q-14 -33 -56.5 -53.5t-96.5 -20.5h-16l-16 10v110l16 11h15q96 0 96 79v160h105v-151q0 -88 99 -88h12zM223 -116q0 -24 -16 -37t-43 -13t-43 13t-16 37q0 23 16 36.5t43 13.5t43 -13.5t16 -36.5z" />
    <glyph glyph-name="aTehMarbuta.isol" unicode="&#x629;" horiz-adv-x="469" arabic-form="isolated" 
d="M399 610l24 -116q-232 -60 -283 -188q48 53 127 53q76 0 122.5 -47.5t46.5 -122.5q0 -88 -51.5 -141.5t-137.5 -53.5q-96 0 -155 67.5t-59 176.5q0 130 100 232t266 140zM253 114q39 0 62.5 21.5t23.5 56.5q0 32 -22 50t-64 18q-39 0 -71 -17t-47 -45q12 -39 43 -61.5
t75 -22.5zM277 657q0 -49 -58 -49q-26 0 -41.5 13t-15.5 36t15 35.5t42 12.5q58 0 58 -48zM155 581q0 -49 -57 -49t-57 49q0 48 57 48t57 -48z" />
    <glyph glyph-name="aTehMarbuta.fina" unicode="&#x629;" horiz-adv-x="492" arabic-form="final" 
d="M508 121v-111l-16 -10h-14q-93 0 -144 60q-46 -70 -147 -70q-75 0 -118.5 43t-43.5 118q0 69 37 115.5t122 85.5q42 19 108 37v70h105v-271q0 -27 23 -42t66 -15h6zM292 150v129q-29 -8 -70 -20q-50 -17 -72 -37t-22 -49q0 -53 73 -53q57 0 91 30zM262 496q0 -49 -57 -49
t-57 49q0 48 57 48t57 -48zM140 432q0 -49 -57 -49t-57 49q0 48 57 48t57 -48z" />
    <glyph glyph-name="aTeh.isol" unicode="&#x62a;" horiz-adv-x="796" arabic-form="isolated" 
d="M408 0h-38q-163 2 -249 67.5t-86 185.5q0 117 76 202l85 -50q-51 -64 -51 -133q0 -67 63.5 -104t182.5 -37h41q216 0 216 100q0 57 -42 143l95 52q55 -82 55 -196q0 -230 -348 -230zM381 493q0 -49 -57 -49q-26 0 -41.5 12.5t-15.5 36.5q0 23 15 35.5t42 12.5t42 -12.5
t15 -35.5zM531 493q0 -49 -58 -49q-25 0 -40.5 12.5t-15.5 36.5q0 48 56 48q58 0 58 -48z" />
    <glyph glyph-name="aTeh.fina" unicode="&#x62a;" horiz-adv-x="869" arabic-form="final" 
d="M885 120v-110l-16 -10h-9q-55 0 -97 19.5t-57 58.5q-40 -78 -261 -78h-69q-165 0 -253 67t-88 185q0 116 76 203l85 -50q-51 -64 -51 -133q0 -67 64 -104t181 -37h46q122 0 169.5 21t47.5 74v144h105v-151q0 -88 99 -88h12zM422 493q0 -49 -57 -49q-26 0 -41.5 12.5
t-15.5 36.5q0 23 15 35.5t42 12.5t42 -12.5t15 -35.5zM572 493q0 -49 -58 -49q-25 0 -40.5 12.5t-15.5 36.5q0 48 56 48q58 0 58 -48z" />
    <glyph glyph-name="aTeh.init" unicode="&#x62a;" horiz-adv-x="275" arabic-form="initial" 
d="M27 0h-27l-16 10v110l16 11h20q107 0 107 93q0 69 -61 173l94 54q75 -107 75 -226q0 -107 -54 -166t-154 -59zM103 576q0 -49 -57 -49q-26 0 -41.5 12.5t-15.5 36.5q0 23 15 35.5t42 12.5t42 -12.5t15 -35.5zM253 576q0 -49 -58 -49q-25 0 -40.5 12.5t-15.5 36.5
q0 48 56 48q58 0 58 -48z" />
    <glyph glyph-name="aTeh.medi" unicode="&#x62a;" horiz-adv-x="328" arabic-form="medial" 
d="M344 120v-110l-17 -10h-9q-53 0 -92 20t-57 54q-14 -33 -56.5 -53.5t-96.5 -20.5h-16l-16 10v110l16 11h15q96 0 96 79v160h105v-151q0 -88 99 -88h12zM146 493q0 -49 -57 -49q-26 0 -41.5 12.5t-15.5 36.5q0 23 15 35.5t42 12.5t42 -12.5t15 -35.5zM296 493
q0 -49 -58 -49q-25 0 -40.5 12.5t-15.5 36.5q0 48 56 48q58 0 58 -48z" />
    <glyph glyph-name="aTheh.isol" unicode="&#x62b;" horiz-adv-x="796" arabic-form="isolated" 
d="M408 0h-38q-163 2 -249 67.5t-86 185.5q0 117 76 202l85 -50q-51 -64 -51 -133q0 -67 63.5 -104t182.5 -37h41q216 0 216 100q0 57 -42 143l95 52q55 -82 55 -196q0 -230 -348 -230zM455 603q0 -48 -56 -48q-25 0 -40.5 12.5t-15.5 35.5q0 47 56 47t56 -47zM382 492
q0 -48 -56 -48q-25 0 -40.5 12.5t-15.5 35.5q0 47 56 47t56 -47zM528 492q0 -48 -56 -48q-25 0 -40.5 12.5t-15.5 35.5q0 47 56 47t56 -47z" />
    <glyph glyph-name="aTheh.fina" unicode="&#x62b;" horiz-adv-x="869" arabic-form="final" 
d="M885 120v-110l-16 -10h-9q-55 0 -97 19.5t-57 58.5q-40 -78 -261 -78h-69q-165 0 -253 67t-88 185q0 116 76 203l85 -50q-51 -64 -51 -133q0 -67 64 -104t181 -37h46q122 0 169.5 21t47.5 74v144h105v-151q0 -88 99 -88h12zM496 603q0 -48 -56 -48q-25 0 -40.5 12.5
t-15.5 35.5q0 47 56 47t56 -47zM423 492q0 -48 -56 -48q-25 0 -40.5 12.5t-15.5 35.5q0 47 56 47t56 -47zM569 492q0 -48 -56 -48q-25 0 -40.5 12.5t-15.5 35.5q0 47 56 47t56 -47z" />
    <glyph glyph-name="aTheh.init" unicode="&#x62b;" horiz-adv-x="275" arabic-form="initial" 
d="M27 0h-27l-16 10v110l16 11h20q107 0 107 93q0 69 -61 173l94 54q75 -107 75 -226q0 -107 -54 -166t-154 -59zM177 686q0 -48 -56 -48q-25 0 -40.5 12.5t-15.5 35.5q0 47 56 47t56 -47zM104 575q0 -48 -56 -48q-25 0 -40.5 12.5t-15.5 35.5q0 47 56 47t56 -47zM250 575
q0 -48 -56 -48q-25 0 -40.5 12.5t-15.5 35.5q0 47 56 47t56 -47z" />
    <glyph glyph-name="aTheh.medi" unicode="&#x62b;" horiz-adv-x="328" arabic-form="medial" 
d="M344 120v-110l-17 -10h-9q-53 0 -92 20t-57 54q-14 -33 -56.5 -53.5t-96.5 -20.5h-16l-16 10v110l16 11h15q96 0 96 79v160h105v-151q0 -88 99 -88h12zM220 603q0 -48 -56 -48q-25 0 -40.5 12.5t-15.5 35.5q0 47 56 47t56 -47zM147 492q0 -48 -56 -48q-25 0 -40.5 12.5
t-15.5 35.5q0 47 56 47t56 -47zM293 492q0 -48 -56 -48q-25 0 -40.5 12.5t-15.5 35.5q0 47 56 47t56 -47z" />
    <glyph glyph-name="aJim.isol" unicode="&#x62c;" horiz-adv-x="603" arabic-form="isolated" 
d="M543 -92l32 -114q-36 -38 -109 -61.5t-153 -23.5q-126 0 -209.5 62.5t-83.5 169.5q0 108 106.5 190t293.5 118q-17 13 -70 49q-70 41 -122 41q-38 0 -60.5 -22t-22.5 -55q0 -21 7 -37l-88 -42q-27 39 -27 97q0 76 53.5 127.5t137.5 51.5q86 0 191 -74q22 -15 58 -43
t60.5 -45t43.5 -25l-26 -125q-178 -9 -300.5 -62.5t-122.5 -133.5q0 -55 49 -82.5t125 -27.5q134 0 237 67zM368 -25q0 -23 -15 -35.5t-42 -12.5q-56 0 -56 48q0 47 56 47q57 0 57 -47z" />
    <glyph glyph-name="aJim.fina" unicode="&#x62c;" horiz-adv-x="640" arabic-form="final" 
d="M543 -92l32 -114q-36 -38 -109 -61.5t-153 -23.5q-126 0 -209.5 62.5t-83.5 169.5q0 108 106.5 190t293.5 118q-17 13 -70 49q-70 41 -122 41q-38 0 -60.5 -22t-22.5 -55q0 -21 7 -37l-88 -42q-27 39 -27 97q0 76 53.5 127.5t137.5 51.5q86 0 191 -74q22 -15 58 -43
t60.5 -45t43.5 -25l-20 -95q14 -46 72 -46h6l17 -11v-110l-17 -10h-5q-66 0 -102.5 39.5t-37.5 102.5q-156 -16 -259 -67.5t-103 -123.5q0 -55 49 -82.5t125 -27.5q134 0 237 67zM364 -23q0 -23 -15 -35.5t-42 -12.5q-56 0 -56 48q0 47 56 47q57 0 57 -47z" />
    <glyph glyph-name="aJim.init" unicode="&#x62c;" horiz-adv-x="617" arabic-form="initial" 
d="M595 242l-25 -124q-36 0 -123.5 -29.5t-199.5 -59t-210 -29.5h-37l-16 10v110l16 11h39q66 0 132.5 12t157 37t110.5 30q-35 28 -60 44q-86 59 -139 59q-36 0 -58 -20t-22 -52q0 -19 6 -29l-97 -26q-16 29 -16 71q0 80 53.5 128t133.5 48q84 0 200 -83q12 -9 40 -30.5
t44 -33t36.5 -25t34.5 -19.5zM350 -116q0 -24 -16 -37t-43 -13t-43 13t-16 37q0 23 16 36.5t43 13.5t43 -13.5t16 -36.5z" />
    <glyph glyph-name="aJim.medi" unicode="&#x62c;" horiz-adv-x="655" arabic-form="medial" 
d="M671 120v-110l-16 -10h-7q-52 0 -87.5 29t-37.5 83q-32 -7 -122.5 -37.5t-184 -52.5t-179.5 -22h-37l-16 10v110l16 11h39q66 0 132.5 12t157 37t110.5 30q-35 28 -60 44q-86 59 -139 59q-36 0 -58 -20t-22 -52q0 -19 6 -29l-97 -26q-16 29 -16 71q0 80 53.5 128
t133.5 48q84 0 200 -83q12 -9 40 -30.5t44 -33t36.5 -25t34.5 -19.5l-15 -71q10 -38 67 -40h8zM350 -116q0 -24 -16 -37t-43 -13t-43 13t-16 37q0 23 16 36.5t43 13.5t43 -13.5t16 -36.5z" />
    <glyph glyph-name="aHah.isol" unicode="&#x62d;" horiz-adv-x="603" arabic-form="isolated" 
d="M543 -92l32 -114q-36 -38 -109 -61.5t-153 -23.5q-126 0 -209.5 62.5t-83.5 169.5q0 108 106.5 190t293.5 118q-17 13 -70 49q-70 41 -122 41q-38 0 -60.5 -22t-22.5 -55q0 -21 7 -37l-88 -42q-27 39 -27 97q0 76 53.5 127.5t137.5 51.5q86 0 191 -74q22 -15 58 -43
t60.5 -45t43.5 -25l-26 -125q-178 -9 -300.5 -62.5t-122.5 -133.5q0 -55 49 -82.5t125 -27.5q134 0 237 67z" />
    <glyph glyph-name="aHah.fina" unicode="&#x62d;" horiz-adv-x="640" arabic-form="final" 
d="M543 -92l32 -114q-36 -38 -109 -61.5t-153 -23.5q-126 0 -209.5 62.5t-83.5 169.5q0 108 106.5 190t293.5 118q-17 13 -70 49q-70 41 -122 41q-38 0 -60.5 -22t-22.5 -55q0 -21 7 -37l-88 -42q-27 39 -27 97q0 76 53.5 127.5t137.5 51.5q86 0 191 -74q22 -15 58 -43
t60.5 -45t43.5 -25l-20 -95q14 -46 72 -46h6l17 -11v-110l-17 -10h-5q-66 0 -102.5 39.5t-37.5 102.5q-156 -16 -259 -67.5t-103 -123.5q0 -55 49 -82.5t125 -27.5q134 0 237 67z" />
    <glyph glyph-name="aHah.init" unicode="&#x62d;" horiz-adv-x="617" arabic-form="initial" 
d="M595 242l-25 -124q-36 0 -123.5 -29.5t-199.5 -59t-210 -29.5h-37l-16 10v110l16 11h39q66 0 132.5 12t157 37t110.5 30q-35 28 -60 44q-86 59 -139 59q-36 0 -58 -20t-22 -52q0 -19 6 -29l-97 -26q-16 29 -16 71q0 80 53.5 128t133.5 48q84 0 200 -83q12 -9 40 -30.5
t44 -33t36.5 -25t34.5 -19.5z" />
    <glyph glyph-name="aHah.medi" unicode="&#x62d;" horiz-adv-x="655" arabic-form="medial" 
d="M671 120v-110l-16 -10h-7q-52 0 -87.5 29t-37.5 83q-32 -7 -122.5 -37.5t-184 -52.5t-179.5 -22h-37l-16 10v110l16 11h39q66 0 132.5 12t157 37t110.5 30q-35 28 -60 44q-86 59 -139 59q-36 0 -58 -20t-22 -52q0 -19 6 -29l-97 -26q-16 29 -16 71q0 80 53.5 128
t133.5 48q84 0 200 -83q12 -9 40 -30.5t44 -33t36.5 -25t34.5 -19.5l-15 -71q10 -38 67 -40h8z" />
    <glyph glyph-name="aKhah.isol" unicode="&#x62e;" horiz-adv-x="603" arabic-form="isolated" 
d="M543 -92l32 -114q-36 -38 -109 -61.5t-153 -23.5q-126 0 -209.5 62.5t-83.5 169.5q0 108 106.5 190t293.5 118q-17 13 -70 49q-70 41 -122 41q-38 0 -60.5 -22t-22.5 -55q0 -21 7 -37l-88 -42q-27 39 -27 97q0 76 53.5 127.5t137.5 51.5q86 0 191 -74q22 -15 58 -43
t60.5 -45t43.5 -25l-26 -125q-178 -9 -300.5 -62.5t-122.5 -133.5q0 -55 49 -82.5t125 -27.5q134 0 237 67zM287 577q0 -24 -16 -37t-43 -13t-43 13t-16 37q0 23 16 36t43 13t43 -13t16 -36z" />
    <glyph glyph-name="aKhah.fina" unicode="&#x62e;" horiz-adv-x="640" arabic-form="final" 
d="M543 -92l32 -114q-36 -38 -109 -61.5t-153 -23.5q-126 0 -209.5 62.5t-83.5 169.5q0 108 106.5 190t293.5 118q-17 13 -70 49q-70 41 -122 41q-38 0 -60.5 -22t-22.5 -55q0 -21 7 -37l-88 -42q-27 39 -27 97q0 76 53.5 127.5t137.5 51.5q86 0 191 -74q22 -15 58 -43
t60.5 -45t43.5 -25l-20 -95q14 -46 72 -46h6l17 -11v-110l-17 -10h-5q-66 0 -102.5 39.5t-37.5 102.5q-156 -16 -259 -67.5t-103 -123.5q0 -55 49 -82.5t125 -27.5q134 0 237 67zM286 577q0 -24 -16 -37t-43 -13t-43 13t-16 37q0 23 16 36t43 13t43 -13t16 -36z" />
    <glyph glyph-name="aKhah.init" unicode="&#x62e;" horiz-adv-x="617" arabic-form="initial" 
d="M595 242l-25 -124q-36 0 -123.5 -29.5t-199.5 -59t-210 -29.5h-37l-16 10v110l16 11h39q66 0 132.5 12t157 37t110.5 30q-35 28 -60 44q-86 59 -139 59q-36 0 -58 -20t-22 -52q0 -19 6 -29l-97 -26q-16 29 -16 71q0 80 53.5 128t133.5 48q84 0 200 -83q12 -9 40 -30.5
t44 -33t36.5 -25t34.5 -19.5zM300 577q0 -24 -16 -37t-43 -13t-43 13t-16 37q0 23 16 36t43 13t43 -13t16 -36z" />
    <glyph glyph-name="aKhah.medi" unicode="&#x62e;" horiz-adv-x="655" arabic-form="medial" 
d="M671 120v-110l-16 -10h-7q-52 0 -87.5 29t-37.5 83q-32 -7 -122.5 -37.5t-184 -52.5t-179.5 -22h-37l-16 10v110l16 11h39q66 0 132.5 12t157 37t110.5 30q-35 28 -60 44q-86 59 -139 59q-36 0 -58 -20t-22 -52q0 -19 6 -29l-97 -26q-16 29 -16 71q0 80 53.5 128
t133.5 48q84 0 200 -83q12 -9 40 -30.5t44 -33t36.5 -25t34.5 -19.5l-15 -71q10 -38 67 -40h8zM300 577q0 -24 -16 -37t-43 -13t-43 13t-16 37q0 23 16 36t43 13t43 -13t16 -36z" />
    <glyph glyph-name="aDal.isol" unicode="&#x62f;" horiz-adv-x="528" arabic-form="isolated" 
d="M22 131h273q54 0 73.5 10t19.5 39q0 54 -93 54h-69q-91 0 -131.5 38.5t-40.5 124.5q0 59 8 85h106q-5 -35 -5 -68q0 -62 64 -62h52q106 0 164 -48.5t58 -137.5q0 -87 -56 -126.5t-178 -39.5h-239z" />
    <glyph glyph-name="aDal.fina" unicode="&#x62f;" horiz-adv-x="564" arabic-form="final" 
d="M580 120v-110l-17 -10h-8q-67 0 -96 51q-55 -51 -192 -51h-239l-6 131h272q55 0 74.5 10t19.5 39q0 54 -94 54h-68q-91 0 -131.5 38.5t-40.5 124.5q0 59 8 85h106q-5 -35 -5 -68q0 -62 64 -62h52q106 0 164 -48.5t58 -137.5q0 -13 -1 -18q19 -17 55 -17h9z" />
    <glyph glyph-name="aDhal.isol" unicode="&#x630;" horiz-adv-x="528" arabic-form="isolated" 
d="M22 131h273q54 0 73.5 10t19.5 39q0 54 -93 54h-69q-91 0 -131.5 38.5t-40.5 124.5q0 59 8 85h106q-5 -35 -5 -68q0 -62 64 -62h52q106 0 164 -48.5t58 -137.5q0 -87 -56 -126.5t-178 -39.5h-239zM379 501q0 -24 -16 -37t-43 -13t-43 13t-16 37q0 23 16 36t43 13t43 -13
t16 -36z" />
    <glyph glyph-name="aDhal.fina" unicode="&#x630;" horiz-adv-x="564" arabic-form="final" 
d="M580 120v-110l-17 -10h-8q-67 0 -96 51q-55 -51 -192 -51h-239l-6 131h272q55 0 74.5 10t19.5 39q0 54 -94 54h-68q-91 0 -131.5 38.5t-40.5 124.5q0 59 8 85h106q-5 -35 -5 -68q0 -62 64 -62h52q106 0 164 -48.5t58 -137.5q0 -13 -1 -18q19 -17 55 -17h9zM377 501
q0 -24 -16 -37t-43 -13t-43 13t-16 37q0 23 16 36t43 13t43 -13t16 -36z" />
    <glyph glyph-name="aReh.isol" unicode="&#x631;" horiz-adv-x="475" arabic-form="isolated" 
d="M-37 -155l23 113q52 -22 112 -22q98 0 162.5 55t64.5 140q0 94 -69 213l103 54q78 -121 78 -265q0 -149 -86.5 -237t-233.5 -88q-103 0 -154 37z" />
    <glyph glyph-name="aReh.fina" unicode="&#x631;" horiz-adv-x="548" arabic-form="final" 
d="M564 120v-109l-16 -11h-7q-38 0 -68 17.5t-42 45.5q-20 -120 -102 -187.5t-210 -67.5q-105 0 -156 37l23 113q52 -22 113 -22q98 0 162 55t64 139q0 75 -62 218l102 50l67 -172q23 -55 48 -75t60 -20h8z" />
    <glyph glyph-name="aZeh.isol" unicode="&#x632;" horiz-adv-x="475" arabic-form="isolated" 
d="M-37 -155l23 113q52 -22 112 -22q98 0 162.5 55t64.5 140q0 94 -69 213l103 54q78 -121 78 -265q0 -149 -86.5 -237t-233.5 -88q-103 0 -154 37zM359 506q0 -24 -16 -37t-43 -13t-43 13t-16 37q0 23 16 36t43 13t43 -13t16 -36z" />
    <glyph glyph-name="aZeh.fina" unicode="&#x632;" horiz-adv-x="548" arabic-form="final" 
d="M564 120v-109l-16 -11h-7q-38 0 -68 17.5t-42 45.5q-20 -120 -102 -187.5t-210 -67.5q-105 0 -156 37l23 113q52 -22 113 -22q98 0 162 55t64 139q0 75 -62 218l102 50l67 -172q23 -55 48 -75t60 -20h8zM359 506q0 -24 -16 -37t-43 -13t-43 13t-16 37q0 23 16 36t43 13
t43 -13t16 -36z" />
    <glyph glyph-name="aSin.isol" unicode="&#x633;" horiz-adv-x="1155" arabic-form="isolated" 
d="M673 0q-54 0 -82 26q-23 -106 -92 -162t-179 -56q-131 0 -208 75t-77 203q0 137 97 240l83 -61q-70 -86 -70 -168q0 -73 49 -115t136 -42q166 0 166 198v178h105v-110q0 -75 78 -75q74 0 74 77v108h105v-108q0 -77 77 -77t77 74q0 68 -63 165l86 59q83 -103 83 -228
q0 -93 -49 -147t-133 -54q-102 0 -136 69q-15 -32 -48.5 -50.5t-78.5 -18.5z" />
    <glyph glyph-name="aSin.fina" unicode="&#x633;" horiz-adv-x="1201" arabic-form="final" 
d="M1217 120v-109l-16 -11h-7q-95 0 -132 78q-12 -36 -46 -57t-77 -21q-104 0 -138 70q-15 -33 -48.5 -51.5t-78.5 -18.5q-51 0 -82 27q-22 -104 -92 -161.5t-180 -57.5q-131 0 -208 75t-77 203q0 70 28 133.5t69 106.5l83 -61q-70 -86 -70 -168q0 -73 49 -115t136 -42
q167 0 167 198v178h105v-107q0 -78 78 -78q74 0 74 77v108h105v-108q0 -77 78 -77q34 0 53 15.5t19 44.5q0 10 -4 38t-10.5 69.5t-9.5 62.5h105l19 -138q14 -92 82 -92h10z" />
    <glyph glyph-name="aSin.init" unicode="&#x633;" horiz-adv-x="750" arabic-form="initial" 
d="M270 0q-92 0 -122 72q-29 -72 -135 -72h-13l-16 10v110l16 11h12q79 0 79 77v108h105v-107q0 -78 78 -78q74 0 74 77v108h105v-108q0 -77 76 -77q78 0 78 74q0 34 -17.5 79.5t-45.5 85.5l86 59q83 -104 83 -228q0 -92 -49 -146.5t-133 -54.5q-102 0 -136 69
q-15 -32 -48 -50.5t-77 -18.5z" />
    <glyph glyph-name="aSin.medi" unicode="&#x633;" horiz-adv-x="795" arabic-form="medial" 
d="M811 120v-109l-16 -11h-6q-94 0 -133 77q-12 -35 -45.5 -56t-78.5 -21q-104 0 -137 70q-15 -32 -49 -51t-78 -19q-42 0 -74 19.5t-46 53.5q-30 -73 -133 -73h-15l-16 10v110l16 11h11q80 0 80 77v108h105v-107q0 -78 78 -78q74 0 74 77v108h105v-108q0 -77 77 -77
q33 0 53 15.5t20 43.5q0 14 -4 42.5t-10.5 69.5t-9.5 59h105l19 -138q14 -92 83 -92h9z" />
    <glyph glyph-name="aShin.isol" unicode="&#x634;" horiz-adv-x="1155" arabic-form="isolated" 
d="M673 0q-54 0 -82 26q-23 -106 -92 -162t-179 -56q-131 0 -208 75t-77 203q0 137 97 240l83 -61q-70 -86 -70 -168q0 -73 49 -115t136 -42q166 0 166 198v178h105v-110q0 -75 78 -75q74 0 74 77v108h105v-108q0 -77 77 -77t77 74q0 68 -63 165l86 59q83 -103 83 -228
q0 -93 -49 -147t-133 -54q-102 0 -136 69q-15 -32 -48.5 -50.5t-78.5 -18.5zM860 586q0 -48 -56 -48q-25 0 -40.5 12.5t-15.5 35.5q0 47 56 47t56 -47zM787 475q0 -48 -56 -48q-25 0 -40.5 12.5t-15.5 35.5q0 47 56 47t56 -47zM933 475q0 -48 -56 -48q-25 0 -40.5 12.5
t-15.5 35.5q0 47 56 47t56 -47z" />
    <glyph glyph-name="aShin.fina" unicode="&#x634;" horiz-adv-x="1201" arabic-form="final" 
d="M1217 120v-109l-16 -11h-7q-95 0 -132 78q-12 -36 -46 -57t-77 -21q-104 0 -138 70q-15 -33 -48.5 -51.5t-78.5 -18.5q-51 0 -82 27q-22 -104 -92 -161.5t-180 -57.5q-131 0 -208 75t-77 203q0 70 28 133.5t69 106.5l83 -61q-70 -86 -70 -168q0 -73 49 -115t136 -42
q167 0 167 198v178h105v-107q0 -78 78 -78q74 0 74 77v108h105v-108q0 -77 78 -77q34 0 53 15.5t19 44.5q0 10 -4 38t-10.5 69.5t-9.5 62.5h105l19 -138q14 -92 82 -92h10zM862 587q0 -48 -56 -48q-25 0 -40.5 12.5t-15.5 35.5q0 47 56 47t56 -47zM789 476q0 -48 -56 -48
q-25 0 -40.5 12.5t-15.5 35.5q0 47 56 47t56 -47zM935 476q0 -48 -56 -48q-25 0 -40.5 12.5t-15.5 35.5q0 47 56 47t56 -47z" />
    <glyph glyph-name="aShin.init" unicode="&#x634;" horiz-adv-x="750" arabic-form="initial" 
d="M270 0q-92 0 -122 72q-29 -72 -135 -72h-13l-16 10v110l16 11h12q79 0 79 77v108h105v-107q0 -78 78 -78q74 0 74 77v108h105v-108q0 -77 76 -77q78 0 78 74q0 34 -17.5 79.5t-45.5 85.5l86 59q83 -104 83 -228q0 -92 -49 -146.5t-133 -54.5q-102 0 -136 69
q-15 -32 -48 -50.5t-77 -18.5zM457 587q0 -48 -56 -48q-25 0 -40.5 12.5t-15.5 35.5q0 47 56 47t56 -47zM384 476q0 -48 -56 -48q-25 0 -40.5 12.5t-15.5 35.5q0 47 56 47t56 -47zM530 476q0 -48 -56 -48q-25 0 -40.5 12.5t-15.5 35.5q0 47 56 47t56 -47z" />
    <glyph glyph-name="aShin.medi" unicode="&#x634;" horiz-adv-x="795" arabic-form="medial" 
d="M811 120v-109l-16 -11h-6q-94 0 -133 77q-12 -35 -45.5 -56t-78.5 -21q-104 0 -137 70q-15 -32 -49 -51t-78 -19q-42 0 -74 19.5t-46 53.5q-30 -73 -133 -73h-15l-16 10v110l16 11h11q80 0 80 77v108h105v-107q0 -78 78 -78q74 0 74 77v108h105v-108q0 -77 77 -77
q33 0 53 15.5t20 43.5q0 14 -4 42.5t-10.5 69.5t-9.5 59h105l19 -138q14 -92 83 -92h9zM457 587q0 -48 -56 -48q-25 0 -40.5 12.5t-15.5 35.5q0 47 56 47t56 -47zM384 476q0 -48 -56 -48q-25 0 -40.5 12.5t-15.5 35.5q0 47 56 47t56 -47zM530 476q0 -48 -56 -48
q-25 0 -40.5 12.5t-15.5 35.5q0 47 56 47t56 -47z" />
    <glyph glyph-name="aSad.isol" unicode="&#x635;" horiz-adv-x="1241" arabic-form="isolated" 
d="M918 429q122 0 206.5 -81.5t84.5 -199.5q0 -76 -52 -112t-162 -36h-229q-99 0 -183 7q-10 -89 -82.5 -144t-180.5 -55q-131 0 -208 75t-77 203q0 135 97 240l83 -61q-70 -82 -70 -170q0 -70 51 -114t130 -44q63 0 107 23t50 58l-33 7l15 120l96 -8q43 137 138 214.5
t219 77.5zM765 131h262q42 0 56.5 7.5t14.5 27.5q0 53 -54.5 93.5t-126.5 40.5q-83 0 -150 -44.5t-105 -123.5q33 -1 103 -1z" />
    <glyph glyph-name="aSad.fina" unicode="&#x635;" horiz-adv-x="1275" arabic-form="final" 
d="M1291 120v-110l-16 -10h-7q-74 0 -103 42q-53 -42 -170 -42h-229q-111 0 -183 8q-10 -89 -83.5 -144.5t-180.5 -55.5q-130 0 -207 75t-77 203q0 135 97 240l83 -61q-70 -82 -70 -170q0 -70 51 -114t130 -44q63 0 107 23t50 58q-4 1 -16 3t-17 4l15 120l96 -8
q43 137 138 214.5t219 77.5q122 0 206.5 -81.5t84.5 -199.5v-9q19 -8 59 -8h7zM764 131h264q42 0 56 7.5t14 27.5q0 53 -55 93.5t-126 40.5q-83 0 -150 -44.5t-105 -123.5q32 -1 102 -1z" />
    <glyph glyph-name="aSad.init" unicode="&#x635;" horiz-adv-x="727" arabic-form="initial" 
d="M404 429q123 0 207 -81t84 -200q0 -77 -52 -112.5t-164 -35.5h-479l-16 10v110l16 11h45q44 141 138.5 219.5t220.5 78.5zM147 131h367q42 0 56 7.5t14 27.5q0 53 -54.5 93.5t-125.5 40.5q-84 0 -152 -45t-105 -124z" />
    <glyph glyph-name="aSad.medi" unicode="&#x635;" horiz-adv-x="761" arabic-form="medial" 
d="M777 120v-110l-16 -10h-6q-75 0 -104 42q-53 -42 -172 -42h-479l-16 10v110l16 11h45q44 140 138.5 219t220.5 79q123 0 207 -81t84 -200v-9q21 -8 60 -8h6zM147 131h367q42 0 56 7.5t14 27.5q0 52 -55 93t-125 41q-84 0 -152 -45t-105 -124z" />
    <glyph glyph-name="aDad.isol" unicode="&#x636;" horiz-adv-x="1241" arabic-form="isolated" 
d="M918 429q122 0 206.5 -81.5t84.5 -199.5q0 -76 -52 -112t-162 -36h-229q-99 0 -183 7q-10 -89 -82.5 -144t-180.5 -55q-131 0 -208 75t-77 203q0 135 97 240l83 -61q-70 -82 -70 -170q0 -70 51 -114t130 -44q63 0 107 23t50 58l-33 7l15 120l96 -8q43 137 138 214.5
t219 77.5zM765 131h262q42 0 56.5 7.5t14.5 27.5q0 53 -54.5 93.5t-126.5 40.5q-83 0 -150 -44.5t-105 -123.5q33 -1 103 -1zM977 577q0 -24 -16 -37t-43 -13t-43 13t-16 37q0 23 16 36t43 13t43 -13t16 -36z" />
    <glyph glyph-name="aDad.fina" unicode="&#x636;" horiz-adv-x="1275" arabic-form="final" 
d="M1291 120v-110l-16 -10h-7q-74 0 -103 42q-53 -42 -170 -42h-229q-111 0 -183 8q-10 -89 -83.5 -144.5t-180.5 -55.5q-130 0 -207 75t-77 203q0 135 97 240l83 -61q-70 -82 -70 -170q0 -70 51 -114t130 -44q63 0 107 23t50 58q-4 1 -16 3t-17 4l15 120l96 -8
q43 137 138 214.5t219 77.5q122 0 206.5 -81.5t84.5 -199.5v-9q19 -8 59 -8h7zM764 131h264q42 0 56 7.5t14 27.5q0 53 -55 93.5t-126 40.5q-83 0 -150 -44.5t-105 -123.5q32 -1 102 -1zM977 577q0 -24 -16 -37t-43 -13t-43 13t-16 37q0 23 16 36t43 13t43 -13t16 -36z" />
    <glyph glyph-name="aDad.init" unicode="&#x636;" horiz-adv-x="727" arabic-form="initial" 
d="M404 429q123 0 207 -81t84 -200q0 -77 -52 -112.5t-164 -35.5h-479l-16 10v110l16 11h45q44 141 138.5 219.5t220.5 78.5zM147 131h367q42 0 56 7.5t14 27.5q0 53 -54.5 93.5t-125.5 40.5q-84 0 -152 -45t-105 -124zM463 577q0 -24 -16 -37t-43 -13t-43 13t-16 37
q0 23 16 36t43 13t43 -13t16 -36z" />
    <glyph glyph-name="aDad.medi" unicode="&#x636;" horiz-adv-x="761" arabic-form="medial" 
d="M777 120v-110l-16 -10h-6q-75 0 -104 42q-53 -42 -172 -42h-479l-16 10v110l16 11h45q44 140 138.5 219t220.5 79q123 0 207 -81t84 -200v-9q21 -8 60 -8h6zM147 131h367q42 0 56 7.5t14 27.5q0 52 -55 93t-125 41q-84 0 -152 -45t-105 -124zM463 577q0 -24 -16 -37
t-43 -13t-43 13t-16 37q0 23 16 36t43 13t43 -13t16 -36z" />
    <glyph glyph-name="aTah.isol" unicode="&#x637;" horiz-adv-x="819" arabic-form="isolated" 
d="M463 612l-130 -232q89 47 174 47q116 0 198 -82t82 -197q0 -78 -52.5 -113t-166.5 -35h-539l-7 131h71q10 25 34 64l225 471zM192 131h413q42 0 56.5 7.5t14.5 27.5q0 54 -55.5 94t-130.5 40q-100 0 -180 -45.5t-118 -123.5z" />
    <glyph glyph-name="aTah.fina" unicode="&#x637;" horiz-adv-x="854" arabic-form="final" 
d="M870 120v-110l-16 -10h-7q-77 0 -104 42q-51 -42 -175 -42h-539l-7 131h71q17 36 34 64l225 471l111 -54l-130 -232q91 47 174 47q114 0 197 -81.5t83 -197.5v-10q15 -7 60 -7h7zM192 131h408q47 0 61.5 7.5t14.5 27.5q0 54 -56 94t-131 40q-97 0 -177 -44t-120 -125z
" />
    <glyph glyph-name="aTah.init" unicode="&#x637;" horiz-adv-x="769" arabic-form="initial" 
d="M70 183l232 483l111 -54l-130 -233q91 48 175 48q114 0 196.5 -81.5t82.5 -197.5q0 -76 -51 -112t-168 -36h-518l-16 10v110l16 11h44q11 26 26 52zM142 131h414q42 0 56 7.5t14 27.5q0 53 -55.5 93.5t-129.5 40.5q-101 0 -180 -45t-119 -124z" />
    <glyph glyph-name="aTah.medi" unicode="&#x637;" horiz-adv-x="804" arabic-form="medial" 
d="M820 120v-110l-17 -10h-7q-76 0 -103 42q-53 -42 -175 -42h-518l-16 10v110l16 11h44q11 26 26 52l232 483l111 -54l-130 -233q91 48 175 48q114 0 196.5 -81.5t82.5 -197.5v-10q15 -7 59 -7h7zM142 131h414q42 0 56 7.5t14 27.5q0 53 -55.5 93.5t-129.5 40.5
q-101 0 -180 -45t-119 -124z" />
    <glyph glyph-name="aZah.isol" unicode="&#x638;" horiz-adv-x="819" arabic-form="isolated" 
d="M463 612l-130 -232q89 47 174 47q116 0 198 -82t82 -197q0 -78 -52.5 -113t-166.5 -35h-539l-7 131h71q10 25 34 64l225 471zM192 131h413q42 0 56.5 7.5t14.5 27.5q0 54 -55.5 94t-130.5 40q-100 0 -180 -45.5t-118 -123.5zM647 577q0 -24 -16 -37t-43 -13t-43 13
t-16 37q0 23 16 36t43 13t43 -13t16 -36z" />
    <glyph glyph-name="aZah.fina" unicode="&#x638;" horiz-adv-x="854" arabic-form="final" 
d="M870 120v-110l-16 -10h-7q-77 0 -104 42q-51 -42 -175 -42h-539l-7 131h71q17 36 34 64l225 471l111 -54l-130 -232q91 47 174 47q114 0 197 -81.5t83 -197.5v-10q15 -7 60 -7h7zM192 131h408q47 0 61.5 7.5t14.5 27.5q0 54 -56 94t-131 40q-97 0 -177 -44t-120 -125z
M647 577q0 -24 -16 -37t-43 -13t-43 13t-16 37q0 23 16 36t43 13t43 -13t16 -36z" />
    <glyph glyph-name="aZah.init" unicode="&#x638;" horiz-adv-x="769" arabic-form="initial" 
d="M70 183l232 483l111 -54l-130 -233q91 48 175 48q114 0 196.5 -81.5t82.5 -197.5q0 -76 -51 -112t-168 -36h-518l-16 10v110l16 11h44q11 26 26 52zM142 131h414q42 0 56 7.5t14 27.5q0 53 -55.5 93.5t-129.5 40.5q-101 0 -180 -45t-119 -124zM597 577q0 -24 -16 -37
t-43 -13t-43 13t-16 37q0 23 16 36t43 13t43 -13t16 -36z" />
    <glyph glyph-name="aZah.medi" unicode="&#x638;" horiz-adv-x="804" arabic-form="medial" 
d="M820 120v-110l-17 -10h-7q-76 0 -103 42q-53 -42 -175 -42h-518l-16 10v110l16 11h44q11 26 26 52l232 483l111 -54l-130 -233q91 48 175 48q114 0 196.5 -81.5t82.5 -197.5v-10q15 -7 59 -7h7zM142 131h414q42 0 56 7.5t14 27.5q0 53 -55.5 93.5t-129.5 40.5
q-101 0 -180 -45t-119 -124zM597 577q0 -24 -16 -37t-43 -13t-43 13t-16 37q0 23 16 36t43 13t43 -13t16 -36z" />
    <glyph glyph-name="aAyn.isol" unicode="&#x639;" horiz-adv-x="574" arabic-form="isolated" 
d="M539 -91l30 -117q-34 -36 -104.5 -59.5t-148.5 -23.5q-134 0 -215.5 63t-81.5 165q0 73 38 127.5t107 81.5q-47 23 -77.5 71.5t-30.5 105.5q0 91 66 149.5t169 58.5q93 0 152.5 -54.5t59.5 -138.5q0 -27 -8 -53l-101 5q1 7 1 19q0 46 -31 73.5t-86 27.5q-51 0 -81 -26
t-30 -69q0 -54 47.5 -88t120.5 -34h167v-124h-137q-113 0 -174.5 -30.5t-61.5 -84.5q0 -51 47.5 -82t124.5 -31q65 0 130.5 19t107.5 49z" />
    <glyph glyph-name="aAyn.fina" unicode="&#x639;" horiz-adv-x="538" arabic-form="final" 
d="M554 119v-107l-16 -12h-19q-127 0 -253 74q-1 0 -6.5 -4t-9.5 -6q-69 -41 -96 -67.5t-27 -56.5q0 -42 49 -70.5t122 -28.5q121 0 188 48l31 -116q-35 -29 -95 -46.5t-124 -17.5q-124 0 -203.5 58.5t-79.5 150.5q0 75 37.5 128.5t118.5 94.5q-72 63 -119 143v80
q31 43 94.5 71t129.5 28q71 0 132 -27.5t93 -73.5v-81q-39 -65 -116 -130q69 -20 137 -20h16zM411 312q-50 34 -132 34q-76 0 -130 -33q46 -65 131 -116q73 43 131 115z" />
    <glyph glyph-name="aAyn.init" unicode="&#x639;" horiz-adv-x="577" arabic-form="initial" 
d="M548 131v-131h-548l-16 12v107l16 12h99q-52 55 -52 134q0 96 67.5 158.5t169.5 62.5q96 0 155.5 -55t59.5 -144q0 -27 -6 -47l-108 5q1 3 1 17q0 46 -29 75t-77 29q-54 0 -88 -28.5t-34 -75.5q0 -60 50 -95.5t136 -35.5h204z" />
    <glyph glyph-name="aAyn.medi" unicode="&#x639;" horiz-adv-x="525" arabic-form="medial" 
d="M541 119v-107l-17 -12h-17q-125 0 -251 71q-128 -71 -244 -71h-12l-16 12v107l16 12h25q68 0 125 16q-71 64 -112 137v80q34 44 96 71.5t128 27.5q72 0 133.5 -27.5t91.5 -73.5v-81q-43 -69 -114 -130q69 -20 138 -20h13zM397 312q-50 34 -131 34q-77 0 -131 -33
q51 -70 131 -117q82 50 131 116z" />
    <glyph glyph-name="aGhayn.isol" unicode="&#x63a;" horiz-adv-x="574" arabic-form="isolated" 
d="M539 -91l30 -117q-34 -36 -104.5 -59.5t-148.5 -23.5q-134 0 -215.5 63t-81.5 165q0 73 38 127.5t107 81.5q-47 23 -77.5 71.5t-30.5 105.5q0 91 66 149.5t169 58.5q93 0 152.5 -54.5t59.5 -138.5q0 -27 -8 -53l-101 5q1 7 1 19q0 46 -31 73.5t-86 27.5q-51 0 -81 -26
t-30 -69q0 -54 47.5 -88t120.5 -34h167v-124h-137q-113 0 -174.5 -30.5t-61.5 -84.5q0 -51 47.5 -82t124.5 -31q65 0 130.5 19t107.5 49zM349 675q0 -24 -16 -37t-43 -13t-43 13t-16 37q0 23 16 36t43 13t43 -13t16 -36z" />
    <glyph glyph-name="aGhayn.fina" unicode="&#x63a;" horiz-adv-x="538" arabic-form="final" 
d="M554 119v-107l-16 -12h-19q-127 0 -253 74q-1 0 -6.5 -4t-9.5 -6q-69 -41 -96 -67.5t-27 -56.5q0 -42 49 -70.5t122 -28.5q121 0 188 48l31 -116q-35 -29 -95 -46.5t-124 -17.5q-124 0 -203.5 58.5t-79.5 150.5q0 75 37.5 128.5t118.5 94.5q-72 63 -119 143v80
q31 43 94.5 71t129.5 28q71 0 132 -27.5t93 -73.5v-81q-39 -65 -116 -130q69 -20 137 -20h16zM411 312q-50 34 -132 34q-76 0 -130 -33q46 -65 131 -116q73 43 131 115zM335 577q0 -24 -16 -37t-43 -13t-43 13t-16 37q0 23 16 36t43 13t43 -13t16 -36z" />
    <glyph glyph-name="aGhayn.init" unicode="&#x63a;" horiz-adv-x="577" arabic-form="initial" 
d="M548 131v-131h-548l-16 12v107l16 12h99q-52 55 -52 134q0 96 67.5 158.5t169.5 62.5q96 0 155.5 -55t59.5 -144q0 -27 -6 -47l-108 5q1 3 1 17q0 46 -29 75t-77 29q-54 0 -88 -28.5t-34 -75.5q0 -60 50 -95.5t136 -35.5h204zM344 593q0 -24 -16 -37t-43 -13t-43 13
t-16 37q0 23 16 36t43 13t43 -13t16 -36z" />
    <glyph glyph-name="aGhayn.medi" unicode="&#x63a;" horiz-adv-x="525" arabic-form="medial" 
d="M541 119v-107l-17 -12h-17q-125 0 -251 71q-128 -71 -244 -71h-12l-16 12v107l16 12h25q68 0 125 16q-71 64 -112 137v80q34 44 96 71.5t128 27.5q72 0 133.5 -27.5t91.5 -73.5v-81q-43 -69 -114 -130q69 -20 138 -20h13zM397 312q-50 34 -131 34q-77 0 -131 -33
q51 -70 131 -117q82 50 131 116zM322 577q0 -24 -16 -37t-43 -13t-43 13t-16 37q0 23 16 36t43 13t43 -13t16 -36z" />
    <glyph glyph-name="aFeh.isol" unicode="&#x641;" horiz-adv-x="800" arabic-form="isolated" 
d="M536 206q-81 0 -128 43.5t-47 120.5q0 84 51 143t124 59q93 0 158 -93.5t65 -228.5q0 -129 -81.5 -189.5t-255.5 -60.5h-37q-170 0 -260 65t-90 188q0 117 76 202l85 -50q-51 -61 -51 -133q0 -68 64 -104.5t183 -36.5h27q130 0 187 24.5t57 80.5q-52 -30 -127 -30z
M536 455q-35 0 -58 -24t-23 -60q0 -32 23 -46.5t74 -14.5q55 0 102 21q-12 56 -44 90t-74 34zM592 693q0 -24 -16 -37t-43 -13t-43 13t-16 37q0 23 16 36t43 13t43 -13t16 -36z" />
    <glyph glyph-name="aFeh.fina" unicode="&#x641;" horiz-adv-x="887" arabic-form="final" 
d="M903 121v-111l-16 -10h-25q-118 0 -224 52q-113 -52 -244 -52h-19q-163 1 -251.5 66.5t-88.5 186.5q0 117 76 202l85 -50q-51 -61 -51 -132q0 -69 63.5 -105.5t181.5 -36.5h24q58 0 107 6q-64 69 -64 142q0 75 54 128t130 53q78 0 132 -54.5t54 -135.5q0 -71 -65 -136
q28 -3 60 -3h65zM732 260q0 35 -26 58t-68 23q-38 0 -62 -19.5t-24 -51.5q0 -62 89 -105q91 35 91 95zM700 577q0 -24 -16 -37t-43 -13t-43 13t-16 37q0 23 16 36t43 13t43 -13t16 -36z" />
    <glyph glyph-name="aFeh.init" unicode="&#x641;" horiz-adv-x="461" arabic-form="initial" 
d="M196 206q-81 0 -128 44t-47 120q0 84 51.5 143t125.5 59q91 0 156 -92t65 -222q0 -133 -77.5 -195.5t-242.5 -62.5h-99l-16 10v110l16 11h88q128 0 180.5 23.5t54.5 82.5q-54 -31 -127 -31zM197 455q-35 0 -58.5 -23.5t-23.5 -60.5q0 -61 96 -61q57 0 103 22
q-13 55 -44.5 89t-72.5 34zM258 693q0 -24 -16 -37t-43 -13t-43 13t-16 37q0 23 16 36t43 13t43 -13t16 -36z" />
    <glyph glyph-name="aFeh.medi" unicode="&#x641;" horiz-adv-x="486" arabic-form="medial" 
d="M502 121v-111l-16 -10h-24q-114 0 -224 52q-110 -52 -226 -52h-12l-16 10v111l16 10h45q44 0 76 4q-65 68 -65 140q0 79 53.5 132t131.5 53q80 0 133 -55t53 -140q0 -69 -67 -131q30 -3 62 -3h64zM332 261q0 34 -27 57t-66 23q-38 0 -62.5 -19.5t-24.5 -50.5
q0 -63 92 -107q88 38 88 97zM300 577q0 -24 -16 -37t-43 -13t-43 13t-16 37q0 23 16 36t43 13t43 -13t16 -36z" />
    <glyph glyph-name="aQaf.isol" unicode="&#x642;" horiz-adv-x="712" arabic-form="isolated" 
d="M456 27q-83 0 -130 45t-47 123q0 89 50.5 150.5t124.5 61.5q92 0 157.5 -90t65.5 -219q0 -135 -91 -212.5t-247 -77.5q-146 0 -225 73.5t-79 207.5q0 131 97 237l83 -61q-70 -83 -70 -168q0 -73 50.5 -115t141.5 -42q103 0 168 31.5t74 85.5q-49 -30 -123 -30zM457 287
q-37 0 -60.5 -25t-23.5 -65q0 -62 99 -62q54 0 101 21q-15 58 -46.5 94.5t-69.5 36.5zM436 547q0 -49 -57 -49q-26 0 -41.5 12.5t-15.5 36.5q0 23 15 35.5t42 12.5t42 -12.5t15 -35.5zM586 547q0 -49 -58 -49q-25 0 -40.5 12.5t-15.5 36.5q0 48 56 48q58 0 58 -48z" />
    <glyph glyph-name="aQaf.fina" unicode="&#x642;" horiz-adv-x="733" arabic-form="final" 
d="M749 120v-110l-16 -10h-72q-30 -91 -114 -141.5t-209 -50.5q-145 0 -224 73t-79 208q0 131 97 237l83 -61q-70 -86 -70 -168q0 -74 50 -115.5t141 -41.5q164 0 224 73h-104q-81 0 -129 49.5t-48 132.5q0 88 52 150t124 62q86 0 148.5 -79.5t72.5 -196.5h57zM457 287
q-36 0 -59.5 -25t-23.5 -64q0 -67 102 -67h101q-10 67 -43.5 111.5t-76.5 44.5zM437 547q0 -49 -57 -49q-26 0 -41.5 12.5t-15.5 36.5q0 23 15 35.5t42 12.5t42 -12.5t15 -35.5zM587 547q0 -49 -58 -49q-25 0 -40.5 12.5t-15.5 36.5q0 48 56 48q58 0 58 -48z" />
    <glyph glyph-name="aQaf.init" unicode="&#x642;" horiz-adv-x="461" arabic-form="initial" 
d="M196 206q-81 0 -128 44t-47 120q0 84 51.5 143t125.5 59q91 0 156 -92t65 -222q0 -133 -77.5 -195.5t-242.5 -62.5h-99l-16 10v110l16 11h88q128 0 180.5 23.5t54.5 82.5q-54 -31 -127 -31zM197 455q-35 0 -58.5 -23.5t-23.5 -60.5q0 -61 96 -61q57 0 103 22
q-13 55 -44.5 89t-72.5 34zM181 692q0 -49 -57 -49q-26 0 -41.5 12.5t-15.5 36.5q0 23 15 35.5t42 12.5t42 -12.5t15 -35.5zM331 692q0 -49 -58 -49q-25 0 -40.5 12.5t-15.5 36.5q0 48 56 48q58 0 58 -48z" />
    <glyph glyph-name="aQaf.medi" unicode="&#x642;" horiz-adv-x="486" arabic-form="medial" 
d="M502 121v-111l-16 -10h-24q-114 0 -224 52q-110 -52 -226 -52h-12l-16 10v111l16 10h45q44 0 76 4q-65 68 -65 140q0 79 53.5 132t131.5 53q80 0 133 -55t53 -140q0 -69 -67 -131q30 -3 62 -3h64zM332 261q0 34 -27 57t-66 23q-38 0 -62.5 -19.5t-24.5 -50.5
q0 -63 92 -107q88 38 88 97zM223 576q0 -49 -57 -49q-26 0 -41.5 12.5t-15.5 36.5q0 23 15 35.5t42 12.5t42 -12.5t15 -35.5zM373 576q0 -49 -58 -49q-25 0 -40.5 12.5t-15.5 36.5q0 48 56 48q58 0 58 -48z" />
    <glyph glyph-name="aKaf.isol" unicode="&#x643;" horiz-adv-x="426" arabic-form="isolated" 
d="M28 8l-6 127q28 -4 92 -4q91 0 132 22.5t41 72.5q0 52 -46.5 85t-124.5 35l-37 105l238 214l73 -87l-163 -142q79 -26 125 -85t46 -137q0 -104 -73 -159t-212 -55q-56 0 -85 8z" />
    <glyph glyph-name="aKaf.fina" unicode="&#x643;" horiz-adv-x="472" arabic-form="final" 
d="M488 120v-110l-16 -10h-12q-88 0 -118 70q-71 -70 -229 -70q-56 0 -85 8l-6 127q28 -4 92 -4q91 0 132 22.5t41 72.5q0 52 -46.5 85t-124.5 35l-37 105l238 214l73 -87l-163 -142q79 -26 125 -85t46 -137q0 -30 -8 -62q21 -21 70 -21h12z" />
    <glyph glyph-name="aKaf.init" unicode="&#x643;" horiz-adv-x="383" arabic-form="initial" 
d="M73 346l-38 105l239 214l73 -87l-163 -142q79 -27 125 -86t46 -136q0 -105 -72 -159.5t-209 -54.5h-74l-16 11v109l16 11h89q155 0 155 95q0 52 -46.5 85t-124.5 35z" />
    <glyph glyph-name="aKaf.medi" unicode="&#x643;" horiz-adv-x="419" arabic-form="medial" 
d="M435 120v-110l-16 -10h-7q-85 0 -117 65q-71 -65 -221 -65h-74l-16 11v109l16 11h89q155 0 155 95q0 52 -46.5 85t-124.5 35l-38 105l239 214l73 -87l-163 -142q79 -27 125 -86t46 -136q0 -36 -9 -66q23 -17 65 -17h8z" />
    <glyph glyph-name="aLam.isol" unicode="&#x644;" horiz-adv-x="653" arabic-form="isolated" 
d="M601 667v-537q0 -154 -72.5 -238t-206.5 -84q-132 0 -209.5 74.5t-77.5 200.5q0 138 97 243l83 -61q-70 -84 -70 -169q0 -72 48.5 -114t133.5 -42q168 0 168 194v533h106z" />
    <glyph glyph-name="aLam.fina" unicode="&#x644;" horiz-adv-x="699" arabic-form="final" 
d="M715 120v-110l-16 -10h-6q-64 0 -101 34q-21 -109 -90.5 -167.5t-179.5 -58.5q-132 0 -209.5 74.5t-77.5 200.5q0 138 97 243l83 -61q-70 -84 -70 -169q0 -72 48.5 -114t133.5 -42q168 0 168 194v533h106v-488q2 -21 27.5 -34.5t63.5 -13.5h7z" />
    <glyph glyph-name="aLam.init" unicode="&#x644;" horiz-adv-x="256" arabic-form="initial" 
d="M203 667v-469q0 -97 -48.5 -147.5t-142.5 -50.5h-12l-16 10v110l16 11h9q87 0 87 71v465h107z" />
    <glyph glyph-name="aLam.medi" unicode="&#x644;" horiz-adv-x="300" arabic-form="medial" 
d="M316 120v-110l-16 -10h-5q-48 0 -88 17t-58 44q-30 -61 -144 -61h-5l-16 10v110l16 11h11q85 0 85 67v469h107v-483q0 -24 24.5 -38.5t66.5 -14.5h6z" />
    <glyph glyph-name="aMim.isol" unicode="&#x645;" horiz-adv-x="614" arabic-form="isolated" 
d="M145 135v-426h-106v424q0 124 84.5 199t223.5 75q105 0 169 -64t64 -170q0 -88 -49.5 -135.5t-140.5 -47.5q-85 0 -134.5 49.5t-49.5 135.5q0 56 24 98q-85 -33 -85 -138zM478 190q0 42 -27 68t-69 26q-41 0 -64 -22.5t-23 -61.5q0 -79 93 -79q90 0 90 69z" />
    <glyph glyph-name="aMim.fina" unicode="&#x645;" horiz-adv-x="671" arabic-form="final" 
d="M687 121v-111l-16 -10h-9q-34 0 -67.5 18.5t-51.5 50.5q-39 -79 -156 -79q-84 0 -132.5 50.5t-48.5 134.5q0 57 24 98q-85 -33 -85 -138v-426h-106v423q0 132 88 203.5t224 71.5q73 0 122 -31.5t82 -102.5q9 -18 20.5 -45.5t17.5 -41t16 -28.5t23 -21t31 -6h8zM478 190
q0 38 -25.5 66t-70.5 28t-66 -24.5t-21 -59.5q0 -79 93 -79q90 0 90 69z" />
    <glyph glyph-name="aMim.init" unicode="&#x645;" horiz-adv-x="510" arabic-form="initial" 
d="M15 0h-15l-16 10v111l16 10h7q35 0 53 16.5t29 58.5q48 201 195 201q82 0 137 -65.5t55 -163.5q0 -87 -48.5 -137.5t-131.5 -50.5q-97 0 -154 65q-39 -55 -127 -55zM288 121q85 0 85 71q0 39 -24 66t-60 27q-38 0 -62 -29t-46 -100q41 -35 107 -35z" />
    <glyph glyph-name="aMim.medi" unicode="&#x645;" horiz-adv-x="554" arabic-form="medial" 
d="M570 120v-110l-16 -10h-6q-76 0 -109 54q-48 -64 -143 -64q-97 0 -154 65q-39 -55 -127 -55h-15l-16 10v111l16 10h7q35 0 53 16.5t29 58.5q48 201 195 201q82 0 137 -65.5t55 -163.5q0 -13 -1 -20q23 -27 73 -27h6zM288 121q85 0 85 71q0 39 -24 66t-60 27
q-38 0 -62 -29t-46 -100q41 -35 107 -35z" />
    <glyph glyph-name="aNun.isol" unicode="&#x646;" horiz-adv-x="632" arabic-form="isolated" 
d="M417 301l99 56q38 -54 61 -126.5t23 -138.5q0 -128 -77 -206t-203 -78q-131 0 -208 74.5t-77 200.5q0 141 97 243l83 -61q-70 -86 -70 -167q0 -75 48.5 -116.5t136.5 -41.5q72 0 115.5 36.5t43.5 96.5q0 112 -72 228zM374 448q0 -24 -16 -37t-43 -13t-43 13t-16 37
q0 23 16 36t43 13t43 -13t16 -36z" />
    <glyph glyph-name="aNun.fina" unicode="&#x646;" horiz-adv-x="692" arabic-form="final" 
d="M708 120v-110l-16 -10h-11q-58 0 -88 32q-16 -103 -88 -163.5t-183 -60.5q-132 0 -209.5 75t-77.5 201q0 138 97 242l83 -61q-70 -87 -70 -169q0 -73 48.5 -114.5t139.5 -41.5q73 0 115 38t42 102q0 73 -71 225l101 52q11 -25 31 -74.5t34 -79.5q18 -41 40.5 -56.5
t54.5 -15.5h12zM374 448q0 -24 -16 -37t-43 -13t-43 13t-16 37q0 23 16 36t43 13t43 -13t16 -36z" />
    <glyph glyph-name="aNun.init" unicode="&#x646;" horiz-adv-x="275" arabic-form="initial" 
d="M27 0h-27l-16 10v110l16 11h20q107 0 107 93q0 69 -61 173l94 54q75 -107 75 -226q0 -107 -54 -166t-154 -59zM180 577q0 -24 -16 -37t-43 -13t-43 13t-16 37q0 23 16 36t43 13t43 -13t16 -36z" />
    <glyph glyph-name="aNun.medi" unicode="&#x646;" horiz-adv-x="328" arabic-form="medial" 
d="M344 120v-110l-17 -10h-9q-53 0 -92 20t-57 54q-14 -33 -56.5 -53.5t-96.5 -20.5h-16l-16 10v110l16 11h15q96 0 96 79v160h105v-151q0 -88 99 -88h12zM223 494q0 -24 -16 -37t-43 -13t-43 13t-16 37q0 23 16 36t43 13t43 -13t16 -36z" />
    <glyph glyph-name="aHeh.isol" unicode="&#x647;" horiz-adv-x="469" arabic-form="isolated" 
d="M399 610l24 -116q-232 -60 -283 -188q48 53 127 53q76 0 122.5 -47.5t46.5 -122.5q0 -88 -51.5 -141.5t-137.5 -53.5q-96 0 -155 67.5t-59 176.5q0 130 100 232t266 140zM253 114q39 0 62.5 21.5t23.5 56.5q0 32 -22 50t-64 18q-39 0 -71 -17t-47 -45q12 -39 43 -61.5
t75 -22.5z" />
    <glyph glyph-name="aHeh.fina" unicode="&#x647;" horiz-adv-x="492" arabic-form="final" 
d="M508 121v-111l-16 -10h-14q-93 0 -144 60q-46 -70 -147 -70q-75 0 -118.5 43t-43.5 118q0 69 37 115.5t122 85.5q42 19 108 37v70h105v-271q0 -27 23 -42t66 -15h6zM292 150v129q-29 -8 -70 -20q-50 -17 -72 -37t-22 -49q0 -53 73 -53q55 0 91 30z" />
    <glyph glyph-name="aHeh.init" unicode="&#x647;" horiz-adv-x="653" arabic-form="initial" 
d="M625 154q0 -77 -50.5 -118.5t-144.5 -41.5q-97 0 -195 54q-99 -48 -216 -48h-19l-16 10v111l16 10h30q45 0 92 5q-64 72 -64 146q0 78 51 129t131 51q47 0 86.5 -22t63.5 -59q99 -16 167 -81t68 -146zM328 265q0 34 -25 55t-66 21q-39 0 -63 -19.5t-24 -53.5
q0 -62 83 -106q95 38 95 103zM418 276q-4 -83 -71 -150q29 -5 68 -5q104 0 104 55q0 30 -28.5 58t-72.5 42z" />
    <glyph glyph-name="aHeh.medi" unicode="&#x647;" horiz-adv-x="686" arabic-form="medial" 
d="M702 120v-110l-16 -10h-7q-63 0 -94 46q-49 -52 -155 -52q-97 0 -195 54q-99 -48 -216 -48h-19l-16 10v111l16 10h30q45 0 92 5q-64 72 -64 146q0 78 51 129t131 51q47 0 86.5 -22t63.5 -59q99 -16 167 -81t68 -146v-7q19 -16 54 -16h7zM328 265q0 34 -25 55t-66 21
q-40 0 -63.5 -20t-23.5 -53q0 -62 83 -106q95 38 95 103zM347 126q29 -5 68 -5q104 0 104 55q0 30 -28.5 58t-72.5 42q-4 -83 -71 -150z" />
    <glyph glyph-name="aWaw.isol" unicode="&#x648;" horiz-adv-x="485" arabic-form="isolated" 
d="M230 21q-84 0 -132 46t-48 124q0 92 50.5 154t126.5 62q92 0 157 -91t65 -223q0 -136 -72 -210.5t-203 -74.5q-118 0 -184 63l36 102q27 -18 70 -30.5t84 -12.5q72 0 121 34.5t53 88.5q-46 -32 -124 -32zM226 287q-35 0 -58 -26t-23 -66q0 -61 98 -61q55 0 101 19
q-15 61 -46 97.5t-72 36.5z" />
    <glyph glyph-name="aWaw.fina" unicode="&#x648;" horiz-adv-x="503" arabic-form="final" 
d="M519 120v-110l-16 -10h-66q-23 -93 -91 -142.5t-173 -49.5q-53 0 -105.5 18t-77.5 45l36 102q27 -18 70 -30.5t84 -12.5q57 0 100 22t61 61h-110q-85 0 -133 48t-48 132q0 90 51 152t126 62q85 0 147 -79t72 -197h57zM226 287q-35 0 -58 -25t-23 -61q0 -37 23.5 -53.5
t76.5 -16.5h102q-10 69 -43.5 112.5t-77.5 43.5z" />
    <glyph glyph-name="aAlifMaksura.isol" unicode="&#x649;" horiz-adv-x="686" arabic-form="isolated" 
d="M666 387l-44 -97q-53 38 -131 38q-48 0 -77 -18.5t-29 -48.5q0 -38 63 -55l56 -15q76 -20 112 -60t36 -104q0 -95 -77 -157t-196 -62q-158 0 -251 83t-93 231q0 124 64 222l95 -43q-49 -81 -49 -165q0 -88 66.5 -142t174.5 -54q75 0 117 20.5t42 57.5q0 23 -17 37.5
t-58 25.5l-47 13q-137 38 -137 150q0 87 64 146t158 59q48 0 94 -18t64 -44z" />
    <glyph glyph-name="aAlifMaksura.fina" unicode="&#x649;" horiz-adv-x="803" arabic-form="final" 
d="M819 120v-109l-16 -11h-10q-70 0 -123.5 49t-77.5 136l-58 -54q54 -57 54 -129q0 -87 -70.5 -140.5t-185.5 -53.5q-136 0 -216.5 74t-80.5 200q0 122 80 205l84 -60q-54 -63 -54 -133q0 -69 55 -111.5t143 -42.5q63 0 99 19t36 52q0 46 -59 84l16 110l177 152l48 -19
q28 -207 137 -207h6z" />
    <glyph glyph-name="aYeh.isol" unicode="&#x64a;" horiz-adv-x="686" arabic-form="isolated" 
d="M666 387l-44 -97q-53 38 -131 38q-48 0 -77 -18.5t-29 -48.5q0 -38 63 -55l56 -15q76 -20 112 -60t36 -104q0 -95 -77 -157t-196 -62q-158 0 -251 83t-93 231q0 124 64 222l95 -43q-49 -81 -49 -165q0 -88 66.5 -142t174.5 -54q75 0 117 20.5t42 57.5q0 23 -17 37.5
t-58 25.5l-47 13q-137 38 -137 150q0 87 64 146t158 59q48 0 94 -18t64 -44zM495 -318q0 -49 -58 -49q-25 0 -40.5 12.5t-15.5 36.5q0 48 56 48q58 0 58 -48zM345 -318q0 -49 -57 -49q-26 0 -41.5 12.5t-15.5 36.5q0 23 15 35.5t42 12.5t42 -12.5t15 -35.5z" />
    <glyph glyph-name="aYeh.fina" unicode="&#x64a;" horiz-adv-x="803" arabic-form="final" 
d="M819 120v-109l-16 -11h-10q-70 0 -123.5 49t-77.5 136l-58 -54q54 -57 54 -129q0 -87 -70.5 -140.5t-185.5 -53.5q-136 0 -216.5 74t-80.5 200q0 122 80 205l84 -60q-54 -63 -54 -133q0 -69 55 -111.5t143 -42.5q63 0 99 19t36 52q0 46 -59 84l16 110l177 152l48 -19
q28 -207 137 -207h6zM464 -318q0 -49 -58 -49q-25 0 -40.5 12.5t-15.5 36.5q0 48 56 48q58 0 58 -48zM314 -318q0 -49 -57 -49q-26 0 -41.5 12.5t-15.5 36.5q0 23 15 35.5t42 12.5t42 -12.5t15 -35.5z" />
    <glyph glyph-name="aYeh.init" unicode="&#x64a;" horiz-adv-x="275" arabic-form="initial" 
d="M27 0h-27l-16 10v110l16 11h20q107 0 107 93q0 69 -61 173l94 54q75 -107 75 -226q0 -107 -54 -166t-154 -59zM268 -114q0 -49 -58 -49q-25 0 -40.5 12.5t-15.5 36.5q0 48 56 48q58 0 58 -48zM118 -114q0 -49 -57 -49q-26 0 -41.5 12.5t-15.5 36.5q0 23 15 35.5t42 12.5
t42 -12.5t15 -35.5z" />
    <glyph glyph-name="aYeh.medi" unicode="&#x64a;" horiz-adv-x="328" arabic-form="medial" 
d="M344 120v-110l-17 -10h-9q-53 0 -92 20t-57 54q-14 -33 -56.5 -53.5t-96.5 -20.5h-16l-16 10v110l16 11h15q96 0 96 79v160h105v-151q0 -88 99 -88h12zM296 -114q0 -49 -58 -49q-25 0 -40.5 12.5t-15.5 36.5q0 48 56 48q58 0 58 -48zM146 -114q0 -49 -57 -49
q-26 0 -41.5 12.5t-15.5 36.5q0 23 15 35.5t42 12.5t42 -12.5t15 -35.5z" />
    <glyph glyph-name=".notdef" horiz-adv-x="500" 
d="M450 0h-400v750h400v-750zM100 50h300v650h-300v-650z" />
    <glyph glyph-name=".null" 
 />
    <glyph glyph-name=".null" 
 />
    <glyph glyph-name=".null" 
 />
    <glyph glyph-name="nonmarkingreturn" horiz-adv-x="333" 
 />
    <glyph glyph-name="CR" unicode="&#x9;" horiz-adv-x="200" 
 />
    <glyph glyph-name="CR" unicode="&#xd;" horiz-adv-x="200" 
 />
    <glyph glyph-name="space" unicode=" " horiz-adv-x="200" 
 />
    <glyph glyph-name="exclam" unicode="!" horiz-adv-x="241" 
d="M188 211h-132v456h132v-456zM121 -11q-35 0 -58.5 24t-23.5 57t23.5 57t58.5 24q34 0 57.5 -24.5t23.5 -56.5q0 -33 -23 -57t-58 -24z" />
    <glyph glyph-name="quotedbl" unicode="&#x22;" horiz-adv-x="416" 
d="M371 371h-125v296h125v-296zM170 371h-125v296h125v-296z" />
    <glyph glyph-name="numbersign" unicode="#" horiz-adv-x="671" 
d="M174 206h-139v114h139v101h-139v113h139v133h114v-133h100v133h113v-133h140v-113h-140v-101h140v-114h-140v-132h-113v132h-100v-132h-114v132zM288 421v-101h100v101h-100z" />
    <glyph glyph-name="dollar" unicode="$" horiz-adv-x="540" 
d="M324 -139h-91v128q-149 19 -212 132l106 64q50 -81 144 -81q48 0 76.5 18.5t28.5 50.5q0 21 -7.5 37.5t-24 29t-29.5 19t-38 17.5q-11 5 -39 16t-41.5 16.5t-38 17.5t-37 21.5t-29.5 25.5t-25 32.5t-14.5 39.5t-6.5 49q0 77 53.5 123t133.5 59v147h91v-144
q131 -15 188 -120l-110 -57q-42 64 -122 64q-46 0 -73.5 -18t-27.5 -50q0 -48 92 -82q8 -3 33.5 -13t35 -14t32 -14.5t32.5 -17t28.5 -18.5t27 -22.5t21 -26t17.5 -31t9.5 -36t4.5 -42.5q0 -80 -53.5 -129t-134.5 -62v-129z" />
    <glyph glyph-name="percent" unicode="%" horiz-adv-x="740" 
d="M495 5q-45 20 -69.5 58.5t-24.5 84.5q0 64 44.5 110.5t124.5 46.5q79 0 123 -46.5t44 -109.5q0 -64 -44.5 -110.5t-123.5 -46.5q-44 0 -74 13zM98 375q-45 20 -69.5 58.5t-24.5 84.5q0 64 44.5 110.5t123.5 46.5t123.5 -46.5t44.5 -109.5q0 -64 -44.5 -110.5
t-123.5 -46.5q-44 0 -74 13zM523 100q15 -22 45 -22q28 0 44 21t16 50t-16 50t-44 21t-44 -21t-16 -50q0 -27 15 -49zM125 471q15 -23 46 -23q28 0 44 21.5t16 50.5t-16 50t-44 21q-29 0 -44.5 -21t-15.5 -50q0 -26 14 -49zM735 607l-658 -611l-65 70l655 610z" />
    <glyph glyph-name="ampersand" unicode="&#x26;" horiz-adv-x="668" 
d="M646 0h-152l-66 86q-28 -35 -46.5 -52t-54 -31t-83.5 -14q-93 0 -149.5 58t-56.5 140q0 63 36 121.5t108 98.5q-51 62 -51 118q0 65 49 103.5t125 38.5q69 0 110 -25t67 -72l-102 -57q-29 57 -75 57q-21 0 -35 -11.5t-14 -29.5q0 -25 29 -60l137 -177q69 127 138 173
l68 -92q-9 -7 -17.5 -15t-17 -18t-14.5 -17.5t-15 -20.5l-13.5 -19.5t-14 -22.5t-12.5 -21.5t-13.5 -23.5t-12.5 -22zM356 179l-105 138q-41 -25 -62.5 -60.5t-21.5 -70.5q0 -37 23 -63.5t62 -26.5q31 0 53.5 20.5t50.5 62.5z" />
    <glyph glyph-name="quotesingle" unicode="'" horiz-adv-x="225" 
d="M175 371h-125v296h125v-296z" />
    <glyph glyph-name="parenleft" unicode="(" horiz-adv-x="312" 
d="M322 24l-40 -81q-117 58 -179.5 159t-62.5 239q0 137 63 238.5t179 159.5l39 -82q-149 -106 -149 -316q0 -211 150 -317z" />
    <glyph glyph-name="parenright" unicode=")" horiz-adv-x="312" 
d="M30 -57l-40 81q150 106 150 317q0 210 -149 316l39 82q116 -58 179 -159.5t63 -238.5q0 -138 -62.5 -239t-179.5 -159z" />
    <glyph glyph-name="asterisk" unicode="*" horiz-adv-x="455" 
d="M176 444l-96 -61l-51 86l109 66l-111 68l57 81l92 -59v100h99v-100l95 59l58 -81l-110 -67l107 -67l-51 -86l-99 61v-105h-99v105z" />
    <glyph glyph-name="plus" unicode="+" horiz-adv-x="540" 
d="M324 77h-109v198h-192v110h192v201h109v-201h192v-110h-192v-198z" />
    <glyph glyph-name="comma" unicode="," horiz-adv-x="233" 
d="M20 -106l-17 52q52 12 76 41q-30 21 -30 66q0 33 19 57t53 24q32 0 53 -23t21 -56q0 -47 -44 -93t-131 -68z" />
    <glyph glyph-name="hyphen" unicode="-" horiz-adv-x="330" 
d="M292 201h-254v119h254v-119z" />
    <glyph glyph-name="period" unicode="." horiz-adv-x="222" 
d="M112 -11q-36 0 -55 21t-19 51t19 51.5t55 21.5q34 0 53 -21.5t19 -51.5q0 -29 -18.5 -50.5t-53.5 -21.5z" />
    <glyph glyph-name="slash" unicode="/" horiz-adv-x="543" 
d="M101 -32l-101 57l444 741l99 -53z" />
    <glyph glyph-name="zero" unicode="0" horiz-adv-x="540" 
d="M151 17q-67 45 -99.5 129.5t-32.5 183.5q0 63 13.5 121t41 109.5t78.5 82.5t118 31t118 -31t78.5 -82.5t41 -109.5t13.5 -121t-13.5 -121t-41 -109.5t-78.5 -82.5t-118 -31q-72 0 -119 31zM183 168q31 -67 87 -67q57 0 85.5 64t28.5 166t-28 165t-86 63t-86 -63t-28 -165
t27 -163z" />
    <glyph glyph-name="one" unicode="1" horiz-adv-x="540" 
d="M391 0h-137v508l-126 -76l-62 97l220 133h105v-662z" />
    <glyph glyph-name="two" unicode="2" horiz-adv-x="540" 
d="M510 0h-453v78q177 185 233 257q63 81 63 142q0 39 -22.5 60.5t-64.5 21.5q-73 0 -132 -99l-109 59q35 69 99 112t156 43q91 0 151 -49.5t60 -138.5q0 -105 -91 -215q-16 -20 -37.5 -43.5t-37 -39.5t-39 -40.5t-33.5 -34.5h257v-113z" />
    <glyph glyph-name="three" unicode="3" horiz-adv-x="540" 
d="M14 129l107 62q55 -90 142 -90q46 0 76 24t30 64q0 46 -38 70.5t-107 25.5v101q134 11 134 100q0 33 -24.5 52.5t-69.5 19.5q-74 0 -122 -87l-107 62q78 141 247 141q89 0 150 -49.5t61 -130.5q0 -119 -86 -151q97 -37 97 -148q0 -98 -70 -152t-170 -54q-169 0 -250 140z
" />
    <glyph glyph-name="four" unicode="4" horiz-adv-x="540" 
d="M319 167h-292v99l315 396h108v-380h69v-115h-69v-167h-131v167zM319 459l-139 -177h139v177z" />
    <glyph glyph-name="five" unicode="5" horiz-adv-x="540" 
d="M38 114l107 65q27 -42 54.5 -59.5t65.5 -17.5q43 0 71.5 27t28.5 73q0 64 -45 96.5t-154 32.5h-86v331h387v-112h-268v-113h4q136 0 215.5 -56.5t79.5 -172.5q0 -103 -68 -161t-163 -58q-154 0 -229 125z" />
    <glyph glyph-name="six" unicode="6" horiz-adv-x="540" 
d="M412 674l27 -102q-79 -18 -139.5 -61.5t-87.5 -104.5q41 26 93 26q87 0 140 -61t53 -156t-58 -160.5t-164 -65.5q-96 0 -161.5 62.5t-65.5 186.5q0 71 23 141t66.5 131t114.5 105.5t159 58.5zM228 312q-20 -7 -35 -15q-7 -26 -7 -67q0 -62 27.5 -94.5t64.5 -32.5
q39 0 62 27.5t23 74.5q0 53 -24.5 84t-64.5 31q-22 0 -46 -8z" />
    <glyph glyph-name="seven" unicode="7" horiz-adv-x="540" 
d="M247 0h-141l243 550h-319v112h477v-80z" />
    <glyph glyph-name="eight" unicode="8" horiz-adv-x="540" 
d="M90 312q17 19 37 30q-75 55 -75 142q0 77 61.5 133.5t157.5 56.5t157 -55.5t61 -132.5q0 -39 -19.5 -78.5t-55.5 -64.5q40 -24 62.5 -67.5t22.5 -87.5q0 -81 -62 -140t-167 -59t-167 58.5t-62 139.5q0 70 49 125zM207 420q26 -29 63 -29q38 0 62 28.5t24 62.5
q0 32 -24 58t-62 26q-37 0 -61 -26t-24 -59q0 -36 22 -61zM198 129q25 -27 73 -27q46 0 71 25.5t25 65.5t-27 67t-71 27q-43 0 -69 -27t-26 -65q0 -37 24 -66z" />
    <glyph glyph-name="nine" unicode="9" horiz-adv-x="540" 
d="M130 -11l-27 103q78 17 139 63.5t89 109.5q-39 -26 -94 -26q-89 0 -141 64t-52 151q0 89 58.5 154.5t163.5 65.5q95 0 161 -64t66 -188q0 -100 -39 -189t-123 -156t-201 -88zM310 355q16 4 39 16q7 23 7 59q0 63 -27.5 96t-63.5 33q-39 0 -62 -31t-23 -73t24 -73t64 -31
q25 0 42 4z" />
    <glyph glyph-name="colon" unicode=":" horiz-adv-x="222" 
d="M112 337q-36 0 -55 21t-19 51t19 51.5t55 21.5q34 0 53 -21.5t19 -51.5q0 -29 -18.5 -50.5t-53.5 -21.5zM112 -11q-36 0 -55 21t-19 51t19 51.5t55 21.5q34 0 53 -21.5t19 -51.5q0 -29 -18.5 -50.5t-53.5 -21.5z" />
    <glyph glyph-name="semicolon" unicode=";" horiz-adv-x="233" 
d="M20 -106l-17 52q52 12 76 41q-30 21 -30 66q0 33 19 57t53 24q32 0 53 -23t21 -56q0 -47 -44 -93t-131 -68zM127 337q-36 0 -55 21t-19 51t19 51.5t55 21.5q34 0 53 -21.5t19 -51.5q0 -29 -18.5 -50.5t-53.5 -21.5z" />
    <glyph glyph-name="less" unicode="&#x3c;" horiz-adv-x="540" 
d="M491 128l-468 163v83l459 155l34 -110l-263 -85l273 -94z" />
    <glyph glyph-name="equal" unicode="=" horiz-adv-x="540" 
d="M516 370h-493v110h493v-110zM516 155h-493v110h493v-110z" />
    <glyph glyph-name="greater" unicode="&#x3e;" horiz-adv-x="540" 
d="M517 291l-468 -163l-35 112l273 94l-263 85l34 110l459 -155v-83z" />
    <glyph glyph-name="question" unicode="?" horiz-adv-x="422" 
d="M264 211h-127v42q0 63 66 129q8 9 27.5 27.5t28 28.5t17 27t8.5 35q0 35 -21 54t-60 19q-65 0 -119 -81l-96 64q80 125 223 125q98 0 151.5 -49.5t53.5 -135.5q0 -31 -14 -61t-29 -48t-41 -44q-50 -52 -60 -75q-8 -17 -8 -33v-24zM167 -4q-21 9 -34.5 29.5t-13.5 44.5
q0 32 23.5 56.5t57.5 24.5q35 0 58.5 -24t23.5 -57t-23.5 -57t-58.5 -24q-19 0 -33 7z" />
    <glyph glyph-name="at" unicode="@" horiz-adv-x="813" 
d="M280 4l-102 -69q-56 60 -91 145.5t-35 172.5q0 108 34 193t91 134.5t124 75t139 25.5q58 0 107.5 -12.5t90.5 -38.5t64.5 -71.5t23.5 -106.5v-439q0 -50 47 -50q36 0 61 21l36 -96q-61 -33 -118 -33q-68 0 -111 36.5t-43 107.5v21q-51 -20 -97 -20q-94 0 -148.5 69
t-54.5 161q0 102 58.5 160.5t146.5 58.5q47 0 95 -18v25q0 114 -159 114q-46 0 -89.5 -18.5t-82 -55t-61.5 -100t-23 -145.5q0 -129 97 -247zM597 126v197q-36 17 -76 17q-41 0 -66.5 -28.5t-25.5 -83.5q0 -57 26 -89.5t66 -32.5q41 0 76 20z" />
    <glyph glyph-name="A" unicode="A" horiz-adv-x="648" 
d="M136 0h-136l274 667h95l278 -667h-145l-54 134h-257zM318 466l-86 -219h172z" />
    <glyph glyph-name="B" unicode="B" horiz-adv-x="598" 
d="M351 0h-274v667h238q98 0 159 -48.5t61 -131.5q0 -85 -81 -134q56 -19 87.5 -61.5t31.5 -103.5q0 -56 -31 -103t-90 -69q-45 -16 -101 -16zM210 553v-159h66q59 0 74 9q49 22 49 69q0 55 -62 75q-26 6 -72 6h-55zM210 285v-171h96q63 0 88 13q42 23 42 66q0 51 -50 77
q-29 15 -82 15h-94z" />
    <glyph glyph-name="C" unicode="C" horiz-adv-x="608" 
d="M479 197l105 -64q-44 -79 -101 -113t-140 -34q-135 0 -216.5 91.5t-81.5 253.5q0 87 24 155t65.5 110t93.5 63.5t111 21.5q170 0 241 -156l-109 -61q-23 48 -52.5 73.5t-76.5 25.5q-67 0 -113.5 -60t-46.5 -172q0 -102 47.5 -164t118.5 -62q41 0 72 20t59 72z" />
    <glyph glyph-name="D" unicode="D" horiz-adv-x="661" 
d="M280 0h-203v667h198q102 0 172 -30q84 -39 127.5 -119.5t43.5 -180.5q0 -98 -44.5 -181t-127.5 -122q-72 -34 -166 -34zM212 547v-427h54q74 0 121 25q46 24 70 74.5t24 111.5q0 60 -21.5 109.5t-64.5 76.5q-46 30 -126 30h-57z" />
    <glyph glyph-name="E" unicode="E" horiz-adv-x="586" 
d="M558 0h-481v667h458v-121h-323v-152h267v-121h-267v-152h346v-121z" />
    <glyph glyph-name="F" unicode="F" horiz-adv-x="536" 
d="M212 0h-135v667h454v-121h-319v-158h254v-119h-254v-269z" />
    <glyph glyph-name="G" unicode="G" horiz-adv-x="627" 
d="M461 236h-109v115h235v-321q-101 -44 -243 -44q-132 0 -215.5 92t-83.5 253q0 170 84.5 260t209.5 90q89 0 145.5 -35.5t92.5 -110.5l-109 -61q-43 89 -126 89q-66 0 -113 -60.5t-47 -171.5q0 -101 51 -163.5t126 -62.5q66 0 102 11v120z" />
    <glyph glyph-name="H" unicode="H" horiz-adv-x="689" 
d="M212 0h-135v667h135v-264h265v264h135v-667h-135v282h-265v-282z" />
    <glyph glyph-name="I" unicode="I" horiz-adv-x="289" 
d="M212 0h-135v667h135v-667z" />
    <glyph glyph-name="J" unicode="J" horiz-adv-x="297" 
d="M-18 -143l-25 114q68 14 98 42.5t30 75.5v578h135v-600q0 -170 -238 -210z" />
    <glyph glyph-name="K" unicode="K" horiz-adv-x="639" 
d="M212 0h-135v667h135v-255l256 255h160l-262 -260l275 -407h-152l-215 316l-62 -62v-254z" />
    <glyph glyph-name="L" unicode="L" horiz-adv-x="553" 
d="M548 0h-471v667h135v-546h336v-121z" />
    <glyph glyph-name="M" unicode="M" horiz-adv-x="806" 
d="M210 0h-133v667h138l197 -444l178 444h139v-667h-133v373l-161 -377h-48l-177 381v-377z" />
    <glyph glyph-name="N" unicode="N" horiz-adv-x="695" 
d="M210 0h-133v667h138l270 -416v416h133v-667h-118l-290 441v-441z" />
    <glyph glyph-name="O" unicode="O" horiz-adv-x="707" 
d="M217 16q-84 44 -128 130t-44 188q0 66 19.5 127t56.5 110.5t97 79.5t134 30q75 0 135.5 -30t98 -79.5t57 -110.5t19.5 -127t-19.5 -127t-57 -111t-98 -80t-135.5 -30q-76 0 -135 30zM225 175q47 -70 127 -70q81 0 127 67.5t46 161.5t-46 161.5t-127 67.5
q-79 0 -125 -67.5t-46 -161.5t44 -159z" />
    <glyph glyph-name="P" unicode="P" horiz-adv-x="592" 
d="M209 0h-132v667h210q110 0 177 -32q49 -23 74 -69.5t25 -103.5q0 -63 -31.5 -118.5t-86.5 -78.5q-62 -25 -144 -25h-92v-240zM209 552v-197h75q64 0 93 14q53 23 53 85q0 67 -56 86q-34 12 -85 12h-80z" />
    <glyph glyph-name="Q" unicode="Q" horiz-adv-x="707" 
d="M570 -37l-16 -107q-121 4 -187 38.5t-91 101.5q-74 18 -128 71t-78.5 121.5t-24.5 145.5q0 66 19.5 127t56.5 110.5t97 79.5t134 30q75 0 135.5 -30t98 -79.5t57 -110.5t19.5 -127q0 -113 -58 -208.5t-161 -126.5q19 -36 127 -36zM225 175q47 -70 127 -70q81 0 127 67.5
t46 161.5t-46 161.5t-127 67.5q-79 0 -125 -67.5t-46 -161.5t44 -159z" />
    <glyph glyph-name="R" unicode="R" horiz-adv-x="623" 
d="M209 0h-132v667h271q45 0 84 -9.5t75 -30.5t56.5 -61.5t20.5 -96.5q0 -76 -38.5 -132t-116.5 -79l171 -258h-153l-165 250h-73v-250zM209 551v-186h103q139 0 139 91q0 49 -32 72t-107 23h-103z" />
    <glyph glyph-name="S" unicode="S" horiz-adv-x="556" 
d="M26 109l103 68q47 -77 150 -77q51 0 81.5 20t30.5 53q0 42 -31 67t-123 57q-95 33 -141 76t-46 122q0 85 60.5 135.5t174.5 50.5q158 0 234 -116l-97 -69q-48 74 -138 74q-50 0 -77 -17.5t-27 -47.5q0 -33 31.5 -55.5t104.5 -49.5q108 -38 157.5 -86.5t49.5 -133.5
q0 -93 -71 -143.5t-171 -50.5q-181 0 -255 123z" />
    <glyph glyph-name="T" unicode="T" horiz-adv-x="543" 
d="M340 0h-136v546h-199v121h533v-121h-198v-546z" />
    <glyph glyph-name="U" unicode="U" horiz-adv-x="687" 
d="M208 667v-425q0 -62 36 -99.5t100 -37.5t99.5 37.5t35.5 99.5v425h135v-438q0 -111 -77 -177t-194 -66q-116 0 -193 66t-77 177v438h135z" />
    <glyph glyph-name="V" unicode="V" horiz-adv-x="634" 
d="M378 0h-83l-295 667h144l191 -458l166 458h133z" />
    <glyph glyph-name="W" unicode="W" horiz-adv-x="778" 
d="M237 0h-85l-152 667h135l82 -396l130 396h83l130 -396l84 396h134l-153 -667h-85l-152 447z" />
    <glyph glyph-name="X" unicode="X" horiz-adv-x="579" 
d="M151 0h-151l217 347l-202 320h152l122 -203l122 203h152l-201 -320l217 -347h-151l-139 230z" />
    <glyph glyph-name="Y" unicode="Y" horiz-adv-x="581" 
d="M360 0h-135v268l-225 399h150l145 -265l138 265h148l-221 -399v-268z" />
    <glyph glyph-name="Z" unicode="Z" horiz-adv-x="574" 
d="M545 0h-511v110l340 436h-312v121h477v-114l-337 -432h343v-121z" />
    <glyph glyph-name="bracketleft" unicode="[" horiz-adv-x="300" 
d="M300 -143h-234v879h234v-110h-109v-659h109v-110z" />
    <glyph glyph-name="backslash" unicode="\" horiz-adv-x="543" 
d="M543 25l-101 -57l-442 745l99 53z" />
    <glyph glyph-name="bracketright" unicode="]" horiz-adv-x="300" 
d="M234 -143h-234v110h110v659h-110v110h234v-879z" />
    <glyph glyph-name="asciicircum" unicode="^" horiz-adv-x="552" 
d="M182 283l-121 39l165 345h97l169 -330l-117 -45l-100 213z" />
    <glyph glyph-name="underscore" unicode="_" horiz-adv-x="560" 
d="M560 -240h-560v90h560v-90z" />
    <glyph glyph-name="grave" unicode="`" horiz-adv-x="442" 
d="M318 538l-229 112l63 83l201 -141z" />
    <glyph glyph-name="a" unicode="a" horiz-adv-x="514" 
d="M452 0h-120l-6 36q-45 -47 -125 -47q-68 0 -117.5 42t-49.5 111q0 68 50.5 107t130.5 52q3 1 105 12v16q0 29 -19.5 47t-47.5 18q-51 0 -93 -43l-89 62q64 81 190 81q88 0 139.5 -45t51.5 -139v-310zM321 127v98q-39 -1 -85 -10q-75 -15 -75 -70q0 -25 18 -39t53 -14
q49 0 89 35z" />
    <glyph glyph-name="b" unicode="b" horiz-adv-x="553" 
d="M196 667v-184q44 11 85 11q113 0 175 -72t62 -172q0 -132 -73.5 -196.5t-188.5 -64.5q-91 0 -191 41v637h131zM196 378v-275q43 -9 55 -9q64 0 102 40t38 113q0 69 -36.5 105.5t-94.5 36.5q-28 0 -64 -11z" />
    <glyph glyph-name="c" unicode="c" horiz-adv-x="487" 
d="M378 169l98 -53q-60 -127 -206 -127q-98 0 -166.5 66.5t-68.5 183.5q0 122 66 188.5t161 66.5q81 0 133 -41t73 -99l-103 -51q-31 87 -100 87q-43 0 -72.5 -38t-29.5 -111q0 -68 30 -106.5t80 -38.5q37 0 61 18t44 55z" />
    <glyph glyph-name="d" unicode="d" horiz-adv-x="557" 
d="M492 0h-119l-6 37q-46 -48 -116 -48q-100 0 -158 74t-58 180q0 102 63 176.5t178 74.5q39 0 86 -14v187h130v-667zM362 137v238q-39 14 -70 14q-62 0 -96 -42t-34 -101q0 -65 29.5 -108t85.5 -43q24 0 49 12.5t36 29.5z" />
    <glyph glyph-name="e" unicode="e" horiz-adv-x="525" 
d="M495 210h-329q5 -57 36 -86t74 -29q38 0 65.5 13.5t55.5 53.5l97 -59q-40 -61 -93.5 -87.5t-128.5 -26.5q-102 0 -169.5 64.5t-67.5 187.5q0 117 67 185t167 68q104 0 164 -72t62 -212zM169 299h193q-4 45 -31 70.5t-62 25.5t-64.5 -26.5t-35.5 -69.5z" />
    <glyph glyph-name="f" unicode="f" horiz-adv-x="335" 
d="M214 0h-131v382h-67v100h67v17q0 91 46 136.5t122 45.5q88 0 148 -29l-38 -100q-42 20 -89 20q-59 0 -59 -74v-16h109v-100h-108v-382z" />
    <glyph glyph-name="g" unicode="g" horiz-adv-x="533" 
d="M515 495l-70 -74q40 -45 40 -106q0 -85 -64.5 -131.5t-156.5 -46.5q-35 0 -69 8q-15 -9 -15 -23q0 -9 9 -15t39.5 -11t85.5 -6q110 -4 161 -35t51 -107q0 -41 -20.5 -71.5t-56 -46.5t-77 -23.5t-91.5 -7.5q-49 0 -91 7t-78.5 23t-57.5 45t-21 69q0 62 56 92
q-35 28 -35 69q0 49 55 81q-64 51 -64 130q0 85 64 132t155 47q47 0 101 -20l77 81zM169 314q0 -38 26 -59t69 -21t70 21t27 58q0 38 -27 61t-70 23q-42 0 -68.5 -22.5t-26.5 -60.5zM217 -6q-16 1 -41 5q-27 -18 -27 -45q0 -62 135 -62q128 0 128 47q0 18 -10 28t-43.5 16
t-100.5 7q-28 2 -41 4z" />
    <glyph glyph-name="h" unicode="h" horiz-adv-x="577" 
d="M196 0h-131v667h131v-217q59 44 138 44q181 0 181 -208v-286h-131v277q0 57 -23 85t-58 28q-50 0 -107 -47v-343z" />
    <glyph glyph-name="i" unicode="i" horiz-adv-x="260" 
d="M130 537q-37 0 -57.5 21t-20.5 50q0 28 20.5 49t57.5 21t57.5 -21t20.5 -49q0 -29 -20.5 -50t-57.5 -21zM195 0h-130v482h130v-482z" />
    <glyph glyph-name="j" unicode="j" horiz-adv-x="270" 
d="M141 537q-37 0 -57.5 21t-20.5 50q0 28 20.5 49t57.5 21q36 0 56.5 -21t20.5 -49q0 -29 -20.5 -50t-56.5 -21zM64 -196l-72 80q50 34 66.5 61t16.5 74v463h130v-463q0 -77 -33.5 -126.5t-107.5 -88.5z" />
    <glyph glyph-name="k" unicode="k" horiz-adv-x="522" 
d="M196 0h-131v667h131v-321l151 136h157l-166 -149l190 -333h-147l-138 249l-47 -44v-205z" />
    <glyph glyph-name="l" unicode="l" horiz-adv-x="261" 
d="M196 0h-131v667h131v-667z" />
    <glyph glyph-name="m" unicode="m" horiz-adv-x="881" 
d="M196 0h-131v482h120l5 -36q55 48 127 48q83 0 137 -47q82 47 165 47q109 0 154.5 -51.5t45.5 -153.5v-289h-130v283q0 107 -89 107q-26 0 -55.5 -13t-44.5 -26q6 -32 6 -60v-291h-130v283q0 107 -80 107q-53 0 -100 -47v-343z" />
    <glyph glyph-name="n" unicode="n" horiz-adv-x="581" 
d="M196 0h-131v482h119l6 -38q62 50 147 50t133.5 -50.5t48.5 -158.5v-285h-131v275q0 55 -24 85t-67 30q-51 0 -101 -48v-342z" />
    <glyph glyph-name="o" unicode="o" horiz-adv-x="556" 
d="M171 11q-65 32 -100.5 95t-35.5 137q0 102 64 176.5t179 74.5t179 -74.5t64 -176.5t-64 -178t-179 -76q-62 0 -107 22zM192 139q30 -43 86 -43q54 0 84.5 41.5t30.5 105.5q0 63 -30.5 104.5t-84.5 41.5t-84.5 -41.5t-30.5 -104.5t29 -104z" />
    <glyph glyph-name="p" unicode="p" horiz-adv-x="554" 
d="M196 -189h-131v671h119l6 -36q50 48 119 48q99 0 154.5 -73t55.5 -179q0 -103 -66 -178t-190 -75q-33 0 -67 14v-192zM195 344v-233q33 -14 61 -14q66 0 101 42t35 101q0 61 -29 105.5t-81 44.5q-26 0 -50 -13.5t-37 -32.5z" />
    <glyph glyph-name="q" unicode="q" horiz-adv-x="554" 
d="M489 -189h-131v187q-35 -9 -72 -9q-118 0 -184.5 73t-66.5 180q0 106 69.5 179t202.5 73q61 0 182 -16v-667zM358 109v277q-25 4 -50 4q-71 0 -108.5 -43t-37.5 -105q0 -64 37.5 -105t105.5 -41q25 0 53 13z" />
    <glyph glyph-name="r" unicode="r" horiz-adv-x="371" 
d="M196 0h-131v482h119l6 -42q48 52 112 52q30 0 75 -15l-23 -113q-42 17 -72 17q-54 0 -86 -43v-338z" />
    <glyph glyph-name="s" unicode="s" horiz-adv-x="485" 
d="M29 103l97 59q40 -75 124 -75q40 0 62.5 12.5t22.5 34.5t-25.5 38t-87.5 27q-82 15 -125.5 50.5t-43.5 100.5q0 64 54 104t144 40q142 0 204 -91l-92 -63q-42 56 -112 56q-74 0 -74 -45q0 -22 18.5 -32t75.5 -22q94 -19 140 -54t46 -103q0 -75 -57.5 -113t-149.5 -38
q-156 0 -221 114z" />
    <glyph glyph-name="t" unicode="t" horiz-adv-x="368" 
d="M216 382v-246q0 -21 9.5 -30.5t21.5 -9.5q33 0 72 31l47 -89q-74 -49 -147 -49q-56 0 -94.5 31.5t-38.5 96.5v265h-71v100h71v125h130v-125h117v-100h-117z" />
    <glyph glyph-name="u" unicode="u" horiz-adv-x="579" 
d="M514 0h-120l-5 38q-61 -48 -145 -48q-89 0 -135.5 51.5t-46.5 153.5v287h131v-274q0 -112 84 -112q54 0 106 42v344h131v-482z" />
    <glyph glyph-name="v" unicode="v" horiz-adv-x="533" 
d="M326 0h-113l-213 482h139l133 -320l128 320h133z" />
    <glyph glyph-name="w" unicode="w" horiz-adv-x="717" 
d="M267 0h-95l-172 482h136l87 -290l95 290h80l96 -290l87 290h136l-172 -482h-95l-92 279z" />
    <glyph glyph-name="x" unicode="x" horiz-adv-x="511" 
d="M139 0h-136l181 238l-184 244h147l111 -149l111 149h134l-176 -235l184 -247h-147l-112 152z" />
    <glyph glyph-name="y" unicode="y" horiz-adv-x="517" 
d="M7 -174l41 93q35 -17 69 -17q30 0 46 35l37 83l-200 462h139l126 -329l120 329h132l-250 -596q-39 -87 -138 -87q-59 0 -122 27z" />
    <glyph glyph-name="z" unicode="z" horiz-adv-x="508" 
d="M470 0h-434v89l276 293h-265v100h415v-94l-272 -289h280v-99z" />
    <glyph glyph-name="braceleft" unicode="{" horiz-adv-x="293" 
d="M293 24l-11 -86q-92 1 -136 37.5t-44 112.5v128q0 37 -20 56t-65 25v74q45 6 65 25t20 56v129q0 75 43.5 111.5t136.5 38.5l11 -87q-45 -2 -58.5 -22.5t-13.5 -61.5v-108q0 -89 -71 -118q71 -33 71 -118v-110q0 -40 13.5 -60t58.5 -22z" />
    <glyph glyph-name="bar" unicode="|" horiz-adv-x="275" 
d="M199 -74h-125v812h125v-812z" />
    <glyph glyph-name="braceright" unicode="}" horiz-adv-x="293" 
d="M11 -62l-11 86q45 2 58.5 22t13.5 60v110q0 85 71 118q-71 29 -71 118v108q0 41 -13.5 61.5t-58.5 22.5l11 87q93 -2 137 -38.5t44 -111.5v-129q0 -37 20 -56t65 -25v-74q-45 -6 -65 -25t-20 -56v-128q0 -149 -181 -150z" />
    <glyph glyph-name="asciitilde" unicode="~" horiz-adv-x="474" 
d="M113 506h-115q23 144 148 144q50 0 98.5 -27t64.5 -27q20 0 33.5 11.5t18.5 44.5h115q-6 -76 -45 -112.5t-97 -36.5q-49 0 -98.5 27.5t-71.5 27.5q-42 0 -51 -52z" />
    <glyph glyph-name="uni00A0" unicode="&#xa0;" horiz-adv-x="200" 
 />
    <glyph glyph-name="exclamdown" unicode="&#xa1;" horiz-adv-x="241" 
d="M121 332q-35 0 -58.5 24t-23.5 57t23.5 57t58.5 24q34 0 57.5 -24.5t23.5 -56.5q0 -33 -23 -57t-58 -24zM188 -185h-132v457h132v-457z" />
    <glyph glyph-name="cent" unicode="&#xa2;" horiz-adv-x="540" 
d="M335 -11h-84v147q-80 14 -124 69.5t-44 125.5q0 74 43 130t125 67v139h84v-138q69 -4 123 -49l-53 -89q-59 41 -105 41q-48 0 -71 -30t-23 -72q0 -38 25 -67t73 -31q38 0 102 30l42 -89q-57 -32 -113 -39v-145z" />
    <glyph glyph-name="sterling" unicode="&#xa3;" horiz-adv-x="540" 
d="M505 0h-401v246h-70v109h70v104q0 100 59 157.5t147 57.5q69 0 121.5 -33t78.5 -99l-117 -55q-33 69 -83 69q-31 0 -54.5 -25t-23.5 -78v-98h199v-109h-199v-125h273v-121z" />
    <glyph glyph-name="currency" unicode="&#xa4;" horiz-adv-x="738" 
d="M86 14l-86 83l160 152q-31 55 -31 119q0 62 28 114l-157 148l90 81l148 -141q56 33 129 33q75 0 132 -34l149 142l90 -81l-158 -148q26 -48 26 -111q0 -67 -31 -120l163 -154l-86 -83l-161 152q-56 -30 -126 -30q-66 0 -120 29zM281 281q33 -36 86 -36t86.5 35.5
t33.5 88.5t-33.5 89t-86.5 36t-86 -35.5t-33 -89.5q0 -52 33 -88z" />
    <glyph glyph-name="yen" unicode="&#xa5;" horiz-adv-x="540" 
d="M340 0h-135v237h-156v108h113l-181 317h150l145 -262l137 262h146l-178 -317h113v-108h-154v-237z" />
    <glyph glyph-name="brokenbar" unicode="&#xa6;" horiz-adv-x="275" 
d="M199 429h-125v309h125v-309zM199 -74h-125v308h125v-308z" />
    <glyph glyph-name="section" unicode="&#xa7;" horiz-adv-x="485" 
d="M46 -63l75 78q48 -55 104 -55q29 0 44.5 13t15.5 32q0 12 -6 23.5t-19 23t-24 19.5t-32 21.5t-31 20.5q-35 25 -56 44t-39.5 53t-18.5 74q0 44 29.5 78.5t74.5 52.5q-68 59 -68 129q0 63 46 99.5t122 36.5q102 0 169 -75l-80 -72q-43 43 -88 43q-19 0 -32 -10t-13 -25
q0 -17 11 -32.5t23 -25.5t37.5 -28t38.5 -29q48 -41 75 -80.5t27 -94.5q0 -80 -86 -122q68 -54 68 -127q0 -67 -55 -106.5t-127 -39.5q-110 0 -185 81zM204 238q21 -21 69 -52q38 18 38 64q0 43 -80 103q-48 -21 -48 -69q0 -24 21 -46z" />
    <glyph glyph-name="dieresis" unicode="&#xa8;" horiz-adv-x="442" 
d="M315 560q-27 0 -46 21.5t-19 49.5q0 29 18.5 50t46.5 21q29 0 47 -20.5t18 -50.5q0 -29 -18.5 -50t-46.5 -21zM127 560q-28 0 -46.5 21t-18.5 50q0 30 18 50.5t47 20.5q28 0 46.5 -21t18.5 -50q0 -28 -19 -49.5t-46 -21.5z" />
    <glyph glyph-name="copyright" unicode="&#xa9;" horiz-adv-x="775" 
d="M238 -45q-93 47 -143.5 139t-50.5 203q0 71 22 137t64 119t109 84.5t149 31.5q109 0 189 -55t117 -138t37 -179q0 -97 -37 -180.5t-117 -138.5t-189 -55q-84 0 -150 32zM195 93q72 -90 193 -90t189.5 86t68.5 208q0 120 -68.5 206.5t-189.5 86.5q-82 0 -142.5 -42.5
t-88.5 -108t-28 -142.5q0 -121 66 -204zM487 213l78 -46q-61 -100 -169 -100q-92 0 -147.5 61t-55.5 167q0 111 57.5 170.5t141.5 59.5q120 0 169 -106l-80 -43q-35 63 -87 63q-42 0 -70.5 -37t-28.5 -107q0 -64 30 -102.5t74 -38.5q53 0 88 59z" />
    <glyph glyph-name="ordfeminine" unicode="&#xaa;" horiz-adv-x="371" 
d="M341 302h-90l-4 26q-41 -33 -92 -33t-88 30.5t-37 81.5q0 111 211 125v10q0 20 -14 33t-34 13q-39 0 -68 -32l-68 47q48 61 142 61q66 0 104 -33.5t38 -103.5v-225zM242 402v60q-3 -1 -25.5 -4t-33.5 -5q-28 -6 -42 -18.5t-14 -26.5q0 -15 13.5 -25.5t37.5 -10.5
q32 0 64 30z" />
    <glyph glyph-name="guillemotleft" unicode="&#xab;" horiz-adv-x="574" 
d="M473 45l-227 205l207 212l86 -68l-143 -138l157 -135zM239 45l-227 205l207 212l86 -68l-143 -138l157 -135z" />
    <glyph glyph-name="logicalnot" unicode="&#xac;" horiz-adv-x="540" 
d="M400 406h-379v109h493v-369h-114v260z" />
    <glyph glyph-name="uni00AD" unicode="&#xad;" horiz-adv-x="330" 
d="M292 201h-254v119h254v-119z" />
    <glyph glyph-name="registered" unicode="&#xae;" horiz-adv-x="776" 
d="M238 -45q-93 47 -143 139t-50 203q0 71 22 137t64 119t109 84.5t149 31.5q108 0 188 -55t117 -138t37 -179q0 -97 -37 -180.5t-117 -138.5t-189 -55q-84 0 -150 32zM195 93q72 -90 194 -90q120 0 189 86.5t69 207.5q0 120 -68.5 206.5t-189.5 86.5q-122 0 -191 -86.5
t-69 -206.5q0 -121 66 -204zM338 102h-93v406h152q159 0 159 -128q0 -92 -81 -120l85 -158h-99l-77 147h-46v-147zM338 423v-89h52q39 0 54.5 10t15.5 39q0 24 -14 32t-52 8h-56z" />
    <glyph glyph-name="macron" unicode="&#xaf;" horiz-adv-x="442" 
d="M403 578h-363v89h363v-89z" />
    <glyph glyph-name="degree" unicode="&#xb0;" horiz-adv-x="396" 
d="M91 407q-51 41 -51 111q0 68 48 108.5t110 40.5t110 -41t48 -109t-48 -108.5t-109 -40.5q-60 0 -108 39zM144 517q0 -29 16 -45.5t38 -16.5t38 16.5t16 45.5q0 30 -16 46.5t-38 16.5t-38 -16.5t-16 -46.5z" />
    <glyph glyph-name="plusminus" unicode="&#xb1;" horiz-adv-x="540" 
d="M325 158h-109v198h-192v110h192v201h109v-201h192v-110h-192v-198zM517 0h-493v110h493v-110z" />
    <glyph glyph-name="twosuperior" unicode="&#xb2;" horiz-adv-x="315" 
d="M297 337h-258v57q97 89 118 112q29 31 29 55q0 31 -29 31q-32 0 -59 -56l-78 40q52 97 154 97q51 0 83 -26t32 -75q0 -53 -44 -99q-23 -26 -58 -53h110v-83z" />
    <glyph glyph-name="threesuperior" unicode="&#xb3;" horiz-adv-x="315" 
d="M16 412l78 41q28 -43 66 -43q39 0 39 32t-59 32v65q54 3 54 31q0 25 -33 25q-34 0 -61 -43l-77 41q52 80 150 80q49 0 84 -24t35 -67q0 -47 -38 -71q44 -24 44 -72q0 -53 -40 -80t-95 -27q-95 0 -147 80z" />
    <glyph glyph-name="acute" unicode="&#xb4;" horiz-adv-x="442" 
d="M353 650l-228 -112l-36 54l201 141z" />
    <glyph glyph-name="mu" unicode="&#xb5;" horiz-adv-x="609" 
d="M192 -189h-122v671h131v-293q0 -44 22.5 -71t67.5 -27q73 0 96 56q8 19 8 73v258h130v-345q0 -46 28 -46q10 0 32 5l14 -88q-36 -15 -79 -15q-75 0 -93 65q-47 -65 -134 -65q-66 0 -101 37v-215z" />
    <glyph glyph-name="paragraph" unicode="&#xb6;" horiz-adv-x="530" 
d="M464 -145h-109v812h109v-812zM307 -145h-107v397q-80 8 -132 67.5t-52 138.5q0 85 60 147t151 62h80v-812z" />
    <glyph glyph-name="periodcentered" unicode="&#xb7;" horiz-adv-x="326" 
d="M164 296q-36 0 -55 21t-19 51t19 51.5t55 21.5q34 0 53 -21.5t19 -51.5q0 -29 -18.5 -50.5t-53.5 -21.5z" />
    <glyph glyph-name="cedilla" unicode="&#xb8;" horiz-adv-x="442" 
d="M227 -181h-92l62 137h116z" />
    <glyph glyph-name="onesuperior" unicode="&#xb9;" horiz-adv-x="315" 
d="M260 337h-98v218l-68 -36l-40 72l132 74h74v-328z" />
    <glyph glyph-name="ordmasculine" unicode="&#xba;" horiz-adv-x="413" 
d="M128 311q-48 23 -73 69t-25 100q0 74 46.5 129t129.5 55t130 -55t47 -129q0 -75 -46.5 -130t-130.5 -55q-46 0 -78 16zM152 411q18 -28 54 -28q35 0 53.5 27.5t18.5 69.5q0 44 -18 71.5t-53 27.5t-53.5 -27.5t-18.5 -71.5q0 -40 17 -69z" />
    <glyph glyph-name="guillemotright" unicode="&#xbb;" horiz-adv-x="574" 
d="M334 45l-79 76l157 135l-143 138l86 68l207 -212zM101 45l-80 76l157 135l-143 138l86 68l207 -212z" />
    <glyph glyph-name="onequarter" unicode="&#xbc;" horiz-adv-x="774" 
d="M194 337h-98v218l-68 -36l-40 72l132 74h74v-328zM614 72h-153v73l161 184h89v-187h41v-70h-41v-71h-97v71zM614 228l-74 -86h74v86zM748 599l-658 -611l-65 70l655 610z" />
    <glyph glyph-name="onehalf" unicode="&#xbd;" horiz-adv-x="774" 
d="M194 337h-98v218l-68 -36l-40 72l132 74h74v-328zM769 1h-258v57q97 89 118 112q29 31 29 55q0 31 -29 31q-32 0 -59 -56l-78 40q52 97 154 97q51 0 83 -26t32 -75q0 -53 -44 -99q-23 -26 -58 -53h110v-83zM741 599l-658 -611l-65 70l655 610z" />
    <glyph glyph-name="threequarters" unicode="&#xbe;" horiz-adv-x="774" 
d="M750 599l-658 -611l-65 70l655 610zM-7 412l78 41q28 -43 66 -43q39 0 39 32t-59 32v65q54 3 54 31q0 25 -33 25q-34 0 -61 -43l-77 41q52 80 150 80q49 0 84 -24t35 -67q0 -47 -38 -71q44 -24 44 -72q0 -53 -40 -80t-95 -27q-95 0 -147 80zM609 72h-153v73l161 184h89
v-187h41v-70h-41v-71h-97v71zM609 228l-74 -86h74v86z" />
    <glyph glyph-name="questiondown" unicode="&#xbf;" horiz-adv-x="422" 
d="M221 332q-35 0 -58 24t-23 57t23 57t58 24t58.5 -24t23.5 -57t-23.5 -57t-58.5 -24zM338 -9l96 -64q-82 -125 -223 -125q-98 0 -151.5 49.5t-53.5 135.5q0 30 14.5 60.5t28.5 47t41 45.5q23 23 35 36.5t22.5 33.5t10.5 38v24h126v-42q0 -64 -65 -129q-7 -7 -23 -22.5
t-23 -23t-17 -20.5t-14 -25.5t-4 -26.5q0 -35 21 -54t59 -19q66 0 120 81z" />
    <glyph glyph-name="Agrave" unicode="&#xc0;" horiz-adv-x="648" 
d="M136 0h-136l274 667h95l278 -667h-145l-54 134h-257zM318 466l-86 -219h172zM371 704l-229 112l63 83l201 -141z" />
    <glyph glyph-name="Aacute" unicode="&#xc1;" horiz-adv-x="648" 
d="M136 0h-136l274 667h95l278 -667h-145l-54 134h-257zM318 466l-86 -219h172zM476 816l-228 -112l-36 54l201 141z" />
    <glyph glyph-name="Acircumflex" unicode="&#xc2;" horiz-adv-x="648" 
d="M136 0h-136l274 667h95l278 -667h-145l-54 134h-257zM318 466l-86 -219h172zM216 710l-67 45l121 130h96l121 -132l-69 -42l-101 96z" />
    <glyph glyph-name="Atilde" unicode="&#xc3;" horiz-adv-x="648" 
d="M136 0h-136l274 667h95l278 -667h-145l-54 134h-257zM318 466l-86 -219h172zM182 706l-69 36q18 53 50.5 84t76.5 31q32 0 76 -29q43 -28 59 -28q13 0 30 14t32 49l68 -35q-39 -116 -127 -116q-31 0 -77 30q-41 27 -58 27q-34 0 -61 -63z" />
    <glyph glyph-name="Adieresis" unicode="&#xc4;" horiz-adv-x="648" 
d="M136 0h-136l274 667h95l278 -667h-145l-54 134h-257zM318 466l-86 -219h172zM412 726q-27 0 -46 21.5t-19 49.5q0 29 18.5 50t46.5 21q29 0 47 -20.5t18 -50.5q0 -29 -18.5 -50t-46.5 -21zM224 726q-28 0 -46.5 21t-18.5 50q0 30 18 50.5t47 20.5q28 0 46.5 -21t18.5 -50
q0 -28 -19 -49.5t-46 -21.5z" />
    <glyph glyph-name="Aring" unicode="&#xc5;" horiz-adv-x="648" 
d="M136 0h-136l274 666q-19 10 -31 25q-26 31 -26 74t27.5 76t76.5 33t77 -32.5t28 -75.5q0 -31 -15 -58.5t-43 -40.5h1l278 -667h-145l-54 134h-257zM318 466l-86 -219h172zM292 733q10 -13 29 -13q18 0 29 12.5t11 33.5t-11 33.5t-29 12.5t-28.5 -13t-10.5 -33t10 -33z
" />
    <glyph glyph-name="AE" unicode="&#xc6;" horiz-adv-x="923" 
d="M152 0h-152l406 667h466v-121h-274v-151h217v-120h-217v-154h297v-121h-432v176h-204zM463 529l-142 -239h142v239z" />
    <glyph glyph-name="Ccedilla" unicode="&#xc7;" horiz-adv-x="608" 
d="M479 197l105 -64q-44 -79 -101 -113t-140 -34q-135 0 -216.5 91.5t-81.5 253.5q0 87 24 155t65.5 110t93.5 63.5t111 21.5q170 0 241 -156l-109 -61q-23 48 -52.5 73.5t-76.5 25.5q-67 0 -113.5 -60t-46.5 -172q0 -102 47.5 -164t118.5 -62q41 0 72 20t59 72zM327 -181
h-92l62 137h116z" />
    <glyph glyph-name="Egrave" unicode="&#xc8;" horiz-adv-x="586" 
d="M558 0h-481v667h458v-121h-323v-152h267v-121h-267v-152h346v-121zM367 704l-229 112l63 83l201 -141z" />
    <glyph glyph-name="Eacute" unicode="&#xc9;" horiz-adv-x="586" 
d="M558 0h-481v667h458v-121h-323v-152h267v-121h-267v-152h346v-121zM466 816l-228 -112l-36 54l201 141z" />
    <glyph glyph-name="Ecircumflex" unicode="&#xca;" horiz-adv-x="586" 
d="M558 0h-481v667h458v-121h-323v-152h267v-121h-267v-152h346v-121zM202 710l-67 45l121 130h96l121 -132l-69 -42l-101 96z" />
    <glyph glyph-name="Edieresis" unicode="&#xcb;" horiz-adv-x="586" 
d="M558 0h-481v667h458v-121h-323v-152h267v-121h-267v-152h346v-121zM401 726q-27 0 -46 21.5t-19 49.5q0 29 18.5 50t46.5 21q29 0 47 -20.5t18 -50.5q0 -29 -18.5 -50t-46.5 -21zM213 726q-28 0 -46.5 21t-18.5 50q0 30 18 50.5t47 20.5q28 0 46.5 -21t18.5 -50
q0 -28 -19 -49.5t-46 -21.5z" />
    <glyph glyph-name="Igrave" unicode="&#xcc;" horiz-adv-x="289" 
d="M212 0h-135v667h135v-667zM204 704l-229 112l63 83l201 -141z" />
    <glyph glyph-name="Iacute" unicode="&#xcd;" horiz-adv-x="289" 
d="M212 0h-135v667h135v-667zM313 816l-228 -112l-36 54l201 141z" />
    <glyph glyph-name="Icircumflex" unicode="&#xce;" horiz-adv-x="289" 
d="M212 0h-135v667h135v-667zM43 710l-67 45l121 130h96l121 -132l-69 -42l-101 96z" />
    <glyph glyph-name="Idieresis" unicode="&#xcf;" horiz-adv-x="289" 
d="M212 0h-135v667h135v-667zM240 726q-27 0 -46 21.5t-19 49.5q0 29 18.5 50t46.5 21q29 0 47 -20.5t18 -50.5q0 -29 -18.5 -50t-46.5 -21zM52 726q-28 0 -46.5 21t-18.5 50q0 30 18 50.5t47 20.5q28 0 46.5 -21t18.5 -50q0 -28 -19 -49.5t-46 -21.5z" />
    <glyph glyph-name="Eth" unicode="&#xd0;" horiz-adv-x="667" 
d="M286 0h-203v291h-83v105h83v271h198q104 0 172 -30q83 -38 127 -120t44 -180t-44.5 -181.5t-126.5 -121.5q-72 -34 -167 -34zM218 291v-171h55q72 0 121 25q46 24 69.5 74.5t23.5 111.5q0 59 -22 109t-63 77q-46 30 -127 30h-57v-151h152v-105h-152z" />
    <glyph glyph-name="Ntilde" unicode="&#xd1;" horiz-adv-x="695" 
d="M210 0h-133v667h138l270 -416v416h133v-667h-118l-290 441v-441zM218 706l-69 36q18 53 50.5 84t76.5 31q32 0 76 -29q43 -28 59 -28q13 0 30 14t32 49l68 -35q-39 -116 -127 -116q-31 0 -77 30q-41 27 -58 27q-34 0 -61 -63z" />
    <glyph glyph-name="Ograve" unicode="&#xd2;" horiz-adv-x="707" 
d="M217 16q-84 44 -128 130t-44 188q0 66 19.5 127t56.5 110.5t97 79.5t134 30q75 0 135.5 -30t98 -79.5t57 -110.5t19.5 -127t-19.5 -127t-57 -111t-98 -80t-135.5 -30q-76 0 -135 30zM225 175q47 -70 127 -70q81 0 127 67.5t46 161.5t-46 161.5t-127 67.5
q-79 0 -125 -67.5t-46 -161.5t44 -159zM399 704l-229 112l63 83l201 -141z" />
    <glyph glyph-name="Oacute" unicode="&#xd3;" horiz-adv-x="707" 
d="M217 16q-84 44 -128 130t-44 188q0 66 19.5 127t56.5 110.5t97 79.5t134 30q75 0 135.5 -30t98 -79.5t57 -110.5t19.5 -127t-19.5 -127t-57 -111t-98 -80t-135.5 -30q-76 0 -135 30zM225 175q47 -70 127 -70q81 0 127 67.5t46 161.5t-46 161.5t-127 67.5
q-79 0 -125 -67.5t-46 -161.5t44 -159zM507 816l-228 -112l-36 54l201 141z" />
    <glyph glyph-name="Ocircumflex" unicode="&#xd4;" horiz-adv-x="707" 
d="M217 16q-84 44 -128 130t-44 188q0 66 19.5 127t56.5 110.5t97 79.5t134 30q75 0 135.5 -30t98 -79.5t57 -110.5t19.5 -127t-19.5 -127t-57 -111t-98 -80t-135.5 -30q-76 0 -135 30zM225 175q47 -70 127 -70q81 0 127 67.5t46 161.5t-46 161.5t-127 67.5
q-79 0 -125 -67.5t-46 -161.5t44 -159zM253 710l-67 45l121 130h96l121 -132l-69 -42l-101 96z" />
    <glyph glyph-name="Otilde" unicode="&#xd5;" horiz-adv-x="707" 
d="M217 16q-84 44 -128 130t-44 188q0 66 19.5 127t56.5 110.5t97 79.5t134 30q75 0 135.5 -30t98 -79.5t57 -110.5t19.5 -127t-19.5 -127t-57 -111t-98 -80t-135.5 -30q-76 0 -135 30zM225 175q47 -70 127 -70q81 0 127 67.5t46 161.5t-46 161.5t-127 67.5
q-79 0 -125 -67.5t-46 -161.5t44 -159zM219 706l-69 36q18 53 50.5 84t76.5 31q32 0 76 -29q43 -28 59 -28q13 0 30 14t32 49l68 -35q-39 -116 -127 -116q-31 0 -77 30q-41 27 -58 27q-34 0 -61 -63z" />
    <glyph glyph-name="Odieresis" unicode="&#xd6;" horiz-adv-x="707" 
d="M217 16q-84 44 -128 130t-44 188q0 66 19.5 127t56.5 110.5t97 79.5t134 30q75 0 135.5 -30t98 -79.5t57 -110.5t19.5 -127t-19.5 -127t-57 -111t-98 -80t-135.5 -30q-76 0 -135 30zM225 175q47 -70 127 -70q81 0 127 67.5t46 161.5t-46 161.5t-127 67.5
q-79 0 -125 -67.5t-46 -161.5t44 -159zM440 726q-27 0 -46 21.5t-19 49.5q0 29 18.5 50t46.5 21q29 0 47 -20.5t18 -50.5q0 -29 -18.5 -50t-46.5 -21zM252 726q-28 0 -46.5 21t-18.5 50q0 30 18 50.5t47 20.5q28 0 46.5 -21t18.5 -50q0 -28 -19 -49.5t-46 -21.5z" />
    <glyph glyph-name="multiply" unicode="&#xd7;" horiz-adv-x="542" 
d="M271 252l-128 -127l-77 77l127 128l-127 128l77 77l128 -127l128 127l77 -77l-127 -128l127 -128l-77 -77z" />
    <glyph glyph-name="Oslash" unicode="&#xd8;" horiz-adv-x="707" 
d="M117 -29l-85 73l70 80q-57 89 -57 210q0 66 19.5 126.5t56.5 110t97 79.5t134 30q105 0 182 -58l63 73l86 -72l-76 -87q55 -89 55 -202q0 -66 -19.5 -127t-57 -110.5t-98 -79.5t-135.5 -30q-101 0 -174 55zM197 234l254 293q-42 36 -99 36q-79 0 -125 -67.5t-46 -161.5
q0 -56 16 -100zM512 430l-255 -294q45 -31 95 -31q81 0 127 67.5t46 161.5q0 46 -13 96z" />
    <glyph glyph-name="Ugrave" unicode="&#xd9;" horiz-adv-x="687" 
d="M208 667v-425q0 -62 36 -99.5t100 -37.5t99.5 37.5t35.5 99.5v425h135v-438q0 -111 -77 -177t-194 -66q-116 0 -193 66t-77 177v438h135zM369 704l-229 112l63 83l201 -141z" />
    <glyph glyph-name="Uacute" unicode="&#xda;" horiz-adv-x="687" 
d="M208 667v-425q0 -62 36 -99.5t100 -37.5t99.5 37.5t35.5 99.5v425h135v-438q0 -111 -77 -177t-194 -66q-116 0 -193 66t-77 177v438h135zM517 816l-228 -112l-36 54l201 141z" />
    <glyph glyph-name="Ucircumflex" unicode="&#xdb;" horiz-adv-x="687" 
d="M208 667v-425q0 -62 36 -99.5t100 -37.5t99.5 37.5t35.5 99.5v425h135v-438q0 -111 -77 -177t-194 -66q-116 0 -193 66t-77 177v438h135zM244 710l-67 45l121 130h96l121 -132l-69 -42l-101 96z" />
    <glyph glyph-name="Udieresis" unicode="&#xdc;" horiz-adv-x="687" 
d="M208 667v-425q0 -62 36 -99.5t100 -37.5t99.5 37.5t35.5 99.5v425h135v-438q0 -111 -77 -177t-194 -66q-116 0 -193 66t-77 177v438h135zM433 726q-27 0 -46 21.5t-19 49.5q0 29 18.5 50t46.5 21q29 0 47 -20.5t18 -50.5q0 -29 -18.5 -50t-46.5 -21zM245 726
q-28 0 -46.5 21t-18.5 50q0 30 18 50.5t47 20.5q28 0 46.5 -21t18.5 -50q0 -28 -19 -49.5t-46 -21.5z" />
    <glyph glyph-name="Yacute" unicode="&#xdd;" horiz-adv-x="581" 
d="M360 0h-135v268l-225 399h150l145 -265l138 265h148l-221 -399v-268zM463 816l-228 -112l-36 54l201 141z" />
    <glyph glyph-name="Thorn" unicode="&#xde;" horiz-adv-x="580" 
d="M212 0h-135v667h135v-103h76q109 0 176 -32q49 -23 74 -69t25 -103q0 -64 -31 -119.5t-87 -78.5q-62 -25 -144 -25h-89v-137zM212 450v-198h77q63 0 92 14q56 24 56 85q0 29 -15.5 53.5t-43.5 33.5q-34 12 -85 12h-81z" />
    <glyph glyph-name="germandbls" unicode="&#xdf;" horiz-adv-x="606" 
d="M216 0h-131v382h-69v100h70q2 95 69.5 146.5t160.5 51.5q91 0 156 -51t65 -144v-86h-86q-19 0 -32.5 -9t-13.5 -25q0 -9 5 -16.5t16.5 -16.5t21 -15t29 -16.5t30.5 -17.5q79 -45 79 -138q0 -70 -48.5 -113t-115.5 -43q-122 0 -169 104l108 52q21 -50 60 -50q18 0 28.5 11
t10.5 31q0 14 -6 25.5t-19.5 22t-25 17.5t-32.5 18.5t-31 17.5q-69 44 -69 122q0 56 35.5 96.5t99.5 42.5q-5 38 -33.5 56.5t-61.5 18.5q-39 0 -70 -27.5t-31 -87.5v-459z" />
    <glyph glyph-name="agrave" unicode="&#xe0;" horiz-adv-x="514" 
d="M452 0h-120l-6 36q-45 -47 -125 -47q-68 0 -117.5 42t-49.5 111q0 68 50.5 107t130.5 52q3 1 105 12v16q0 29 -19.5 47t-47.5 18q-51 0 -93 -43l-89 62q64 81 190 81q88 0 139.5 -45t51.5 -139v-310zM321 127v98q-39 -1 -85 -10q-75 -15 -75 -70q0 -25 18 -39t53 -14
q49 0 89 35zM341 538l-229 112l63 83l201 -141z" />
    <glyph glyph-name="aacute" unicode="&#xe1;" horiz-adv-x="514" 
d="M452 0h-120l-6 36q-45 -47 -125 -47q-68 0 -117.5 42t-49.5 111q0 68 50.5 107t130.5 52q3 1 105 12v16q0 29 -19.5 47t-47.5 18q-51 0 -93 -43l-89 62q64 81 190 81q88 0 139.5 -45t51.5 -139v-310zM321 127v98q-39 -1 -85 -10q-75 -15 -75 -70q0 -25 18 -39t53 -14
q49 0 89 35zM403 650l-228 -112l-36 54l201 141z" />
    <glyph glyph-name="acircumflex" unicode="&#xe2;" horiz-adv-x="514" 
d="M452 0h-120l-6 36q-45 -47 -125 -47q-68 0 -117.5 42t-49.5 111q0 68 50.5 107t130.5 52q3 1 105 12v16q0 29 -19.5 47t-47.5 18q-51 0 -93 -43l-89 62q64 81 190 81q88 0 139.5 -45t51.5 -139v-310zM321 127v98q-39 -1 -85 -10q-75 -15 -75 -70q0 -25 18 -39t53 -14
q49 0 89 35zM146 544l-67 45l121 130h96l121 -132l-69 -42l-101 96z" />
    <glyph glyph-name="atilde" unicode="&#xe3;" horiz-adv-x="514" 
d="M452 0h-120l-6 36q-45 -47 -125 -47q-68 0 -117.5 42t-49.5 111q0 68 50.5 107t130.5 52q3 1 105 12v16q0 29 -19.5 47t-47.5 18q-51 0 -93 -43l-89 62q64 81 190 81q88 0 139.5 -45t51.5 -139v-310zM321 127v98q-39 -1 -85 -10q-75 -15 -75 -70q0 -25 18 -39t53 -14
q49 0 89 35zM124 540l-69 36q18 53 50.5 84t76.5 31q32 0 76 -29q43 -28 59 -28q13 0 30 14t32 49l68 -35q-39 -116 -127 -116q-31 0 -77 30q-41 27 -58 27q-34 0 -61 -63z" />
    <glyph glyph-name="adieresis" unicode="&#xe4;" horiz-adv-x="514" 
d="M452 0h-120l-6 36q-45 -47 -125 -47q-68 0 -117.5 42t-49.5 111q0 68 50.5 107t130.5 52q3 1 105 12v16q0 29 -19.5 47t-47.5 18q-51 0 -93 -43l-89 62q64 81 190 81q88 0 139.5 -45t51.5 -139v-310zM321 127v98q-39 -1 -85 -10q-75 -15 -75 -70q0 -25 18 -39t53 -14
q49 0 89 35zM349 560q-27 0 -46 21.5t-19 49.5q0 29 18.5 50t46.5 21q29 0 47 -20.5t18 -50.5q0 -29 -18.5 -50t-46.5 -21zM161 560q-28 0 -46.5 21t-18.5 50q0 30 18 50.5t47 20.5q28 0 46.5 -21t18.5 -50q0 -28 -19 -49.5t-46 -21.5z" />
    <glyph glyph-name="aring" unicode="&#xe5;" horiz-adv-x="514" 
d="M452 0h-120l-6 36q-45 -47 -125 -47q-68 0 -117.5 42t-49.5 111q0 68 50.5 107t130.5 52q3 1 105 12v16q0 29 -19.5 47t-47.5 18q-51 0 -93 -43l-89 62q64 81 190 81q88 0 139.5 -45t51.5 -139v-310zM321 127v98q-39 -1 -85 -10q-75 -15 -75 -70q0 -25 18 -39t53 -14
q49 0 89 35zM211 538q-58 31 -58 99q0 43 27.5 76t76.5 33t77 -32.5t28 -75.5t-28 -76t-77 -33q-27 0 -46 9zM228 605q10 -13 29 -13q18 0 29 12.5t11 33.5t-11 33.5t-29 12.5t-28.5 -13t-10.5 -33t10 -33z" />
    <glyph glyph-name="ae" unicode="&#xe6;" horiz-adv-x="795" 
d="M156 348l-82 69q63 77 177 77q101 0 149 -61q53 61 153 61q96 0 153 -72t59 -212h-314q2 -55 33 -84.5t76 -29.5q73 0 111 62l92 -55q-73 -114 -201 -114q-115 0 -171 71q-33 -36 -74 -53.5t-106 -17.5q-76 0 -126.5 41.5t-50.5 117.5q0 152 285 164v24q0 27 -19.5 42.5
t-52.5 15.5q-49 0 -91 -46zM453 300h180q-2 42 -25.5 68t-59.5 26q-39 0 -63.5 -25.5t-31.5 -68.5zM320 164v54q-156 -6 -156 -74q0 -54 64 -54q33 0 62.5 20t29.5 54z" />
    <glyph glyph-name="ccedilla" unicode="&#xe7;" horiz-adv-x="487" 
d="M378 169l98 -53q-60 -127 -206 -127q-98 0 -166.5 66.5t-68.5 183.5q0 122 66 188.5t161 66.5q81 0 133 -41t73 -99l-103 -51q-31 87 -100 87q-43 0 -72.5 -38t-29.5 -111q0 -68 30 -106.5t80 -38.5q37 0 61 18t44 55zM249 -181h-92l62 137h116z" />
    <glyph glyph-name="egrave" unicode="&#xe8;" horiz-adv-x="525" 
d="M495 210h-329q5 -57 36 -86t74 -29q38 0 65.5 13.5t55.5 53.5l97 -59q-40 -61 -93.5 -87.5t-128.5 -26.5q-102 0 -169.5 64.5t-67.5 187.5q0 117 67 185t167 68q104 0 164 -72t62 -212zM169 299h193q-4 45 -31 70.5t-62 25.5t-64.5 -26.5t-35.5 -69.5zM340 538l-229 112
l63 83l201 -141z" />
    <glyph glyph-name="eacute" unicode="&#xe9;" horiz-adv-x="525" 
d="M495 210h-329q5 -57 36 -86t74 -29q38 0 65.5 13.5t55.5 53.5l97 -59q-40 -61 -93.5 -87.5t-128.5 -26.5q-102 0 -169.5 64.5t-67.5 187.5q0 117 67 185t167 68q104 0 164 -72t62 -212zM169 299h193q-4 45 -31 70.5t-62 25.5t-64.5 -26.5t-35.5 -69.5zM421 650l-228 -112
l-36 54l201 141z" />
    <glyph glyph-name="ecircumflex" unicode="&#xea;" horiz-adv-x="525" 
d="M495 210h-329q5 -57 36 -86t74 -29q38 0 65.5 13.5t55.5 53.5l97 -59q-40 -61 -93.5 -87.5t-128.5 -26.5q-102 0 -169.5 64.5t-67.5 187.5q0 117 67 185t167 68q104 0 164 -72t62 -212zM169 299h193q-4 45 -31 70.5t-62 25.5t-64.5 -26.5t-35.5 -69.5zM162 544l-67 45
l121 130h96l121 -132l-69 -42l-101 96z" />
    <glyph glyph-name="edieresis" unicode="&#xeb;" horiz-adv-x="525" 
d="M495 210h-329q5 -57 36 -86t74 -29q38 0 65.5 13.5t55.5 53.5l97 -59q-40 -61 -93.5 -87.5t-128.5 -26.5q-102 0 -169.5 64.5t-67.5 187.5q0 117 67 185t167 68q104 0 164 -72t62 -212zM169 299h193q-4 45 -31 70.5t-62 25.5t-64.5 -26.5t-35.5 -69.5zM364 560
q-27 0 -46 21.5t-19 49.5q0 29 18.5 50t46.5 21q29 0 47 -20.5t18 -50.5q0 -29 -18.5 -50t-46.5 -21zM176 560q-28 0 -46.5 21t-18.5 50q0 30 18 50.5t47 20.5q28 0 46.5 -21t18.5 -50q0 -28 -19 -49.5t-46 -21.5z" />
    <glyph glyph-name="igrave" unicode="&#xec;" horiz-adv-x="261" 
d="M196 0h-131v477h131v-477zM191 538l-229 112l63 83l201 -141z" />
    <glyph glyph-name="iacute" unicode="&#xed;" horiz-adv-x="261" 
d="M196 0h-131v477h131v-477zM300 650l-228 -112l-36 54l201 141z" />
    <glyph glyph-name="icircumflex" unicode="&#xee;" horiz-adv-x="261" 
d="M196 0h-131v477h131v-477zM30 544l-67 45l121 130h96l121 -132l-69 -42l-101 96z" />
    <glyph glyph-name="idieresis" unicode="&#xef;" horiz-adv-x="261" 
d="M196 0h-131v477h131v-477zM225 560q-27 0 -46 21.5t-19 49.5q0 29 18.5 50t46.5 21q29 0 47 -20.5t18 -50.5q0 -29 -18.5 -50t-46.5 -21zM37 560q-28 0 -46.5 21t-18.5 50q0 30 18 50.5t47 20.5q28 0 46.5 -21t18.5 -50q0 -28 -19 -49.5t-46 -21.5z" />
    <glyph glyph-name="eth" unicode="&#xf0;" horiz-adv-x="569" 
d="M149 595l25 85q82 -13 141 -44l58 74l76 -58l-55 -71q137 -118 137 -332q0 -117 -64.5 -188t-181.5 -71q-104 0 -175 65.5t-71 184.5q0 106 58 177.5t160 71.5q52 0 92 -25q-23 49 -80 85t-120 46zM389 307q-5 30 -14 52q-46 25 -92 25q-53 0 -85 -36.5t-32 -106.5
q0 -68 34.5 -106.5t81.5 -38.5q46 0 80 39t34 110q0 31 -7 62z" />
    <glyph glyph-name="ntilde" unicode="&#xf1;" horiz-adv-x="581" 
d="M196 0h-131v482h119l6 -38q62 50 147 50t133.5 -50.5t48.5 -158.5v-285h-131v275q0 55 -24 85t-67 30q-51 0 -101 -48v-342zM158 540l-69 36q18 53 50.5 84t76.5 31q32 0 76 -29q43 -28 59 -28q13 0 30 14t32 49l68 -35q-39 -116 -127 -116q-31 0 -77 30q-41 27 -58 27
q-34 0 -61 -63z" />
    <glyph glyph-name="ograve" unicode="&#xf2;" horiz-adv-x="556" 
d="M171 11q-65 32 -100.5 95t-35.5 137q0 102 64 176.5t179 74.5t179 -74.5t64 -176.5t-64 -178t-179 -76q-62 0 -107 22zM192 139q30 -43 86 -43q54 0 84.5 41.5t30.5 105.5q0 63 -30.5 104.5t-84.5 41.5t-84.5 -41.5t-30.5 -104.5t29 -104zM328 538l-229 112l63 83
l201 -141z" />
    <glyph glyph-name="oacute" unicode="&#xf3;" horiz-adv-x="556" 
d="M171 11q-65 32 -100.5 95t-35.5 137q0 102 64 176.5t179 74.5t179 -74.5t64 -176.5t-64 -178t-179 -76q-62 0 -107 22zM192 139q30 -43 86 -43q54 0 84.5 41.5t30.5 105.5q0 63 -30.5 104.5t-84.5 41.5t-84.5 -41.5t-30.5 -104.5t29 -104zM422 650l-228 -112l-36 54
l201 141z" />
    <glyph glyph-name="ocircumflex" unicode="&#xf4;" horiz-adv-x="556" 
d="M171 11q-65 32 -100.5 95t-35.5 137q0 102 64 176.5t179 74.5t179 -74.5t64 -176.5t-64 -178t-179 -76q-62 0 -107 22zM192 139q30 -43 86 -43q54 0 84.5 41.5t30.5 105.5q0 63 -30.5 104.5t-84.5 41.5t-84.5 -41.5t-30.5 -104.5t29 -104zM172 544l-67 45l121 130h96
l121 -132l-69 -42l-101 96z" />
    <glyph glyph-name="otilde" unicode="&#xf5;" horiz-adv-x="556" 
d="M171 11q-65 32 -100.5 95t-35.5 137q0 102 64 176.5t179 74.5t179 -74.5t64 -176.5t-64 -178t-179 -76q-62 0 -107 22zM192 139q30 -43 86 -43q54 0 84.5 41.5t30.5 105.5q0 63 -30.5 104.5t-84.5 41.5t-84.5 -41.5t-30.5 -104.5t29 -104zM134 540l-69 36q18 53 50.5 84
t76.5 31q32 0 76 -29q43 -28 59 -28q13 0 30 14t32 49l68 -35q-39 -116 -127 -116q-31 0 -77 30q-41 27 -58 27q-34 0 -61 -63z" />
    <glyph glyph-name="odieresis" unicode="&#xf6;" horiz-adv-x="556" 
d="M171 11q-65 32 -100.5 95t-35.5 137q0 102 64 176.5t179 74.5t179 -74.5t64 -176.5t-64 -178t-179 -76q-62 0 -107 22zM192 139q30 -43 86 -43q54 0 84.5 41.5t30.5 105.5q0 63 -30.5 104.5t-84.5 41.5t-84.5 -41.5t-30.5 -104.5t29 -104zM368 560q-27 0 -46 21.5
t-19 49.5q0 29 18.5 50t46.5 21q29 0 47 -20.5t18 -50.5q0 -29 -18.5 -50t-46.5 -21zM180 560q-28 0 -46.5 21t-18.5 50q0 30 18 50.5t47 20.5q28 0 46.5 -21t18.5 -50q0 -28 -19 -49.5t-46 -21.5z" />
    <glyph glyph-name="divide" unicode="&#xf7;" horiz-adv-x="540" 
d="M238 449q-48 24 -48 73q0 32 23.5 55.5t57.5 23.5t57 -23.5t23 -55.5t-23 -55.5t-57 -23.5q-18 0 -33 6zM516 275h-493v110h493v-110zM271 72q-35 0 -58 23t-23 56q0 31 23 54.5t58 23.5q34 0 57 -23t23 -55q0 -33 -22.5 -56t-57.5 -23z" />
    <glyph glyph-name="oslash" unicode="&#xf8;" horiz-adv-x="556" 
d="M136 -53l-69 47l41 61q-73 73 -73 188q0 102 64 176.5t179 74.5q61 0 109 -23l38 56l69 -47l-39 -58q66 -72 66 -179q0 -102 -64 -178t-179 -76q-56 0 -101 19zM384 314l-143 -215q17 -5 37 -5q54 0 85 42t31 107q0 31 -10 71zM177 158l150 223h1q-21 10 -50 10
q-54 0 -85 -42.5t-31 -105.5q0 -49 15 -85z" />
    <glyph glyph-name="ugrave" unicode="&#xf9;" horiz-adv-x="579" 
d="M514 0h-120l-5 38q-61 -48 -145 -48q-89 0 -135.5 51.5t-46.5 153.5v287h131v-274q0 -112 84 -112q54 0 106 42v344h131v-482zM332 538l-229 112l63 83l201 -141z" />
    <glyph glyph-name="uacute" unicode="&#xfa;" horiz-adv-x="579" 
d="M514 0h-120l-5 38q-61 -48 -145 -48q-89 0 -135.5 51.5t-46.5 153.5v287h131v-274q0 -112 84 -112q54 0 106 42v344h131v-482zM461 650l-228 -112l-36 54l201 141z" />
    <glyph glyph-name="ucircumflex" unicode="&#xfb;" horiz-adv-x="579" 
d="M514 0h-120l-5 38q-61 -48 -145 -48q-89 0 -135.5 51.5t-46.5 153.5v287h131v-274q0 -112 84 -112q54 0 106 42v344h131v-482zM185 544l-67 45l121 130h96l121 -132l-69 -42l-101 96z" />
    <glyph glyph-name="udieresis" unicode="&#xfc;" horiz-adv-x="579" 
d="M514 0h-120l-5 38q-61 -48 -145 -48q-89 0 -135.5 51.5t-46.5 153.5v287h131v-274q0 -112 84 -112q54 0 106 42v344h131v-482zM383 560q-27 0 -46 21.5t-19 49.5q0 29 18.5 50t46.5 21q29 0 47 -20.5t18 -50.5q0 -29 -18.5 -50t-46.5 -21zM195 560q-28 0 -46.5 21
t-18.5 50q0 30 18 50.5t47 20.5q28 0 46.5 -21t18.5 -50q0 -28 -19 -49.5t-46 -21.5z" />
    <glyph glyph-name="yacute" unicode="&#xfd;" horiz-adv-x="517" 
d="M7 -174l41 93q35 -17 69 -17q30 0 46 35l37 83l-200 462h139l126 -329l120 329h132l-250 -596q-39 -87 -138 -87q-59 0 -122 27zM425 650l-228 -112l-36 54l201 141z" />
    <glyph glyph-name="thorn" unicode="&#xfe;" horiz-adv-x="581" 
d="M204 -189h-131v856h130v-210q50 36 115 36q105 0 164.5 -74t59.5 -182q0 -114 -77.5 -181t-194.5 -67q-34 0 -66 9v-187zM203 365v-260q27 -9 52 -9q69 0 114 34.5t45 104.5q0 72 -34 113t-92 41q-43 0 -85 -24z" />
    <glyph glyph-name="ydieresis" unicode="&#xff;" horiz-adv-x="517" 
d="M7 -174l41 93q35 -17 69 -17q30 0 46 35l37 83l-200 462h139l126 -329l120 329h132l-250 -596q-39 -87 -138 -87q-59 0 -122 27zM356 560q-27 0 -46 21.5t-19 49.5q0 29 18.5 50t46.5 21q29 0 47 -20.5t18 -50.5q0 -29 -18.5 -50t-46.5 -21zM168 560q-28 0 -46.5 21
t-18.5 50q0 30 18 50.5t47 20.5q28 0 46.5 -21t18.5 -50q0 -28 -19 -49.5t-46 -21.5z" />
    <glyph glyph-name="Amacron" unicode="&#x100;" horiz-adv-x="648" 
d="M136 0h-136l274 667h95l278 -667h-145l-54 134h-257zM318 466l-86 -219h172zM500 744h-363v89h363v-89z" />
    <glyph glyph-name="amacron" unicode="&#x101;" horiz-adv-x="514" 
d="M452 0h-120l-6 36q-45 -47 -125 -47q-68 0 -117.5 42t-49.5 111q0 68 50.5 107t130.5 52q3 1 105 12v16q0 29 -19.5 47t-47.5 18q-51 0 -93 -43l-89 62q64 81 190 81q88 0 139.5 -45t51.5 -139v-310zM321 127v98q-39 -1 -85 -10q-75 -15 -75 -70q0 -25 18 -39t53 -14
q49 0 89 35zM438 578h-363v89h363v-89z" />
    <glyph glyph-name="Abreve" unicode="&#x102;" horiz-adv-x="648" 
d="M136 0h-136l274 667h95l278 -667h-145l-54 134h-257zM318 466l-86 -219h172zM148 846h103q13 -61 65 -61q54 0 67 61h100q-2 -64 -52.5 -102.5t-114.5 -38.5q-69 0 -117.5 37t-50.5 104z" />
    <glyph glyph-name="abreve" unicode="&#x103;" horiz-adv-x="514" 
d="M452 0h-120l-6 36q-45 -47 -125 -47q-68 0 -117.5 42t-49.5 111q0 68 50.5 107t130.5 52q3 1 105 12v16q0 29 -19.5 47t-47.5 18q-51 0 -93 -43l-89 62q64 81 190 81q88 0 139.5 -45t51.5 -139v-310zM321 127v98q-39 -1 -85 -10q-75 -15 -75 -70q0 -25 18 -39t53 -14
q49 0 89 35zM95 680h103q13 -61 65 -61q54 0 67 61h100q-2 -64 -52.5 -102.5t-114.5 -38.5q-69 0 -117.5 37t-50.5 104z" />
    <glyph glyph-name="Aogonek" unicode="&#x104;" horiz-adv-x="648" 
d="M631 -97l24 -67q-32 -18 -77 -18q-50 0 -76.5 22t-26.5 62q0 37 27 72q11 14 26 26h-26l-54 134h-257l-55 -134h-136l274 667h95l278 -667h-26q-18 -13 -31 -31q-19 -25 -19 -48q0 -27 24 -27q20 0 36 9zM318 466l-86 -219h172z" />
    <glyph glyph-name="aogonek" unicode="&#x105;" horiz-adv-x="514" 
d="M435 -97l24 -67q-32 -18 -77 -18q-50 0 -76.5 22t-26.5 62q0 37 27 72q11 14 26 26l-6 36q-45 -47 -125 -47q-68 0 -117.5 42t-49.5 111q0 68 50.5 107t130.5 52q3 1 105 12v16q0 29 -19.5 47t-47.5 18q-51 0 -93 -43l-89 62q64 81 190 81q88 0 139.5 -45t51.5 -139v-310
h-27q-18 -13 -31 -31q-19 -25 -19 -48q0 -27 24 -27q20 0 36 9zM321 127v98q-39 -1 -85 -10q-75 -15 -75 -70q0 -25 18 -39t53 -14q49 0 89 35z" />
    <glyph glyph-name="Cacute" unicode="&#x106;" horiz-adv-x="608" 
d="M479 197l105 -64q-44 -79 -101 -113t-140 -34q-135 0 -216.5 91.5t-81.5 253.5q0 87 24 155t65.5 110t93.5 63.5t111 21.5q170 0 241 -156l-109 -61q-23 48 -52.5 73.5t-76.5 25.5q-67 0 -113.5 -60t-46.5 -172q0 -102 47.5 -164t118.5 -62q41 0 72 20t59 72zM455 816
l-228 -112l-36 54l201 141z" />
    <glyph glyph-name="cacute" unicode="&#x107;" horiz-adv-x="487" 
d="M378 169l98 -53q-60 -127 -206 -127q-98 0 -166.5 66.5t-68.5 183.5q0 122 66 188.5t161 66.5q81 0 133 -41t73 -99l-103 -51q-31 87 -100 87q-43 0 -72.5 -38t-29.5 -111q0 -68 30 -106.5t80 -38.5q37 0 61 18t44 55zM386 650l-228 -112l-36 54l201 141z" />
    <glyph glyph-name="Ccircumflex" unicode="&#x108;" horiz-adv-x="608" 
d="M479 197l105 -64q-44 -79 -101 -113t-140 -34q-135 0 -216.5 91.5t-81.5 253.5q0 87 24 155t65.5 110t93.5 63.5t111 21.5q170 0 241 -156l-109 -61q-23 48 -52.5 73.5t-76.5 25.5q-67 0 -113.5 -60t-46.5 -172q0 -102 47.5 -164t118.5 -62q41 0 72 20t59 72zM228 710
l-67 45l121 130h96l121 -132l-69 -42l-101 96z" />
    <glyph glyph-name="ccircumflex" unicode="&#x109;" horiz-adv-x="487" 
d="M378 169l98 -53q-60 -127 -206 -127q-98 0 -166.5 66.5t-68.5 183.5q0 122 66 188.5t161 66.5q81 0 133 -41t73 -99l-103 -51q-31 87 -100 87q-43 0 -72.5 -38t-29.5 -111q0 -68 30 -106.5t80 -38.5q37 0 61 18t44 55zM163 544l-67 45l121 130h96l121 -132l-69 -42
l-101 96z" />
    <glyph glyph-name="Cdotaccent" unicode="&#x10a;" horiz-adv-x="608" 
d="M479 197l105 -64q-44 -79 -101 -113t-140 -34q-135 0 -216.5 91.5t-81.5 253.5q0 87 24 155t65.5 110t93.5 63.5t111 21.5q170 0 241 -156l-109 -61q-23 48 -52.5 73.5t-76.5 25.5q-67 0 -113.5 -60t-46.5 -172q0 -102 47.5 -164t118.5 -62q41 0 72 20t59 72zM348 720
q-30 0 -50 23t-20 54t20 54t50 23t50.5 -23t20.5 -54t-20.5 -54t-50.5 -23z" />
    <glyph glyph-name="cdotaccent" unicode="&#x10b;" horiz-adv-x="487" 
d="M378 169l98 -53q-60 -127 -206 -127q-98 0 -166.5 66.5t-68.5 183.5q0 122 66 188.5t161 66.5q81 0 133 -41t73 -99l-103 -51q-31 87 -100 87q-43 0 -72.5 -38t-29.5 -111q0 -68 30 -106.5t80 -38.5q37 0 61 18t44 55zM263 554q-30 0 -50 23t-20 54t20 54t50 23t50.5 -23
t20.5 -54t-20.5 -54t-50.5 -23z" />
    <glyph glyph-name="Ccaron" unicode="&#x10c;" horiz-adv-x="608" 
d="M479 197l105 -64q-44 -79 -101 -113t-140 -34q-135 0 -216.5 91.5t-81.5 253.5q0 87 24 155t65.5 110t93.5 63.5t111 21.5q170 0 241 -156l-109 -61q-23 48 -52.5 73.5t-76.5 25.5q-67 0 -113.5 -60t-46.5 -172q0 -102 47.5 -164t118.5 -62q41 0 72 20t59 72zM387 710
h-96l-121 130l67 45l101 -96l101 95l69 -41z" />
    <glyph glyph-name="ccaron" unicode="&#x10d;" horiz-adv-x="487" 
d="M378 169l98 -53q-60 -127 -206 -127q-98 0 -166.5 66.5t-68.5 183.5q0 122 66 188.5t161 66.5q81 0 133 -41t73 -99l-103 -51q-31 87 -100 87q-43 0 -72.5 -38t-29.5 -111q0 -68 30 -106.5t80 -38.5q37 0 61 18t44 55zM313 544h-96l-121 130l67 45l101 -96l101 95l69 -41
z" />
    <glyph glyph-name="Dcaron" unicode="&#x10e;" horiz-adv-x="661" 
d="M280 0h-203v667h198q102 0 172 -30q84 -39 127.5 -119.5t43.5 -180.5q0 -98 -44.5 -181t-127.5 -122q-72 -34 -166 -34zM212 547v-427h54q74 0 121 25q46 24 70 74.5t24 111.5q0 60 -21.5 109.5t-64.5 76.5q-46 30 -126 30h-57zM347 710h-96l-121 130l67 45l101 -96
l101 95l69 -41z" />
    <glyph glyph-name="dcaron" unicode="&#x10f;" horiz-adv-x="567" 
d="M613 497h-73v170h107zM492 0h-119l-6 37q-46 -48 -116 -48q-100 0 -158 74t-58 180q0 102 63 176.5t178 74.5q39 0 86 -14v187h130v-667zM362 137v238q-39 14 -70 14q-62 0 -96 -42t-34 -101q0 -65 29.5 -108t85.5 -43q24 0 49 12.5t36 29.5z" />
    <glyph glyph-name="Dcroat" unicode="&#x110;" horiz-adv-x="667" 
d="M286 0h-203v291h-83v105h83v271h198q104 0 172 -30q83 -38 127 -120t44 -180t-44.5 -181.5t-126.5 -121.5q-72 -34 -167 -34zM218 291v-171h55q72 0 121 25q46 24 69.5 74.5t23.5 111.5q0 59 -22 109t-63 77q-46 30 -127 30h-57v-151h152v-105h-152z" />
    <glyph glyph-name="dcroat" unicode="&#x111;" horiz-adv-x="557" 
d="M492 0h-119l-6 37q-46 -48 -116 -48q-101 0 -158.5 73t-57.5 178q0 102 63 174t178 72q39 0 86 -14v60h-120v83h120v52h130v-52h64v-83h-64v-532zM362 137v230q-39 14 -70 14q-63 0 -96.5 -40t-33.5 -98q0 -64 29.5 -106t85.5 -42q24 0 49 12.5t36 29.5z" />
    <glyph glyph-name="Emacron" unicode="&#x112;" horiz-adv-x="586" 
d="M558 0h-481v667h458v-121h-323v-152h267v-121h-267v-152h346v-121zM484 744h-363v89h363v-89z" />
    <glyph glyph-name="emacron" unicode="&#x113;" horiz-adv-x="525" 
d="M495 210h-329q5 -57 36 -86t74 -29q38 0 65.5 13.5t55.5 53.5l97 -59q-40 -61 -93.5 -87.5t-128.5 -26.5q-102 0 -169.5 64.5t-67.5 187.5q0 117 67 185t167 68q104 0 164 -72t62 -212zM169 299h193q-4 45 -31 70.5t-62 25.5t-64.5 -26.5t-35.5 -69.5zM443 578h-363v89
h363v-89z" />
    <glyph glyph-name="Ebreve" unicode="&#x114;" horiz-adv-x="586" 
d="M558 0h-481v667h458v-121h-323v-152h267v-121h-267v-152h346v-121zM141 846h103q13 -61 65 -61q54 0 67 61h100q-2 -64 -52.5 -102.5t-114.5 -38.5q-69 0 -117.5 37t-50.5 104z" />
    <glyph glyph-name="ebreve" unicode="&#x115;" horiz-adv-x="525" 
d="M495 210h-329q5 -57 36 -86t74 -29q38 0 65.5 13.5t55.5 53.5l97 -59q-40 -61 -93.5 -87.5t-128.5 -26.5q-102 0 -169.5 64.5t-67.5 187.5q0 117 67 185t167 68q104 0 164 -72t62 -212zM169 299h193q-4 45 -31 70.5t-62 25.5t-64.5 -26.5t-35.5 -69.5zM111 680h103
q13 -61 65 -61q54 0 67 61h100q-2 -64 -52.5 -102.5t-114.5 -38.5q-69 0 -117.5 37t-50.5 104z" />
    <glyph glyph-name="Edotaccent" unicode="&#x116;" horiz-adv-x="586" 
d="M558 0h-481v667h458v-121h-323v-152h267v-121h-267v-152h346v-121zM307 720q-30 0 -50 23t-20 54t20 54t50 23t50.5 -23t20.5 -54t-20.5 -54t-50.5 -23z" />
    <glyph glyph-name="edotaccent" unicode="&#x117;" horiz-adv-x="525" 
d="M495 210h-329q5 -57 36 -86t74 -29q38 0 65.5 13.5t55.5 53.5l97 -59q-40 -61 -93.5 -87.5t-128.5 -26.5q-102 0 -169.5 64.5t-67.5 187.5q0 117 67 185t167 68q104 0 164 -72t62 -212zM169 299h193q-4 45 -31 70.5t-62 25.5t-64.5 -26.5t-35.5 -69.5zM267 554
q-30 0 -50 23t-20 54t20 54t50 23t50.5 -23t20.5 -54t-20.5 -54t-50.5 -23z" />
    <glyph glyph-name="Eogonek" unicode="&#x118;" horiz-adv-x="586" 
d="M532 -97l24 -67q-32 -18 -77 -18q-50 0 -76.5 22t-26.5 62q0 37 27 72q11 14 26 26h-352v667h458v-121h-323v-152h267v-121h-267v-152h346v-121h-36q-18 -13 -31 -31q-19 -25 -19 -48q0 -27 24 -27q20 0 36 9z" />
    <glyph glyph-name="eogonek" unicode="&#x119;" horiz-adv-x="525" 
d="M381 -97l24 -67q-32 -18 -77 -18q-50 0 -76.5 22t-26.5 62q0 37 27 72q8 10 13 15q-43 1 -84 15q-67 24 -106.5 84.5t-39.5 152.5q0 117 67 185t167 68q104 0 164 -72t62 -212h-329q5 -57 36 -86t74 -29q38 0 65.5 13.5t55.5 53.5l97 -59q-41 -63 -95 -89q-6 -3 -18 -7
q-25 -16 -41 -38q-19 -25 -19 -48q0 -27 24 -27q20 0 36 9zM169 299h193q-4 45 -31 70.5t-62 25.5t-64.5 -26.5t-35.5 -69.5z" />
    <glyph glyph-name="Ecaron" unicode="&#x11a;" horiz-adv-x="586" 
d="M558 0h-481v667h458v-121h-323v-152h267v-121h-267v-152h346v-121zM360 710h-96l-121 130l67 45l101 -96l101 95l69 -41z" />
    <glyph glyph-name="ecaron" unicode="&#x11b;" horiz-adv-x="525" 
d="M495 210h-329q5 -57 36 -86t74 -29q38 0 65.5 13.5t55.5 53.5l97 -59q-40 -61 -93.5 -87.5t-128.5 -26.5q-102 0 -169.5 64.5t-67.5 187.5q0 117 67 185t167 68q104 0 164 -72t62 -212zM169 299h193q-4 45 -31 70.5t-62 25.5t-64.5 -26.5t-35.5 -69.5zM316 544h-96
l-121 130l67 45l101 -96l101 95l69 -41z" />
    <glyph glyph-name="Gcircumflex" unicode="&#x11c;" horiz-adv-x="627" 
d="M461 236h-109v115h235v-321q-101 -44 -243 -44q-132 0 -215.5 92t-83.5 253q0 170 84.5 260t209.5 90q89 0 145.5 -35.5t92.5 -110.5l-109 -61q-43 89 -126 89q-66 0 -113 -60.5t-47 -171.5q0 -101 51 -163.5t126 -62.5q66 0 102 11v120zM240 710l-67 45l121 130h96
l121 -132l-69 -42l-101 96z" />
    <glyph glyph-name="gcircumflex" unicode="&#x11d;" horiz-adv-x="533" 
d="M515 495l-70 -74q40 -45 40 -106q0 -85 -64.5 -131.5t-156.5 -46.5q-35 0 -69 8q-15 -9 -15 -23q0 -9 9 -15t39.5 -11t85.5 -6q110 -4 161 -35t51 -107q0 -41 -20.5 -71.5t-56 -46.5t-77 -23.5t-91.5 -7.5q-49 0 -91 7t-78.5 23t-57.5 45t-21 69q0 62 56 92
q-35 28 -35 69q0 49 55 81q-64 51 -64 130q0 85 64 132t155 47q47 0 101 -20l77 81zM169 314q0 -38 26 -59t69 -21t70 21t27 58q0 38 -27 61t-70 23q-42 0 -68.5 -22.5t-26.5 -60.5zM217 -6q-16 1 -41 5q-27 -18 -27 -45q0 -62 135 -62q128 0 128 47q0 18 -10 28t-43.5 16
t-100.5 7q-28 2 -41 4zM158 544l-67 45l121 130h96l121 -132l-69 -42l-101 96z" />
    <glyph glyph-name="Gbreve" unicode="&#x11e;" horiz-adv-x="627" 
d="M461 236h-109v115h235v-321q-101 -44 -243 -44q-132 0 -215.5 92t-83.5 253q0 170 84.5 260t209.5 90q89 0 145.5 -35.5t92.5 -110.5l-109 -61q-43 89 -126 89q-66 0 -113 -60.5t-47 -171.5q0 -101 51 -163.5t126 -62.5q66 0 102 11v120zM178 846h103q13 -61 65 -61
q54 0 67 61h100q-2 -64 -52.5 -102.5t-114.5 -38.5q-69 0 -117.5 37t-50.5 104z" />
    <glyph glyph-name="gbreve" unicode="&#x11f;" horiz-adv-x="533" 
d="M515 495l-70 -74q40 -45 40 -106q0 -85 -64.5 -131.5t-156.5 -46.5q-35 0 -69 8q-15 -9 -15 -23q0 -9 9 -15t39.5 -11t85.5 -6q110 -4 161 -35t51 -107q0 -41 -20.5 -71.5t-56 -46.5t-77 -23.5t-91.5 -7.5q-49 0 -91 7t-78.5 23t-57.5 45t-21 69q0 62 56 92
q-35 28 -35 69q0 49 55 81q-64 51 -64 130q0 85 64 132t155 47q47 0 101 -20l77 81zM169 314q0 -38 26 -59t69 -21t70 21t27 58q0 38 -27 61t-70 23q-42 0 -68.5 -22.5t-26.5 -60.5zM217 -6q-16 1 -41 5q-27 -18 -27 -45q0 -62 135 -62q128 0 128 47q0 18 -10 28t-43.5 16
t-100.5 7q-28 2 -41 4zM95 680h103q13 -61 65 -61q54 0 67 61h100q-2 -64 -52.5 -102.5t-114.5 -38.5q-69 0 -117.5 37t-50.5 104z" />
    <glyph glyph-name="Gdotaccent" unicode="&#x120;" horiz-adv-x="627" 
d="M461 236h-109v115h235v-321q-101 -44 -243 -44q-132 0 -215.5 92t-83.5 253q0 170 84.5 260t209.5 90q89 0 145.5 -35.5t92.5 -110.5l-109 -61q-43 89 -126 89q-66 0 -113 -60.5t-47 -171.5q0 -101 51 -163.5t126 -62.5q66 0 102 11v120zM337 720q-30 0 -50 23t-20 54
t20 54t50 23t50.5 -23t20.5 -54t-20.5 -54t-50.5 -23z" />
    <glyph glyph-name="gdotaccent" unicode="&#x121;" horiz-adv-x="533" 
d="M515 495l-70 -74q40 -45 40 -106q0 -85 -64.5 -131.5t-156.5 -46.5q-35 0 -69 8q-15 -9 -15 -23q0 -9 9 -15t39.5 -11t85.5 -6q110 -4 161 -35t51 -107q0 -41 -20.5 -71.5t-56 -46.5t-77 -23.5t-91.5 -7.5q-49 0 -91 7t-78.5 23t-57.5 45t-21 69q0 62 56 92
q-35 28 -35 69q0 49 55 81q-64 51 -64 130q0 85 64 132t155 47q47 0 101 -20l77 81zM169 314q0 -38 26 -59t69 -21t70 21t27 58q0 38 -27 61t-70 23q-42 0 -68.5 -22.5t-26.5 -60.5zM217 -6q-16 1 -41 5q-27 -18 -27 -45q0 -62 135 -62q128 0 128 47q0 18 -10 28t-43.5 16
t-100.5 7q-28 2 -41 4zM264 554q-30 0 -50 23t-20 54t20 54t50 23t50.5 -23t20.5 -54t-20.5 -54t-50.5 -23z" />
    <glyph glyph-name="Gcommaaccent" unicode="&#x122;" horiz-adv-x="627" 
d="M461 236h-109v115h235v-321q-101 -44 -243 -44q-132 0 -215.5 92t-83.5 253q0 170 84.5 260t209.5 90q89 0 145.5 -35.5t92.5 -110.5l-109 -61q-43 89 -126 89q-66 0 -113 -60.5t-47 -171.5q0 -101 51 -163.5t126 -62.5q66 0 102 11v120zM328 -181h-92l62 137h116z" />
    <glyph glyph-name="gcommaaccent" unicode="&#x123;" horiz-adv-x="533" 
d="M515 495l-70 -74q40 -45 40 -106q0 -85 -64.5 -131.5t-156.5 -46.5q-35 0 -69 8q-15 -9 -15 -23q0 -9 9 -15t39.5 -11t85.5 -6q110 -4 161 -35t51 -107q0 -41 -20.5 -71.5t-56 -46.5t-77 -23.5t-91.5 -7.5q-49 0 -91 7t-78.5 23t-57.5 45t-21 69q0 62 56 92
q-35 28 -35 69q0 49 55 81q-64 51 -64 130q0 85 64 132t155 47q47 0 101 -20l77 81zM169 314q0 -38 26 -59t69 -21t70 21t27 58q0 38 -27 61t-70 23q-42 0 -68.5 -22.5t-26.5 -60.5zM217 -6q-16 1 -41 5q-27 -18 -27 -45q0 -62 135 -62q128 0 128 47q0 18 -10 28t-43.5 16
t-100.5 7q-28 2 -41 4zM317 559h-109l85 130h83z" />
    <glyph glyph-name="Hcircumflex" unicode="&#x124;" horiz-adv-x="689" 
d="M212 0h-135v667h135v-264h265v264h135v-667h-135v282h-265v-282zM255 710l-67 45l121 130h96l121 -132l-69 -42l-101 96z" />
    <glyph glyph-name="hcircumflex" unicode="&#x125;" horiz-adv-x="577" 
d="M196 0h-131v667h131v-217q59 44 138 44q181 0 181 -208v-286h-131v277q0 57 -23 85t-58 28q-50 0 -107 -47v-343zM140 710l-67 45l121 130h96l121 -132l-69 -42l-101 96z" />
    <glyph glyph-name="Hbar" unicode="&#x126;" horiz-adv-x="689" 
d="M212 0h-135v483h-70v97h70v87h135v-87h265v87h135v-87h67v-97h-67v-483h-135v282h-265v-282zM212 483v-80h265v80h-265z" />
    <glyph glyph-name="hbar" unicode="&#x127;" horiz-adv-x="577" 
d="M196 0h-131v534h-62v87h62v46h131v-46h149v-87h-149v-84q59 44 138 44q181 0 181 -208v-286h-131v277q0 57 -23 85t-58 28q-50 0 -107 -47v-343z" />
    <glyph glyph-name="Itilde" unicode="&#x128;" horiz-adv-x="289" 
d="M212 0h-135v667h135v-667zM18 706l-69 36q18 53 50.5 84t76.5 31q32 0 76 -29q43 -28 59 -28q13 0 30 14t32 49l68 -35q-39 -116 -127 -116q-31 0 -77 30q-41 27 -58 27q-34 0 -61 -63z" />
    <glyph glyph-name="itilde" unicode="&#x129;" horiz-adv-x="261" 
d="M196 0h-131v477h131v-477zM4 540l-69 36q18 53 50.5 84t76.5 31q32 0 76 -29q43 -28 59 -28q13 0 30 14t32 49l68 -35q-39 -116 -127 -116q-31 0 -77 30q-41 27 -58 27q-34 0 -61 -63z" />
    <glyph glyph-name="Imacron" unicode="&#x12a;" horiz-adv-x="289" 
d="M212 0h-135v667h135v-667zM330 744h-363v89h363v-89z" />
    <glyph glyph-name="imacron" unicode="&#x12b;" horiz-adv-x="261" 
d="M196 0h-131v477h131v-477zM317 578h-363v89h363v-89z" />
    <glyph glyph-name="Ibreve" unicode="&#x12c;" horiz-adv-x="289" 
d="M212 0h-135v667h135v-667zM-23 846h103q13 -61 65 -61q54 0 67 61h100q-2 -64 -52.5 -102.5t-114.5 -38.5q-69 0 -117.5 37t-50.5 104z" />
    <glyph glyph-name="ibreve" unicode="&#x12d;" horiz-adv-x="261" 
d="M196 0h-131v477h131v-477zM-35 680h103q13 -61 65 -61q54 0 67 61h100q-2 -64 -52.5 -102.5t-114.5 -38.5q-69 0 -117.5 37t-50.5 104z" />
    <glyph glyph-name="Iogonek" unicode="&#x12e;" horiz-adv-x="289" 
d="M202 -97l24 -67q-32 -18 -77 -18q-50 0 -76.5 22t-26.5 62q0 37 27 72q11 14 26 26h-22v667h135v-667h-20q-18 -13 -31 -31q-19 -25 -19 -48q0 -27 24 -27q20 0 36 9z" />
    <glyph glyph-name="iogonek" unicode="&#x12f;" horiz-adv-x="260" 
d="M185 -97l24 -67q-32 -18 -77 -18q-50 0 -76.5 22t-26.5 62q0 37 27 72q11 14 26 26h-17v482h130v-482h-20q-18 -13 -31 -31q-19 -25 -19 -48q0 -27 24 -27q20 0 36 9zM130 537q-37 0 -57.5 21t-20.5 50q0 28 20.5 49t57.5 21t57.5 -21t20.5 -49q0 -29 -20.5 -50
t-57.5 -21z" />
    <glyph glyph-name="Idotaccent" unicode="&#x130;" horiz-adv-x="289" 
d="M212 0h-135v667h135v-667zM147 720q-30 0 -50 23t-20 54t20 54t50 23t50.5 -23t20.5 -54t-20.5 -54t-50.5 -23z" />
    <glyph glyph-name="dotlessi" unicode="&#x131;" horiz-adv-x="261" 
d="M196 0h-131v477h131v-477z" />
    <glyph glyph-name="IJ" unicode="&#x132;" horiz-adv-x="579" 
d="M212 0h-135v667h135v-667zM264 -143l-25 114q68 14 98 42.5t30 75.5v578h135v-600q0 -170 -238 -210z" />
    <glyph glyph-name="ij" unicode="&#x133;" horiz-adv-x="521" 
d="M130 537q-37 0 -57.5 21t-20.5 50q0 28 20.5 49t57.5 21t57.5 -21t20.5 -49q0 -29 -20.5 -50t-57.5 -21zM195 0h-130v482h130v-482zM392 537q-37 0 -57.5 21t-20.5 50q0 28 20.5 49t57.5 21q36 0 56.5 -21t20.5 -49q0 -29 -20.5 -50t-56.5 -21zM315 -196l-72 80
q50 34 66.5 61t16.5 74v463h130v-463q0 -77 -33.5 -126.5t-107.5 -88.5z" />
    <glyph glyph-name="Jcircumflex" unicode="&#x134;" horiz-adv-x="297" 
d="M-18 -143l-25 114q68 14 98 42.5t30 75.5v578h135v-600q0 -170 -238 -210zM51 710l-67 45l121 130h96l121 -132l-69 -42l-101 96z" />
    <glyph glyph-name="jcircumflex" unicode="&#x135;" horiz-adv-x="270" 
d="M64 -196l-72 80q50 34 66.5 61t16.5 74v463h130v-463q0 -77 -33.5 -126.5t-107.5 -88.5zM40 544l-67 45l121 130h96l121 -132l-69 -42l-101 96z" />
    <glyph glyph-name="Kcommaaccent" unicode="&#x136;" horiz-adv-x="639" 
d="M212 0h-135v667h135v-255l256 255h160l-262 -260l275 -407h-152l-215 316l-62 -62v-254zM334 -181h-92l62 137h116z" />
    <glyph glyph-name="kcommaaccent" unicode="&#x137;" horiz-adv-x="522" 
d="M196 0h-131v667h131v-321l151 136h157l-166 -149l190 -333h-147l-138 249l-47 -44v-205zM276 -181h-92l62 137h116z" />
    <glyph glyph-name="kgreenlandic" unicode="&#x138;" horiz-adv-x="522" 
d="M196 0h-131v482h131v-172l158 172h155l-173 -189l192 -293h-147l-138 206l-47 -53v-153z" />
    <glyph glyph-name="Lacute" unicode="&#x139;" horiz-adv-x="553" 
d="M548 0h-471v667h135v-546h336v-121zM298 816l-228 -112l-36 54l201 141z" />
    <glyph glyph-name="lacute" unicode="&#x13a;" horiz-adv-x="261" 
d="M196 0h-131v667h131v-667zM284 816l-228 -112l-36 54l201 141z" />
    <glyph glyph-name="Lcommaaccent" unicode="&#x13b;" horiz-adv-x="553" 
d="M548 0h-471v667h135v-546h336v-121zM291 -181h-92l62 137h116z" />
    <glyph glyph-name="lcommaaccent" unicode="&#x13c;" horiz-adv-x="261" 
d="M196 0h-131v667h131v-667zM99 -181h-92l62 137h116z" />
    <glyph glyph-name="Lcaron" unicode="&#x13d;" horiz-adv-x="553" 
d="M548 0h-471v667h135v-546h336v-121zM345 497h-73v170h107z" />
    <glyph glyph-name="lcaron" unicode="&#x13e;" horiz-adv-x="323" 
d="M196 0h-131v667h131v-667zM319 497h-73v170h107z" />
    <glyph glyph-name="Ldot" unicode="&#x13f;" horiz-adv-x="553" 
d="M548 0h-471v667h135v-546h336v-121zM360 272q-30 0 -50 23t-20 54t20 54t50 23t50.5 -23t20.5 -54t-20.5 -54t-50.5 -23z" />
    <glyph glyph-name="ldot" unicode="&#x140;" horiz-adv-x="368" 
d="M196 0h-131v667h131v-667zM317 272q-30 0 -50 23t-20 54t20 54t50 23t50.5 -23t20.5 -54t-20.5 -54t-50.5 -23z" />
    <glyph glyph-name="Lslash" unicode="&#x141;" horiz-adv-x="554" 
d="M549 0h-472v250l-59 -35l-53 82l112 69v301h135v-218l92 58l57 -83l-149 -92v-211h337v-121z" />
    <glyph glyph-name="lslash" unicode="&#x142;" horiz-adv-x="310" 
d="M217 0h-131v255l-60 -36l-46 78l106 63v307h131v-231l75 48l48 -76l-123 -76v-332z" />
    <glyph glyph-name="Nacute" unicode="&#x143;" horiz-adv-x="695" 
d="M210 0h-133v667h138l270 -416v416h133v-667h-118l-290 441v-441zM505 816l-228 -112l-36 54l201 141z" />
    <glyph glyph-name="nacute" unicode="&#x144;" horiz-adv-x="581" 
d="M196 0h-131v482h119l6 -38q62 50 147 50t133.5 -50.5t48.5 -158.5v-285h-131v275q0 55 -24 85t-67 30q-51 0 -101 -48v-342zM425 650l-228 -112l-36 54l201 141z" />
    <glyph glyph-name="Ncommaaccent" unicode="&#x145;" horiz-adv-x="695" 
d="M210 0h-133v667h138l270 -416v416h133v-667h-118l-290 441v-441zM341 -181h-92l62 137h116z" />
    <glyph glyph-name="ncommaaccent" unicode="&#x146;" horiz-adv-x="581" 
d="M196 0h-131v482h119l6 -38q62 50 147 50t133.5 -50.5t48.5 -158.5v-285h-131v275q0 55 -24 85t-67 30q-51 0 -101 -48v-342zM268 -181h-92l62 137h116z" />
    <glyph glyph-name="Ncaron" unicode="&#x147;" horiz-adv-x="695" 
d="M210 0h-133v667h138l270 -416v416h133v-667h-118l-290 441v-441zM396 710h-96l-121 130l67 45l101 -96l101 95l69 -41z" />
    <glyph glyph-name="ncaron" unicode="&#x148;" horiz-adv-x="581" 
d="M196 0h-131v482h119l6 -38q62 50 147 50t133.5 -50.5t48.5 -158.5v-285h-131v275q0 55 -24 85t-67 30q-51 0 -101 -48v-342zM343 544h-96l-121 130l67 45l101 -96l101 95l69 -41z" />
    <glyph glyph-name="napostrophe" unicode="&#x149;" horiz-adv-x="597" 
d="M212 0h-131v482h119l6 -38q62 50 147 50t133.5 -50.5t48.5 -158.5v-285h-131v275q0 55 -24 85t-67 30q-51 0 -101 -48v-342zM63 512l-13 40q38 8 59 31q-24 18 -24 51q0 25 15 44t41 19q24 0 40.5 -17.5t16.5 -43.5q0 -37 -34 -72t-101 -52z" />
    <glyph glyph-name="Eng" unicode="&#x14a;" horiz-adv-x="695" 
d="M210 0h-133v667h138l270 -416v416h133v-648q0 -80 -34.5 -128t-106.5 -87l-72 80q50 33 66.5 60.5t16.5 73.5l-278 423v-441z" />
    <glyph glyph-name="eng" unicode="&#x14b;" horiz-adv-x="581" 
d="M196 0h-131v482h119l6 -38q62 50 147 50t133.5 -50.5t48.5 -158.5v-285q0 -70 -35.5 -113.5t-105.5 -82.5l-72 80q45 30 62.5 55t19.5 61v275q0 55 -24 85t-67 30q-51 0 -101 -48v-342z" />
    <glyph glyph-name="Omacron" unicode="&#x14c;" horiz-adv-x="707" 
d="M217 16q-84 44 -128 130t-44 188q0 66 19.5 127t56.5 110.5t97 79.5t134 30q75 0 135.5 -30t98 -79.5t57 -110.5t19.5 -127t-19.5 -127t-57 -111t-98 -80t-135.5 -30q-76 0 -135 30zM225 175q47 -70 127 -70q81 0 127 67.5t46 161.5t-46 161.5t-127 67.5
q-79 0 -125 -67.5t-46 -161.5t44 -159zM537 744h-363v89h363v-89z" />
    <glyph glyph-name="omacron" unicode="&#x14d;" horiz-adv-x="556" 
d="M171 11q-65 32 -100.5 95t-35.5 137q0 102 64 176.5t179 74.5t179 -74.5t64 -176.5t-64 -178t-179 -76q-62 0 -107 22zM192 139q30 -43 86 -43q54 0 84.5 41.5t30.5 105.5q0 63 -30.5 104.5t-84.5 41.5t-84.5 -41.5t-30.5 -104.5t29 -104zM462 578h-363v89h363v-89z" />
    <glyph glyph-name="Obreve" unicode="&#x14e;" horiz-adv-x="707" 
d="M217 16q-84 44 -128 130t-44 188q0 66 19.5 127t56.5 110.5t97 79.5t134 30q75 0 135.5 -30t98 -79.5t57 -110.5t19.5 -127t-19.5 -127t-57 -111t-98 -80t-135.5 -30q-76 0 -135 30zM225 175q47 -70 127 -70q81 0 127 67.5t46 161.5t-46 161.5t-127 67.5
q-79 0 -125 -67.5t-46 -161.5t44 -159zM189 846h103q13 -61 65 -61q54 0 67 61h100q-2 -64 -52.5 -102.5t-114.5 -38.5q-69 0 -117.5 37t-50.5 104z" />
    <glyph glyph-name="obreve" unicode="&#x14f;" horiz-adv-x="556" 
d="M171 11q-65 32 -100.5 95t-35.5 137q0 102 64 176.5t179 74.5t179 -74.5t64 -176.5t-64 -178t-179 -76q-62 0 -107 22zM192 139q30 -43 86 -43q54 0 84.5 41.5t30.5 105.5q0 63 -30.5 104.5t-84.5 41.5t-84.5 -41.5t-30.5 -104.5t29 -104zM116 680h103q13 -61 65 -61
q54 0 67 61h100q-2 -64 -52.5 -102.5t-114.5 -38.5q-69 0 -117.5 37t-50.5 104z" />
    <glyph glyph-name="Ohungarumlaut" unicode="&#x150;" horiz-adv-x="707" 
d="M217 16q-84 44 -128 130t-44 188q0 66 19.5 127t56.5 110.5t97 79.5t134 30q75 0 135.5 -30t98 -79.5t57 -110.5t19.5 -127t-19.5 -127t-57 -111t-98 -80t-135.5 -30q-76 0 -135 30zM225 175q47 -70 127 -70q81 0 127 67.5t46 161.5t-46 161.5t-127 67.5
q-79 0 -125 -67.5t-46 -161.5t44 -159zM596 829l-189 -122l-40 43l163 151zM411 829l-189 -122l-39 43l164 151z" />
    <glyph glyph-name="ohungarumlaut" unicode="&#x151;" horiz-adv-x="556" 
d="M171 11q-65 32 -100.5 95t-35.5 137q0 102 64 176.5t179 74.5t179 -74.5t64 -176.5t-64 -178t-179 -76q-62 0 -107 22zM192 139q30 -43 86 -43q54 0 84.5 41.5t30.5 105.5q0 63 -30.5 104.5t-84.5 41.5t-84.5 -41.5t-30.5 -104.5t29 -104zM520 663l-189 -122l-40 43
l163 151zM335 663l-189 -122l-39 43l164 151z" />
    <glyph glyph-name="OE" unicode="&#x152;" horiz-adv-x="946" 
d="M918 0h-529q-151 0 -247.5 92t-96.5 242q0 153 96 243t248 90h506v-121h-301v-152h245v-121h-245v-152h324v-121zM382 121h77v425h-77q-87 0 -144 -57.5t-57 -154.5q0 -92 58.5 -152.5t142.5 -60.5z" />
    <glyph glyph-name="oe" unicode="&#x153;" horiz-adv-x="844" 
d="M814 210h-315q13 -114 110 -114q30 0 55 14t52 53l97 -59q-70 -115 -202 -115q-109 0 -177 71q-66 -71 -168 -71t-166.5 71t-64.5 182t65 181.5t168 70.5q113 0 165 -70q29 35 64.5 52.5t93.5 17.5q112 0 167.5 -77.5t55.5 -206.5zM500 300h183q-3 36 -25.5 65.5
t-64.5 29.5q-37 0 -64 -30t-29 -65zM196 130q28 -35 70 -35q52 0 77 43.5t25 106.5q0 70 -30.5 107t-71.5 37q-42 0 -72 -37t-30 -109q0 -73 32 -113z" />
    <glyph glyph-name="Racute" unicode="&#x154;" horiz-adv-x="623" 
d="M209 0h-132v667h271q45 0 84 -9.5t75 -30.5t56.5 -61.5t20.5 -96.5q0 -76 -38.5 -132t-116.5 -79l171 -258h-153l-165 250h-73v-250zM209 551v-186h103q139 0 139 91q0 49 -32 72t-107 23h-103zM461 816l-228 -112l-36 54l201 141z" />
    <glyph glyph-name="racute" unicode="&#x155;" horiz-adv-x="371" 
d="M196 0h-131v482h119l6 -42q48 52 112 52q30 0 75 -15l-23 -113q-42 17 -72 17q-54 0 -86 -43v-338zM365 650l-228 -112l-36 54l201 141z" />
    <glyph glyph-name="Rcommaaccent" unicode="&#x156;" horiz-adv-x="623" 
d="M209 0h-132v667h271q45 0 84 -9.5t75 -30.5t56.5 -61.5t20.5 -96.5q0 -76 -38.5 -132t-116.5 -79l171 -258h-153l-165 250h-73v-250zM209 551v-186h103q139 0 139 91q0 49 -32 72t-107 23h-103zM306 -181h-92l62 137h116z" />
    <glyph glyph-name="rcommaaccent" unicode="&#x157;" horiz-adv-x="371" 
d="M196 0h-131v482h119l6 -42q48 52 112 52q30 0 75 -15l-23 -113q-42 17 -72 17q-54 0 -86 -43v-338zM99 -181h-92l62 137h116z" />
    <glyph glyph-name="Rcaron" unicode="&#x158;" horiz-adv-x="623" 
d="M209 0h-132v667h271q45 0 84 -9.5t75 -30.5t56.5 -61.5t20.5 -96.5q0 -76 -38.5 -132t-116.5 -79l171 -258h-153l-165 250h-73v-250zM209 551v-186h103q139 0 139 91q0 49 -32 72t-107 23h-103zM362 710h-96l-121 130l67 45l101 -96l101 95l69 -41z" />
    <glyph glyph-name="rcaron" unicode="&#x159;" horiz-adv-x="371" 
d="M196 0h-131v482h119l6 -42q48 52 112 52q30 0 75 -15l-23 -113q-42 17 -72 17q-54 0 -86 -43v-338zM269 544h-96l-121 130l67 45l101 -96l101 95l69 -41z" />
    <glyph glyph-name="Sacute" unicode="&#x15a;" horiz-adv-x="556" 
d="M26 109l103 68q47 -77 150 -77q51 0 81.5 20t30.5 53q0 42 -31 67t-123 57q-95 33 -141 76t-46 122q0 85 60.5 135.5t174.5 50.5q158 0 234 -116l-97 -69q-48 74 -138 74q-50 0 -77 -17.5t-27 -47.5q0 -33 31.5 -55.5t104.5 -49.5q108 -38 157.5 -86.5t49.5 -133.5
q0 -93 -71 -143.5t-171 -50.5q-181 0 -255 123zM418 816l-228 -112l-36 54l201 141z" />
    <glyph glyph-name="sacute" unicode="&#x15b;" horiz-adv-x="485" 
d="M29 103l97 59q40 -75 124 -75q40 0 62.5 12.5t22.5 34.5t-25.5 38t-87.5 27q-82 15 -125.5 50.5t-43.5 100.5q0 64 54 104t144 40q142 0 204 -91l-92 -63q-42 56 -112 56q-74 0 -74 -45q0 -22 18.5 -32t75.5 -22q94 -19 140 -54t46 -103q0 -75 -57.5 -113t-149.5 -38
q-156 0 -221 114zM390 650l-228 -112l-36 54l201 141z" />
    <glyph glyph-name="Scircumflex" unicode="&#x15c;" horiz-adv-x="556" 
d="M26 109l103 68q47 -77 150 -77q51 0 81.5 20t30.5 53q0 42 -31 67t-123 57q-95 33 -141 76t-46 122q0 85 60.5 135.5t174.5 50.5q158 0 234 -116l-97 -69q-48 74 -138 74q-50 0 -77 -17.5t-27 -47.5q0 -33 31.5 -55.5t104.5 -49.5q108 -38 157.5 -86.5t49.5 -133.5
q0 -93 -71 -143.5t-171 -50.5q-181 0 -255 123zM182 710l-67 45l121 130h96l121 -132l-69 -42l-101 96z" />
    <glyph glyph-name="scircumflex" unicode="&#x15d;" horiz-adv-x="485" 
d="M29 103l97 59q40 -75 124 -75q40 0 62.5 12.5t22.5 34.5t-25.5 38t-87.5 27q-82 15 -125.5 50.5t-43.5 100.5q0 64 54 104t144 40q142 0 204 -91l-92 -63q-42 56 -112 56q-74 0 -74 -45q0 -22 18.5 -32t75.5 -22q94 -19 140 -54t46 -103q0 -75 -57.5 -113t-149.5 -38
q-156 0 -221 114zM147 544l-67 45l121 130h96l121 -132l-69 -42l-101 96z" />
    <glyph glyph-name="Scedilla" unicode="&#x15e;" horiz-adv-x="556" 
d="M26 109l103 68q47 -77 150 -77q51 0 81.5 20t30.5 53q0 42 -31 67t-123 57q-95 33 -141 76t-46 122q0 85 60.5 135.5t174.5 50.5q158 0 234 -116l-97 -69q-48 74 -138 74q-50 0 -77 -17.5t-27 -47.5q0 -33 31.5 -55.5t104.5 -49.5q108 -38 157.5 -86.5t49.5 -133.5
q0 -93 -71 -143.5t-171 -50.5q-181 0 -255 123zM249 -181h-92l62 137h116z" />
    <glyph glyph-name="scedilla" unicode="&#x15f;" horiz-adv-x="485" 
d="M29 103l97 59q40 -75 124 -75q40 0 62.5 12.5t22.5 34.5t-25.5 38t-87.5 27q-82 15 -125.5 50.5t-43.5 100.5q0 64 54 104t144 40q142 0 204 -91l-92 -63q-42 56 -112 56q-74 0 -74 -45q0 -22 18.5 -32t75.5 -22q94 -19 140 -54t46 -103q0 -75 -57.5 -113t-149.5 -38
q-156 0 -221 114zM228 -181h-92l62 137h116z" />
    <glyph glyph-name="Scaron" unicode="&#x160;" horiz-adv-x="556" 
d="M26 109l103 68q47 -77 150 -77q51 0 81.5 20t30.5 53q0 42 -31 67t-123 57q-95 33 -141 76t-46 122q0 85 60.5 135.5t174.5 50.5q158 0 234 -116l-97 -69q-48 74 -138 74q-50 0 -77 -17.5t-27 -47.5q0 -33 31.5 -55.5t104.5 -49.5q108 -38 157.5 -86.5t49.5 -133.5
q0 -93 -71 -143.5t-171 -50.5q-181 0 -255 123zM331 710h-96l-121 130l67 45l101 -96l101 95l69 -41z" />
    <glyph glyph-name="scaron" unicode="&#x161;" horiz-adv-x="485" 
d="M29 103l97 59q40 -75 124 -75q40 0 62.5 12.5t22.5 34.5t-25.5 38t-87.5 27q-82 15 -125.5 50.5t-43.5 100.5q0 64 54 104t144 40q142 0 204 -91l-92 -63q-42 56 -112 56q-74 0 -74 -45q0 -22 18.5 -32t75.5 -22q94 -19 140 -54t46 -103q0 -75 -57.5 -113t-149.5 -38
q-156 0 -221 114zM301 544h-96l-121 130l67 45l101 -96l101 95l69 -41z" />
    <glyph glyph-name="Tcommaaccent" unicode="&#x162;" horiz-adv-x="543" 
d="M340 0h-136v546h-199v121h533v-121h-198v-546zM240 -181h-92l62 137h116z" />
    <glyph glyph-name="tcommaaccent" unicode="&#x163;" horiz-adv-x="368" 
d="M216 382v-246q0 -21 9.5 -30.5t21.5 -9.5q33 0 72 31l47 -89q-74 -49 -147 -49q-56 0 -94.5 31.5t-38.5 96.5v265h-71v100h71v125h130v-125h117v-100h-117zM201 -181h-92l62 137h116z" />
    <glyph glyph-name="Tcaron" unicode="&#x164;" horiz-adv-x="543" 
d="M340 0h-136v546h-199v121h533v-121h-198v-546zM319 710h-96l-121 130l67 45l101 -96l101 95l69 -41z" />
    <glyph glyph-name="tcaron" unicode="&#x165;" horiz-adv-x="373" 
d="M339 531h-73v170h107zM216 382v-246q0 -21 9.5 -30.5t21.5 -9.5q33 0 72 31l47 -89q-74 -49 -147 -49q-56 0 -94.5 31.5t-38.5 96.5v265h-71v100h71v125h130v-125h117v-100h-117z" />
    <glyph glyph-name="Tbar" unicode="&#x166;" horiz-adv-x="543" 
d="M340 0h-136v276h-154v97h154v173h-199v121h533v-121h-198v-173h150v-97h-150v-276z" />
    <glyph glyph-name="tbar" unicode="&#x167;" horiz-adv-x="368" 
d="M86 207h-71v101h71v74h-71v100h71v125h130v-125h117v-100h-117v-74h117v-101h-117v-71q0 -21 9.5 -30.5t21.5 -9.5q33 0 72 31l47 -89q-74 -49 -147 -49q-56 0 -94.5 31.5t-38.5 96.5v90z" />
    <glyph glyph-name="Utilde" unicode="&#x168;" horiz-adv-x="687" 
d="M208 667v-425q0 -62 36 -99.5t100 -37.5t99.5 37.5t35.5 99.5v425h135v-438q0 -111 -77 -177t-194 -66q-116 0 -193 66t-77 177v438h135zM219 706l-69 36q18 53 50.5 84t76.5 31q32 0 76 -29q43 -28 59 -28q13 0 30 14t32 49l68 -35q-39 -116 -127 -116q-31 0 -77 30
q-41 27 -58 27q-34 0 -61 -63z" />
    <glyph glyph-name="utilde" unicode="&#x169;" horiz-adv-x="579" 
d="M514 0h-120l-5 38q-61 -48 -145 -48q-89 0 -135.5 51.5t-46.5 153.5v287h131v-274q0 -112 84 -112q54 0 106 42v344h131v-482zM161 540l-69 36q18 53 50.5 84t76.5 31q32 0 76 -29q43 -28 59 -28q13 0 30 14t32 49l68 -35q-39 -116 -127 -116q-31 0 -77 30q-41 27 -58 27
q-34 0 -61 -63z" />
    <glyph glyph-name="Umacron" unicode="&#x16a;" horiz-adv-x="687" 
d="M208 667v-425q0 -62 36 -99.5t100 -37.5t99.5 37.5t35.5 99.5v425h135v-438q0 -111 -77 -177t-194 -66q-116 0 -193 66t-77 177v438h135zM527 744h-363v89h363v-89z" />
    <glyph glyph-name="umacron" unicode="&#x16b;" horiz-adv-x="579" 
d="M514 0h-120l-5 38q-61 -48 -145 -48q-89 0 -135.5 51.5t-46.5 153.5v287h131v-274q0 -112 84 -112q54 0 106 42v344h131v-482zM468 578h-363v89h363v-89z" />
    <glyph glyph-name="Ubreve" unicode="&#x16c;" horiz-adv-x="687" 
d="M208 667v-425q0 -62 36 -99.5t100 -37.5t99.5 37.5t35.5 99.5v425h135v-438q0 -111 -77 -177t-194 -66q-116 0 -193 66t-77 177v438h135zM185 846h103q13 -61 65 -61q54 0 67 61h100q-2 -64 -52.5 -102.5t-114.5 -38.5q-69 0 -117.5 37t-50.5 104z" />
    <glyph glyph-name="ubreve" unicode="&#x16d;" horiz-adv-x="579" 
d="M514 0h-120l-5 38q-61 -48 -145 -48q-89 0 -135.5 51.5t-46.5 153.5v287h131v-274q0 -112 84 -112q54 0 106 42v344h131v-482zM123 680h103q13 -61 65 -61q54 0 67 61h100q-2 -64 -52.5 -102.5t-114.5 -38.5q-69 0 -117.5 37t-50.5 104z" />
    <glyph glyph-name="Uring" unicode="&#x16e;" horiz-adv-x="687" 
d="M208 667v-425q0 -62 36 -99.5t100 -37.5t99.5 37.5t35.5 99.5v425h135v-438q0 -111 -77 -177t-194 -66q-116 0 -193 66t-77 177v438h135zM306 704q-58 31 -58 99q0 43 27.5 76t76.5 33t77 -32.5t28 -75.5t-28 -76t-77 -33q-26 0 -46 9zM323 771q10 -13 29 -13
q18 0 29 12.5t11 33.5t-11 33.5t-29 12.5t-28.5 -13t-10.5 -33t10 -33z" />
    <glyph glyph-name="uring" unicode="&#x16f;" horiz-adv-x="579" 
d="M514 0h-120l-5 38q-61 -48 -145 -48q-89 0 -135.5 51.5t-46.5 153.5v287h131v-274q0 -112 84 -112q54 0 106 42v344h131v-482zM241 538q-58 31 -58 99q0 43 27.5 76t76.5 33t77 -32.5t28 -75.5t-28 -76t-77 -33q-27 0 -46 9zM258 605q10 -13 29 -13q18 0 29 12.5t11 33.5
t-11 33.5t-29 12.5t-28.5 -13t-10.5 -33t10 -33z" />
    <glyph glyph-name="Uhungarumlaut" unicode="&#x170;" horiz-adv-x="687" 
d="M208 667v-425q0 -62 36 -99.5t100 -37.5t99.5 37.5t35.5 99.5v425h135v-438q0 -111 -77 -177t-194 -66q-116 0 -193 66t-77 177v438h135zM587 829l-189 -122l-40 43l163 151zM402 829l-189 -122l-39 43l164 151z" />
    <glyph glyph-name="uhungarumlaut" unicode="&#x171;" horiz-adv-x="579" 
d="M514 0h-120l-5 38q-61 -48 -145 -48q-89 0 -135.5 51.5t-46.5 153.5v287h131v-274q0 -112 84 -112q54 0 106 42v344h131v-482zM521 663l-189 -122l-40 43l163 151zM336 663l-189 -122l-39 43l164 151z" />
    <glyph glyph-name="Uogonek" unicode="&#x172;" horiz-adv-x="687" 
d="M460 -97l24 -67q-32 -18 -77 -18q-50 0 -76.5 22t-26.5 62q0 37 27 72l10 12q-56 0 -104 16q-75 26 -119.5 85t-44.5 142v438h135v-425q0 -62 36 -99.5t100 -37.5t99.5 37.5t35.5 99.5v425h135v-438q0 -110 -79 -179q-35 -28 -78 -45q-20 -14 -38 -36q-19 -25 -19 -48
q0 -27 24 -27q20 0 36 9z" />
    <glyph glyph-name="uogonek" unicode="&#x173;" horiz-adv-x="579" 
d="M501 -97l24 -67q-32 -18 -77 -18q-50 0 -76.5 22t-26.5 62q0 37 27 72q11 14 26 26h-4l-5 38q-61 -48 -145 -48q-89 0 -135.5 51.5t-46.5 153.5v287h131v-274q0 -112 84 -112q54 0 106 42v344h131v-482h-23q-18 -13 -31 -31q-19 -25 -19 -48q0 -27 24 -27q20 0 36 9z" />
    <glyph glyph-name="Wcircumflex" unicode="&#x174;" horiz-adv-x="778" 
d="M237 0h-85l-152 667h135l82 -396l130 396h83l130 -396l84 396h134l-153 -667h-85l-152 447zM289 710l-67 45l121 130h96l121 -132l-69 -42l-101 96z" />
    <glyph glyph-name="wcircumflex" unicode="&#x175;" horiz-adv-x="717" 
d="M267 0h-95l-172 482h136l87 -290l95 290h80l96 -290l87 290h136l-172 -482h-95l-92 279zM258 544l-67 45l121 130h96l121 -132l-69 -42l-101 96z" />
    <glyph glyph-name="Ycircumflex" unicode="&#x176;" horiz-adv-x="581" 
d="M360 0h-135v268l-225 399h150l145 -265l138 265h148l-221 -399v-268zM194 710l-67 45l121 130h96l121 -132l-69 -42l-101 96z" />
    <glyph glyph-name="ycircumflex" unicode="&#x177;" horiz-adv-x="517" 
d="M7 -174l41 93q35 -17 69 -17q30 0 46 35l37 83l-200 462h139l126 -329l120 329h132l-250 -596q-39 -87 -138 -87q-59 0 -122 27zM166 544l-67 45l121 130h96l121 -132l-69 -42l-101 96z" />
    <glyph glyph-name="Ydieresis" unicode="&#x178;" horiz-adv-x="581" 
d="M360 0h-135v268l-225 399h150l145 -265l138 265h148l-221 -399v-268zM390 726q-27 0 -46 21.5t-19 49.5q0 29 18.5 50t46.5 21q29 0 47 -20.5t18 -50.5q0 -29 -18.5 -50t-46.5 -21zM202 726q-28 0 -46.5 21t-18.5 50q0 30 18 50.5t47 20.5q28 0 46.5 -21t18.5 -50
q0 -28 -19 -49.5t-46 -21.5z" />
    <glyph glyph-name="Zacute" unicode="&#x179;" horiz-adv-x="574" 
d="M545 0h-511v110l340 436h-312v121h477v-114l-337 -432h343v-121zM439 816l-228 -112l-36 54l201 141z" />
    <glyph glyph-name="zacute" unicode="&#x17a;" horiz-adv-x="508" 
d="M470 0h-434v89l276 293h-265v100h415v-94l-272 -289h280v-99zM397 650l-228 -112l-36 54l201 141z" />
    <glyph glyph-name="Zdotaccent" unicode="&#x17b;" horiz-adv-x="574" 
d="M545 0h-511v110l340 436h-312v121h477v-114l-337 -432h343v-121zM304 720q-30 0 -50 23t-20 54t20 54t50 23t50.5 -23t20.5 -54t-20.5 -54t-50.5 -23z" />
    <glyph glyph-name="zdotaccent" unicode="&#x17c;" horiz-adv-x="508" 
d="M470 0h-434v89l276 293h-265v100h415v-94l-272 -289h280v-99zM261 554q-30 0 -50 23t-20 54t20 54t50 23t50.5 -23t20.5 -54t-20.5 -54t-50.5 -23z" />
    <glyph glyph-name="Zcaron" unicode="&#x17d;" horiz-adv-x="574" 
d="M545 0h-511v110l340 436h-312v121h477v-114l-337 -432h343v-121zM351 710h-96l-121 130l67 45l101 -96l101 95l69 -41z" />
    <glyph glyph-name="zcaron" unicode="&#x17e;" horiz-adv-x="508" 
d="M470 0h-434v89l276 293h-265v100h415v-94l-272 -289h280v-99zM312 544h-96l-121 130l67 45l101 -96l101 95l69 -41z" />
    <glyph glyph-name="longs" unicode="&#x17f;" horiz-adv-x="335" 
d="M214 0h-131v499q0 91 46 136t122 45q88 0 148 -29l-38 -100q-42 20 -89 20q-58 0 -58 -73v-498z" />
    <glyph glyph-name="florin" unicode="&#x192;" horiz-adv-x="540" 
d="M-27 -136v116q125 5 151 108l62 249h-85v114h113q12 55 33.5 95.5t47.5 64.5t61 38.5t68.5 19.5t74.5 5v-115q-69 0 -100 -23t-49 -85h149v-114h-178l-57 -236q-29 -121 -94.5 -178t-196.5 -59z" />
    <glyph glyph-name="Scommaaccent" unicode="&#x218;" horiz-adv-x="556" 
d="M26 109l103 68q47 -77 150 -77q51 0 81.5 20t30.5 53q0 42 -31 67t-123 57q-95 33 -141 76t-46 122q0 85 60.5 135.5t174.5 50.5q158 0 234 -116l-97 -69q-48 74 -138 74q-50 0 -77 -17.5t-27 -47.5q0 -33 31.5 -55.5t104.5 -49.5q108 -38 157.5 -86.5t49.5 -133.5
q0 -93 -71 -143.5t-171 -50.5q-181 0 -255 123zM257 -181h-92l62 137h116z" />
    <glyph glyph-name="scommaaccent" unicode="&#x219;" horiz-adv-x="485" 
d="M29 103l97 59q40 -75 124 -75q40 0 62.5 12.5t22.5 34.5t-25.5 38t-87.5 27q-82 15 -125.5 50.5t-43.5 100.5q0 64 54 104t144 40q142 0 204 -91l-92 -63q-42 56 -112 56q-74 0 -74 -45q0 -22 18.5 -32t75.5 -22q94 -19 140 -54t46 -103q0 -75 -57.5 -113t-149.5 -38
q-156 0 -221 114zM229 -181h-92l62 137h116z" />
    <glyph glyph-name="uni021A" unicode="&#x21a;" horiz-adv-x="543" 
d="M340 0h-136v546h-199v121h533v-121h-198v-546zM240 -181h-92l62 137h116z" />
    <glyph glyph-name="uni021B" unicode="&#x21b;" horiz-adv-x="368" 
d="M216 382v-246q0 -21 9.5 -30.5t21.5 -9.5q33 0 72 31l47 -89q-74 -49 -147 -49q-56 0 -94.5 31.5t-38.5 96.5v265h-71v100h71v125h130v-125h117v-100h-117zM201 -181h-92l62 137h116z" />
    <glyph glyph-name="dotlessj" unicode="&#x237;" horiz-adv-x="270" 
d="M64 -196l-72 80q50 34 66.5 61t16.5 74v463h130v-463q0 -77 -33.5 -126.5t-107.5 -88.5z" />
    <glyph glyph-name="apostrophe" unicode="&#x2bc;" horiz-adv-x="230" 
d="M63 512l-13 40q38 8 59 31q-24 18 -24 51q0 25 15 44t41 19q24 0 40.5 -17.5t16.5 -43.5q0 -37 -34 -72t-101 -52z" />
    <glyph glyph-name="circumflex" unicode="&#x2c6;" horiz-adv-x="442" 
d="M119 544l-67 45l121 130h96l121 -132l-69 -42l-101 96z" />
    <glyph glyph-name="caron" unicode="&#x2c7;" horiz-adv-x="442" 
d="M269 544h-96l-121 130l67 45l101 -96l101 95l69 -41z" />
    <glyph glyph-name="uni02C9" unicode="&#x2c9;" horiz-adv-x="442" 
d="M403 578h-363v89h363v-89z" />
    <glyph glyph-name="breve" unicode="&#x2d8;" horiz-adv-x="442" 
d="M53 680h103q13 -61 65 -61q54 0 67 61h100q-2 -64 -52.5 -102.5t-114.5 -38.5q-69 0 -117.5 37t-50.5 104z" />
    <glyph glyph-name="dotaccent" unicode="&#x2d9;" horiz-adv-x="442" 
d="M221 554q-30 0 -50 23t-20 54t20 54t50 23t50.5 -23t20.5 -54t-20.5 -54t-50.5 -23z" />
    <glyph glyph-name="ring" unicode="&#x2da;" horiz-adv-x="442" 
d="M175 538q-58 31 -58 99q0 43 27.5 76t76.5 33t77 -32.5t28 -75.5t-28 -76t-77 -33q-27 0 -46 9zM192 605q10 -13 29 -13q18 0 29 12.5t11 33.5t-11 33.5t-29 12.5t-28.5 -13t-10.5 -33t10 -33z" />
    <glyph glyph-name="ogonek" unicode="&#x2db;" horiz-adv-x="442" 
d="M257 -97l24 -67q-32 -18 -77 -18q-50 0 -76.5 22t-26.5 62q0 38 27 72.5t67 46.5l69 -10q-29 -17 -48 -42.5t-19 -47.5q0 -27 24 -27q20 0 36 9z" />
    <glyph glyph-name="tilde" unicode="&#x2dc;" horiz-adv-x="442" 
d="M94 540l-69 36q18 53 50.5 84t76.5 31q32 0 76 -29q43 -28 59 -28q13 0 30 14t32 49l68 -35q-39 -116 -127 -116q-31 0 -77 30q-41 27 -58 27q-34 0 -61 -63z" />
    <glyph glyph-name="hungarumlaut" unicode="&#x2dd;" horiz-adv-x="442" 
d="M428 663l-189 -122l-40 43l163 151zM243 663l-189 -122l-39 43l164 151z" />
    <glyph glyph-name="tonos" unicode="&#x384;" horiz-adv-x="442" 
d="M207 523l-68 34l101 228l103 -47z" />
    <glyph glyph-name="dieresistonos" unicode="&#x385;" horiz-adv-x="442" 
d="M393 560q-27 0 -46 21.5t-19 49.5q0 29 18.5 50t46.5 21q29 0 47 -20.5t18 -50.5q0 -29 -18.5 -50t-46.5 -21zM57 560q-28 0 -46.5 21t-18.5 50q0 30 18 50.5t47 20.5q28 0 46.5 -21t18.5 -50q0 -28 -19 -49.5t-46 -21.5zM206 540l-59 28l100 225l96 -39z" />
    <glyph glyph-name="Alphatonos" unicode="&#x386;" horiz-adv-x="640" 
d="M71 403l-74 24l64 241l110 -32zM136 0h-136l274 667h95l278 -667h-145l-54 134h-257zM318 466l-86 -219h172z" />
    <glyph glyph-name="Epsilontonos" unicode="&#x388;" horiz-adv-x="587" 
d="M12 403l-74 24l64 241l110 -32zM626 0h-481v667h458v-121h-323v-152h267v-121h-267v-152h346v-121z" />
    <glyph glyph-name="Etatonos" unicode="&#x389;" horiz-adv-x="739" 
d="M10 403l-74 24l64 241l110 -32zM296 0h-135v667h135v-264h265v264h135v-667h-135v282h-265v-282z" />
    <glyph glyph-name="Iotatonos" unicode="&#x38a;" horiz-adv-x="316" 
d="M11 403l-74 24l64 241l110 -32zM286 0h-135v667h135v-667z" />
    <glyph glyph-name="Omicrontonos" unicode="&#x38c;" horiz-adv-x="713" 
d="M11 403l-74 24l64 241l110 -32zM269 16q-84 44 -128 130t-44 188q0 66 19.5 127t56.5 110.5t97 79.5t134 30q75 0 135.5 -30t98 -79.5t57 -110.5t19.5 -127t-19.5 -127t-57 -111t-98 -80t-135.5 -30q-76 0 -135 30zM277 175q47 -70 127 -70q81 0 127 67.5t46 161.5
t-46 161.5t-127 67.5q-79 0 -125 -67.5t-46 -161.5t44 -159z" />
    <glyph glyph-name="Upsilontonos" unicode="&#x38e;" horiz-adv-x="731" 
d="M13 403l-74 24l64 241l110 -32zM490 0h-129v156q0 49 -5 81q-12 84 -81.5 182.5t-153.5 159.5l88 94q69 -44 135 -127t88 -170q21 78 88 167t133 131l78 -86q-71 -55 -149 -169.5t-86 -194.5q-6 -53 -6 -94v-130z" />
    <glyph glyph-name="Omegatonos" unicode="&#x38f;" horiz-adv-x="732" 
d="M13 403l-74 24l64 241l110 -32zM366 0h-251v120h95q-105 94 -105 251q0 139 88 224.5t232 85.5q145 0 229 -84t84 -223q0 -80 -34 -150t-81 -104h105v-120h-251l-1 114q124 90 124 238q0 101 -48 156t-130 55q-83 0 -131 -55t-48 -156q0 -81 36.5 -141t86.5 -97v-114z
" />
    <glyph glyph-name="iotadieresistonos" unicode="&#x390;" horiz-adv-x="304" 
d="M290 101l14 -92q-44 -20 -106 -20q-61 0 -94.5 31.5t-33.5 93.5v368h130v-336q0 -31 10 -43t30 -12q22 0 50 10zM311 560q-27 0 -46 21.5t-19 49.5q0 29 18.5 50t46.5 21q29 0 47 -20.5t18 -50.5q0 -29 -18.5 -50t-46.5 -21zM-25 560q-28 0 -46.5 21t-18.5 50
q0 30 18 50.5t47 20.5q28 0 46.5 -21t18.5 -50q0 -28 -19 -49.5t-46 -21.5zM124 540l-59 28l100 225l96 -39z" />
    <glyph glyph-name="Alpha" unicode="&#x391;" horiz-adv-x="648" 
d="M136 0h-136l274 667h95l278 -667h-145l-54 134h-257zM318 466l-86 -219h172z" />
    <glyph glyph-name="Beta" unicode="&#x392;" horiz-adv-x="598" 
d="M351 0h-274v667h238q98 0 159 -48.5t61 -131.5q0 -85 -81 -134q56 -19 87.5 -61.5t31.5 -103.5q0 -56 -31 -103t-90 -69q-45 -16 -101 -16zM210 553v-159h66q59 0 74 9q49 22 49 69q0 55 -62 75q-26 6 -72 6h-55zM210 285v-171h96q63 0 88 13q42 23 42 66q0 51 -50 77
q-29 15 -82 15h-94z" />
    <glyph glyph-name="Gamma" unicode="&#x393;" horiz-adv-x="505" 
d="M208 0h-135v667h427v-121h-292v-546z" />
    <glyph glyph-name="uni0394" unicode="&#x394;" horiz-adv-x="662" 
d="M658 0h-655l274 667h102zM324 494l-140 -384h288z" />
    <glyph glyph-name="Epsilon" unicode="&#x395;" horiz-adv-x="586" 
d="M558 0h-481v667h458v-121h-323v-152h267v-121h-267v-152h346v-121z" />
    <glyph glyph-name="Zeta" unicode="&#x396;" horiz-adv-x="574" 
d="M545 0h-511v110l340 436h-312v121h477v-114l-337 -432h343v-121z" />
    <glyph glyph-name="Eta" unicode="&#x397;" horiz-adv-x="689" 
d="M212 0h-135v667h135v-264h265v264h135v-667h-135v282h-265v-282z" />
    <glyph glyph-name="Theta" unicode="&#x398;" horiz-adv-x="707" 
d="M476 276h-248v115h248v-115zM217 16q-84 44 -128 130t-44 188q0 66 19.5 127t56.5 110.5t97 79.5t134 30q75 0 135.5 -30t98 -79.5t57 -110.5t19.5 -127t-19.5 -127t-57 -111t-98 -80t-135.5 -30q-76 0 -135 30zM225 175q47 -70 127 -70q81 0 127 67.5t46 161.5
t-46 161.5t-127 67.5q-79 0 -125 -67.5t-46 -161.5t44 -159z" />
    <glyph glyph-name="Iota" unicode="&#x399;" horiz-adv-x="289" 
d="M212 0h-135v667h135v-667z" />
    <glyph glyph-name="Kappa" unicode="&#x39a;" horiz-adv-x="639" 
d="M212 0h-135v667h135v-255l256 255h160l-262 -260l275 -407h-152l-215 316l-62 -62v-254z" />
    <glyph glyph-name="Lambda" unicode="&#x39b;" horiz-adv-x="640" 
d="M138 0h-138l274 667h91l275 -667h-138l-183 467z" />
    <glyph glyph-name="Mu" unicode="&#x39c;" horiz-adv-x="806" 
d="M210 0h-133v667h138l197 -444l178 444h139v-667h-133v373l-161 -377h-48l-177 381v-377z" />
    <glyph glyph-name="Nu" unicode="&#x39d;" horiz-adv-x="695" 
d="M210 0h-133v667h138l270 -416v416h133v-667h-118l-290 441v-441z" />
    <glyph glyph-name="Xi" unicode="&#x39e;" horiz-adv-x="583" 
d="M518 0h-453v120h453v-120zM513 547h-442v120h442v-120zM463 283h-343v119h343v-119z" />
    <glyph glyph-name="Omicron" unicode="&#x39f;" horiz-adv-x="707" 
d="M217 16q-84 44 -128 130t-44 188q0 66 19.5 127t56.5 110.5t97 79.5t134 30q75 0 135.5 -30t98 -79.5t57 -110.5t19.5 -127t-19.5 -127t-57 -111t-98 -80t-135.5 -30q-76 0 -135 30zM225 175q47 -70 127 -70q81 0 127 67.5t46 161.5t-46 161.5t-127 67.5
q-79 0 -125 -67.5t-46 -161.5t44 -159z" />
    <glyph glyph-name="Pi" unicode="&#x3a0;" horiz-adv-x="673" 
d="M210 0h-135v667h523v-667h-135v546h-253v-546z" />
    <glyph glyph-name="Rho" unicode="&#x3a1;" horiz-adv-x="592" 
d="M209 0h-132v667h210q110 0 177 -32q49 -23 74 -69.5t25 -103.5q0 -63 -31.5 -118.5t-86.5 -78.5q-62 -25 -144 -25h-92v-240zM209 552v-197h75q64 0 93 14q53 23 53 85q0 67 -56 86q-34 12 -85 12h-80z" />
    <glyph glyph-name="Sigma" unicode="&#x3a3;" horiz-adv-x="538" 
d="M508 0h-467v111l222 224l-223 220v112h464v-121h-284l209 -210l-214 -215h293v-121z" />
    <glyph glyph-name="Tau" unicode="&#x3a4;" horiz-adv-x="543" 
d="M340 0h-136v546h-199v121h533v-121h-198v-546z" />
    <glyph glyph-name="Upsilon" unicode="&#x3a5;" horiz-adv-x="610" 
d="M369 0h-129v156q0 49 -5 81q-12 84 -81.5 182.5t-153.5 159.5l88 94q69 -44 135 -127t88 -170q21 78 88 167t133 131l78 -86q-71 -55 -149 -169.5t-86 -194.5q-6 -53 -6 -94v-130z" />
    <glyph glyph-name="Phi" unicode="&#x3a6;" horiz-adv-x="747" 
d="M441 -12h-135v91q-131 9 -201.5 76t-70.5 179t70.5 179t201.5 76v91h135v-91q131 -9 201.5 -76t70.5 -179t-70.5 -179t-201.5 -76v-91zM441 482v-297q67 5 103.5 43.5t36.5 105.5t-36.5 105t-103.5 43zM306 185v297q-67 -5 -103.5 -43t-36.5 -105t36.5 -105.5
t103.5 -43.5z" />
    <glyph glyph-name="Chi" unicode="&#x3a7;" horiz-adv-x="579" 
d="M151 0h-151l217 347l-202 320h152l122 -203l122 203h152l-201 -320l217 -347h-151l-139 230z" />
    <glyph glyph-name="Psi" unicode="&#x3a8;" horiz-adv-x="771" 
d="M453 0h-131v196q-136 5 -201.5 69.5t-65.5 193.5v208h131v-190q0 -88 30 -126.5t106 -38.5v355h131v-355q78 0 106 35t28 126v194h129v-214q0 -117 -65.5 -183.5t-197.5 -73.5v-196z" />
    <glyph glyph-name="Omega" unicode="&#x3a9;" horiz-adv-x="737" 
d="M313 0h-251v120h95q-105 94 -105 251q0 139 88 224.5t232 85.5q145 0 229 -84t84 -223q0 -80 -34 -150t-81 -104h105v-120h-251l-1 114q124 90 124 238q0 101 -48 156t-130 55q-83 0 -131 -55t-48 -156q0 -81 36.5 -141t86.5 -97v-114z" />
    <glyph glyph-name="Iotadieresis" unicode="&#x3aa;" horiz-adv-x="289" 
d="M212 0h-135v667h135v-667zM240 726q-27 0 -46 21.5t-19 49.5q0 29 18.5 50t46.5 21q29 0 47 -20.5t18 -50.5q0 -29 -18.5 -50t-46.5 -21zM52 726q-28 0 -46.5 21t-18.5 50q0 30 18 50.5t47 20.5q28 0 46.5 -21t18.5 -50q0 -28 -19 -49.5t-46 -21.5z" />
    <glyph glyph-name="Upsilondieresis" unicode="&#x3ab;" horiz-adv-x="610" 
d="M369 0h-129v156q0 49 -5 81q-12 84 -81.5 182.5t-153.5 159.5l88 94q69 -44 135 -127t88 -170q21 78 88 167t133 131l78 -86q-71 -55 -149 -169.5t-86 -194.5q-6 -53 -6 -94v-130zM408 726q-27 0 -46 21.5t-19 49.5q0 29 18.5 50t46.5 21q29 0 47 -20.5t18 -50.5
q0 -29 -18.5 -50t-46.5 -21zM220 726q-28 0 -46.5 21t-18.5 50q0 30 18 50.5t47 20.5q28 0 46.5 -21t18.5 -50q0 -28 -19 -49.5t-46 -21.5z" />
    <glyph glyph-name="alphatonos" unicode="&#x3ac;" horiz-adv-x="616" 
d="M600 85l6 -84q-30 -12 -73 -12q-46 0 -71.5 17.5t-40.5 56.5q-56 -74 -157 -74q-97 0 -158 62.5t-61 181.5q0 110 61 185.5t166 75.5q93 0 144 -66q6 39 30 77l114 -30q-53 -124 -53 -251q0 -74 13.5 -107.5t52.5 -33.5q9 0 27 2zM197 133q25 -39 78 -39q51 0 80 37.5
t29 113.5q0 143 -104 143q-46 0 -77 -36.5t-31 -110.5q0 -68 25 -108zM321 523l-68 34l101 228l103 -47z" />
    <glyph glyph-name="epsilontonos" unicode="&#x3ad;" horiz-adv-x="483" 
d="M434 122l19 -95q-71 -38 -197 -38q-103 0 -157 35.5t-54 104.5q0 45 26 77t72 45q-85 34 -85 111q0 62 53.5 97t145.5 35q115 0 189 -39l-37 -95q-73 34 -140 34q-83 0 -83 -47q0 -35 33 -46t92 -11h75v-95q-23 0 -67.5 -0.5t-50.5 -0.5q-95 0 -95 -51q0 -26 29.5 -39.5
t76.5 -13.5q83 0 155 32zM271 523l-68 34l101 228l103 -47z" />
    <glyph glyph-name="etatonos" unicode="&#x3ae;" horiz-adv-x="615" 
d="M214 0h-130v345q0 25 -5.5 36t-21.5 11t-25 -4l-22 85q30 16 85 16q70 0 87 -65q23 32 67 51t98 19q94 0 144.5 -41.5t56.5 -109.5q2 -15 2 -63v-469h-130v452q0 40 -3 55q-7 75 -90 75q-38 0 -66 -18.5t-40 -48.5q-7 -17 -7 -61v-265zM335 523l-68 34l101 228l103 -47z
" />
    <glyph glyph-name="iotatonos" unicode="&#x3af;" horiz-adv-x="304" 
d="M290 101l14 -92q-44 -20 -106 -20q-61 0 -94.5 31.5t-33.5 93.5v368h130v-336q0 -31 10 -43t30 -12q22 0 50 10zM130 523l-68 34l101 228l103 -47z" />
    <glyph glyph-name="upsilondieresistonos" unicode="&#x3b0;" horiz-adv-x="591" 
d="M90 190v131q0 37 -5.5 51.5t-25.5 14.5q-18 0 -32 -6l-22 88q41 19 98 19q89 0 108 -84q6 -25 6 -70v-113q0 -125 91 -125q47 0 65.5 24t25.5 70q5 39 5 86q0 78 -22 198l127 16q22 -108 22 -210q0 -67 -6 -105q-15 -90 -73.5 -138t-152.5 -48q-97 0 -153 50t-56 151z
M458 560q-27 0 -46 21.5t-19 49.5q0 29 18.5 50t46.5 21q29 0 47 -20.5t18 -50.5q0 -29 -18.5 -50t-46.5 -21zM122 560q-28 0 -46.5 21t-18.5 50q0 30 18 50.5t47 20.5q28 0 46.5 -21t18.5 -50q0 -28 -19 -49.5t-46 -21.5zM271 540l-59 28l100 225l96 -39z" />
    <glyph glyph-name="alpha" unicode="&#x3b1;" horiz-adv-x="616" 
d="M600 85l6 -84q-30 -12 -73 -12q-46 0 -71.5 17.5t-40.5 56.5q-56 -74 -157 -74q-97 0 -158 62.5t-61 181.5q0 110 61 185.5t166 75.5q93 0 144 -66q6 39 30 77l114 -30q-53 -124 -53 -251q0 -74 13.5 -107.5t52.5 -33.5q9 0 27 2zM197 133q25 -39 78 -39q51 0 80 37.5
t29 113.5q0 143 -104 143q-46 0 -77 -36.5t-31 -110.5q0 -68 25 -108z" />
    <glyph glyph-name="beta" unicode="&#x3b2;" horiz-adv-x="605" 
d="M189 -189h-124v640q0 26 5 59q5 29 18.5 55.5t38 52.5t66.5 42t96 16q97 0 153 -43.5t56 -122.5q0 -54 -31.5 -91.5t-71.5 -51.5q72 -11 118.5 -56.5t46.5 -127.5q0 -93 -59.5 -143.5t-160.5 -50.5q-84 0 -151 42v-220zM195 448v-316q60 -43 126 -43q49 0 79.5 24.5
t30.5 72.5q0 83 -95 106q-40 10 -81 10v101q55 0 85.5 24t30.5 68q0 36 -21.5 58t-62.5 22q-39 0 -61 -21.5t-28 -54.5q-3 -16 -3 -51z" />
    <glyph glyph-name="gamma" unicode="&#x3b3;" horiz-adv-x="569" 
d="M347 -189h-120q0 92 -7 159q-9 96 -44.5 202.5t-71.5 177.5q-18 33 -43 33q-14 0 -34 -9l-32 96q47 22 94 22q82 0 121 -69q26 -46 51.5 -130t35.5 -157q14 76 57.5 185.5t85.5 175.5l109 -44q-69 -128 -129 -279t-67 -250q-6 -70 -6 -113z" />
    <glyph glyph-name="delta" unicode="&#x3b4;" horiz-adv-x="566" 
d="M80 569l27 98h364v-100h-219q79 -44 144 -95q130 -99 130 -239q0 -102 -67 -173t-187 -71q-107 0 -169.5 63.5t-62.5 169.5q0 86 50 149.5t141 93.5q-23 19 -47 36t-60 40t-44 28zM374 324q-23 39 -65 68q-67 -22 -104.5 -65.5t-37.5 -100.5q0 -56 27 -92q32 -41 88 -41
q52 0 84 39.5t32 102.5q0 51 -24 89z" />
    <glyph glyph-name="epsilon" unicode="&#x3b5;" horiz-adv-x="483" 
d="M434 122l19 -95q-71 -38 -197 -38q-103 0 -157 35.5t-54 104.5q0 45 26 77t72 45q-85 34 -85 111q0 62 53.5 97t145.5 35q115 0 189 -39l-37 -95q-73 34 -140 34q-83 0 -83 -47q0 -35 33 -46t92 -11h75v-95q-23 0 -67.5 -0.5t-50.5 -0.5q-95 0 -95 -51q0 -26 29.5 -39.5
t76.5 -13.5q83 0 155 32z" />
    <glyph glyph-name="zeta" unicode="&#x3b6;" horiz-adv-x="478" 
d="M395 -185l-104 27q30 80 37 146q-142 -2 -215 41t-73 157q0 180 188 351q34 30 53 41q-36 -3 -68 -3q-83 0 -141 14l17 95q93 -14 179 -14q81 0 187 10v-95q-55 -36 -67 -45q-97 -73 -157 -164t-60 -162q0 -77 49.5 -100t195.5 -25q47 0 47 -43q0 -41 -22.5 -116.5
t-45.5 -114.5z" />
    <glyph glyph-name="eta" unicode="&#x3b7;" horiz-adv-x="615" 
d="M214 0h-130v345q0 25 -5.5 36t-21.5 11t-25 -4l-22 85q30 16 85 16q70 0 87 -65q23 32 67 51t98 19q94 0 144.5 -41.5t56.5 -109.5q2 -15 2 -63v-469h-130v452q0 40 -3 55q-7 75 -90 75q-38 0 -66 -18.5t-40 -48.5q-7 -17 -7 -61v-265z" />
    <glyph glyph-name="theta" unicode="&#x3b8;" horiz-adv-x="558" 
d="M163 18q-123 81 -123 312q0 95 24 170.5t80.5 125.5t137.5 50q62 0 108 -26t72 -73t38.5 -106.5t12.5 -132.5q0 -74 -13 -135t-40 -110t-74.5 -76.5t-112.5 -27.5q-64 0 -110 29zM387 283h-222q0 -76 27 -134t84 -58q59 0 85 54t26 138zM165 383h222q0 76 -29 133t-81 57
q-55 0 -82 -57t-30 -133z" />
    <glyph glyph-name="iota" unicode="&#x3b9;" horiz-adv-x="304" 
d="M290 101l14 -92q-44 -20 -106 -20q-61 0 -94.5 31.5t-33.5 93.5v368h130v-336q0 -31 10 -43t30 -12q22 0 50 10z" />
    <glyph glyph-name="kappa" unicode="&#x3ba;" horiz-adv-x="578" 
d="M196 0h-126v482h126v-192q112 120 133 141q58 59 125 59q49 0 84 -20l-36 -99q-19 11 -47 11q-33 0 -77 -50l-29 -32l214 -300h-150l-145 214l-72 -80v-134z" />
    <glyph glyph-name="lambda" unicode="&#x3bb;" horiz-adv-x="554" 
d="M146 0h-131l178 479l-13 31q-12 28 -24 38.5t-38 10.5q-24 0 -60 -15l-34 95q19 9 56.5 18.5t67.5 9.5q108 0 144 -101l146 -409q12 -33 25 -48.5t40 -15.5q23 0 35 5l16 -93q-34 -16 -90 -16q-60 0 -94 36.5t-58 113.5l-58 183z" />
    <glyph glyph-name="uni03BC" unicode="&#x3bc;" horiz-adv-x="609" 
d="M192 -189h-122v671h131v-293q0 -44 22.5 -71t67.5 -27q73 0 96 56q8 19 8 73v258h130v-345q0 -46 28 -46q10 0 32 5l14 -88q-36 -15 -79 -15q-75 0 -93 65q-47 -65 -134 -65q-66 0 -101 37v-215z" />
    <glyph glyph-name="nu" unicode="&#x3bd;" horiz-adv-x="564" 
d="M363 0h-135q-84 278 -119 350q-15 33 -45 33q-12 0 -33 -8l-32 95q45 21 98 21q79 0 117 -68q48 -86 87 -272q62 197 116 345l112 -36q-20 -54 -166 -460z" />
    <glyph glyph-name="xi" unicode="&#x3be;" horiz-adv-x="504" 
d="M427 -182l-100 28q29 78 36 141q-54 1 -93 4.5t-84.5 15t-73.5 30t-47.5 53t-19.5 81.5q0 58 36 103t95 62q-40 11 -68.5 42.5t-28.5 77.5q0 100 127 131q-41 -4 -74 -4q-46 0 -86 8l17 94q116 -15 218 -15q91 0 176 8v-98q-78 -12 -124 -23q-63 -15 -93.5 -35.5
t-30.5 -54.5q0 -63 95 -74q11 -2 73 -2h46v-108q-67 0 -118 -4q-59 -4 -94.5 -27.5t-35.5 -66.5q0 -54 60 -75.5t205 -21.5q28 0 41 -9t13 -31q0 -43 -24 -118t-43 -112z" />
    <glyph glyph-name="omicron" unicode="&#x3bf;" horiz-adv-x="556" 
d="M171 11q-65 32 -100.5 95t-35.5 137q0 102 64 176.5t179 74.5t179 -74.5t64 -176.5t-64 -178t-179 -76q-62 0 -107 22zM192 139q30 -43 86 -43q54 0 84.5 41.5t30.5 105.5q0 63 -30.5 104.5t-84.5 41.5t-84.5 -41.5t-30.5 -104.5t29 -104z" />
    <glyph glyph-name="pi" unicode="&#x3c0;" horiz-adv-x="737" 
d="M321 0h-131v379h-8q-23 0 -39 -6q-22 -8 -50 -44l-83 62q48 70 120 86q25 5 55 5h502v-99h-106v-246q0 -30 7 -39.5t28 -9.5q19 0 41 6l16 -90q-45 -15 -94 -15q-58 0 -90.5 31.5t-32.5 93.5v266h-135v-380z" />
    <glyph glyph-name="rho" unicode="&#x3c1;" horiz-adv-x="591" 
d="M195 -189h-130v404q0 42 2 55q9 95 67 159.5t172 64.5q113 0 176.5 -65.5t63.5 -172.5q0 -112 -61 -189.5t-172 -77.5q-67 0 -118 39v-217zM197 210v-74q53 -45 105 -45q59 0 87.5 43.5t28.5 111.5q0 64 -29 103.5t-83 39.5q-94 0 -107 -123q-2 -13 -2 -56z" />
    <glyph glyph-name="sigma1" unicode="&#x3c2;" horiz-adv-x="523" 
d="M378 -179l-100 29q26 70 34 139q-38 3 -72 10.5t-72 25.5t-65 45t-45 71.5t-18 101.5q0 115 66.5 183t169.5 68q152 0 202 -122l-100 -47q-32 63 -101 63q-51 0 -80 -37.5t-29 -101.5q0 -85 56.5 -123t163.5 -40q32 -1 45 -11.5t13 -36.5q0 -41 -22.5 -106.5
t-45.5 -110.5z" />
    <glyph glyph-name="sigma" unicode="&#x3c3;" horiz-adv-x="627" 
d="M577 378h-115q26 -26 42 -68t16 -87q0 -58 -25 -109.5t-83.5 -88t-140.5 -36.5q-115 0 -175.5 69.5t-60.5 167.5q0 100 64.5 170.5t172.5 80.5q66 5 173 5h132v-104zM374 321q-20 39 -54 59q-29 0 -44 -3q-52 -9 -83 -50t-31 -95q0 -61 29.5 -99.5t89.5 -38.5q54 0 84 40
t30 100q0 48 -21 87z" />
    <glyph glyph-name="tau" unicode="&#x3c4;" horiz-adv-x="578" 
d="M101 327l-86 55q26 46 64 72q41 28 112 28h332v-99h-169v-244q0 -28 11.5 -39t34.5 -11q26 0 53 11l19 -91q-48 -20 -101 -20q-142 0 -142 134v260h-20q-36 0 -51 -5q-7 -3 -13.5 -6.5t-10.5 -7t-10 -9.5t-8 -8.5t-7.5 -10t-7.5 -9.5z" />
    <glyph glyph-name="upsilon" unicode="&#x3c5;" horiz-adv-x="591" 
d="M90 190v131q0 37 -5.5 51.5t-25.5 14.5q-18 0 -32 -6l-22 88q41 19 98 19q89 0 108 -84q6 -25 6 -70v-113q0 -125 91 -125q47 0 65.5 24t25.5 70q5 39 5 86q0 78 -22 198l127 16q22 -108 22 -210q0 -67 -6 -105q-15 -90 -73.5 -138t-152.5 -48q-97 0 -153 50t-56 151z
" />
    <glyph glyph-name="phi" unicode="&#x3c6;" horiz-adv-x="702" 
d="M414 -189h-126v189q-110 2 -180 65.5t-70 175.5t69.5 174t180.5 66v186h126v-186q111 -4 180.5 -65.5t69.5 -174.5q0 -112 -70 -175.5t-180 -65.5v-189zM414 376v-271q55 6 89 41t34 95t-34 94.5t-89 40.5zM288 105v271q-55 -6 -89 -40.5t-34 -94.5t34 -95t89 -41z" />
    <glyph glyph-name="chi" unicode="&#x3c7;" horiz-adv-x="550" 
d="M134 -206l-110 44l174 321l-72 157q-19 39 -28.5 50.5t-26.5 11.5q-16 0 -37 -9l-29 99q48 21 95 21t74 -22.5t51 -77.5l50 -111l119 220l106 -48l-160 -283l99 -203q16 -33 30.5 -46.5t34.5 -13.5q25 0 36 4l20 -94q-31 -14 -85 -14q-53 0 -83.5 26.5t-60.5 82.5
l-65 132z" />
    <glyph glyph-name="psi" unicode="&#x3c8;" horiz-adv-x="763" 
d="M444 -189h-125v179q-131 10 -194.5 71t-63.5 184v106q0 83 -9 122l130 11q10 -34 10 -127v-102q0 -147 127 -154v505h125v-505q92 0 116 76q11 38 11 108q0 75 -21 189l125 10q23 -104 23 -199q0 -62 -11 -114q-17 -78 -80 -125.5t-163 -55.5v-179z" />
    <glyph glyph-name="omega" unicode="&#x3c9;" horiz-adv-x="839" 
d="M143 491l109 -45q-70 -108 -70 -226q0 -58 23 -90.5t65 -32.5q36 0 59 28.5t27 80.5q3 25 3 142h126q0 -117 3 -142q5 -53 29.5 -80.5t61.5 -27.5q87 0 87 130q0 57 -22.5 117t-54.5 101l115 45q37 -39 63.5 -111t26.5 -143q0 -119 -55 -183.5t-155 -64.5q-115 0 -163 82
q-61 -82 -171 -82q-94 0 -147 62.5t-53 168.5q0 73 28.5 150.5t64.5 120.5z" />
    <glyph glyph-name="iotadieresis" unicode="&#x3ca;" horiz-adv-x="304" 
d="M290 101l14 -92q-44 -20 -106 -20q-61 0 -94.5 31.5t-33.5 93.5v368h130v-336q0 -31 10 -43t30 -12q22 0 50 10zM230 560q-27 0 -46 21.5t-19 49.5q0 29 18.5 50t46.5 21q29 0 47 -20.5t18 -50.5q0 -29 -18.5 -50t-46.5 -21zM42 560q-28 0 -46.5 21t-18.5 50
q0 30 18 50.5t47 20.5q28 0 46.5 -21t18.5 -50q0 -28 -19 -49.5t-46 -21.5z" />
    <glyph glyph-name="upsilondieresis" unicode="&#x3cb;" horiz-adv-x="591" 
d="M90 190v131q0 37 -5.5 51.5t-25.5 14.5q-18 0 -32 -6l-22 88q41 19 98 19q89 0 108 -84q6 -25 6 -70v-113q0 -125 91 -125q47 0 65.5 24t25.5 70q5 39 5 86q0 78 -22 198l127 16q22 -108 22 -210q0 -67 -6 -105q-15 -90 -73.5 -138t-152.5 -48q-97 0 -153 50t-56 151z
M383 560q-27 0 -46 21.5t-19 49.5q0 29 18.5 50t46.5 21q29 0 47 -20.5t18 -50.5q0 -29 -18.5 -50t-46.5 -21zM195 560q-28 0 -46.5 21t-18.5 50q0 30 18 50.5t47 20.5q28 0 46.5 -21t18.5 -50q0 -28 -19 -49.5t-46 -21.5z" />
    <glyph glyph-name="omicrontonos" unicode="&#x3cc;" horiz-adv-x="556" 
d="M171 11q-65 32 -100.5 95t-35.5 137q0 102 64 176.5t179 74.5t179 -74.5t64 -176.5t-64 -178t-179 -76q-62 0 -107 22zM192 139q30 -43 86 -43q54 0 84.5 41.5t30.5 105.5q0 63 -30.5 104.5t-84.5 41.5t-84.5 -41.5t-30.5 -104.5t29 -104zM276 523l-68 34l101 228
l103 -47z" />
    <glyph glyph-name="upsilontonos" unicode="&#x3cd;" horiz-adv-x="591" 
d="M90 190v131q0 37 -5.5 51.5t-25.5 14.5q-18 0 -32 -6l-22 88q41 19 98 19q89 0 108 -84q6 -25 6 -70v-113q0 -125 91 -125q47 0 65.5 24t25.5 70q5 39 5 86q0 78 -22 198l127 16q22 -108 22 -210q0 -67 -6 -105q-15 -90 -73.5 -138t-152.5 -48q-97 0 -153 50t-56 151z
M309 523l-68 34l101 228l103 -47z" />
    </font>
</defs>
</svg>
