<svg xmlns="http://www.w3.org/2000/svg" width="523" height="319" viewBox="0 0 523 319"><defs><mask id="bze4b" width="2" height="2" x="-1" y="-1"><path fill="#fff" d="M22 9h471v263H22z"/><path d="M125.106 44.895c-3.788-2.957-6.394-8.374-4.55-16.432 2.107-9.187 7.354-16.4 15.07-18.544 10.88-3.03 23.328.883 30.25 19.407 1.65 4.411 2.245 9.224 2.826 14.046l14.76-.515c-.923-4.252-.546-9.015 1.794-12.563 1.674-2.54 4.062-4.564 6.691-6.06 13.94-7.927 28.133 3.346 30.519 17.26l180.873-6.315c2-1.286 4.136-2.273 6.344-2.96 9.789-3.045 16.316-1.376 24.354 1.888l3.267-.114.052 1.502c.88.375 1.783.763 2.714 1.16 8.135 3.452 19.447 12.678 27.408 8.17 8.667-4.914 7.49-15.14 1.227-20.576-4.426-3.839-12.238-4.19-15.03 2.783-2.413 6.03 1.012 11.35 6.283 12.021 3.619.465 7.126-1.851 7.031-5.728-.098-3.745-2.831-5.694-6.003-4.748-2.625.789-3.081 3.716-1.403 5.33 1.518 1.46 4.261.626 3.894-1.473-.297-1.665-1.57-1.375-1.156.107.334 1.183-1.416 1.663-2.342.485-.799-1.016-.533-2.53 1.07-3.498 1.942-1.167 5.151.856 5.008 3.862-.14 3.022-2.633 5.396-6.462 4.699-3.64-.651-6.349-4.652-5.156-9.61.998-4.193 4.888-6.424 8.301-5.66 6.327 1.416 8.799 7.568 8.912 11.563.209 7.53-5.466 11.08-10.091 10.319-8.679-1.418-14.372-10.525-10.824-20.097 3.397-9.15 15.52-10.22 22.234-4.684 9.284 7.666 10.07 19.713 3.254 27.097-2.611 2.822-11.808 10.623-23.838 5.417-4.487-4.41-9.519-8.1-14.81-10.598l2.328 66.639c.325 2.495.358 5.042.265 7.611l.242 6.916h10.585v28.4a17.395 17.395 0 0 0 7.254 1.183c7.925-.433 14.673-6.32 18.966-12.625 3.635-5.339 5.253-13.426 1.28-19.05-2.293-3.246-6.709-5.6-10.722-4.647-3.01.715-5.55 3.144-6.395 6.121-.521 1.833-.408 3.881.52 5.546 1.025 1.846 3.246 3.182 5.392 3.011 1.486-.12 2.916-1.133 3.333-2.565.418-1.43-.362-3.165-1.777-3.637-.707-.235-1.543-.139-2.11.344s-.788 1.371-.42 2.018c-1.065-.893-1.21-2.624-.446-3.784.764-1.162 2.27-1.719 3.647-1.52 1.375.197 2.6 1.072 3.407 2.203 1.58 2.212 1.58 5.351.254 7.725-2.909 5.214-9.144 6.085-14.023 3.14-2.413-1.458-3.633-4.215-4.252-6.904-1.213-5.268-.229-11.954 3.675-15.94 2.127-2.173 4.858-3.705 7.725-4.672 17.312-5.834 30.193 12.857 25.805 28.636-1.689 6.078-5.093 11.684-9.677 16.015-4.858 4.591-11.355 7.425-17.718 9.281-.456.134-4.208.919-7.366 1.373 7.99 4.851 12.453 12.294 13.982 16.605 5.483 15.443-3.743 26.767-8.935 29.353-3.444 1.714-7.87 1.758-11.4.113v5.277H414.8c1.848 9.003 3.317 18.28-.817 26.289-.499.953-.981 1.992-1.493 3-4.42 5.331-8.42 9.316-20.511 9.825-.295-.327-.6-.664-.908-.988-1.801-1.886-2.651-1.8-4.615-.771a58.46 58.46 0 0 0-3.568 2.054c-4.924-.176-11.821 1.546-14.586 5.045-3.538 4.477-.9 8.56 2.288 8.947 2.272.276 4.49-1.381 4.786-3.32.426.661.92 1.373 1.415 2.052-1.244 3.142-5.94 5.075-8.795 3.801-3.675-1.644-5.134-4.731-4.827-7.932.711-7.428 8.198-11.224 12.707-12.75 9.401-3.197 19.214 1.082 27.096-4.23 6.263-4.218 8.582-13.257 7.856-22.105-.276-.193-.644-.354-1.111-.462a129.955 129.955 0 0 1-2.178-8.455H113.003c-.58 2.889-1.22 5.755-1.745 8.548-.096.542-.167 1.067-.242 1.594-3.042 12.073-1.94 23.852 4.706 31.137 9.266 10.164 21.082 14.345 35.003 9 8.518-3.27 16.498-11.232 16.255-23.642-.104-5.069-2.515-11.047-6.16-14.68-3.106-3.096-8.232-4.086-12.183-1.349-4.743 3.29-4.345 9.704-.813 13.685 2.85 3.22 8.26 1.956 9.751-1.044 1.316-2.656.324-6.776-1.538-9.142l1.563-.852c.935 1.241 1.628 2.677 1.981 3.929 1.779 6.348-.614 10.554-4.28 11.848-5.056 1.783-9.525-.738-12.112-5.64-2.489-4.706-1.126-10.578 2.243-14.464 3.543-4.083 10.196-4.91 14.964-2.537 5.192 2.586 14.418 13.91 8.935 29.353-2.557 7.211-13.329 23.189-35.078 21.13-4.696-.446-24.517-5.07-29.76-25.934-1.115-4.436-2.542-14.359 1.27-30.94H81.997V181.06c-2.705-.09-5.43-.392-8.122-1.307-4.509-1.527-11.996-5.323-12.707-12.75-.307-3.202 1.152-6.29 4.827-7.933 2.855-1.274 7.55.658 8.795 3.801-.495.679-.989 1.39-1.415 2.052-.296-1.94-2.514-3.596-4.786-3.32-3.188.387-5.826 4.47-2.288 8.947 2.765 3.499 9.662 5.22 14.586 5.045.372.23.743.455 1.11.674v-53.266H94.2l-2.38-68.167a507.605 507.605 0 0 1-8.563-3.912c-18.129-8.447-28.72-13.585-61.828-8.849 5.028-2.22 18.111-9.776 22.494-11.931 1.78.711 5.434 4.54 8.255 4.776-.683-1.914-1.481-4.113-2.242-5.442 5.855-2.983 20.733-2.49 23.64-1.997 1.575 3.407 2.605 7.13 5.028 10.543.66-4.434.692-7.716 1.862-8.987 3.691 1.462 7.857 6.092 16.543 9.741-.194 2.69 2.076 4.741 4.313 6.382.036.187.071.375.105.563zM457.3 185.97c3.667 1.294 6.06 5.5 4.281 11.848-.353 1.252-1.046 2.688-1.98 3.929l-1.564-.852c1.862-2.366 2.854-6.486 1.538-9.142-1.305-2.626-5.613-3.923-8.578-2.045v14.923c3.897 2.438 8.81 1.417 11.822-1.586 3.646-3.633 6.057-9.611 6.16-14.68.244-12.41-7.736-20.372-16.254-23.642a39.54 39.54 0 0 0-1.728-.619v21.88c1.907-.748 4.047-.81 6.303-.014zm-5.169-25.869c-.296-.351-.674-.72-1.134-1.139v.732c.384.13.762.266 1.134.407zM206.503 35.218c-2.87-2.748-7.654-4.216-11.412-2.515-2.818 1.276-4.847 4.145-5.109 7.229a8.025 8.025 0 0 0 .223 2.69l4.46-.156c-.368-.759-.42-1.69-.096-2.475.529-1.287 1.902-2.121 3.29-2.19 1.388-.067 2.757.558 3.766 1.514.822.78 1.406 1.77 1.746 2.847l6.785-.237c-.571-2.531-1.741-4.876-3.653-6.707zm-8.74 5.6c-.74-.095-1.542.159-2.007.741-.2.25-.322.562-.358.881l4.407-.154c-.431-.767-1.17-1.353-2.043-1.467zm-37.414-.755c-2.69-18.801-11.213-23.202-18.904-23.84-7.647-.64-13.562 5.13-14.397 12.33-.702 6.066 1.993 11.722 6.29 11.833 3.82.103 6.381-2.785 5.416-7.4-.435-2.087-3.528-6.343-9.927-5.914.044-.733.756-3.31 1.966-5.003 6.626.029 11.305 3.684 13.563 9.47 1.556 4.001.32 9.392-3.278 12.798l19.774-.69c-.161-1.17-.328-2.366-.503-3.584z"/></mask><filter id="bze4a" width="559" height="370" x="-22" y="-35" filterUnits="userSpaceOnUse"><feOffset dy="19" in="SourceGraphic" result="FeOffset1049Out"/><feGaussianBlur in="FeOffset1049Out" result="FeGaussianBlur1050Out" stdDeviation="13.6 13.6"/></filter></defs><g><g><g filter="url(#bze4a)"><path fill="none" d="M125.106 44.895c-3.788-2.957-6.394-8.374-4.55-16.432 2.107-9.187 7.354-16.4 15.07-18.544 10.88-3.03 23.328.883 30.25 19.407 1.65 4.411 2.245 9.224 2.826 14.046l14.76-.515c-.923-4.252-.546-9.015 1.794-12.563 1.674-2.54 4.062-4.564 6.691-6.06 13.94-7.927 28.133 3.346 30.519 17.26l180.873-6.315c2-1.286 4.136-2.273 6.344-2.96 9.789-3.045 16.316-1.376 24.354 1.888l3.267-.114.052 1.502c.88.375 1.783.763 2.714 1.16 8.135 3.452 19.447 12.678 27.408 8.17 8.667-4.914 7.49-15.14 1.227-20.576-4.426-3.839-12.238-4.19-15.03 2.783-2.413 6.03 1.012 11.35 6.283 12.021 3.619.465 7.126-1.851 7.031-5.728-.098-3.745-2.831-5.694-6.003-4.748-2.625.789-3.081 3.716-1.403 5.33 1.518 1.46 4.261.626 3.894-1.473-.297-1.665-1.57-1.375-1.156.107.334 1.183-1.416 1.663-2.342.485-.799-1.016-.533-2.53 1.07-3.498 1.942-1.167 5.151.856 5.008 3.862-.14 3.022-2.633 5.396-6.462 4.699-3.64-.651-6.349-4.652-5.156-9.61.998-4.193 4.888-6.424 8.301-5.66 6.327 1.416 8.799 7.568 8.912 11.563.209 7.53-5.466 11.08-10.091 10.319-8.679-1.418-14.372-10.525-10.824-20.097 3.397-9.15 15.52-10.22 22.234-4.684 9.284 7.666 10.07 19.713 3.254 27.097-2.611 2.822-11.808 10.623-23.838 5.417-4.487-4.41-9.519-8.1-14.81-10.598l2.328 66.639c.325 2.495.358 5.042.265 7.611l.242 6.916h10.585v28.4a17.395 17.395 0 0 0 7.254 1.183c7.925-.433 14.673-6.32 18.966-12.625 3.635-5.339 5.253-13.426 1.28-19.05-2.293-3.246-6.709-5.6-10.722-4.647-3.01.715-5.55 3.144-6.395 6.121-.521 1.833-.408 3.881.52 5.546 1.025 1.846 3.246 3.182 5.392 3.011 1.486-.12 2.916-1.133 3.333-2.565.418-1.43-.362-3.165-1.777-3.637-.707-.235-1.543-.139-2.11.344s-.788 1.371-.42 2.018c-1.065-.893-1.21-2.624-.446-3.784.764-1.162 2.27-1.719 3.647-1.52 1.375.197 2.6 1.072 3.407 2.203 1.58 2.212 1.58 5.351.254 7.725-2.909 5.214-9.144 6.085-14.023 3.14-2.413-1.458-3.633-4.215-4.252-6.904-1.213-5.268-.229-11.954 3.675-15.94 2.127-2.173 4.858-3.705 7.725-4.672 17.312-5.834 30.193 12.857 25.805 28.636-1.689 6.078-5.093 11.684-9.677 16.015-4.858 4.591-11.355 7.425-17.718 9.281-.456.134-4.208.919-7.366 1.373 7.99 4.851 12.453 12.294 13.982 16.605 5.483 15.443-3.743 26.767-8.935 29.353-3.444 1.714-7.87 1.758-11.4.113v5.277H414.8c1.848 9.003 3.317 18.28-.817 26.289-.499.953-.981 1.992-1.493 3-4.42 5.331-8.42 9.316-20.511 9.825-.295-.327-.6-.664-.908-.988-1.801-1.886-2.651-1.8-4.615-.771a58.46 58.46 0 0 0-3.568 2.054c-4.924-.176-11.821 1.546-14.586 5.045-3.538 4.477-.9 8.56 2.288 8.947 2.272.276 4.49-1.381 4.786-3.32.426.661.92 1.373 1.415 2.052-1.244 3.142-5.94 5.075-8.795 3.801-3.675-1.644-5.134-4.731-4.827-7.932.711-7.428 8.198-11.224 12.707-12.75 9.401-3.197 19.214 1.082 27.096-4.23 6.263-4.218 8.582-13.257 7.856-22.105-.276-.193-.644-.354-1.111-.462a129.955 129.955 0 0 1-2.178-8.455H113.003c-.58 2.889-1.22 5.755-1.745 8.548-.096.542-.167 1.067-.242 1.594-3.042 12.073-1.94 23.852 4.706 31.137 9.266 10.164 21.082 14.345 35.003 9 8.518-3.27 16.498-11.232 16.255-23.642-.104-5.069-2.515-11.047-6.16-14.68-3.106-3.096-8.232-4.086-12.183-1.349-4.743 3.29-4.345 9.704-.813 13.685 2.85 3.22 8.26 1.956 9.751-1.044 1.316-2.656.324-6.776-1.538-9.142l1.563-.852c.935 1.241 1.628 2.677 1.981 3.929 1.779 6.348-.614 10.554-4.28 11.848-5.056 1.783-9.525-.738-12.112-5.64-2.489-4.706-1.126-10.578 2.243-14.464 3.543-4.083 10.196-4.91 14.964-2.537 5.192 2.586 14.418 13.91 8.935 29.353-2.557 7.211-13.329 23.189-35.078 21.13-4.696-.446-24.517-5.07-29.76-25.934-1.115-4.436-2.542-14.359 1.27-30.94H81.997V181.06c-2.705-.09-5.43-.392-8.122-1.307-4.509-1.527-11.996-5.323-12.707-12.75-.307-3.202 1.152-6.29 4.827-7.933 2.855-1.274 7.55.658 8.795 3.801-.495.679-.989 1.39-1.415 2.052-.296-1.94-2.514-3.596-4.786-3.32-3.188.387-5.826 4.47-2.288 8.947 2.765 3.499 9.662 5.22 14.586 5.045.372.23.743.455 1.11.674v-53.266H94.2l-2.38-68.167a507.605 507.605 0 0 1-8.563-3.912c-18.129-8.447-28.72-13.585-61.828-8.849 5.028-2.22 18.111-9.776 22.494-11.931 1.78.711 5.434 4.54 8.255 4.776-.683-1.914-1.481-4.113-2.242-5.442 5.855-2.983 20.733-2.49 23.64-1.997 1.575 3.407 2.605 7.13 5.028 10.543.66-4.434.692-7.716 1.862-8.987 3.691 1.462 7.857 6.092 16.543 9.741-.194 2.69 2.076 4.741 4.313 6.382.036.187.071.375.105.563zM457.3 185.97c3.667 1.294 6.06 5.5 4.281 11.848-.353 1.252-1.046 2.688-1.98 3.929l-1.564-.852c1.862-2.366 2.854-6.486 1.538-9.142-1.305-2.626-5.613-3.923-8.578-2.045v14.923c3.897 2.438 8.81 1.417 11.822-1.586 3.646-3.633 6.057-9.611 6.16-14.68.244-12.41-7.736-20.372-16.254-23.642a39.54 39.54 0 0 0-1.728-.619v21.88c1.907-.748 4.047-.81 6.303-.014zm-5.169-25.869c-.296-.351-.674-.72-1.134-1.139v.732c.384.13.762.266 1.134.407zM206.503 35.218c-2.87-2.748-7.654-4.216-11.412-2.515-2.818 1.276-4.847 4.145-5.109 7.229a8.025 8.025 0 0 0 .223 2.69l4.46-.156c-.368-.759-.42-1.69-.096-2.475.529-1.287 1.902-2.121 3.29-2.19 1.388-.067 2.757.558 3.766 1.514.822.78 1.406 1.77 1.746 2.847l6.785-.237c-.571-2.531-1.741-4.876-3.653-6.707zm-8.74 5.6c-.74-.095-1.542.159-2.007.741-.2.25-.322.562-.358.881l4.407-.154c-.431-.767-1.17-1.353-2.043-1.467zm-37.414-.755c-2.69-18.801-11.213-23.202-18.904-23.84-7.647-.64-13.562 5.13-14.397 12.33-.702 6.066 1.993 11.722 6.29 11.833 3.82.103 6.381-2.785 5.416-7.4-.435-2.087-3.528-6.343-9.927-5.914.044-.733.756-3.31 1.966-5.003 6.626.029 11.305 3.684 13.563 9.47 1.556 4.001.32 9.392-3.278 12.798l19.774-.69c-.161-1.17-.328-2.366-.503-3.584z" mask="url(&quot;#bze4b&quot;)"/><path fill="#051c0d" fill-opacity=".58" d="M125.106 44.895c-3.788-2.957-6.394-8.374-4.55-16.432 2.107-9.187 7.354-16.4 15.07-18.544 10.88-3.03 23.328.883 30.25 19.407 1.65 4.411 2.245 9.224 2.826 14.046l14.76-.515c-.923-4.252-.546-9.015 1.794-12.563 1.674-2.54 4.062-4.564 6.691-6.06 13.94-7.927 28.133 3.346 30.519 17.26l180.873-6.315c2-1.286 4.136-2.273 6.344-2.96 9.789-3.045 16.316-1.376 24.354 1.888l3.267-.114.052 1.502c.88.375 1.783.763 2.714 1.16 8.135 3.452 19.447 12.678 27.408 8.17 8.667-4.914 7.49-15.14 1.227-20.576-4.426-3.839-12.238-4.19-15.03 2.783-2.413 6.03 1.012 11.35 6.283 12.021 3.619.465 7.126-1.851 7.031-5.728-.098-3.745-2.831-5.694-6.003-4.748-2.625.789-3.081 3.716-1.403 5.33 1.518 1.46 4.261.626 3.894-1.473-.297-1.665-1.57-1.375-1.156.107.334 1.183-1.416 1.663-2.342.485-.799-1.016-.533-2.53 1.07-3.498 1.942-1.167 5.151.856 5.008 3.862-.14 3.022-2.633 5.396-6.462 4.699-3.64-.651-6.349-4.652-5.156-9.61.998-4.193 4.888-6.424 8.301-5.66 6.327 1.416 8.799 7.568 8.912 11.563.209 7.53-5.466 11.08-10.091 10.319-8.679-1.418-14.372-10.525-10.824-20.097 3.397-9.15 15.52-10.22 22.234-4.684 9.284 7.666 10.07 19.713 3.254 27.097-2.611 2.822-11.808 10.623-23.838 5.417-4.487-4.41-9.519-8.1-14.81-10.598l2.328 66.639c.325 2.495.358 5.042.265 7.611l.242 6.916h10.585v28.4a17.395 17.395 0 0 0 7.254 1.183c7.925-.433 14.673-6.32 18.966-12.625 3.635-5.339 5.253-13.426 1.28-19.05-2.293-3.246-6.709-5.6-10.722-4.647-3.01.715-5.55 3.144-6.395 6.121-.521 1.833-.408 3.881.52 5.546 1.025 1.846 3.246 3.182 5.392 3.011 1.486-.12 2.916-1.133 3.333-2.565.418-1.43-.362-3.165-1.777-3.637-.707-.235-1.543-.139-2.11.344s-.788 1.371-.42 2.018c-1.065-.893-1.21-2.624-.446-3.784.764-1.162 2.27-1.719 3.647-1.52 1.375.197 2.6 1.072 3.407 2.203 1.58 2.212 1.58 5.351.254 7.725-2.909 5.214-9.144 6.085-14.023 3.14-2.413-1.458-3.633-4.215-4.252-6.904-1.213-5.268-.229-11.954 3.675-15.94 2.127-2.173 4.858-3.705 7.725-4.672 17.312-5.834 30.193 12.857 25.805 28.636-1.689 6.078-5.093 11.684-9.677 16.015-4.858 4.591-11.355 7.425-17.718 9.281-.456.134-4.208.919-7.366 1.373 7.99 4.851 12.453 12.294 13.982 16.605 5.483 15.443-3.743 26.767-8.935 29.353-3.444 1.714-7.87 1.758-11.4.113v5.277H414.8c1.848 9.003 3.317 18.28-.817 26.289-.499.953-.981 1.992-1.493 3-4.42 5.331-8.42 9.316-20.511 9.825-.295-.327-.6-.664-.908-.988-1.801-1.886-2.651-1.8-4.615-.771a58.46 58.46 0 0 0-3.568 2.054c-4.924-.176-11.821 1.546-14.586 5.045-3.538 4.477-.9 8.56 2.288 8.947 2.272.276 4.49-1.381 4.786-3.32.426.661.92 1.373 1.415 2.052-1.244 3.142-5.94 5.075-8.795 3.801-3.675-1.644-5.134-4.731-4.827-7.932.711-7.428 8.198-11.224 12.707-12.75 9.401-3.197 19.214 1.082 27.096-4.23 6.263-4.218 8.582-13.257 7.856-22.105-.276-.193-.644-.354-1.111-.462a129.955 129.955 0 0 1-2.178-8.455H113.003c-.58 2.889-1.22 5.755-1.745 8.548-.096.542-.167 1.067-.242 1.594-3.042 12.073-1.94 23.852 4.706 31.137 9.266 10.164 21.082 14.345 35.003 9 8.518-3.27 16.498-11.232 16.255-23.642-.104-5.069-2.515-11.047-6.16-14.68-3.106-3.096-8.232-4.086-12.183-1.349-4.743 3.29-4.345 9.704-.813 13.685 2.85 3.22 8.26 1.956 9.751-1.044 1.316-2.656.324-6.776-1.538-9.142l1.563-.852c.935 1.241 1.628 2.677 1.981 3.929 1.779 6.348-.614 10.554-4.28 11.848-5.056 1.783-9.525-.738-12.112-5.64-2.489-4.706-1.126-10.578 2.243-14.464 3.543-4.083 10.196-4.91 14.964-2.537 5.192 2.586 14.418 13.91 8.935 29.353-2.557 7.211-13.329 23.189-35.078 21.13-4.696-.446-24.517-5.07-29.76-25.934-1.115-4.436-2.542-14.359 1.27-30.94H81.997V181.06c-2.705-.09-5.43-.392-8.122-1.307-4.509-1.527-11.996-5.323-12.707-12.75-.307-3.202 1.152-6.29 4.827-7.933 2.855-1.274 7.55.658 8.795 3.801-.495.679-.989 1.39-1.415 2.052-.296-1.94-2.514-3.596-4.786-3.32-3.188.387-5.826 4.47-2.288 8.947 2.765 3.499 9.662 5.22 14.586 5.045.372.23.743.455 1.11.674v-53.266H94.2l-2.38-68.167a507.605 507.605 0 0 1-8.563-3.912c-18.129-8.447-28.72-13.585-61.828-8.849 5.028-2.22 18.111-9.776 22.494-11.931 1.78.711 5.434 4.54 8.255 4.776-.683-1.914-1.481-4.113-2.242-5.442 5.855-2.983 20.733-2.49 23.64-1.997 1.575 3.407 2.605 7.13 5.028 10.543.66-4.434.692-7.716 1.862-8.987 3.691 1.462 7.857 6.092 16.543 9.741-.194 2.69 2.076 4.741 4.313 6.382.036.187.071.375.105.563zM457.3 185.97c3.667 1.294 6.06 5.5 4.281 11.848-.353 1.252-1.046 2.688-1.98 3.929l-1.564-.852c1.862-2.366 2.854-6.486 1.538-9.142-1.305-2.626-5.613-3.923-8.578-2.045v14.923c3.897 2.438 8.81 1.417 11.822-1.586 3.646-3.633 6.057-9.611 6.16-14.68.244-12.41-7.736-20.372-16.254-23.642a39.54 39.54 0 0 0-1.728-.619v21.88c1.907-.748 4.047-.81 6.303-.014zm-5.169-25.869c-.296-.351-.674-.72-1.134-1.139v.732c.384.13.762.266 1.134.407zM206.503 35.218c-2.87-2.748-7.654-4.216-11.412-2.515-2.818 1.276-4.847 4.145-5.109 7.229a8.025 8.025 0 0 0 .223 2.69l4.46-.156c-.368-.759-.42-1.69-.096-2.475.529-1.287 1.902-2.121 3.29-2.19 1.388-.067 2.757.558 3.766 1.514.822.78 1.406 1.77 1.746 2.847l6.785-.237c-.571-2.531-1.741-4.876-3.653-6.707zm-8.74 5.6c-.74-.095-1.542.159-2.007.741-.2.25-.322.562-.358.881l4.407-.154c-.431-.767-1.17-1.353-2.043-1.467zm-37.414-.755c-2.69-18.801-11.213-23.202-18.904-23.84-7.647-.64-13.562 5.13-14.397 12.33-.702 6.066 1.993 11.722 6.29 11.833 3.82.103 6.381-2.785 5.416-7.4-.435-2.087-3.528-6.343-9.927-5.914.044-.733.756-3.31 1.966-5.003 6.626.029 11.305 3.684 13.563 9.47 1.556 4.001.32 9.392-3.278 12.798l19.774-.69c-.161-1.17-.328-2.366-.503-3.584z"/></g><path fill="#29aa3c" d="M125.106 44.895c-3.788-2.957-6.394-8.374-4.55-16.432 2.107-9.187 7.354-16.4 15.07-18.544 10.88-3.03 23.328.883 30.25 19.407 1.65 4.411 2.245 9.224 2.826 14.046l14.76-.515c-.923-4.252-.546-9.015 1.794-12.563 1.674-2.54 4.062-4.564 6.691-6.06 13.94-7.927 28.133 3.346 30.519 17.26l180.873-6.315c2-1.286 4.136-2.273 6.344-2.96 9.789-3.045 16.316-1.376 24.354 1.888l3.267-.114.052 1.502c.88.375 1.783.763 2.714 1.16 8.135 3.452 19.447 12.678 27.408 8.17 8.667-4.914 7.49-15.14 1.227-20.576-4.426-3.839-12.238-4.19-15.03 2.783-2.413 6.03 1.012 11.35 6.283 12.021 3.619.465 7.126-1.851 7.031-5.728-.098-3.745-2.831-5.694-6.003-4.748-2.625.789-3.081 3.716-1.403 5.33 1.518 1.46 4.261.626 3.894-1.473-.297-1.665-1.57-1.375-1.156.107.334 1.183-1.416 1.663-2.342.485-.799-1.016-.533-2.53 1.07-3.498 1.942-1.167 5.151.856 5.008 3.862-.14 3.022-2.633 5.396-6.462 4.699-3.64-.651-6.349-4.652-5.156-9.61.998-4.193 4.888-6.424 8.301-5.66 6.327 1.416 8.799 7.568 8.912 11.563.209 7.53-5.466 11.08-10.091 10.319-8.679-1.418-14.372-10.525-10.824-20.097 3.397-9.15 15.52-10.22 22.234-4.684 9.284 7.666 10.07 19.713 3.254 27.097-2.611 2.822-11.808 10.623-23.838 5.417-4.487-4.41-9.519-8.1-14.81-10.598l2.328 66.639c.325 2.495.358 5.042.265 7.611l.242 6.916h10.585v28.4a17.395 17.395 0 0 0 7.254 1.183c7.925-.433 14.673-6.32 18.966-12.625 3.635-5.339 5.253-13.426 1.28-19.05-2.293-3.246-6.709-5.6-10.722-4.647-3.01.715-5.55 3.144-6.395 6.121-.521 1.833-.408 3.881.52 5.546 1.025 1.846 3.246 3.182 5.392 3.011 1.486-.12 2.916-1.133 3.333-2.565.418-1.43-.362-3.165-1.777-3.637-.707-.235-1.543-.139-2.11.344s-.788 1.371-.42 2.018c-1.065-.893-1.21-2.624-.446-3.784.764-1.162 2.27-1.719 3.647-1.52 1.375.197 2.6 1.072 3.407 2.203 1.58 2.212 1.58 5.351.254 7.725-2.909 5.214-9.144 6.085-14.023 3.14-2.413-1.458-3.633-4.215-4.252-6.904-1.213-5.268-.229-11.954 3.675-15.94 2.127-2.173 4.858-3.705 7.725-4.672 17.312-5.834 30.193 12.857 25.805 28.636-1.689 6.078-5.093 11.684-9.677 16.015-4.858 4.591-11.355 7.425-17.718 9.281-.456.134-4.208.919-7.366 1.373 7.99 4.851 12.453 12.294 13.982 16.605 5.483 15.443-3.743 26.767-8.935 29.353-3.444 1.714-7.87 1.758-11.4.113v5.277H414.8c1.848 9.003 3.317 18.28-.817 26.289-.499.953-.981 1.992-1.493 3-4.42 5.331-8.42 9.316-20.511 9.825-.295-.327-.6-.664-.908-.988-1.801-1.886-2.651-1.8-4.615-.771a58.46 58.46 0 0 0-3.568 2.054c-4.924-.176-11.821 1.546-14.586 5.045-3.538 4.477-.9 8.56 2.288 8.947 2.272.276 4.49-1.381 4.786-3.32.426.661.92 1.373 1.415 2.052-1.244 3.142-5.94 5.075-8.795 3.801-3.675-1.644-5.134-4.731-4.827-7.932.711-7.428 8.198-11.224 12.707-12.75 9.401-3.197 19.214 1.082 27.096-4.23 6.263-4.218 8.582-13.257 7.856-22.105-.276-.193-.644-.354-1.111-.462a129.955 129.955 0 0 1-2.178-8.455H113.003c-.58 2.889-1.22 5.755-1.745 8.548-.096.542-.167 1.067-.242 1.594-3.042 12.073-1.94 23.852 4.706 31.137 9.266 10.164 21.082 14.345 35.003 9 8.518-3.27 16.498-11.232 16.255-23.642-.104-5.069-2.515-11.047-6.16-14.68-3.106-3.096-8.232-4.086-12.183-1.349-4.743 3.29-4.345 9.704-.813 13.685 2.85 3.22 8.26 1.956 9.751-1.044 1.316-2.656.324-6.776-1.538-9.142l1.563-.852c.935 1.241 1.628 2.677 1.981 3.929 1.779 6.348-.614 10.554-4.28 11.848-5.056 1.783-9.525-.738-12.112-5.64-2.489-4.706-1.126-10.578 2.243-14.464 3.543-4.083 10.196-4.91 14.964-2.537 5.192 2.586 14.418 13.91 8.935 29.353-2.557 7.211-13.329 23.189-35.078 21.13-4.696-.446-24.517-5.07-29.76-25.934-1.115-4.436-2.542-14.359 1.27-30.94H81.997V181.06c-2.705-.09-5.43-.392-8.122-1.307-4.509-1.527-11.996-5.323-12.707-12.75-.307-3.202 1.152-6.29 4.827-7.933 2.855-1.274 7.55.658 8.795 3.801-.495.679-.989 1.39-1.415 2.052-.296-1.94-2.514-3.596-4.786-3.32-3.188.387-5.826 4.47-2.288 8.947 2.765 3.499 9.662 5.22 14.586 5.045.372.23.743.455 1.11.674v-53.266H94.2l-2.38-68.167a507.605 507.605 0 0 1-8.563-3.912c-18.129-8.447-28.72-13.585-61.828-8.849 5.028-2.22 18.111-9.776 22.494-11.931 1.78.711 5.434 4.54 8.255 4.776-.683-1.914-1.481-4.113-2.242-5.442 5.855-2.983 20.733-2.49 23.64-1.997 1.575 3.407 2.605 7.13 5.028 10.543.66-4.434.692-7.716 1.862-8.987 3.691 1.462 7.857 6.092 16.543 9.741-.194 2.69 2.076 4.741 4.313 6.382.036.187.071.375.105.563zM457.3 185.97c3.667 1.294 6.06 5.5 4.281 11.848-.353 1.252-1.046 2.688-1.98 3.929l-1.564-.852c1.862-2.366 2.854-6.486 1.538-9.142-1.305-2.626-5.613-3.923-8.578-2.045v14.923c3.897 2.438 8.81 1.417 11.822-1.586 3.646-3.633 6.057-9.611 6.16-14.68.244-12.41-7.736-20.372-16.254-23.642a39.54 39.54 0 0 0-1.728-.619v21.88c1.907-.748 4.047-.81 6.303-.014zm-5.169-25.869c-.296-.351-.674-.72-1.134-1.139v.732c.384.13.762.266 1.134.407zM206.503 35.218c-2.87-2.748-7.654-4.216-11.412-2.515-2.818 1.276-4.847 4.145-5.109 7.229a8.025 8.025 0 0 0 .223 2.69l4.46-.156c-.368-.759-.42-1.69-.096-2.475.529-1.287 1.902-2.121 3.29-2.19 1.388-.067 2.757.558 3.766 1.514.822.78 1.406 1.77 1.746 2.847l6.785-.237c-.571-2.531-1.741-4.876-3.653-6.707zm-8.74 5.6c-.74-.095-1.542.159-2.007.741-.2.25-.322.562-.358.881l4.407-.154c-.431-.767-1.17-1.353-2.043-1.467zm-37.414-.755c-2.69-18.801-11.213-23.202-18.904-23.84-7.647-.64-13.562 5.13-14.397 12.33-.702 6.066 1.993 11.722 6.29 11.833 3.82.103 6.381-2.785 5.416-7.4-.435-2.087-3.528-6.343-9.927-5.914.044-.733.756-3.31 1.966-5.003 6.626.029 11.305 3.684 13.563 9.47 1.556 4.001.32 9.392-3.278 12.798l19.774-.69c-.161-1.17-.328-2.366-.503-3.584z"/></g></g></svg>