<svg xmlns="http://www.w3.org/2000/svg" viewBox="0 0 120.49 120.49"><defs><style>.cls-1{fill:#134294;}.cls-2{fill:#fff;}</style></defs><title>Ресурс 7</title><g id="Слой_2" data-name="Слой 2"><g id="Слой_1-2" data-name="Слой 1"><path class="cls-1" d="M117.36,3.13A10.2,10.2,0,0,0,109.89,0H10.61A10.2,10.2,0,0,0,3.14,3.13,10.17,10.17,0,0,0,0,10.6v99.28a10.17,10.17,0,0,0,3.14,7.47,10.2,10.2,0,0,0,7.47,3.13h99.28a10.69,10.69,0,0,0,10.6-10.6V10.6a10.19,10.19,0,0,0-3.13-7.47"/><path class="cls-2" d="M74.46,37.64a20.59,20.59,0,0,0-6-.93,11.34,11.34,0,0,0-5,1.3q-2.64,1.3-2.65,3.35v7.35H73.25V61.08H60.88V95.22H48.41V61.08H42.27V48.71h6.14V42.47q0-7.63,3.63-12.42t11-4.79c6.19,0,10.63.47,13.3,1.39Z"/></g></g></svg>