<?xml version="1.0" encoding="utf-8"?>
<!-- Generator: Adobe Illustrator 21.0.0, SVG Export Plug-In . SVG Version: 6.00 Build 0)  -->
<svg version="1.1" id="Слой_1" xmlns="http://www.w3.org/2000/svg" xmlns:xlink="http://www.w3.org/1999/xlink" x="0px" y="0px"
	 viewBox="0 0 121.7 120.5" style="enable-background:new 0 0 121.7 120.5;" xml:space="preserve">
<style type="text/css">
	.st0{clip-path:url(#SVGID_2_);}
	.st1{fill:url(#SVGID_3_);}
	.st2{clip-path:url(#SVGID_5_);}
	.st3{fill:#FFFFFF;}
</style>
<title>Ресурс 15</title>
<g id="Слой_2">
	<g id="Слой_1-2">
		<g>
			<defs>
				<path id="SVGID_1_" d="M11.8,0C5.9,0.1,1.2,4.8,1.2,10.6v99.3c0.1,5.8,4.8,10.5,10.6,10.6h99.3c5.8,0,10.6-4.8,10.6-10.6V10.6
					c0-5.8-4.8-10.6-10.6-10.6L11.8,0z"/>
			</defs>
			<clipPath id="SVGID_2_">
				<use xlink:href="#SVGID_1_"  style="overflow:visible;"/>
			</clipPath>
			<g class="st0">
				
					<linearGradient id="SVGID_3_" gradientUnits="userSpaceOnUse" x1="52" y1="-113.8047" x2="53" y2="-113.8047" gradientTransform="matrix(111.8501 -111.8501 111.8501 111.8501 6918.9121 18660.875)">
					<stop  offset="0" style="stop-color:#FCD70C"/>
					<stop  offset="0.23" style="stop-color:#F63E00"/>
					<stop  offset="0.51" style="stop-color:#D42256"/>
					<stop  offset="0.78" style="stop-color:#934DC9"/>
					<stop  offset="1" style="stop-color:#7C38A7"/>
				</linearGradient>
				<path class="st1" d="M-59,60.1L61.3-60.1c0.1-0.1,0.2-0.1,0.3,0L181.7,60.1c0.1,0.1,0.1,0.2,0,0.3L61.5,180.6
					c-0.1,0.1-0.2,0.1-0.3,0L-59,60.4C-59,60.3-59,60.2-59,60.1z"/>
			</g>
		</g>
		<g>
			<defs>
				<rect id="SVGID_4_" x="-270.4" width="911.8" height="120.5"/>
			</defs>
			<clipPath id="SVGID_5_">
				<use xlink:href="#SVGID_4_"  style="overflow:visible;"/>
			</clipPath>
			<g class="st2">
				<path class="st3" d="M94.5,60.3c0,6.6-0.1,11.1-0.2,13.6c-0.3,6-2.1,10.6-5.3,13.9s-7.9,5-13.9,5.3c-2.5,0.1-7.1,0.2-13.6,0.2
					c-6.6,0-11.1-0.1-13.6-0.2c-6-0.3-10.6-2.1-13.9-5.3s-5-7.9-5.3-13.9c-0.1-2.5-0.2-7.1-0.2-13.6s0.1-11.1,0.2-13.7
					c0.3-6,2.1-10.6,5.3-13.9c3.3-3.2,7.9-5,13.9-5.3c2.5-0.1,7.1-0.2,13.6-0.2s11.1,0.1,13.6,0.2c6,0.3,10.6,2.1,13.9,5.3
					c3.2,3.3,5,7.9,5.3,13.9C94.4,49.1,94.5,53.7,94.5,60.3 M64.7,33.1h-3.3h-3.3c-2,0-3.5,0-4.5,0s-2.4,0-4.1,0.1
					c-1.5,0-3,0.2-4.4,0.4c-1,0.2-2.1,0.4-3.1,0.8c-2.9,1.1-5.1,3.4-6.3,6.3c-0.4,1-0.6,2-0.8,3.1c-0.2,1.5-0.4,3-0.4,4.4
					c-0.1,1.7-0.1,3.1-0.1,4.2c0,1,0,2.5,0,4.5c0,2,0,3.1,0,3.3c0,0.2,0,1.3,0,3.3c0,2,0,3.5,0,4.5c0,1,0.1,2.4,0.1,4.1
					c0,1.5,0.2,3,0.4,4.4c0.2,1,0.4,2.1,0.8,3.1c1.1,2.9,3.4,5.1,6.3,6.3c1,0.4,2,0.6,3.1,0.8c1.5,0.2,3,0.4,4.4,0.4
					c1.7,0.1,3.1,0.1,4.1,0.1s2.5,0,4.5,0h3.3h3.3c2,0,3.5,0,4.5,0s2.4,0,4.1-0.1c1.5,0,3-0.2,4.4-0.4c1-0.2,2.1-0.4,3.1-0.8
					c2.9-1.1,5.1-3.4,6.3-6.3c0.4-1,0.6-2,0.8-3.1c0.2-1.5,0.4-3,0.4-4.4c0.1-1.7,0.1-3.1,0.1-4.1s0-2.6,0-4.5c0-2,0-3.1,0-3.3
					s0-1.3,0-3.3s0-3.5,0-4.5s-0.1-2.4-0.1-4.2c0-1.5-0.2-3-0.4-4.4c-0.2-1-0.4-2.1-0.8-3.1c-1.1-2.9-3.4-5.1-6.3-6.3
					c-1-0.4-2-0.6-3.1-0.8c-1.5-0.2-3-0.4-4.4-0.4c-1.7-0.1-3.1-0.1-4.1-0.1S66.7,33.1,64.7,33.1 M73.4,48.2
					c6.7,6.7,6.6,17.5,0,24.1C66.7,79,56,79,49.3,72.3c-6.7-6.7-6.6-17.5,0-24.1c3.2-3.2,7.6-5,12.1-5C65.9,43.2,70.3,45,73.4,48.2
					 M69.2,68c4.3-4.3,4.3-11.3,0-15.6c0,0,0,0,0,0c-2.4-2.5-5.8-3.6-9.2-3.2c-2,0.2-3.8,1-5.3,2.2c-2.7,2.1-4.3,5.3-4.3,8.8
					c0,6.1,4.9,11,10.9,11.1C64.3,71.3,67.1,70.1,69.2,68 M81.9,39.8c0.7,0.7,1.1,1.7,1.2,2.7c0,1.1-0.4,2.2-1.2,3
					c-0.7,0.7-1.6,1.1-2.6,1.1c-1.1,0-2.2-0.4-3-1.2c-0.7-0.7-1.1-1.7-1.1-2.7c0-1.1,0.4-2.2,1.2-2.9C77.8,38.3,80.3,38.3,81.9,39.8
					"/>
			</g>
		</g>
	</g>
</g>
</svg>
