<svg xmlns="http://www.w3.org/2000/svg" viewBox="0 0 120.49 120.49"><defs><style>.cls-1{fill:#00457b;}.cls-2{fill:#fff;}</style></defs><title>Ресурс 6</title><g id="Слой_2" data-name="Слой 2"><g id="Слой_1-2" data-name="Слой 1"><path class="cls-1" d="M117.36,3.13A10.2,10.2,0,0,0,109.89,0H10.61A10.2,10.2,0,0,0,3.14,3.13,10.17,10.17,0,0,0,0,10.6v99.28a10.17,10.17,0,0,0,3.14,7.47,10.2,10.2,0,0,0,7.47,3.13h99.28a10.69,10.69,0,0,0,10.6-10.6V10.6a10.2,10.2,0,0,0-3.13-7.47"/><path class="cls-2" d="M95.16,43.15q.84,2.33-5.47,10.72Q88.81,55,87.32,57t-2,2.63A17.36,17.36,0,0,0,84.2,61.4a2.41,2.41,0,0,0-.44,1.53,8.21,8.21,0,0,0,.47,1.26,5.22,5.22,0,0,0,1.19,1.57q.84.8,2.08,1.93a.39.39,0,0,1,.18.15,36.34,36.34,0,0,1,7,8.05c.07.12.15.28.24.46a4.57,4.57,0,0,1,.26,1,2.83,2.83,0,0,1,0,1.24,1.79,1.79,0,0,1-.91,1,4.21,4.21,0,0,1-2.15.46l-9.33.15a4.1,4.1,0,0,1-2-.18,8.78,8.78,0,0,1-1.9-.8l-.73-.44a17.16,17.16,0,0,1-2.55-2.33Q74,74.84,73,73.58a12.17,12.17,0,0,0-2.22-2.11,2.32,2.32,0,0,0-2.06-.57l-.29.13a3.13,3.13,0,0,0-.62.53A4.62,4.62,0,0,0,67,72.63a7.49,7.49,0,0,0-.62,1.9,12.05,12.05,0,0,0-.24,2.82,3.69,3.69,0,0,1-.13,1,2.43,2.43,0,0,1-.27.67l-.15.18a2.89,2.89,0,0,1-1.93.8H59.5a16.56,16.56,0,0,1-5.32-.6,20.23,20.23,0,0,1-4.79-1.93,43.6,43.6,0,0,1-3.76-2.41A21.84,21.84,0,0,1,43.06,73l-.91-.88q-.36-.36-1-1.09t-2.61-3.32q-2-2.59-3.86-5.51t-4.47-7.69q-2.57-4.78-4.76-9.92a2.9,2.9,0,0,1-.22-1,1.15,1.15,0,0,1,.11-.58l.14-.22a2.54,2.54,0,0,1,2.08-.69l10-.07a4,4,0,0,1,.84.24,2.43,2.43,0,0,1,.58.31l.18.11A2.4,2.4,0,0,1,40,43.84q.73,1.82,1.68,3.78t1.5,3l.58,1.06q1.06,2.19,2,3.79a18.85,18.85,0,0,0,1.77,2.5,8.73,8.73,0,0,0,1.51,1.4,2.31,2.31,0,0,0,1.24.51,2.69,2.69,0,0,0,1-.18.61.61,0,0,0,.18-.18,6.81,6.81,0,0,0,.44-.8A5.84,5.84,0,0,0,52.45,57q.17-1.06.35-3a28.46,28.46,0,0,0,0-4.56,16.85,16.85,0,0,0-.33-2.66A6.94,6.94,0,0,0,52,45.12l-.22-.44a4.46,4.46,0,0,0-3.1-1.57c-.32,0-.25-.34.18-.88a4.37,4.37,0,0,1,1.39-1.1q1.93-.95,8.72-.87a24.17,24.17,0,0,1,4.92.47,4.19,4.19,0,0,1,1.22.49,2,2,0,0,1,.75.87,5.69,5.69,0,0,1,.38,1.17,8.4,8.4,0,0,1,.13,1.66q0,1.06,0,2t-.09,2.57q-.05,1.62-.05,3c0,.27,0,.78,0,1.53s0,1.34,0,1.75.05.91.13,1.48a4,4,0,0,0,.42,1.42,2.39,2.39,0,0,0,.82.89l.62.15c.22.05.53-.08.95-.4a13.36,13.36,0,0,0,1.39-1.26,18.89,18.89,0,0,0,1.9-2.44q1.13-1.66,2.48-3.92a59.46,59.46,0,0,0,3.9-8.2,2.44,2.44,0,0,1,.37-.64,1.61,1.61,0,0,1,.4-.38l.15-.11.18-.09a1.88,1.88,0,0,1,.47-.11,2.86,2.86,0,0,1,.73,0l10.5-.08a5.72,5.72,0,0,1,2.33.09,2.12,2.12,0,0,1,1.13.6Z"/></g></g></svg>