<svg xmlns="http://www.w3.org/2000/svg" viewBox="0 0 120.49 120.49"><defs><style>.cls-1{fill:#db4a3d;}.cls-2{fill:#fff;}</style></defs><title>Ресурс 2</title><g id="Слой_2" data-name="Слой 2"><g id="Слой_1-2" data-name="Слой 1"><path class="cls-1" d="M117.36,3.13A10.2,10.2,0,0,0,109.89,0H10.61A10.2,10.2,0,0,0,3.14,3.13,10.17,10.17,0,0,0,0,10.6v99.28a10.17,10.17,0,0,0,3.14,7.47,10.2,10.2,0,0,0,7.47,3.13h99.28a10.69,10.69,0,0,0,10.6-10.6V10.6a10.2,10.2,0,0,0-3.13-7.47"/><path class="cls-2" d="M46.29,55.43v9.62H59.43c-2.06,6.24-5.26,9.63-13.13,9.63a14.43,14.43,0,0,1,0-28.86,13.76,13.76,0,0,1,9.43,3.54c2-2,1.83-2.28,6.91-7.08A24.29,24.29,0,1,0,46.29,84.53c20.05,0,25-17.46,23.33-29.1Zm43.77.48V47.5h-6v8.42H75.39v6h8.66v8.66h6V61.93h8.42v-6Z"/></g></g></svg>