<svg xmlns="http://www.w3.org/2000/svg" viewBox="0 0 120.49 120.49"><defs><style>.cls-1{fill:#ec6d05;}.cls-2{fill:#fff;}</style></defs><title>Ресурс 4</title><g id="Слой_2" data-name="Слой 2"><g id="Слой_1-2" data-name="Слой 1"><path class="cls-1" d="M117.36,3.13A10.2,10.2,0,0,0,109.89,0H10.61A10.2,10.2,0,0,0,3.14,3.13,10.17,10.17,0,0,0,0,10.6v99.28a10.17,10.17,0,0,0,3.14,7.47,10.2,10.2,0,0,0,7.47,3.13h99.28a10.69,10.69,0,0,0,10.6-10.6V10.6a10.19,10.19,0,0,0-3.13-7.47"/><path class="cls-2" d="M74.52,62a4.81,4.81,0,0,0-2.39.68,25.6,25.6,0,0,1-12,3.08,27.55,27.55,0,0,1-11.8-3.08A6.13,6.13,0,0,0,46,62a4.74,4.74,0,0,0-3.63,1.63,5.39,5.39,0,0,0-1.5,3.76q0,5.64,12.57,8.29l-10,10.35a5.51,5.51,0,0,0-1.54,3.76,5.36,5.36,0,0,0,1.5,3.81A4.82,4.82,0,0,0,47,95.22a4.66,4.66,0,0,0,3.67-1.54l9.58-9.92,9.57,9.92a4.69,4.69,0,0,0,3.68,1.54,4.76,4.76,0,0,0,3.63-1.62,5.4,5.4,0,0,0,1.5-3.76,5.51,5.51,0,0,0-1.54-3.76l-10-10.35q12.57-2.65,12.58-8.38a5.43,5.43,0,0,0-1.5-3.76A4.78,4.78,0,0,0,74.52,62m-1.8-31.3a16.42,16.42,0,0,0-12.48-5.39,16.41,16.41,0,0,0-12.49,5.39,18.13,18.13,0,0,0-5,12.83,18.13,18.13,0,0,0,5,12.83A16.41,16.41,0,0,0,60.24,61.7a16.43,16.43,0,0,0,12.48-5.39,18.1,18.1,0,0,0,5-12.83,18.1,18.1,0,0,0-5-12.83M65.42,48.78a7.13,7.13,0,0,1-10.35,0,7.76,7.76,0,0,1,0-10.6,7.13,7.13,0,0,1,10.35,0,7.75,7.75,0,0,1,0,10.6"/></g></g></svg>