<svg xmlns="http://www.w3.org/2000/svg" viewBox="0 0 120.49 120.49"><defs><style>.cls-1{fill:red;}.cls-2{fill:#fff;}</style></defs><title>Ресурс 3</title><g id="Слой_2" data-name="Слой 2"><g id="Слой_1-2" data-name="Слой 1"><path class="cls-1" d="M117.36,3.13A10.2,10.2,0,0,0,109.89,0H10.61A10.2,10.2,0,0,0,3.14,3.13,10.17,10.17,0,0,0,0,10.6v99.28a10.17,10.17,0,0,0,3.14,7.47,10.2,10.2,0,0,0,7.47,3.13h99.28a10.69,10.69,0,0,0,10.6-10.6V10.6a10.19,10.19,0,0,0-3.13-7.47"/><path class="cls-2" d="M34.72,50.87a22,22,0,0,1,1.5-8.12,20.83,20.83,0,0,1,4.13-6.64,28.2,28.2,0,0,1,13.44-8,31.61,31.61,0,0,1,8.06-1,26.33,26.33,0,0,1,11.73,2.65,22.13,22.13,0,0,1,8.81,7.72,20.11,20.11,0,0,1,3.39,11.45,37,37,0,0,1-.76,7.5,30.31,30.31,0,0,1-2.39,7.06,24.59,24.59,0,0,1-4,6,17.3,17.3,0,0,1-5.78,4.11A18.25,18.25,0,0,1,65.31,75a12.38,12.38,0,0,1-5.39-1.28,8,8,0,0,1-3.83-3.51q-.4,1.55-1.12,4.49T54,78.53q-.22.86-.82,2.83a18.81,18.81,0,0,1-1,2.83l-1.28,2.49a28.31,28.31,0,0,1-1.84,3.09q-1,1.46-2.47,3.45l-.56.2-.36-.4q-.6-6.26-.6-7.5a45,45,0,0,1,.86-8.24q.86-4.57,2.65-11.47t2.07-8.1A15.3,15.3,0,0,1,49.39,51a10.53,10.53,0,0,1,2.07-6.22,6.24,6.24,0,0,1,5.27-2.91,4.68,4.68,0,0,1,3.79,1.62,6.14,6.14,0,0,1,1.36,4.09,25.25,25.25,0,0,1-1.76,7.62,25.14,25.14,0,0,0-1.76,7.46,5.43,5.43,0,0,0,1.79,4.17,6.19,6.19,0,0,0,4.35,1.65,8.53,8.53,0,0,0,4.07-1,9.17,9.17,0,0,0,3.13-2.71A22.86,22.86,0,0,0,73.94,61a21.84,21.84,0,0,0,1.52-4.41,43.59,43.59,0,0,0,.8-4.43,32.32,32.32,0,0,0,.26-4q0-6.9-4.37-10.75T60.76,33.56a18.41,18.41,0,0,0-13.32,5.17,17.44,17.44,0,0,0-5.35,13.1,11.51,11.51,0,0,0,.5,3.39,11.63,11.63,0,0,0,1.08,2.59q.58,1,1.08,1.81a3,3,0,0,1,.5,1.22,9.7,9.7,0,0,1-.6,2.91q-.6,1.79-1.48,1.8l-.68-.12a8.17,8.17,0,0,1-3.61-2.23,11.63,11.63,0,0,1-2.43-3.77,24.53,24.53,0,0,1-1.3-4.31,21.48,21.48,0,0,1-.44-4.25"/></g></g></svg>