<svg xmlns="http://www.w3.org/2000/svg" viewBox="0 0 120.49 120.49"><defs><style>.cls-1{fill:#009ee2;}.cls-2{fill:#fff;}</style></defs><title>Ресурс 5</title><g id="Слой_2" data-name="Слой 2"><g id="Слой_1-2" data-name="Слой 1"><path class="cls-1" d="M117.36,3.13A10.2,10.2,0,0,0,109.89,0H10.61A10.2,10.2,0,0,0,3.14,3.13,10.17,10.17,0,0,0,0,10.6v99.28a10.17,10.17,0,0,0,3.14,7.47,10.2,10.2,0,0,0,7.47,3.13h99.28a10.69,10.69,0,0,0,10.6-10.6V10.6a10.2,10.2,0,0,0-3.13-7.47"/><path class="cls-2" d="M88.71,45.59A27.62,27.62,0,0,0,96,38a25.79,25.79,0,0,1-8.44,2.32,13.92,13.92,0,0,0,6.49-8.07,29.13,29.13,0,0,1-9.36,3.52,14.68,14.68,0,0,0-21.09-.32,14.22,14.22,0,0,0-4.32,10.43,14,14,0,0,0,.37,3.34,41.32,41.32,0,0,1-16.74-4.5,42.3,42.3,0,0,1-13.58-10.9,14.45,14.45,0,0,0-1.95,7.42A13.86,13.86,0,0,0,34,53.47a14.25,14.25,0,0,1-6.68-1.85v.18a13.85,13.85,0,0,0,3.24,9.27,14.28,14.28,0,0,0,8.53,5.1,13.87,13.87,0,0,1-6.67.28,14.59,14.59,0,0,0,5.28,7.28,14.3,14.3,0,0,0,8.44,2.92A28.86,28.86,0,0,1,27.89,83c-.81,0-2-.06-3.43-.19A41,41,0,0,0,47,89.36a41.26,41.26,0,0,0,22.9-6.53A40.28,40.28,0,0,0,85.09,64.6,42.89,42.89,0,0,0,88.8,47.54a13.94,13.94,0,0,0-.1-1.95"/></g></g></svg>