<?xml version="1.0" encoding="utf-8"?>
<!-- Generator: Adobe Illustrator 21.0.0, SVG Export Plug-In . SVG Version: 6.00 Build 0)  -->
<svg version="1.1" id="Слой_1" xmlns="http://www.w3.org/2000/svg" xmlns:xlink="http://www.w3.org/1999/xlink" x="0px" y="0px"
	 viewBox="0 0 80 80" style="enable-background:new 0 0 80 80;" xml:space="preserve">
<style type="text/css">
	.st0{fill:#AABC11;}
	.st1{fill:#FCE52D;}
	.st2{fill:#FFC43E;}
</style>
<g>
	<g>
		<g>
			<path class="st0" d="M1.3,1.3h40l16,16v8l-20.7,1.3v46.7H1.3V1.3z"/>
		</g>
		<g>
			<path class="st1" d="M36,26.7h41.3v52H36V26.7z"/>
		</g>
		<g>
			<path class="st2" d="M42.7,32H72v14.7H42.7V32z"/>
		</g>
		<g>
			<path class="st2" d="M66.7,52h8v20h-8V52z"/>
		</g>
		<g>
			<path class="st2" d="M45.3,58.7c1.5,0,2.7-1.1,2.7-2.6s-1.1-2.7-2.6-2.7c0,0-0.1,0-0.1,0c-1.5,0-2.6,1.2-2.6,2.7
				C42.7,57.5,43.9,58.6,45.3,58.7z"/>
		</g>
		<g>
			<path class="st2" d="M57.3,58.7c1.5,0,2.7-1.1,2.7-2.6s-1.1-2.7-2.6-2.7c0,0-0.1,0-0.1,0c-1.5,0-2.6,1.2-2.6,2.7
				C54.7,57.5,55.9,58.6,57.3,58.7z"/>
		</g>
		<g>
			<path class="st2" d="M57.3,72c1.5,0,2.7-1.1,2.7-2.6c0-1.5-1.1-2.7-2.6-2.7c0,0-0.1,0-0.1,0c-1.5,0-2.6,1.2-2.6,2.7
				C54.7,70.8,55.9,72,57.3,72z"/>
		</g>
		<g>
			<path class="st2" d="M45.3,72c1.5,0,2.7-1.1,2.7-2.6c0-1.5-1.1-2.7-2.6-2.7c0,0-0.1,0-0.1,0c-1.5,0-2.6,1.2-2.6,2.7
				C42.7,70.8,43.9,72,45.3,72z"/>
		</g>
		<g>
			<g>
				<path d="M77.3,73.3c0,2.2-1.8,4-4,4h-32c-2.2,0-4-1.8-4-4V30.7c0-2.2,1.8-4,4-4h32c2.2,0,4,1.8,4,4V73.3z M2.7,68V6.7
					c0-2.2,1.8-4,4-4H40v12c0,2.2,1.8,4,4,4h12V24H41.3c-3.7,0-6.7,3-6.7,6.7V72h-28C4.5,72,2.7,70.2,2.7,68z M54.1,16H44
					c-0.7,0-1.3-0.6-1.3-1.3V4.6L54.1,16z M73.3,24H58.7v-6.7c0,0,0-0.1,0-0.1c0-0.1,0-0.2-0.1-0.3c0,0,0-0.1,0-0.1
					c-0.1-0.1-0.2-0.3-0.3-0.4l-16-16c-0.1-0.1-0.2-0.2-0.4-0.3c0,0-0.1,0-0.1,0C41.6,0,41.5,0,41.4,0c0,0,0,0-0.1,0H6.7
					C3,0,0,3,0,6.7V68c0,3.7,3,6.7,6.7,6.7h28.1c0.6,3.1,3.4,5.3,6.5,5.3h32c3.7,0,6.7-3,6.7-6.7V30.7C80,27,77,24,73.3,24z"/>
			</g>
			<g>
				<path d="M72,41.3c0,2.2-1.8,4-4,4H46.7c-2.2,0-4-1.8-4-4V36c0-2.2,1.8-4,4-4H68c2.2,0,4,1.8,4,4V41.3z M68,29.3H46.7
					c-3.7,0-6.7,3-6.7,6.7v5.3c0,3.7,3,6.7,6.7,6.7H68c3.7,0,6.7-3,6.7-6.7V36C74.7,32.3,71.7,29.3,68,29.3z"/>
			</g>
			<g>
				<path d="M45.3,58.7c-1.5,0-2.7-1.2-2.7-2.7c0-1.5,1.2-2.7,2.7-2.7c1.5,0,2.7,1.2,2.7,2.7c0,0,0,0,0,0
					C48,57.5,46.8,58.7,45.3,58.7z M45.3,50.7c-2.9,0-5.4,2.3-5.4,5.3s2.3,5.4,5.3,5.4c0,0,0.1,0,0.1,0c2.9,0,5.3-2.5,5.3-5.4
					C50.6,53,48.2,50.7,45.3,50.7z"/>
			</g>
			<g>
				<path d="M57.3,58.7c-1.5,0-2.7-1.2-2.7-2.7c0-1.5,1.2-2.7,2.7-2.7c1.5,0,2.7,1.2,2.7,2.7c0,0,0,0,0,0
					C60,57.5,58.8,58.7,57.3,58.7z M57.3,50.7c-2.9,0-5.4,2.3-5.4,5.3s2.3,5.4,5.3,5.4c0,0,0.1,0,0.1,0c2.9,0,5.3-2.5,5.3-5.4
					C62.6,53,60.2,50.7,57.3,50.7z"/>
			</g>
			<g>
				<path d="M45.3,72c-1.5,0-2.7-1.2-2.7-2.7c0-1.5,1.2-2.7,2.7-2.7c0,0,0,0,0,0c1.5,0,2.7,1.2,2.7,2.7C48,70.8,46.8,72,45.3,72z
					 M45.3,64c-2.9,0-5.4,2.3-5.4,5.3s2.3,5.4,5.3,5.4c0,0,0.1,0,0.1,0c2.9,0,5.3-2.5,5.3-5.4C50.6,66.4,48.2,64,45.3,64z"/>
			</g>
			<g>
				<path d="M57.3,72c-1.5,0-2.7-1.2-2.7-2.7c0-1.5,1.2-2.7,2.7-2.7c0,0,0,0,0,0c1.5,0,2.7,1.2,2.7,2.7C60,70.8,58.8,72,57.3,72z
					 M57.3,64c-2.9,0-5.4,2.3-5.4,5.3s2.3,5.4,5.3,5.4c0,0,0.1,0,0.1,0c2.9,0,5.3-2.5,5.3-5.4C62.6,66.4,60.2,64,57.3,64z"/>
			</g>
			<g>
				<path d="M72,69.3c0,1.5-1.2,2.7-2.7,2.7c-1.5,0-2.7-1.2-2.7-2.7V56c0-1.5,1.2-2.7,2.7-2.7c1.5,0,2.7,1.2,2.7,2.7V69.3z
					 M69.3,50.7c-2.9,0-5.3,2.4-5.3,5.3v13.3c0,2.9,2.5,5.3,5.4,5.3c2.9,0,5.2-2.4,5.3-5.3V56C74.7,53.1,72.3,50.7,69.3,50.7z"/>
			</g>
			<g>
				<path d="M13.7,23.6c0.5,0.5,1.4,0.5,1.9,0l12-12c0.5-0.5,0.5-1.4,0-1.9s-1.4-0.5-1.9,0l-12,12C13.2,22.2,13.2,23.1,13.7,23.6z"
					/>
			</g>
			<g>
				<path d="M26.7,21.3c0,0.7-0.6,1.3-1.3,1.3c-0.7,0-1.3-0.6-1.3-1.3s0.6-1.3,1.3-1.3C26.1,20,26.7,20.6,26.7,21.3z M21.3,21.3
					c0,2.2,1.8,4,4,4s4-1.8,4-4s-1.8-4-4-4S21.3,19.1,21.3,21.3z"/>
			</g>
			<g>
				<path d="M16,10.7c0.7,0,1.3,0.6,1.3,1.3s-0.6,1.3-1.3,1.3s-1.3-0.6-1.3-1.3S15.3,10.7,16,10.7z M16,16c2.2,0,4-1.8,4-4
					s-1.8-4-4-4s-4,1.8-4,4S13.8,16,16,16z"/>
			</g>
			<g>
				<path d="M9.3,36h16c0.7,0,1.3-0.6,1.3-1.3s-0.6-1.3-1.3-1.3h-16c-0.7,0-1.3,0.6-1.3,1.3S8.6,36,9.3,36L9.3,36z"/>
			</g>
			<g>
				<path d="M28,38.7H9.3C8.6,38.7,8,39.3,8,40s0.6,1.3,1.3,1.3l0,0H28c0.7,0,1.3-0.6,1.3-1.3S28.7,38.7,28,38.7z"/>
			</g>
			<g>
				<path d="M14.7,44H9.3C8.6,44,8,44.6,8,45.3s0.6,1.3,1.3,1.3l0,0h5.3c0.7,0,1.3-0.6,1.3-1.3S15.4,44,14.7,44z"/>
			</g>
			<g>
				<path d="M28,44h-8c-0.7,0-1.3,0.6-1.3,1.3s0.6,1.3,1.3,1.3h8c0.7,0,1.3-0.6,1.3-1.3S28.7,44,28,44z"/>
			</g>
		</g>
	</g>
</g>
</svg>
