<svg xmlns="http://www.w3.org/2000/svg" width="80" height="80" viewBox="0 0 80 80"><g><g><g><path fill="#aabc11" d="M0 31L40 0l40 31v47H0z"/></g><g><path fill="#fce52d" d="M14.5 6l51 1v33l-17 14-8-5-8.5 5-17.5-14z"/></g><g><g><path d="M77.322 75.244l-34.9-27.107a3.954 3.954 0 0 0-4.857 0l-34.9 27.107V32.692l21.847 16.966a1.334 1.334 0 1 0 1.634-2.108L3.952 30.313l9.378-7.288v10.303a1.333 1.333 0 1 0 2.667 0v-24c0-.736.596-1.333 1.333-1.333h45.327c.736 0 1.333.597 1.333 1.333v24a1.333 1.333 0 1 0 2.666 0V23.025l9.379 7.288-22.234 17.268a1.334 1.334 0 0 0 1.636 2.106l21.885-16.995zM4.329 77.327L39.2 50.248a1.283 1.283 0 0 1 1.589 0l34.88 27.079zM39.202 2.939a1.285 1.285 0 0 1 1.593 0l3.08 2.379h-7.743zM79.998 30.66c0-.028-.014-.052-.016-.079a1.272 1.272 0 0 0-.054-.272 1.379 1.379 0 0 0-.076-.23 1.287 1.287 0 0 0-.133-.2 1.309 1.309 0 0 0-.182-.211c-.021-.019-.03-.044-.053-.062L66.665 19.65V9.327a4 4 0 0 0-4-4h-14.45L42.43.835a3.956 3.956 0 0 0-4.862 0L31.78 5.327h-14.45a4 4 0 0 0-4 4V19.65L.516 29.607c-.023.018-.033.043-.054.062a1.31 1.31 0 0 0-.181.21c-.05.063-.095.13-.133.2a1.316 1.316 0 0 0-.076.231 1.264 1.264 0 0 0-.055.267c0 .026-.016.05-.016.078v45.339c.005.43.08.855.223 1.26a1.321 1.321 0 0 0 1.466 2c.674.481 1.482.74 2.31.74h72a3.973 3.973 0 0 0 2.316-.75c.113.034.231.053.35.057a1.321 1.321 0 0 0 1.112-2.047c.142-.405.217-.83.222-1.26V30.661z"/></g><g><path d="M26.663 19.327H53.33a1.333 1.333 0 1 0 0-2.667H26.663a1.333 1.333 0 1 0 0 2.667z"/></g><g><path d="M46.663 25.993c0-.736-.597-1.333-1.333-1.333H26.663a1.333 1.333 0 0 0 0 2.667H45.33c.736 0 1.333-.597 1.333-1.334z"/></g><g transform="rotate(-45 49 36)"><path d="M56.637 35.813c0-.736-.597-1.333-1.334-1.333h-12a1.333 1.333 0 1 0 0 2.667h12c.737 0 1.334-.597 1.334-1.334z"/></g><g transform="rotate(-135 42.5 37.5)"><path d="M47.424 37.333c0-.736-.597-1.333-1.333-1.333h-7.758a1.333 1.333 0 1 0 0 2.667h7.758c.736 0 1.333-.597 1.333-1.334z"/></g></g></g></g></svg>