<svg xmlns="http://www.w3.org/2000/svg" width="75" height="81" viewBox="0 0 75 81"><g><g><g><path fill="#fce52d" d="M23 2h50v63l-3 3H23z"/></g><g><path fill="#aabc11" d="M12 13h51v65H4.5l-3-3v-9H12z"/></g><g><path fill="#c6d623" d="M2 67h51v13H8l-6-5z"/></g><g><g><path d="M6.774 77.535a4.01 4.01 0 0 1-4.01-4.01v-6.683h48.128v6.683c0 1.447.47 2.853 1.337 4.01zM57.578 10.7H17.47a6.685 6.685 0 0 0-6.685 6.684v41.444a1.337 1.337 0 1 0 2.674 0V17.384a4.01 4.01 0 0 1 4.01-4.01h40.108a4.011 4.011 0 0 1 4.01 4.01v56.15a4.011 4.011 0 0 1-8.021 0V66.85a2.674 2.674 0 0 0-2.674-2.674H2.764A2.674 2.674 0 0 0 .09 66.85v6.684a6.685 6.685 0 0 0 6.684 6.685h50.803a6.685 6.685 0 0 0 6.684-6.685v-56.15a6.685 6.685 0 0 0-6.684-6.684z"/></g><g><path d="M50.887 26.734a1.337 1.337 0 0 0 0-2.674h-21.39a1.337 1.337 0 1 0 0 2.674z"/></g><g><path d="M21.48 33.427c0 .738.598 1.337 1.337 1.337h28.075a1.337 1.337 0 0 0 0-2.674H22.817c-.739 0-1.337.598-1.337 1.337z"/></g><g><path d="M22.817 42.784h28.075a1.337 1.337 0 0 0 0-2.674H22.817a1.337 1.337 0 1 0 0 2.674z"/></g><g><path d="M22.817 50.804h28.075a1.337 1.337 0 0 0 0-2.674H22.817a1.337 1.337 0 1 0 0 2.674z"/></g><g><path d="M22.817 58.824h22.727a1.337 1.337 0 0 0 0-2.674H22.817a1.337 1.337 0 1 0 0 2.674z"/></g><g><path d="M68.271 0H28.165a6.685 6.685 0 0 0-6.685 6.684 1.337 1.337 0 1 0 2.674 0 4.01 4.01 0 0 1 4.01-4.01h40.107a4.011 4.011 0 0 1 4.011 4.01v56.15a4.011 4.011 0 0 1-4.01 4.01 1.337 1.337 0 1 0 0 2.675 6.685 6.685 0 0 0 6.684-6.685V6.684A6.685 6.685 0 0 0 68.271 0z"/></g></g></g></g></svg>