<svg id="icon" xmlns="http://www.w3.org/2000/svg" viewBox="0 0 136 38"><defs><style>.cls-1{fill:#fff;}.cls-2{fill:#fff;}</style></defs><title>icons</title><g id="logo"><path class="cls-1" d="M56.39,4.27a5.38,5.38,0,0,0-5.5,5.43,5.49,5.49,0,1,0,11,0,5.33,5.33,0,0,0-5.48-5.43Zm2.54,8.08a3.3,3.3,0,0,1-2.54,1.08,3.37,3.37,0,0,1-2.56-1.08,3.78,3.78,0,0,1-1-2.65,3.76,3.76,0,0,1,1-2.66A3.3,3.3,0,0,1,56.36,6a3.38,3.38,0,0,1,2.56,1.09,3.78,3.78,0,0,1,1,2.65A3.74,3.74,0,0,1,58.93,12.35ZM66.17,15H64.33V4.45h8.56V15H71.05V6.11H66.17Zm20.91,0H85.25V4.45h1.83ZM82.94,14A3.18,3.18,0,0,0,84,11.51a2.93,2.93,0,0,0-1.08-2.42,4.46,4.46,0,0,0-2.87-.86H77.65V4.45H75.82V15h4.23A4.28,4.28,0,0,0,82.94,14Zm-5.29-.73V9.83H80a2.69,2.69,0,0,1,1.62.43,1.46,1.46,0,0,1,.57,1.24,1.61,1.61,0,0,1-.57,1.34A2.41,2.41,0,0,1,80,13.3ZM92.58,6.16H89.25V4.45h8.53V6.16H94.45V15H92.58ZM101.8,15H100V4.45h1.85V8.81h5V4.45h1.84V15h-1.84V10.52h-5ZM118.7,14a3.18,3.18,0,0,0,1.07-2.52,2.93,2.93,0,0,0-1.08-2.42,4.46,4.46,0,0,0-2.87-.86h-2.41V4.45h-1.83V15h4.23A4.28,4.28,0,0,0,118.7,14Zm-5.29-.73V9.83h2.34a2.69,2.69,0,0,1,1.62.43,1.46,1.46,0,0,1,.57,1.24,1.61,1.61,0,0,1-.57,1.34,2.41,2.41,0,0,1-1.59.46ZM122.84,15H121V4.45h1.83Zm4.66,0h-1.74V4.45h1.82v7.66l5.31-7.66h1.73V15H132.8V7.3Zm1.17-11.89a2.54,2.54,0,0,1-.79-1.54L129,1.31a1.23,1.23,0,0,0,1.25,1,1.25,1.25,0,0,0,1.25-1l1.11.21a2.53,2.53,0,0,1-.78,1.54,2.51,2.51,0,0,1-3.16,0Zm-72.45,22H51.53V37h2.09V33.12H56a5.26,5.26,0,0,0,3.4-1.07,3.6,3.6,0,0,0,1.36-3,3.7,3.7,0,0,0-1.23-2.92A4.74,4.74,0,0,0,56.22,25.05Zm1.7,5.59a2.76,2.76,0,0,1-1.87.6H53.62V27h2.43a2.91,2.91,0,0,1,1.88.56,1.88,1.88,0,0,1,.69,1.57A1.93,1.93,0,0,1,57.92,30.64Zm13-5.59h2V37H70.86V28.28l-6,8.67h-2V25.05h2v8.69Zm13.25,1.59a6.38,6.38,0,0,1,0,8.74,5.76,5.76,0,0,1-4.31,1.77,6.85,6.85,0,0,1-2.77-.51A6.54,6.54,0,0,1,75,35.11l1.34-1.37A6.82,6.82,0,0,0,78,34.9a4.13,4.13,0,0,0,1.85.38,3.67,3.67,0,0,0,2.56-1,4,4,0,0,0,1.31-2.46H78.37V30.06H83.7a4.12,4.12,0,0,0-1.34-2.39,3.67,3.67,0,0,0-2.52-.94,5,5,0,0,0-3.39,1.41l-1.19-1.42a7.46,7.46,0,0,1,2-1.39,6.12,6.12,0,0,1,2.54-.48A5.83,5.83,0,0,1,84.21,26.64Zm5.52-1.59h8.16V37H95.8v-10H91.68V28a36.74,36.74,0,0,1-.23,4.6,8.49,8.49,0,0,1-.75,2.78A2.74,2.74,0,0,1,88,37.09a5.81,5.81,0,0,1-1.44-.19l.2-1.72a2.07,2.07,0,0,0,.68.1,1.92,1.92,0,0,0,.71-.12,1.84,1.84,0,0,0,.63-.61,3.78,3.78,0,0,0,.52-1.3,17.57,17.57,0,0,0,.33-2.3c.09-1,.14-2.17.14-3.55Zm10.39,0h9.65V27H106V37h-2.11V27h-3.77Zm16.72-.2a6.2,6.2,0,0,0-4.48,10.52A6.24,6.24,0,0,0,123.05,31a6,6,0,0,0-6.21-6.15ZM119.73,34A4,4,0,0,1,114,34a4.53,4.53,0,0,1,0-6,3.72,3.72,0,0,1,2.88-1.22,3.8,3.8,0,0,1,2.9,1.23,4.53,4.53,0,0,1,0,6Zm13.84-7.87a4.74,4.74,0,0,0-3.3-1.09h-4.69V37h2.09V33.12H130a5.31,5.31,0,0,0,3.41-1.07,3.6,3.6,0,0,0,1.35-3A3.7,3.7,0,0,0,133.57,26.14Zm-1.6,4.5a2.75,2.75,0,0,1-1.87.6h-2.43V27h2.43a2.91,2.91,0,0,1,1.88.56,1.88,1.88,0,0,1,.69,1.57A1.93,1.93,0,0,1,132,30.64Z"/><path class="cls-2" d="M34,37H11L29,20.5,11,4H34a3,3,0,0,1,3,3V34A3,3,0,0,1,34,37ZM6,4H.05L18,20.5.05,37H6L24,20.5Z"/></g></svg>