<svg width="50" height="48" viewBox="0 0 50 48" fill="none" xmlns="http://www.w3.org/2000/svg">
<path fill-rule="evenodd" clip-rule="evenodd" d="M49.5967 24.271C49.5001 22.8685 49.2832 21.4651 48.9594 20.0837C46.2925 22.1396 43.306 24.4447 41.4552 25.7015C42.8696 27.0998 45.8535 30.1795 48.5908 32.7278C49.0171 31.4244 49.3247 30.0439 49.4976 28.5778C47.8416 27.4134 46.4552 26.4049 46.023 26.0642C46.5272 25.7532 47.945 25.0617 49.5967 24.271Z" fill="#EF5427"/>
<path fill-rule="evenodd" clip-rule="evenodd" d="M48.7128 19.1121C48.4594 18.1841 48.1569 17.2621 47.8043 16.3688C46.0408 16.1816 44.5738 16.0095 44.0577 15.9231C44.3416 15.5341 45.1509 14.3316 46.1382 12.8316C45.5382 11.7536 44.8594 10.7256 44.1323 9.76037C42.8315 12.4926 41.4162 15.4731 40.5196 17.3977C42.2687 17.8256 45.5611 18.5468 48.7128 19.1121Z" fill="#EF5427"/>
<path fill-rule="evenodd" clip-rule="evenodd" d="M45.6689 38.3827C46.6706 37.0386 47.5087 35.5522 48.1562 33.9378C44.8833 34.053 40.7808 34.209 38.1952 34.4166C38.6884 36.1742 39.6384 39.8242 40.6596 43.1768C41.5596 42.5547 42.4037 41.8768 43.1918 41.1412C42.4579 39.3759 41.852 37.859 41.7037 37.3132C42.3198 37.442 43.913 37.8903 45.6689 38.3827Z" fill="#EF5427"/>
<path fill-rule="evenodd" clip-rule="evenodd" d="M41.2785 25.0425C43.2505 23.6154 45.8963 21.5721 48.1946 19.7916C45.2344 19.2764 42.048 18.6043 40.0649 18.134C41.0107 20.3171 41.4175 22.684 41.2785 25.0425Z" fill="#FAAA1F"/>
<path fill-rule="evenodd" clip-rule="evenodd" d="M47.7396 33.0307C45.3421 30.8162 42.7608 28.4315 41.0701 26.8137C40.6413 29.1857 39.6523 31.4866 38.0769 33.4739C40.9667 33.4086 44.8565 33.2027 47.7396 33.0307Z" fill="#FAAA1F"/>
<path fill-rule="evenodd" clip-rule="evenodd" d="M39.6837 17.3184C40.6727 15.1879 42.116 12.1514 43.3812 9.49717C40.4685 10.4692 37.1583 11.4056 35.0812 11.9904C37.1049 13.4319 38.6397 15.2701 39.6837 17.3184Z" fill="#FAAA1F"/>
<path fill-rule="evenodd" clip-rule="evenodd" d="M43.3541 8.78871C42.6473 7.95142 41.8973 7.17091 41.099 6.45396C39.3685 7.20905 37.9007 7.83023 37.3837 8.01328C37.4405 7.51074 37.5642 5.92345 37.6947 3.9904C36.6837 3.40057 35.6286 2.88871 34.5456 2.46159C34.682 5.59973 34.8388 9.07854 35.0193 11.2607C36.8049 10.754 40.2219 9.81074 43.3541 8.78871Z" fill="#EF5427"/>
<path fill-rule="evenodd" clip-rule="evenodd" d="M39.5761 42.9199C38.5609 39.9572 37.5532 36.775 36.9473 34.747C35.4151 36.2894 33.5566 37.4759 31.5371 38.2945C33.66 39.5377 36.866 41.3496 39.5761 42.9199Z" fill="#FAAA1F"/>
<path fill-rule="evenodd" clip-rule="evenodd" d="M35.1858 46.0293C36.6748 45.4649 38.0925 44.7801 39.418 43.9818C36.3892 42.2344 32.879 40.2521 30.94 39.0937C30.1722 40.842 28.4875 44.5013 27.1205 47.864C28.5375 47.7318 29.9341 47.5149 31.2942 47.2055C31.5739 45.4284 31.8392 43.8555 31.9536 43.2683C32.4697 43.6513 33.7705 44.8013 35.1858 46.0293Z" fill="#EF5427"/>
<path fill-rule="evenodd" clip-rule="evenodd" d="M34.2117 11.408C34.0456 9.07745 33.9024 5.74016 33.7795 2.80711C31.6227 5.04948 29.16 7.44609 27.5498 8.88847C29.9151 9.31813 32.2015 10.1647 34.2117 11.408Z" fill="#FAAA1F"/>
<path fill-rule="evenodd" clip-rule="evenodd" d="M33.5331 2.07732C32.1381 1.59342 30.7009 1.23664 29.2492 1.0002C28.1415 2.7197 27.1678 4.19851 26.8203 4.66546C26.5593 4.15529 25.7466 2.53156 24.8085 0.659525C23.4975 0.66461 22.1941 0.76122 20.8975 0.950203C23.0958 3.90105 25.6822 7.28495 26.75 8.56885C28.1119 7.46546 30.9856 4.70783 33.5331 2.07732Z" fill="#EF5427"/>
<path fill-rule="evenodd" clip-rule="evenodd" d="M26.6831 46.9285C27.85 44.0047 29.3085 40.7912 30.211 38.7734C27.978 39.4776 25.5831 39.7717 23.2178 39.6395C24.0441 41.32 25.3627 44.142 26.6831 46.9285Z" fill="#FAAA1F"/>
<path fill-rule="evenodd" clip-rule="evenodd" d="M22.9837 47.9844C24.0743 48.0149 25.1582 48.0022 26.2421 47.9335C24.6828 44.6437 23.1582 41.3615 22.4667 40.0284C21.2735 41.2937 18.4006 44.0378 15.7811 46.725C16.8574 47.0954 17.976 47.3945 19.1447 47.6022C20.2591 46.0742 21.3388 44.6454 21.8218 44.1352C22.0405 44.7174 22.4837 46.2691 22.9837 47.9844Z" fill="#EF5427"/>
<path fill-rule="evenodd" clip-rule="evenodd" d="M18.2408 9.44653C20.6221 8.68552 23.201 8.42789 25.7442 8.65162C24.351 6.8923 22.1391 3.97704 20.3018 1.50162C19.6662 4.29145 18.9103 7.37196 18.2408 9.44653Z" fill="#FAAA1F"/>
<path fill-rule="evenodd" clip-rule="evenodd" d="M15.8681 45.6199C18.0689 43.3428 20.4952 41.0021 21.957 39.5241C19.5418 39.2292 17.1774 38.4817 15.0825 37.2673C15.3265 39.2648 15.6045 42.4394 15.8681 45.6199Z" fill="#FAAA1F"/>
<path fill-rule="evenodd" clip-rule="evenodd" d="M17.3552 9.41626C18.0382 7.68236 18.901 4.32558 19.6357 1.16033C18.5662 1.36456 17.5171 1.63151 16.4823 1.95524C16.3382 3.49253 16.2077 4.73236 16.1298 5.19253C15.7332 4.90863 14.5942 4.14084 13.201 3.22473C12.2289 3.67643 11.2933 4.19168 10.3925 4.75694C12.9959 6.52558 15.7069 8.35779 17.3552 9.41626Z" fill="#EF5427"/>
<path fill-rule="evenodd" clip-rule="evenodd" d="M15.038 46.4617C14.7193 42.5439 14.3719 38.6608 14.0914 36.9608C12.299 37.304 8.64901 37.9998 5.05579 38.843C5.83375 39.8786 6.69562 40.8583 7.63629 41.7523C9.59307 40.9693 11.3227 40.2922 11.8897 40.0668C11.8397 40.6684 11.7295 42.5956 11.627 44.7913C12.7024 45.4379 13.8414 45.9998 15.038 46.4617Z" fill="#EF5427"/>
<path fill-rule="evenodd" clip-rule="evenodd" d="M11.2831 13.9751C12.795 12.192 14.6958 10.8641 16.8086 9.9751C14.7781 8.56917 12.1874 6.9073 9.76788 5.38696C10.3433 8.50476 10.9323 11.9556 11.2831 13.9751Z" fill="#FAAA1F"/>
<path fill-rule="evenodd" clip-rule="evenodd" d="M1.91061 14.2566C5.24028 14.1557 8.61909 14.0625 10.525 14.0947C10.2369 12.4863 9.64875 8.9854 9.04451 5.66168C7.90977 6.48202 6.85299 7.39388 5.88773 8.4049C6.65722 9.95066 7.27078 11.2337 7.46231 11.7015C6.94451 11.6651 5.43604 11.4498 3.63011 11.1922C2.97672 12.1549 2.40129 13.1803 1.91061 14.2566Z" fill="#EF5427"/>
<path fill-rule="evenodd" clip-rule="evenodd" d="M5.03561 38.1492C8.17544 37.3898 11.4704 36.7288 13.6246 36.3076C11.4949 34.7178 9.93985 32.6246 8.96697 30.3C8.14917 32.0907 6.6068 35.1127 5.03561 38.1492Z" fill="#FAAA1F"/>
<path fill-rule="evenodd" clip-rule="evenodd" d="M8.1052 20.5293C8.5552 18.4903 9.40096 16.5293 10.6442 14.803C8.56876 14.8064 5.41621 14.8929 2.36282 14.9937C4.25774 16.8039 6.47893 18.8615 8.1052 20.5293Z" fill="#FAAA1F"/>
<path fill-rule="evenodd" clip-rule="evenodd" d="M8.57858 29.2932C7.77519 26.9466 7.53875 24.4102 7.85485 21.939C5.83451 22.9695 2.89129 24.5161 0.133667 25.9636C3.4396 27.2017 6.69553 28.5466 8.57858 29.2932Z" fill="#FAAA1F"/>
<path fill-rule="evenodd" clip-rule="evenodd" d="M4.28586 37.7583C5.93417 34.5591 7.48417 31.4947 8.09603 30.0286C6.60196 29.4524 3.52315 28.1719 0.21637 26.9058C0.363827 27.9964 0.581624 29.0812 0.86298 30.1371C2.66806 30.7422 4.21128 31.2693 4.75027 31.4473C4.40959 31.7871 3.46467 32.8481 2.30112 34.1846C2.86552 35.4253 3.52908 36.6236 4.28586 37.7583Z" fill="#EF5427"/>
<path fill-rule="evenodd" clip-rule="evenodd" d="M7.72866 21.2229C6.18035 19.5416 3.69052 17.2204 1.52696 15.1628C1.12103 16.189 0.786287 17.2653 0.536287 18.3916C1.88713 19.406 2.98374 20.2517 3.35917 20.578C2.90578 20.7611 1.62951 21.1907 0.0625581 21.7128C-0.0171029 22.8814 -0.0196453 24.0433 0.0489988 25.1975C3.00663 23.645 6.00578 22.0704 7.72866 21.2229Z" fill="#EF5427"/>
</svg>
