<svg width="63" height="63" viewBox="0 0 63 63" fill="none" xmlns="http://www.w3.org/2000/svg">
<g id="dot">
<path id="Oval" fill-rule="evenodd" clip-rule="evenodd" d="M31.0435 62.9119C48.1643 62.9119 62.0435 49.0327 62.0435 31.9119C62.0435 14.791 48.1643 0.911865 31.0435 0.911865C13.9226 0.911865 0.043457 14.791 0.043457 31.9119C0.043457 49.0327 13.9226 62.9119 31.0435 62.9119Z" fill="#040404"/>
<path id="Fill 411" fill-rule="evenodd" clip-rule="evenodd" d="M60.5676 31.9122C60.4536 33.5672 60.1976 35.2232 59.8156 36.8532C56.6686 34.4272 53.1446 31.7072 50.9606 30.2242C52.6296 28.5742 56.1506 24.9402 59.3806 21.9332C59.8836 23.4712 60.2466 25.1002 60.4506 26.8302C58.4966 28.2042 56.8606 29.3942 56.3506 29.7962C56.9456 30.1632 58.6186 30.9792 60.5676 31.9122Z" fill="#EF5427"/>
<path id="Fill 429" fill-rule="evenodd" clip-rule="evenodd" d="M59.5246 37.9996C59.2256 39.0946 58.8686 40.1826 58.4526 41.2366C56.3716 41.4576 54.6406 41.6606 54.0316 41.7626C54.3666 42.2216 55.3216 43.6406 56.4866 45.4106C55.7786 46.6826 54.9776 47.8956 54.1196 49.0346C52.5846 45.8106 50.9146 42.2936 49.8566 40.0226C51.9206 39.5176 55.8056 38.6666 59.5246 37.9996Z" fill="#EF5427"/>
<path id="Fill 443" fill-rule="evenodd" clip-rule="evenodd" d="M55.9328 15.2604C57.1148 16.8464 58.1038 18.6004 58.8678 20.5054C55.0058 20.3694 50.1648 20.1854 47.1138 19.9404C47.6958 17.8664 48.8168 13.5594 50.0218 9.60341C51.0838 10.3374 52.0798 11.1374 53.0098 12.0054C52.1438 14.0884 51.4288 15.8784 51.2538 16.5224C51.9808 16.3704 53.8608 15.8414 55.9328 15.2604Z" fill="#EF5427"/>
<path id="Fill 449" fill-rule="evenodd" clip-rule="evenodd" d="M50.7521 31.0016C53.0791 32.6856 56.2011 35.0966 58.9131 37.1976C55.4201 37.8056 51.6601 38.5986 49.3201 39.1536C50.4361 36.5776 50.9161 33.7846 50.7521 31.0016Z" fill="#FAAA1F"/>
<path id="Fill 451" fill-rule="evenodd" clip-rule="evenodd" d="M58.3761 21.5758C55.5471 24.1888 52.5011 27.0028 50.5061 28.9118C50.0001 26.1128 48.8331 23.3978 46.9741 21.0528C50.3841 21.1298 54.9741 21.3728 58.3761 21.5758Z" fill="#FAAA1F"/>
<path id="Fill 471" fill-rule="evenodd" clip-rule="evenodd" d="M48.8703 40.1163C50.0373 42.6303 51.7403 46.2133 53.2333 49.3453C49.7963 48.1983 45.8903 47.0933 43.4393 46.4033C45.8273 44.7023 47.6383 42.5333 48.8703 40.1163Z" fill="#FAAA1F"/>
<path id="Fill 473" fill-rule="evenodd" clip-rule="evenodd" d="M53.2013 50.1813C52.3673 51.1693 51.4823 52.0903 50.5403 52.9363C48.4983 52.0453 46.7663 51.3123 46.1563 51.0963C46.2233 51.6893 46.3693 53.5623 46.5233 55.8433C45.3303 56.5393 44.0853 57.1433 42.8073 57.6473C42.9683 53.9443 43.1533 49.8393 43.3663 47.2643C45.4733 47.8623 49.5053 48.9753 53.2013 50.1813Z" fill="#EF5427"/>
<path id="Fill 507" fill-rule="evenodd" clip-rule="evenodd" d="M48.7433 9.90642C47.5453 13.4024 46.3563 17.1574 45.6413 19.5504C43.8333 17.7304 41.6403 16.3304 39.2573 15.3644C41.7623 13.8974 45.5453 11.7594 48.7433 9.90642Z" fill="#FAAA1F"/>
<path id="Fill 515" fill-rule="evenodd" clip-rule="evenodd" d="M45.3277 21.1893C51.5007 28.2663 50.8517 40.1293 42.4857 45.7363C34.7297 50.9403 22.3157 50.6863 16.4097 43.2823C10.5537 35.9363 11.5187 23.3283 20.4197 18.0303C28.2027 13.4033 39.4217 14.4203 45.3277 21.1893Z" fill="#FCE52D"/>
<path id="Fill 525" fill-rule="evenodd" clip-rule="evenodd" d="M43.5627 6.23742C45.3197 6.90342 46.9927 7.71142 48.5567 8.65342C44.9827 10.7154 40.8407 13.0544 38.5527 14.4214C37.6467 12.3584 35.6587 8.04042 34.0457 4.07242C35.7177 4.22842 37.3657 4.48442 38.9707 4.84942C39.3007 6.94642 39.6137 8.80242 39.7487 9.49542C40.3577 9.04342 41.8927 7.68642 43.5627 6.23742Z" fill="#EF5427"/>
<path id="Fill 539" fill-rule="evenodd" clip-rule="evenodd" d="M42.4132 47.0905C42.2172 49.8405 42.0482 53.7785 41.9032 57.2395C39.3582 54.5935 36.4522 51.7655 34.5522 50.0635C37.3432 49.5565 40.0412 48.5575 42.4132 47.0905Z" fill="#FAAA1F"/>
<path id="Fill 563" fill-rule="evenodd" clip-rule="evenodd" d="M41.6125 58.1007C39.9665 58.6717 38.2705 59.0927 36.5575 59.3717C35.2505 57.3427 34.1015 55.5977 33.6915 55.0467C33.3835 55.6487 32.4245 57.5647 31.3175 59.7737C29.7705 59.7677 28.2325 59.6537 26.7025 59.4307C29.2965 55.9487 32.3485 51.9557 33.6085 50.4407C35.2155 51.7427 38.6065 54.9967 41.6125 58.1007Z" fill="#EF5427"/>
<path id="Fill 569" fill-rule="evenodd" clip-rule="evenodd" d="M33.5294 5.17641C34.9064 8.62641 36.6274 12.4184 37.6924 14.7994C35.0574 13.9684 32.2314 13.6214 29.4404 13.7774C30.4154 11.7944 31.9714 8.46441 33.5294 5.17641Z" fill="#FAAA1F"/>
<path id="Fill 585" fill-rule="evenodd" clip-rule="evenodd" d="M29.1642 3.93031C30.4512 3.89431 31.7302 3.90931 33.0092 3.99031C31.1692 7.87231 29.3702 11.7453 28.5542 13.3183C27.1462 11.8253 23.7562 8.58731 20.6652 5.41631C21.9352 4.97931 23.2552 4.62631 24.6342 4.38131C25.9492 6.18431 27.2232 7.87031 27.7932 8.47231C28.0512 7.78531 28.5742 5.95431 29.1642 3.93031Z" fill="#EF5427"/>
<path id="Fill 589" fill-rule="evenodd" clip-rule="evenodd" d="M23.5676 49.4049C26.3776 50.3029 29.4206 50.6069 32.4216 50.3429C30.7776 52.4189 28.1676 55.8589 25.9996 58.7799C25.2496 55.4879 24.3576 51.8529 23.5676 49.4049Z" fill="#FAAA1F"/>
<path id="Fill 617" fill-rule="evenodd" clip-rule="evenodd" d="M20.7678 6.72041C23.3648 9.40741 26.2278 12.1694 27.9528 13.9134C25.1028 14.2614 22.3128 15.1434 19.8408 16.5764C20.1288 14.2194 20.4568 10.4734 20.7678 6.72041Z" fill="#FAAA1F"/>
<path id="Fill 619" fill-rule="evenodd" clip-rule="evenodd" d="M22.5225 49.4406C23.3285 51.4866 24.3465 55.4476 25.2135 59.1826C23.9515 58.9416 22.7135 58.6266 21.4925 58.2446C21.3225 56.4306 21.1685 54.9676 21.0765 54.4246C20.6085 54.7596 19.2645 55.6656 17.6205 56.7466C16.4735 56.2136 15.3695 55.6056 14.3065 54.9386C17.3785 52.8516 20.5775 50.6896 22.5225 49.4406Z" fill="#EF5427"/>
<path id="Fill 637" fill-rule="evenodd" clip-rule="evenodd" d="M19.7883 5.7272C19.4123 10.3502 19.0023 14.9322 18.6713 16.9382C16.5563 16.5332 12.2493 15.7122 8.00928 14.7172C8.92728 13.4952 9.94428 12.3392 11.0543 11.2842C13.3633 12.2082 15.4043 13.0072 16.0733 13.2732C16.0143 12.5632 15.8843 10.2892 15.7633 7.6982C17.0323 6.9352 18.3763 6.2722 19.7883 5.7272Z" fill="#EF5427"/>
<path id="Fill 657" fill-rule="evenodd" clip-rule="evenodd" d="M15.3576 44.0612C17.1416 46.1652 19.3846 47.7322 21.8776 48.7812C19.4816 50.4402 16.4246 52.4012 13.5696 54.1952C14.2486 50.5162 14.9436 46.4442 15.3576 44.0612Z" fill="#FAAA1F"/>
<path id="Fill 661" fill-rule="evenodd" clip-rule="evenodd" d="M4.29797 43.7291C8.22697 43.8481 12.214 43.9581 14.463 43.9201C14.123 45.8181 13.429 49.9491 12.716 53.8711C11.377 52.9031 10.13 51.8271 8.99097 50.6341C9.89897 48.8101 10.623 47.2961 10.849 46.7441C10.238 46.7871 8.45797 47.0411 6.32697 47.3451C5.55597 46.2091 4.87697 44.9991 4.29797 43.7291Z" fill="#EF5427"/>
<path id="Fill 663" fill-rule="evenodd" clip-rule="evenodd" d="M7.98547 15.5358C11.6905 16.4318 15.5785 17.2118 18.1205 17.7088C15.6075 19.5848 13.7725 22.0548 12.6245 24.7978C11.6595 22.6848 9.83947 19.1188 7.98547 15.5358Z" fill="#FAAA1F"/>
<path id="Fill 677" fill-rule="evenodd" clip-rule="evenodd" d="M11.6075 36.3273C12.1385 38.7333 13.1365 41.0473 14.6035 43.0843C12.1545 43.0803 8.43454 42.9783 4.83154 42.8593C7.06754 40.7233 9.68854 38.2953 11.6075 36.3273Z" fill="#FAAA1F"/>
<path id="Fill 683" fill-rule="evenodd" clip-rule="evenodd" d="M12.1662 25.986C11.2182 28.755 10.9392 31.748 11.3122 34.664C8.92817 33.448 5.45517 31.623 2.20117 29.915C6.10217 28.454 9.94417 26.867 12.1662 25.986Z" fill="#FAAA1F"/>
<path id="Fill 691" fill-rule="evenodd" clip-rule="evenodd" d="M7.10083 15.9972C9.04583 19.7722 10.8748 23.3882 11.5968 25.1182C9.83383 25.7982 6.20083 27.3092 2.29883 28.8032C2.47283 27.5162 2.72983 26.2362 3.06183 24.9902C5.19183 24.2762 7.01283 23.6542 7.64883 23.4442C7.24683 23.0432 6.13183 21.7912 4.75883 20.2142C5.42483 18.7502 6.20783 17.3362 7.10083 15.9972Z" fill="#EF5427"/>
<path id="Fill 697" fill-rule="evenodd" clip-rule="evenodd" d="M11.1633 35.5089C9.33628 37.4929 6.39828 40.2319 3.84528 42.6599C3.36628 41.4489 2.97128 40.1789 2.67628 38.8499C4.27028 37.6529 5.56428 36.6549 6.00728 36.2699C5.47228 36.0539 3.96628 35.5469 2.11728 34.9309C2.02328 33.5519 2.02028 32.1809 2.10128 30.8189C5.59128 32.6509 9.13028 34.5089 11.1633 35.5089Z" fill="#EF5427"/>
</g>
</svg>
