<svg xmlns="http://www.w3.org/2000/svg" width="86" height="80" viewBox="0 0 86 80"><g><g><g><path fill="#aabc11" d="M41.5 9.555H68L71.5 1H81l.501 4.29L80 9.052l2 .503.25 17.388-5.25.728v16.606h7v17.11l-2 1.51V79H37V27.671l4.5-1.006z"/></g><g><path fill="#fce52d" d="M56 11h11v16H56z"/></g><g><path fill="#fce52d" d="M52 28h11v16H52z"/></g><g><path fill="#fce52d" d="M58 44h11v16H58z"/></g><g><path fill="#fce52d" d="M57 63h11v16H57z"/></g><g><path fill="#ffc43e" d="M8 37l10.176-3.653L16 23h17l-2.5 10.5 8 2L43 43l4 36H1v-4.5l3.5-6v-24z"/></g><g><path d="M2.867 74.87A3.42 3.42 0 0 1 3.88 72.43a6.252 6.252 0 0 0 1.853-4.458V47.142c.008-6.308 5.137-11.42 11.467-11.426h14.333c6.33.007 11.46 5.118 11.467 11.426v21.423h-5.733v2.856h6.573l1.013 1.01a3.419 3.419 0 0 1 1.014 2.438v2.265h-43zm28.608-50.583a20.674 20.674 0 0 1-1.445 6.306l-.909 2.266h-9.519l-.908-2.266a20.673 20.673 0 0 1-1.445-6.306zM1.433 80.001H47.3a1.426 1.426 0 0 0 1.433-1.429V74.88a6.254 6.254 0 0 0-1.853-4.46l-1.013-1.01V47.145c-.01-7.623-6.017-13.9-13.657-14.268l.49-1.222a23.51 23.51 0 0 0 1.7-8.795c0-.38-.15-.743-.42-1.01a1.436 1.436 0 0 0-1.013-.419h-17.2a1.426 1.426 0 0 0-1.433 1.429 23.51 23.51 0 0 0 1.699 8.795l.49 1.222c-7.64.368-13.647 6.645-13.656 14.268v20.837a3.42 3.42 0 0 1-1.014 2.439A6.254 6.254 0 0 0 0 74.879v3.694c0 .379.151.742.42 1.01s.633.418 1.013.418z"/></g><g><path d="M25.003 55.71h-2.866c-1.188 0-2.15-.96-2.15-2.143 0-1.183.962-2.143 2.15-2.143h5.733v-2.857h-2.867V45.71h-2.866v2.857c-2.771 0-5.017 2.239-5.017 5 0 2.762 2.246 5 5.017 5h2.866c1.188 0 2.15.96 2.15 2.143a2.146 2.146 0 0 1-2.15 2.143h-7.166v2.857h4.3v2.277h2.866V65.71c2.771 0 5.017-2.239 5.017-5s-2.246-5-5.017-5z"/></g><g><path d="M71.663 60v-2.857H83.13V60zm8.59 5.704H68.797v-2.847h11.456zM68.797 77.133v-2.847h11.456v2.847zM57.33 62.857h8.6v14.276h-8.6zm2.867-17.143h8.6V60h-8.6zM53.03 28.571h8.6v14.286h-8.6zM42.997 11.43h11.456v2.855h-8.592v2.855h8.592v2.855h-8.592v2.855h8.592v2.855H42.997zm22.933 0v14.275h-8.6V11.43zm5.732-8.572h8.591v1.429a4.296 4.296 0 0 1-4.295 4.285h-5.732a7.095 7.095 0 0 0 1.436-4.285zm-2.865 22.847v-2.847h11.456v2.847zm0-8.561h11.456V20H68.797zm11.456-5.714v2.857H68.797v-2.857zm-4.3 20H64.497V28.57h11.456zm0 5.704H64.497v-2.847h11.456zm-11.456 5.724V40h11.456v2.857zm7.166 8.572H83.13v2.857H71.663zM68.797 68.57h11.456v2.858H68.797zm14.333-20H71.663v-2.857H83.13zm1.433-5.714H78.83V28.571h2.867a1.426 1.426 0 0 0 1.433-1.429V10c0-.379-.151-.742-.42-1.01a1.436 1.436 0 0 0-1.013-.419h-.004a7.09 7.09 0 0 0 1.437-4.285V1.429c0-.38-.151-.743-.42-1.01A1.436 1.436 0 0 0 81.697 0H70.23a1.426 1.426 0 0 0-1.433 1.429v2.857a4.298 4.298 0 0 1-4.3 4.285H41.563c-.38 0-.744.15-1.013.419-.269.268-.42.631-.42 1.01v15.714h-2.867c-.38 0-.744.15-1.013.419-.269.268-.42.631-.42 1.01v4.286h2.867V28.57h11.466v2.858h-8.6v2.857h8.6v2.857h-4.3V40h4.3v2.857H48.73v2.857h8.6v2.857h-5.733v2.858h5.733v2.857h-5.733v2.857h5.733V60H47.297v2.857h7.166v2.857h-2.866v2.857h2.866v2.858h-2.866v2.857h2.866v2.857h-4.3V80h31.534a1.426 1.426 0 0 0 1.433-1.429V62.857h1.433a1.426 1.426 0 0 0 1.433-1.429V44.287c0-.38-.15-.743-.42-1.01a1.436 1.436 0 0 0-1.013-.419z"/></g></g></g></svg>