<?xml version="1.0" encoding="utf-8"?>
<!-- Generator: Adobe Illustrator 22.1.0, SVG Export Plug-In . SVG Version: 6.00 Build 0)  -->
<svg version="1.1" xmlns="http://www.w3.org/2000/svg" xmlns:xlink="http://www.w3.org/1999/xlink" x="0px" y="0px"
	 viewBox="0 0 144 60" style="enable-background:new 0 0 144 60;" xml:space="preserve">
<style type="text/css">
	.st0{fill:#FF3333;}
	.st1{fill:#FFD861;}
	.st2{fill:#00C0F7;}
	.st3{fill:#FFFFFF;}
</style>
<g id="Layer_1">
</g>
<g id="Layer_2">
	<path class="st0" d="M47.3,30c0,10.6-8.6,19.1-19.1,19.1C17.6,49.1,9,40.6,9,30c0-10.6,8.6-19.1,19.1-19.1
		C38.7,10.9,47.3,19.4,47.3,30z"/>
	<path class="st1" d="M89.6,30c0,10.6-8.6,19.1-19.1,19.1c-10.6,0-19.1-8.6-19.1-19.1c0-10.6,8.6-19.1,19.1-19.1
		C81,10.9,89.6,19.4,89.6,30z"/>
	<path class="st2" d="M131,30c0,10.6-8.6,19.1-19.1,19.1S92.7,40.6,92.7,30c0-10.6,8.6-19.1,19.1-19.1S131,19.4,131,30z"/>
</g>
<g id="Layer_3">
	<g>
		<path class="st3" d="M68,35.8v-6.2c0-1.1-0.2-2-0.5-2.6c-0.3-0.6-0.9-0.9-1.8-0.9c-0.8,0-1.4,0.2-1.9,0.6
			c-0.5,0.4-0.9,0.9-1.1,1.6v7.5H61V24.9h1.2l0.3,1.3h0.1c0.3-0.5,0.8-0.8,1.4-1.1c0.6-0.3,1.3-0.4,2.1-0.4c0.6,0,1.1,0.1,1.6,0.2
			s0.8,0.4,1.1,0.7c0.3,0.3,0.5,0.8,0.7,1.4c0.2,0.6,0.2,1.3,0.2,2.2v6.6H68z"/>
		<path class="st3" d="M80.1,35c-0.4,0.3-1,0.6-1.6,0.8c-0.7,0.2-1.4,0.3-2.1,0.3c-0.8,0-1.6-0.1-2.2-0.4c-0.6-0.3-1.1-0.7-1.5-1.2
			c-0.4-0.5-0.7-1.1-0.9-1.8c-0.2-0.7-0.3-1.5-0.3-2.4c0-1.9,0.4-3.3,1.2-4.3c0.8-1,2-1.5,3.6-1.5c0.5,0,1,0.1,1.5,0.2
			c0.5,0.1,0.9,0.3,1.3,0.6c0.4,0.3,0.7,0.7,1,1.3c0.2,0.6,0.4,1.3,0.4,2.2c0,0.5,0,1-0.1,1.6h-7c0,0.6,0.1,1.2,0.2,1.7
			c0.1,0.5,0.3,0.9,0.6,1.3c0.3,0.3,0.6,0.6,1.1,0.8c0.4,0.2,1,0.3,1.6,0.3c0.5,0,1-0.1,1.5-0.3c0.5-0.2,0.9-0.4,1.1-0.6L80.1,35z
			 M76.3,26.2c-0.9,0-1.5,0.2-2.1,0.7c-0.5,0.5-0.8,1.2-0.9,2.3h5.4c0-1.1-0.2-1.9-0.6-2.3C77.7,26.4,77.1,26.2,76.3,26.2z"/>
	</g>
	<g>
		<path class="st3" d="M103,20.5h1.7V26h0.1c0.3-0.4,0.8-0.8,1.3-1c0.5-0.2,1.1-0.3,1.7-0.3c1.4,0,2.5,0.5,3.2,1.4
			c0.7,0.9,1.1,2.3,1.1,4.2c0,1.9-0.5,3.4-1.4,4.3c-0.9,1-2.2,1.5-3.9,1.5c-0.8,0-1.6-0.1-2.2-0.3c-0.7-0.2-1.2-0.4-1.5-0.6V20.5z
			 M107.5,26.2c-0.7,0-1.3,0.2-1.8,0.6c-0.5,0.4-0.8,1-1,1.7V34c0.3,0.2,0.6,0.3,1,0.4c0.4,0.1,0.8,0.1,1.2,0.1c1,0,1.8-0.3,2.4-1
			c0.6-0.7,0.9-1.8,0.9-3.3c0-0.6-0.1-1.1-0.2-1.6c-0.1-0.5-0.3-0.9-0.5-1.3c-0.2-0.4-0.5-0.6-0.8-0.8
			C108.4,26.3,108,26.2,107.5,26.2z"/>
		<path class="st3" d="M113.3,30.4c0-1.8,0.4-3.3,1.2-4.2c0.8-1,2-1.5,3.6-1.5c0.8,0,1.5,0.1,2.1,0.4c0.6,0.3,1.1,0.7,1.5,1.2
			c0.4,0.5,0.7,1.1,0.9,1.8c0.2,0.7,0.3,1.5,0.3,2.3c0,1.9-0.4,3.3-1.2,4.3c-0.8,1-2,1.5-3.6,1.5c-0.8,0-1.5-0.1-2.1-0.4
			c-0.6-0.3-1.1-0.7-1.5-1.2c-0.4-0.5-0.7-1.1-0.9-1.8C113.4,32,113.3,31.2,113.3,30.4z M115.1,30.4c0,0.6,0.1,1.1,0.2,1.6
			c0.1,0.5,0.3,1,0.5,1.3c0.2,0.4,0.5,0.7,0.9,0.9c0.4,0.2,0.8,0.3,1.4,0.3c2,0,3-1.4,3-4.2c0-0.6-0.1-1.1-0.2-1.6
			c-0.1-0.5-0.3-1-0.5-1.3c-0.2-0.4-0.5-0.7-0.9-0.9c-0.4-0.2-0.8-0.3-1.4-0.3C116.1,26.2,115.1,27.6,115.1,30.4z"/>
	</g>
	<g>
		<path class="st3" d="M22.1,35.8v-6.2c0-0.6,0-1.1-0.1-1.5c-0.1-0.4-0.1-0.8-0.3-1.1c-0.1-0.3-0.4-0.5-0.6-0.7
			c-0.3-0.1-0.6-0.2-1.1-0.2c-0.7,0-1.2,0.2-1.7,0.6c-0.4,0.4-0.8,0.9-0.9,1.5v7.5h-1.7V24.9h1.2l0.3,1.3h0.1
			c0.4-0.5,0.8-0.8,1.4-1.1c0.5-0.3,1.2-0.4,2-0.4c0.7,0,1.3,0.1,1.7,0.4c0.4,0.3,0.8,0.7,1,1.4c0.3-0.6,0.8-1,1.4-1.3
			c0.6-0.3,1.3-0.5,2-0.5c0.6,0,1.1,0.1,1.6,0.2c0.4,0.1,0.8,0.4,1,0.7c0.3,0.3,0.5,0.8,0.6,1.4c0.1,0.6,0.2,1.4,0.2,2.3v6.6h-1.7
			v-6.6c0-0.5,0-1-0.1-1.4c-0.1-0.4-0.2-0.7-0.3-1c-0.2-0.3-0.4-0.4-0.6-0.6c-0.3-0.1-0.6-0.2-1.1-0.2c-0.7,0-1.3,0.2-1.7,0.6
			c-0.4,0.4-0.7,1-0.9,1.7v7.3H22.1z"/>
		<path class="st3" d="M31.9,30.4c0-1.8,0.4-3.3,1.2-4.2c0.8-1,2-1.5,3.6-1.5c0.8,0,1.5,0.1,2.1,0.4c0.6,0.3,1.1,0.7,1.5,1.2
			c0.4,0.5,0.7,1.1,0.9,1.8c0.2,0.7,0.3,1.5,0.3,2.3c0,1.9-0.4,3.3-1.2,4.3c-0.8,1-2,1.5-3.6,1.5c-0.8,0-1.5-0.1-2.1-0.4
			c-0.6-0.3-1.1-0.7-1.5-1.2c-0.4-0.5-0.7-1.1-0.9-1.8C32,32,31.9,31.2,31.9,30.4z M33.8,30.4c0,0.6,0.1,1.1,0.2,1.6
			c0.1,0.5,0.3,1,0.5,1.3c0.2,0.4,0.5,0.7,0.9,0.9c0.4,0.2,0.8,0.3,1.4,0.3c2,0,3-1.4,3-4.2c0-0.6-0.1-1.1-0.2-1.6
			c-0.1-0.5-0.3-1-0.5-1.3c-0.2-0.4-0.5-0.7-0.9-0.9c-0.4-0.2-0.8-0.3-1.4-0.3C34.8,26.2,33.8,27.6,33.8,30.4z"/>
	</g>
</g>
</svg>
