<svg xmlns="http://www.w3.org/2000/svg" viewBox="0 0 175 60"><path d="M59.5 25.6c.8-1 1.6-2.2 2.3-3.4.7-1.2 1.4-2.5 1.9-4 .6-1.5 1-3 1.5-4.8.4-1.7.7-3.7 1-5.8h10.9v18h2.5v3.3H58.2v-3.3h1.3zm9.9-14.7c-.2 1.6-.5 3.1-.8 4.4-.3 1.4-.7 2.6-1.2 3.8-.4 1.2-.9 2.3-1.5 3.3-.6 1.1-1.2 2.1-1.9 3.1v.1h9.2V10.9h-3.8zm17.3 14.7h10.4v3.3H82.9V7.6h13.7v3.3h-9.8v5.5h8.4v3.2h-8.4v6h-.1zm17.2-9.3h9.8V7.6h3.9v21.2h-3.9v-9.2h-9.8v9.2H100V7.6h3.9v8.7zm21.4-.5c.9-.1 1.8-.1 2.6-.1 1.6 0 3 .1 4.2.4 1.8.4 3.2 1.2 4.1 2.1.9 1 1.4 2.3 1.4 3.8 0 1.3-.4 2.5-1.1 3.5-.7 1-1.8 1.8-3.2 2.4-.8.3-1.7.5-2.7.7-1.1.1-2.3.2-3.8.2h-5.5V7.6h3.9v8.2h.1zm0 9.8h1.8c.7 0 1.3 0 1.9-.1.5-.1 1.1-.1 1.6-.3.9-.2 1.7-.6 2.2-1.1.5-.5.8-1.2.8-2.1 0-.7-.2-1.3-.7-1.8-.4-.5-1.1-.8-2-1-.4-.1-.9-.2-1.5-.2-.5 0-1.1-.1-1.8-.1-.9 0-1.7 0-2.4.1l.1 6.6zm15 3.2V7.6h14.3v3.3h-10.4v18h-3.9v-.1zm30.6-21.2h4.1v21.2h-3.9V19c0-1.2.1-3.2.2-5.9h-.1c-.7 1.3-2 3.2-3.8 5.7l-6.9 9.9h-4.1V7.6h3.9v9.8c0 1.6-.1 3.5-.2 5.9h.1c.7-1.1 1.9-3 3.7-5.6l7-10.1zM68.8 36.9c-1.1 0-2 .2-2.9.5-.9.4-1.7.9-2.3 1.5-.6.7-1.1 1.5-1.5 2.5-.4 1-.5 2.1-.5 3.4 0 1.3.2 2.3.5 3.3.3.9.8 1.7 1.4 2.4.6.6 1.4 1.1 2.2 1.4.9.3 1.9.5 3 .5.8 0 1.6-.1 2.4-.2.8-.1 1.6-.3 2.3-.5V55c-.7.2-1.5.4-2.4.5-.8.1-1.8.2-2.7.2-1.8 0-3.4-.2-4.7-.7-1.4-.5-2.5-1.3-3.4-2.2-.9-.9-1.6-2.1-2.1-3.4-.4-1.3-.7-2.7-.7-4.3 0-1.6.2-3.1.7-4.5.5-1.4 1.2-2.6 2.1-3.6.9-1 2.1-1.8 3.5-2.4 1.4-.6 3-.8 4.7-.9.9 0 1.8.1 2.6.2s1.5.3 2.2.5v3.3c-.8-.3-1.7-.4-2.4-.5-.6-.3-1.3-.3-2-.3zM82 47h-1c-.3 0-.6 0-.9-.1v8.3h-3.9V34h6.1c1 0 1.9 0 2.7.1.8.1 1.5.2 2.1.4 1.5.4 2.5 1.2 3.3 2.1.8 1 1.2 2.2 1.2 3.7 0 1-.2 1.9-.6 2.8-.4.8-1 1.5-1.8 2.1-.8.6-1.8 1-3 1.3-1.3.3-2.6.5-4.2.5zm-1.9-3.4c.2 0 .5 0 .8.1H82c1.1 0 1.9-.1 2.6-.3.7-.2 1.3-.4 1.7-.7.4-.3.7-.6.9-1.1.2-.4.3-.9.3-1.4 0-.6-.1-1.2-.4-1.6-.3-.5-.8-.8-1.5-1.1-.4-.1-.8-.2-1.4-.3-.5 0-1.2-.1-2-.1H80v6.5h.1zm23.9 6.2l2.1 5.4h4.1L101.8 34h-3.6l-8.4 21.2H94l2.1-5.4h7.9zm-4-10.7c.8 2.2 1.5 4.1 2 5.6l.7 1.9h-5.5l.7-1.9c.7-1.5 1.3-3.4 2.1-5.6zm11.6-4.1c2.1-.9 4.3-1.4 6.6-1.4 1.2 0 2.3.1 3.2.4 1 .3 1.7.7 2.4 1.2.6.5 1.2 1.1 1.5 1.9.3.7.5 1.6.5 2.5 0 .6-.1 1.1-.2 1.6s-.3.9-.6 1.3-.6.7-.9 1c-.4.3-.8.5-1.2.7v.1c1.1.3 2 .8 2.6 1.6.6.8 1 1.8 1 3 0 .9-.2 1.8-.5 2.6s-.9 1.5-1.6 2.1c-.7.6-1.7 1.1-2.8 1.5-1.1.3-2.5.5-4 .5-1.3 0-2.5-.1-3.6-.4-1.1-.3-2-.6-2.8-1v-3.3c1 .5 1.9.8 2.9 1.1.9.2 2 .4 3.2.4.8 0 1.6-.1 2.2-.3.6-.2 1.2-.4 1.6-.7.4-.3.8-.7 1-1.1.2-.4.3-.9.3-1.4 0-.4 0-.7-.2-1.1-.1-.3-.4-.6-.7-.9-.3-.3-.7-.5-1.2-.6-.5-.1-1.1-.2-1.9-.2h-3.6v-3.2h3.2c.7 0 1.3-.1 1.8-.2s.8-.3 1.2-.6c.3-.3.5-.6.6-1 .1-.4.2-.7.2-1.2 0-.9-.3-1.6-1-2.1s-1.7-.7-3.2-.7c-.9 0-1.9.1-2.9.3-1.1.2-2.1.6-3.1 1V35zm27.1 15.2c-.5 1-.9 1.8-1.5 2.5-.5.7-1.1 1.3-1.7 1.7-.6.4-1.3.7-2 .9-.7.2-1.6.3-2.4.3h-1.2c-.4 0-.8-.1-1.2-.2V52c.4.1.8.1 1.1.2.4 0 .7.1 1 .1.5 0 .9-.1 1.3-.2s.7-.3 1.1-.6c.3-.2.6-.6 1-1.1.3-.5.6-1 .9-1.8L127 34h4.3l6 10.8 5-10.8h4.2l-7.8 16.2z" fill-rule="evenodd" clip-rule="evenodd" fill="#015293"/><path fill-rule="evenodd" clip-rule="evenodd" fill="#78B943" d="M49.2 27.3l-7.9 8.9v15.5h-33v-27c0-9 7.5-16.4 16.6-16.4 2.6 0 5 .6 7.3 1.6h.1c2.1 1.1 4.1 2.7 5.6 4.5l.8-.6 4.9-5.5C41.3 6 38.8 4 35.8 2.5h-.1C32.5.9 28.8 0 24.9 0 11.3 0 0 11 0 24.7V60h49.6V27.3h-.4z"/><path fill="#015293" d="M26.2 37l22.5-25.7c.1-.1.1-.1.2 0 1 1.1.7 2.2-.2 3.2l-22.3 25c-.2.2-.4.2-.6.1l-12.4-7.1c-.9-.6-1.6-1.5-.7-2.9.1-.1.1-.1.2 0L26 37.2c.1 0 .2-.1.2-.2z"/><path fill="#015293" d="M26.2 32.6L48.8 6.9c.1-.1.1-.1.2 0 1 1.1.7 2.2-.2 3.2l-22.4 25c-.2.2-.4.2-.6.1L13.4 28c-.9-.6-1.6-1.5-.7-2.9.1-.1.1-.1.2 0L26 32.7c.1.1.2 0 .2-.1z"/><path fill="#015293" d="M26.2 41.5l22.5-25.7c.1-.1.1-.1.2 0 1 1.1.7 2.2-.2 3.2L26.4 43.9c-.2.2-.4.2-.6.1l-12.4-7.1c-.9-.6-1.6-1.5-.7-2.9.1-.1.1-.1.2 0L26 41.6c.1 0 .2-.1.2-.1z"/><path fill="#015293" d="M26.2 45.9l22.5-25.7c.1-.1.1-.1.2 0 1 1.1.7 2.2-.2 3.2L26.4 48.3c-.2.2-.4.2-.6.1l-12.4-7.1c-.9-.6-1.6-1.5-.7-2.9.1-.1.1-.1.2 0L26 46c.1 0 .2 0 .2-.1z"/></svg>