<svg width="218" height="30" viewBox="0 0 218 30" xmlns="http://www.w3.org/2000/svg"><title>0B7B091A-429C-4C30-865E-440164EF9190</title><g fill="none" fill-rule="evenodd"><path d="M0 29.884V.31h28.246v29.574z"/><path d="M2.976 25.814C.526 23.062-.402 19.534.157 15.233c.564-4.341 2.451-7.907 5.66-10.698C9.07 1.705 12.714.31 16.792.31c5.117 0 9.421 2.403 11.454 6.008L24.22 9.767c-1.93-2.907-4.552-4.341-7.86-4.341-2.655 0-5.046.93-7.134 2.79-2.05 1.86-3.276 4.187-3.643 7.017-.358 2.752.23 5.039 1.802 6.86 1.571 1.822 3.725 2.713 6.418 2.713 3.501 0 6.534-1.434 9.143-4.341l3.222 3.334c-3.123 3.604-8.062 6.085-13.294 6.085-4.116 0-7.44-1.357-9.897-4.07" fill="#000" mask="url(#mask-2)"/><path d="M45.743 14.38c-.993-1.24-2.374-1.86-4.183-1.86-1.808 0-3.35.62-4.665 1.86-1.277 1.24-2.051 2.752-2.282 4.535-.237 1.822.144 3.333 1.098 4.574.993 1.24 2.375 1.86 4.183 1.86 1.808 0 3.35-.62 4.666-1.86 1.315-1.241 2.088-2.752 2.325-4.574.232-1.783-.15-3.294-1.142-4.535zm2.39-5.97h4.772L50.17 29.459H45.4l.337-2.597c-2.075 2.054-4.481 3.1-7.212 3.1-3.001 0-5.327-1.046-7.012-3.178-1.685-2.132-2.3-4.806-1.892-7.945.408-3.14 1.712-5.776 3.94-7.83 2.23-2.054 4.867-3.101 7.829-3.101 2.655 0 4.788 1.047 6.397 3.179l.347-2.675zM54.837 25.814l3.25-3.101c1.143 1.86 3.19 2.985 5.23 2.985 1.807 0 3.203-.97 3.364-2.21.105-.814-.343-1.511-1.316-2.015-.32-.194-1.122-.543-2.403-1.047-1.243-.503-2.077-.891-2.509-1.123-2.195-1.163-3.118-2.946-2.805-5.35.236-1.821 1.125-3.333 2.661-4.495 1.536-1.163 3.458-1.745 5.728-1.745 2.962 0 5.212 1.047 6.753 3.1l-3.034 3.218c-1.16-1.434-2.642-2.17-4.412-2.17-1.577 0-2.649.852-2.795 1.976-.12.93.403 1.628 1.541 2.054 2.845 1.202 4.447 1.9 4.768 2.094 2.18 1.278 3.141 3.062 2.844 5.348-.247 1.9-1.184 3.489-2.85 4.768C67.184 29.38 65.141 30 62.718 30c-3.386 0-6.277-1.434-7.882-4.186M75.523 29.457L79.35 0h4.886l-1.445 11.124c1.44-1.9 4.078-3.256 7.04-3.256 2.27 0 4.054.775 5.435 2.287 1.381 1.511 1.912 3.643 1.545 6.473l-1.667 12.83h-5l1.49-11.474c.457-3.527-1.094-5.504-3.864-5.504-2.963 0-5.337 2.287-5.765 5.581l-1.48 11.396h-5.002z" fill="#000"/><path fill="#05C632" d="M116.254 13.463l-.021.021 3.116 3.55zM119.484 17.192l-2.117 1.88 2.133-1.864z"/><path fill="#05C632" d="M119.484 17.192l-2.117 1.88-8.798 7.811-3.236-3.735 7.135-6.33-5.677-6.467 3.78-3.313 5.662 6.446 3.115 3.55z"/><path d="M127.645 27.21c-1.798-1.86-2.488-4.536-2.035-8.024L127.997.813h5.27l-2.326 17.907c-.519 3.993 1.326 6.086 4.826 6.086 3.424 0 5.9-2.17 6.408-6.086L144.501.813h5.31l-2.388 18.373c-.453 3.488-1.839 6.163-4.12 8.023-2.275 1.822-5.012 2.752-8.206 2.752-3.154 0-5.65-.93-7.452-2.752" fill="#000"/><path d="M164.566 17.445c-.116.654-.716 1.167-1.347 1.167-.684 0-1.085-.513-.969-1.167a1.402 1.402 0 0 1 1.38-1.148c.63 0 1.051.494.936 1.148zm-4.072 12.001l1.674-9.456h1.561l-1.674 9.456h-1.56zm-4.349-10.11c.388-2.19 1.858-3.464 3.752-3.464.738 0 1.391.177 1.98.512l-.755 1.29c-.47-.21-.909-.317-1.312-.317-1.175 0-1.873.672-2.11 2.014l-.11.62h3l-.24 1.36h-3l-1.434 8.095h-1.56l1.432-8.095h-1.649l.241-1.36h1.65l.115-.655zM164.722 29.446l1.674-9.456h1.526l-.237 1.343c.784-1.06 1.877-1.59 3.263-1.59 1.052 0 1.87.336 2.467 1.025.597.69.776 1.661.548 2.951l-1.014 5.727h-1.561l.932-5.267c.338-1.909-.474-2.969-1.93-2.969-.79 0-1.471.282-2.06.83-.587.548-.961 1.273-1.115 2.14l-.932 5.266h-1.561zM183.417 22.235c-.493-.69-1.222-1.025-2.204-1.025-.983 0-1.832.336-2.567 1.025a4.38 4.38 0 0 0-1.337 2.492c-.172.973-.02 1.803.453 2.492.495.672 1.226 1.008 2.208 1.008.982 0 1.83-.336 2.564-1.008a4.41 4.41 0 0 0 1.375-2.51c.172-.972.002-1.802-.492-2.474zm1.203-2.245h1.508l-1.673 9.456h-1.509l.242-1.36c-1.048 1.06-2.246 1.59-3.633 1.59-1.35 0-2.388-.477-3.115-1.432-.721-.971-.95-2.156-.697-3.588.25-1.413.895-2.58 1.953-3.5 1.06-.936 2.264-1.395 3.614-1.395 1.369 0 2.394.548 3.064 1.626l.246-1.397zM187.12 29.446l1.674-9.456h1.526l-.237 1.343c.784-1.06 1.877-1.59 3.263-1.59 1.052 0 1.87.336 2.467 1.025.597.69.776 1.661.548 2.951l-1.014 5.727h-1.56l.931-5.267c.338-1.909-.474-2.969-1.93-2.969-.79 0-1.47.282-2.059.83-.588.548-.962 1.273-1.115 2.14l-.933 5.266h-1.56zM198.886 28.28c-.764-.937-1.01-2.121-.757-3.552.257-1.45.94-2.634 2.035-3.57 1.113-.938 2.405-1.397 3.879-1.397 1.842 0 3.353.972 3.81 2.457l-1.433.76c-.458-1.078-1.424-1.767-2.634-1.767-1 0-1.883.335-2.651 1.007a4.217 4.217 0 0 0-1.427 2.51c-.176.99-.007 1.82.506 2.49.533.655 1.281.992 2.245.992.597 0 1.204-.16 1.825-.496.62-.335 1.113-.742 1.464-1.237l1.163.76c-1.025 1.432-2.884 2.422-4.709 2.422-1.455 0-2.549-.46-3.316-1.38" fill="#05C632"/><g fill="#05C632"><path d="M210.42 23.967h5.928c.212-1.697-.807-2.775-2.368-2.775-1.614 0-3.007 1.132-3.56 2.775m7.274 1.414h-7.525c-.028 1.644.836 2.81 2.87 2.81 1.123 0 2.5-.442 3.506-1.078l.451 1.22c-1.04.724-2.69 1.326-4.252 1.326-3.526 0-4.54-2.493-4.102-4.967.253-1.432.898-2.598 1.941-3.535 1.043-.937 2.265-1.397 3.651-1.397 1.315 0 2.327.425 3.016 1.29.69.867.903 2.033.643 3.5-.022.124-.089.407-.199.83"/></g></g></svg>