<svg id="SvgjsSvg1014" xmlns="http://www.w3.org/2000/svg" version="1.1" xmlns:xlink="http://www.w3.org/1999/xlink" xmlns:svgjs="http://svgjs.com/svgjs" width="16" height="8" viewBox="0 0 16 8"><title>Open Icon copy 13</title><desc>Created with Avocode.</desc><defs id="SvgjsDefs1015"></defs><path id="SvgjsPath1016" d="M902.014 1211.62C901.73466 1211.88808 901.36189 1212.01243 900.99573 1211.9930399999998C900.62918 1212.0124299999998 900.2558799999999 1211.88808 899.976 1211.62C899.84439 1211.4964599999998 899.74596 1211.3525699999998 899.68072 1211.1986L894.3789999999999 1206.1699999999998C893.8559999999999 1205.6799999999998 893.8559999999999 1204.8799999999999 894.3789999999999 1204.3799999999999C894.901 1203.8799999999999 895.7479999999999 1203.8799999999999 896.2689999999999 1204.3799999999999L900.9950899999999 1208.86341L905.7219999999999 1204.3799999999999C906.2449999999999 1203.8799999999999 907.0909999999999 1203.8799999999999 907.6119999999999 1204.3799999999999C908.1349999999999 1204.87 908.1349999999999 1205.6799999999998 907.6119999999999 1206.1699999999998L902.3079799999998 1211.20166C902.2427299999998 1211.35448 902.1447399999998 1211.49728 902.0139999999998 1211.62Z " fill="#bfa97d" fill-opacity="1" transform="matrix(1,0,0,1,-893,-1204)"></path></svg>