<svg id="SvgjsSvg1000" xmlns="http://www.w3.org/2000/svg" version="1.1" xmlns:xlink="http://www.w3.org/1999/xlink" xmlns:svgjs="http://svgjs.com/svgjs" width="6" height="9"><defs id="SvgjsDefs1001"></defs><path id="SvgjsPath1007" d="M1225.75 433.432C1225.91611 433.59061 1225.99321 433.80291 1225.9813 434.01168C1225.9932099999999 434.22052 1225.91611 434.43332000000004 1225.75 434.593C1225.67297 434.66704000000004 1225.58422 434.72269 1225.48956 434.75994000000003L1222.35 437.785C1222.04 438.083 1221.54 438.083 1221.23 437.785C1220.92 437.487 1220.92 437.004 1221.23 436.70700000000005L1224.02646 434.01335000000006L1221.22 431.31800000000004C1220.92 431.01900000000006 1220.92 430.53700000000003 1221.22 430.23900000000003C1221.53 429.94100000000003 1222.04 429.94100000000003 1222.3500000000001 430.23900000000003L1225.49132 433.26576000000006C1225.5853200000001 433.30300000000005 1225.67345 433.3584200000001 1225.75 433.4320000000001Z " fill="#ffffff" transform="matrix(1,0,0,1,-1220,-430)"></path></svg>