<svg id="SvgjsSvg1018" xmlns="http://www.w3.org/2000/svg" version="1.1" xmlns:xlink="http://www.w3.org/1999/xlink" xmlns:svgjs="http://svgjs.com/svgjs" width="6" height="9"><defs id="SvgjsDefs1019"></defs><path id="SvgjsPath1020" d="M905.752 1184.43C905.91981 1184.5924 905.99678 1184.80755 905.98291 1185.01833C905.99276 1185.22636 905.9157899999999 1185.4362800000001 905.752 1185.5900000000001C905.6759999999999 1185.6635500000002 905.58853 1185.7190600000001 905.4952 1185.75655L902.346 1188.78C902.037 1189.08 901.535 1189.08 901.225 1188.78C900.916 1188.49 900.916 1188 901.225 1187.71L904.0282100000001 1185.01128L901.225 1182.32C900.916 1182.02 900.916 1181.54 901.225 1181.24C901.535 1180.94 902.0360000000001 1180.94 902.346 1181.24L905.49489 1184.26315C905.58843 1184.30064 905.67605 1184.35626 905.7520000000001 1184.43Z " fill="#2dbe4c" transform="matrix(1,0,0,1,-900,-1181)"></path></svg>