<?xml version="1.0" encoding="utf-8"?>
<!-- Generator: Adobe Illustrator 17.0.1, SVG Export Plug-In . SVG Version: 6.00 Build 0)  -->
<!DOCTYPE svg PUBLIC "-//W3C//DTD SVG 1.1//EN" "http://www.w3.org/Graphics/SVG/1.1/DTD/svg11.dtd">
<svg version="1.1" id="SvgjsSvg1014" xmlns:svgjs="http://svgjs.com/svgjs"
	 xmlns="http://www.w3.org/2000/svg" xmlns:xlink="http://www.w3.org/1999/xlink" x="0px" y="0px" width="16px" height="8px"
	 viewBox="0 0 16 8" enable-background="new 0 0 16 8" xml:space="preserve">
<title>Open Icon copy 13</title>
<desc>Created with Avocode.</desc>
<path id="SvgjsPath1016" fill="#BFA97D" d="M9.308,0.798l5.304,5.032c0.523,0.49,0.523,1.3,0,1.79c-0.521,0.5-1.367,0.5-1.89,0
	L7.995,3.137L3.269,7.62c-0.521,0.5-1.368,0.5-1.89,0c-0.523-0.5-0.523-1.3,0-1.79l5.302-5.029C6.746,0.647,6.844,0.504,6.976,0.38
	c0.28-0.268,0.653-0.392,1.02-0.373C8.362-0.012,8.735,0.112,9.014,0.38C9.145,0.503,9.243,0.646,9.308,0.798z"/>
</svg>
