<svg id="SvgjsSvg1000" xmlns="http://www.w3.org/2000/svg" version="1.1" xmlns:xlink="http://www.w3.org/1999/xlink" xmlns:svgjs="http://svgjs.com/svgjs" width="10" height="10"><defs id="SvgjsDefs1001"></defs><path id="SvgjsPath1007" d="M339.615 366.244C339.95 366.57800000000003 339.95 367.12 339.615 367.45500000000004L336.57575 370.48300000000006L339.61400000000003 373.51000000000005C339.95000000000005 373.84400000000005 339.95000000000005 374.38700000000006 339.61400000000003 374.72100000000006C339.27900000000005 375.05500000000006 338.73400000000004 375.05500000000006 338.39900000000006 374.72100000000006L335.36050000000006 371.6937500000001L332.32200000000006 374.72100000000006C331.98600000000005 375.05500000000006 331.44200000000006 375.05500000000006 331.10600000000005 374.72100000000006C330.77000000000004 374.38700000000006 330.77000000000004 373.84400000000005 331.10600000000005 373.51000000000005L334.14475000000004 370.4825000000001L331.10600000000005 367.4550000000001C330.77000000000004 367.1200000000001 330.77000000000004 366.5780000000001 331.10600000000005 366.2440000000001C331.44100000000003 365.9090000000001 331.98600000000005 365.9090000000001 332.321 366.2440000000001L335.36 369.2717500000001L338.399 366.2440000000001C338.735 365.9090000000001 339.279 365.9090000000001 339.615 366.2440000000001Z " fill="#15bc54" transform="matrix(1,0,0,1,-330,-365)"></path><path id="SvgjsPath1008" d="M339.615 366.244C339.95 366.57800000000003 339.95 367.12 339.615 367.45500000000004L336.57575 370.48300000000006L339.61400000000003 373.51000000000005C339.95000000000005 373.84400000000005 339.95000000000005 374.38700000000006 339.61400000000003 374.72100000000006C339.27900000000005 375.05500000000006 338.73400000000004 375.05500000000006 338.39900000000006 374.72100000000006L335.36050000000006 371.6937500000001L332.32200000000006 374.72100000000006C331.98600000000005 375.05500000000006 331.44200000000006 375.05500000000006 331.10600000000005 374.72100000000006C330.77000000000004 374.38700000000006 330.77000000000004 373.84400000000005 331.10600000000005 373.51000000000005L334.14475000000004 370.4825000000001L331.10600000000005 367.4550000000001C330.77000000000004 367.1200000000001 330.77000000000004 366.5780000000001 331.10600000000005 366.2440000000001C331.44100000000003 365.9090000000001 331.98600000000005 365.9090000000001 332.321 366.2440000000001L335.36 369.2717500000001L338.399 366.2440000000001C338.735 365.9090000000001 339.279 365.9090000000001 339.615 366.2440000000001Z " fill="#15bc54" fill-opacity="1" transform="matrix(1,0,0,1,-330,-365)"></path></svg>