<svg id="Layer_1" data-name="Layer 1" xmlns="http://www.w3.org/2000/svg" viewBox="0 0 23 21"><defs><style>.cls-1{fill:#fff;}</style></defs><title>v</title><path class="cls-1" d="M16.45,2.5a3.94,3.94,0,0,1,4.05,4c0,3-3.29,6-8.27,10.6l-.55.5-.18.17-.22-.2C5.67,12.65,2.5,9.7,2.5,6.51a3.94,3.94,0,0,1,4.05-4A4.64,4.64,0,0,1,10,4.09L11.5,5.88,13,4.09A4.64,4.64,0,0,1,16.45,2.5m0-2A6.63,6.63,0,0,0,11.5,2.79,6.63,6.63,0,0,0,6.55.5a5.94,5.94,0,0,0-6,6c0,4.15,3.74,7.54,9.46,12.57L11.5,20.5,13,19.08c5.61-5.14,9.46-8.53,9.46-12.57a5.94,5.94,0,0,0-6.05-6Z"/></svg>