<svg id="SvgjsSvg1000" xmlns="http://www.w3.org/2000/svg" version="1.1" xmlns:xlink="http://www.w3.org/1999/xlink" xmlns:svgjs="http://svgjs.com/svgjs" width="63" height="29" viewBox="0 0 63 29"><title>Shape 5 copy 4</title><desc>Created with Avocode.</desc><defs id="SvgjsDefs1001"></defs><path id="SvgjsPath1007" d="M157 2667L166 2677L166 2661Z " fill="#96526f" fill-opacity="1" transform="matrix(1,0,0,1,-157,-2648)"></path><path id="SvgjsPath1008" d="M157 2667L166 2677L166 2661Z " fill="#ab497c" fill-opacity="1" transform="matrix(1,0,0,1,-157,-2648)"></path><path id="SvgjsPath1009" d="M157 2648L217 2648C218.657 2648 220 2649.34 220 2651L220 2665C220 2666.66 218.657 2668 217 2668L157 2668Z " fill="#f39fc3" fill-opacity="1" transform="matrix(1,0,0,1,-157,-2648)"></path><path id="SvgjsPath1010" d="M157 2648L217 2648C218.657 2648 220 2649.34 220 2651L220 2665C220 2666.66 218.657 2668 217 2668L157 2668Z " fill="#c95491" fill-opacity="1" transform="matrix(1,0,0,1,-157,-2648)"></path></svg>