<svg id="SvgjsSvg1009" xmlns="http://www.w3.org/2000/svg" version="1.1" xmlns:xlink="http://www.w3.org/1999/xlink" xmlns:svgjs="http://svgjs.com/svgjs" width="90" height="36"><defs id="SvgjsDefs1010"></defs><path id="SvgjsPath1011" d="M50 4245L60 4255L60 4239Z " fill="#bf7695" transform="matrix(1,0,0,1,-50,-4219)"></path><path id="SvgjsPath1012" d="M50 4245L60 4255L60 4239Z " fill="#ab497c" fill-opacity="1" transform="matrix(1,0,0,1,-50,-4219)"></path><path id="SvgjsPath1013" d="M50 4219L137 4219C138.657 4219 140 4220.34 140 4222L140 4242C140 4243.66 138.657 4245 137 4245L50 4245Z " fill="#f39fc3" transform="matrix(1,0,0,1,-50,-4219)"></path><path id="SvgjsPath1014" d="M50 4219L137 4219C138.657 4219 140 4220.34 140 4222L140 4242C140 4243.66 138.657 4245 137 4245L50 4245Z " fill="#c95491" fill-opacity="1" transform="matrix(1,0,0,1,-50,-4219)"></path></svg>