<svg id="SvgjsSvg1000" xmlns="http://www.w3.org/2000/svg" version="1.1" xmlns:xlink="http://www.w3.org/1999/xlink" xmlns:svgjs="http://svgjs.com/svgjs" width="20" height="14"><defs id="SvgjsDefs1001"></defs><path id="SvgjsPath1007" d="M492.084 2482.99L487.721 2482.99L484.072 2488.29C483.401 2489.2599999999998 482.939 2490.35 482.939 2491.65C482.939 2494.4300000000003 484.95300000000003 2495.9 487.218 2495.9C489.735 2495.9 491.53900000000004 2494.13 491.53900000000004 2491.61C491.53900000000004 2490.31 491.035 2489.09 489.903 2488.33ZM499.048 2488.33C500.181 2489.09 500.684 2490.31 500.684 2491.61C500.684 2494.13 498.88000000000005 2495.9 496.363 2495.9C494.098 2495.9 492.084 2494.4300000000003 492.084 2491.65C492.084 2490.35 492.546 2489.26 493.217 2488.29L496.86699999999996 2482.99L501.229 2482.99Z " fill="#515461" transform="matrix(1,0,0,1,-482,-2482)"></path><path id="SvgjsPath1008" d="M492.084 2482.99L487.721 2482.99L484.072 2488.29C483.401 2489.2599999999998 482.939 2490.35 482.939 2491.65C482.939 2494.4300000000003 484.95300000000003 2495.9 487.218 2495.9C489.735 2495.9 491.53900000000004 2494.13 491.53900000000004 2491.61C491.53900000000004 2490.31 491.035 2489.09 489.903 2488.33ZM499.048 2488.33C500.181 2489.09 500.684 2490.31 500.684 2491.61C500.684 2494.13 498.88000000000005 2495.9 496.363 2495.9C494.098 2495.9 492.084 2494.4300000000003 492.084 2491.65C492.084 2490.35 492.546 2489.26 493.217 2488.29L496.86699999999996 2482.99L501.229 2482.99Z " fill="#2dbe4c" fill-opacity="1" transform="matrix(1,0,0,1,-482,-2482)"></path></svg>