<svg width="27" height="27" viewBox="0 0 27 27" fill="none" xmlns="http://www.w3.org/2000/svg">
<path fill-rule="evenodd" clip-rule="evenodd" d="M19.6767 6.91885C20.2215 7.46363 20.2215 8.34691 19.6767 8.8917L9.44653 19.1218C8.90174 19.6666 8.01846 19.6666 7.47367 19.1218C6.92889 18.5771 6.92889 17.6938 7.47367 17.149L17.7038 6.91885C18.2486 6.37406 19.1319 6.37406 19.6767 6.91885Z" fill="white"/>
<path fill-rule="evenodd" clip-rule="evenodd" d="M19.6763 19.1217C19.1315 19.6665 18.2482 19.6665 17.7035 19.1217L7.47331 8.89154C6.92852 8.34675 6.92852 7.46347 7.47331 6.91868C8.0181 6.37389 8.90137 6.37389 9.44616 6.91868L19.6763 17.1488C20.2211 17.6936 20.2211 18.5769 19.6763 19.1217Z" fill="white"/>
</svg>
