<svg width="19" height="21" viewBox="0 0 19 21" fill="none" xmlns="http://www.w3.org/2000/svg">
<path d="M9.4597 0C6.30344 0.115048 3.89812 1.15454 2.31152 2.75233C0.722097 4.35298 -0.030383 6.48758 0.000938291 8.7494C0.0630673 13.2609 3.22574 18.302 9.2271 20.9376C9.42119 21.0216 9.61117 21.02 9.7647 20.9376C15.7689 18.3027 18.9364 13.2623 18.9991 8.7494C19.0304 6.48758 18.2697 4.35298 16.6805 2.75233C15.1075 1.16839 12.7287 0.137247 9.61194 0.00739938C9.557 0.00739938 9.50925 0.0023869 9.4597 0ZM3.98028 7.61563C5.50218 7.6278 6.70702 8.00422 7.53421 8.78688C8.59323 9.78842 8.92595 11.3478 8.70568 13.322C8.62866 13.5447 8.52776 13.7036 8.24844 13.7471C6.12065 13.9509 4.44316 13.6394 3.36258 12.6579C2.28174 11.6765 1.91564 10.1212 2.1752 8.10805C2.1888 8.00278 2.24683 7.89943 2.32744 7.82448C2.40831 7.74953 2.511 7.70275 2.62448 7.69034C3.09917 7.63783 3.5541 7.61229 3.98028 7.61563ZM14.9794 7.61563C15.4059 7.61229 15.8526 7.63759 16.3273 7.69034C16.4407 7.70299 16.5517 7.74953 16.6323 7.82448C16.7126 7.89943 16.7632 8.00278 16.7768 8.10805C17.0358 10.1212 16.678 11.6765 15.5974 12.6579C14.5168 13.6397 12.8403 13.9509 10.7115 13.7471C10.4717 13.6755 10.3008 13.5817 10.254 13.322C10.0343 11.3478 10.3665 9.78842 11.4255 8.78688C12.2527 8.00422 13.4575 7.6278 14.9794 7.61563ZM8.16012 16.4622C8.17604 16.4612 8.19221 16.4612 8.20813 16.4622H10.7757C11.0591 16.4612 11.2894 16.6749 11.2902 16.9381C11.2907 17.2019 11.0614 17.416 10.7778 17.4169H10.7757H8.20813C7.9247 17.4294 7.68414 17.2253 7.67079 16.9618C7.65744 16.6982 7.87669 16.4746 8.16012 16.4622Z" fill="#A6C2C9"/>
</svg>
