<svg width="47" height="33" viewBox="0 0 47 33" fill="none" xmlns="http://www.w3.org/2000/svg">
<path d="M13.9961 27.0039C14.5299 27.5378 15.2005 27.8047 16.0078 27.8047C16.8021 27.8047 17.4661 27.5378 18 27.0039C18.5339 26.4701 18.8008 25.806 18.8008 25.0117C18.8008 24.2044 18.5339 23.5339 18 23C17.4661 22.4661 16.8021 22.1992 16.0078 22.1992C15.2005 22.1992 14.5299 22.4661 13.9961 23C13.4622 23.5339 13.1953 24.2044 13.1953 25.0117C13.1953 25.806 13.4622 26.4701 13.9961 27.0039ZM38 28L9.99219 10.4023V5.40234L38 23V28ZM11.3984 20.207C12.7266 18.8659 14.263 18.1953 16.0078 18.1953C17.7396 18.1953 19.276 18.8659 20.6172 20.207C21.9453 21.5352 22.6094 23.1367 22.6094 25.0117C22.6094 26.8737 21.9453 28.4753 20.6172 29.8164C19.276 31.1445 17.7396 31.8086 16.0078 31.8086C14.263 31.8086 12.7266 31.1445 11.3984 29.8164C10.0703 28.4753 9.40625 26.8737 9.40625 25.0117C9.40625 23.1367 10.0703 21.5352 11.3984 20.207ZM33.9961 6.39844C33.4622 5.86458 32.7982 5.59766 32.0039 5.59766C31.1966 5.59766 30.526 5.86458 29.9922 6.39844C29.4583 6.93229 29.1914 7.60286 29.1914 8.41016C29.1914 9.20443 29.4583 9.86849 29.9922 10.4023C30.526 10.9362 31.1966 11.2031 32.0039 11.2031C32.7982 11.2031 33.4622 10.9362 33.9961 10.4023C34.5299 9.86849 34.7969 9.20443 34.7969 8.41016C34.7969 7.60286 34.5299 6.93229 33.9961 6.39844ZM36.6133 13.2148C35.2721 14.543 33.7357 15.207 32.0039 15.207C30.2721 15.207 28.7422 14.543 27.4141 13.2148C26.0729 11.8737 25.4023 10.2721 25.4023 8.41016C25.4023 6.53516 26.0729 4.93359 27.4141 3.60547C28.7422 2.26432 30.2721 1.59375 32.0039 1.59375C33.7357 1.59375 35.2721 2.26432 36.6133 3.60547C37.9414 4.93359 38.6055 6.53516 38.6055 8.41016C38.6055 10.2721 37.9414 11.8737 36.6133 13.2148Z" fill="white"/>
</svg>
