<svg xmlns="http://www.w3.org/2000/svg" xmlns:xlink="http://www.w3.org/1999/xlink" data-name="b97c2cff-e594-4cf2-b96e-16d8839ceb04" viewBox="0 0 1748.23 803.15">
  <defs>
    <linearGradient id="a" x1="1162.49" x2="1202.99" y1="371.08" y2="343.78" gradientTransform="translate(0 120.8)" gradientUnits="userSpaceOnUse">
      <stop offset="0" stop-color="#fff"/>
      <stop offset="1" stop-color="#fff" stop-opacity="0"/>
    </linearGradient>
    <linearGradient id="n" x1="1248.4" x2="1189.9" y1="368.93" y2="340.5" xlink:href="#a"/>
    <linearGradient id="h" x1="948.6" x2="777.56" y1="648.75" y2="17.48" gradientTransform="translate(0 120.8)" gradientUnits="userSpaceOnUse">
      <stop offset=".02" stop-color="#31344d"/>
      <stop offset=".18" stop-color="#31344d"/>
      <stop offset=".5" stop-color="#14162f"/>
      <stop offset=".78" stop-color="#14162f"/>
      <stop offset=".98" stop-color="#14162f"/>
    </linearGradient>
    <linearGradient id="b" x1="948.6" x2="777.56" y1="648.75" y2="17.48" gradientTransform="translate(0 120.8)" gradientUnits="userSpaceOnUse">
      <stop offset="0" stop-color="#35374d"/>
      <stop offset=".18" stop-color="#35374d"/>
      <stop offset=".5" stop-color="#1b1c32"/>
      <stop offset=".78" stop-color="#1b1c32"/>
      <stop offset=".98" stop-color="#1b1c32"/>
    </linearGradient>
    <linearGradient id="o" x1="1097.51" x2="1221.83" y1="315.75" y2="315.75" gradientTransform="matrix(1 0 0 -1 0 804.95)" xlink:href="#b"/>
    <linearGradient id="p" x1="1205.53" x2="1309.83" y1="315.75" y2="315.75" gradientTransform="matrix(1 0 0 -1 0 804.95)" xlink:href="#b"/>
    <linearGradient id="c" x1="1219.03" x2="1162.9" y1="392.35" y2="198.29" gradientTransform="translate(0 120.8)" gradientUnits="userSpaceOnUse">
      <stop offset=".02" stop-color="#2c314d"/>
      <stop offset=".12" stop-color="#2c314d"/>
      <stop offset=".48" stop-color="#0b0e2c"/>
      <stop offset=".78" stop-color="#0b0e2c"/>
      <stop offset=".98" stop-color="#0b0e2c"/>
    </linearGradient>
    <linearGradient id="q" x1="1205.32" x2="1301.32" y1="328.9" y2="328.9" gradientTransform="matrix(1 0 0 -1 0 804.95)" xlink:href="#b"/>
    <linearGradient id="r" x1="1217.77" x2="1166.14" y1="377.17" y2="198.64" xlink:href="#c"/>
    <linearGradient id="d" x1="1244.06" x2="1127.44" y1="344.75" y2="344.75" gradientTransform="translate(0 120.8)" gradientUnits="userSpaceOnUse">
      <stop offset=".02" stop-color="#2c314d"/>
      <stop offset=".24" stop-color="#2c314d"/>
      <stop offset=".52" stop-color="#0b0e2c"/>
      <stop offset=".77" stop-color="#0b0e2c"/>
      <stop offset=".98" stop-color="#0b0e2c"/>
    </linearGradient>
    <linearGradient id="s" x1="1260.31" x2="1044.09" y1="343.8" y2="343.8" xlink:href="#c"/>
    <linearGradient id="f" x1="1211.81" x2="1188.81" y1="349.4" y2="271.56" gradientTransform="translate(0 120.8)" gradientUnits="userSpaceOnUse">
      <stop offset=".07" stop-color="#2c314d"/>
      <stop offset=".29" stop-color="#2c314d"/>
      <stop offset=".68" stop-color="#0b0e2c"/>
      <stop offset="1" stop-color="#0b0e2c"/>
    </linearGradient>
    <linearGradient id="t" x1="465.01" x2="684.73" y1="304.8" y2="304.8" gradientTransform="matrix(1 0 0 -1 0 804.95)" gradientUnits="userSpaceOnUse">
      <stop offset=".02" stop-color="#14152b"/>
      <stop offset=".23" stop-color="#14162f"/>
      <stop offset=".5" stop-color="#14162f"/>
      <stop offset=".82" stop-color="#31344d"/>
      <stop offset="1" stop-color="#31344d"/>
    </linearGradient>
    <linearGradient id="u" x1="590.59" x2="532.52" y1="404.2" y2="203.38" gradientTransform="translate(0 120.8)" gradientUnits="userSpaceOnUse">
      <stop offset="0" stop-color="#31344d"/>
      <stop offset=".12" stop-color="#31344d"/>
      <stop offset=".48" stop-color="#14162f"/>
      <stop offset=".78" stop-color="#14162f"/>
      <stop offset=".98" stop-color="#14162f"/>
    </linearGradient>
    <linearGradient id="v" x1="620.24" x2="489.04" y1="347.7" y2="347.7" xlink:href="#d"/>
    <linearGradient id="e" x1="526.88" x2="580.93" y1="362.25" y2="305.24" gradientTransform="translate(0 120.8)" gradientUnits="userSpaceOnUse">
      <stop offset="0" stop-color="#fff" stop-opacity="0"/>
      <stop offset="1" stop-color="#fff"/>
    </linearGradient>
    <linearGradient id="w" x1="638.53" x2="395.3" y1="346.65" y2="346.65" xlink:href="#c"/>
    <linearGradient id="x" x1="612.94" x2="570.54" y1="350.73" y2="305.37" xlink:href="#e"/>
    <linearGradient id="y" x1="583.97" x2="558.11" y1="332.93" y2="245.37" xlink:href="#f"/>
    <linearGradient id="z" x1="527.19" x2="570.15" y1="290.88" y2="255.06" xlink:href="#a"/>
    <linearGradient id="A" x1="628.02" x2="566.02" y1="288.13" y2="250.99" xlink:href="#a"/>
    <linearGradient id="B" x1="806.55" x2="775.62" y1="429.58" y2="314.5" gradientTransform="translate(0 120.8)" gradientUnits="userSpaceOnUse">
      <stop offset="0" stop-color="#fff" stop-opacity=".1"/>
      <stop offset="1" stop-color="#fff" stop-opacity="0"/>
    </linearGradient>
    <linearGradient id="C" x1="736.92" x2="924.52" y1="232.5" y2="232.5" gradientTransform="matrix(1 0 0 -1 0 804.95)" xlink:href="#b"/>
    <linearGradient id="g" x1="918.15" x2="842.34" y1="490.37" y2="210.56" gradientTransform="translate(0 120.8)" gradientUnits="userSpaceOnUse">
      <stop offset=".02" stop-color="#31344d"/>
      <stop offset=".12" stop-color="#31344d"/>
      <stop offset=".48" stop-color="#14162f"/>
      <stop offset=".78" stop-color="#14162f"/>
      <stop offset=".98" stop-color="#14162f"/>
    </linearGradient>
    <linearGradient id="D" x1="915.32" x2="850.4" y1="461.32" y2="221.62" xlink:href="#g"/>
    <linearGradient id="E" x1="912.31" x2="858.06" y1="430.12" y2="229.9" xlink:href="#g"/>
    <linearGradient id="k" x1="959.61" x2="795.23" y1="309.15" y2="309.15" gradientTransform="translate(0 120.8)" gradientUnits="userSpaceOnUse">
      <stop offset=".02" stop-color="#31344d"/>
      <stop offset=".24" stop-color="#31344d"/>
      <stop offset=".52" stop-color="#14162f"/>
      <stop offset=".77" stop-color="#14162f"/>
      <stop offset=".98" stop-color="#14162f"/>
    </linearGradient>
    <linearGradient id="F" x1="982.53" x2="677.78" y1="307.8" y2="307.8" xlink:href="#g"/>
    <linearGradient id="G" x1="854.84" x2="713.62" y1="305.24" y2="198.08" xlink:href="#e"/>
    <linearGradient id="H" x1="942.45" x2="865.7" y1="305.4" y2="248.19" xlink:href="#e"/>
    <linearGradient id="l" x1="914.14" x2="881.75" y1="265.76" y2="156.05" gradientTransform="translate(0 120.8)" gradientUnits="userSpaceOnUse">
      <stop offset=".07" stop-color="#31344d"/>
      <stop offset=".29" stop-color="#31344d"/>
      <stop offset=".68" stop-color="#14162f"/>
      <stop offset="1" stop-color="#14162f"/>
    </linearGradient>
    <linearGradient id="I" x1="833.93" x2="903.01" y1="201.82" y2="155.62" xlink:href="#a"/>
    <linearGradient id="J" x1="979.93" x2="880.17" y1="198.11" y2="150.1" xlink:href="#a"/>
    <linearGradient id="K" x1="908.59" x2="869.23" y1="609.34" y2="464.14" xlink:href="#h"/>
    <linearGradient id="L" x1="848.03" x2="899.32" y1="556.52" y2="522.28" xlink:href="#a"/>
    <linearGradient id="M" x1="956.47" x2="882.36" y1="553.84" y2="518.12" xlink:href="#a"/>
    <linearGradient id="N" x1="1137.32" x2="1488.12" y1="404.56" y2="404.56" gradientTransform="matrix(1 0 0 -1 0 804.95)" xlink:href="#b"/>
    <linearGradient id="O" x1="1483.96" x2="1377.31" y1="355.26" y2="-29.28" gradientTransform="translate(0 120.8)" gradientUnits="userSpaceOnUse">
      <stop offset=".02" stop-color="#31344d"/>
      <stop offset=".18" stop-color="#31344d"/>
      <stop offset=".5" stop-color="#14162f"/>
      <stop offset=".78" stop-color="#14162f"/>
      <stop offset="1" stop-color="#14162f"/>
    </linearGradient>
    <linearGradient id="i" x1="1370.49" x2="1330.02" y1="180.87" y2="31.69" gradientTransform="translate(0 120.8)" gradientUnits="userSpaceOnUse">
      <stop offset=".02" stop-color="#2c314d"/>
      <stop offset=".98" stop-color="#0b0e2c"/>
    </linearGradient>
    <linearGradient id="P" x1="1369.01" x2="1334" y1="166.05" y2="36.97" xlink:href="#i"/>
    <linearGradient id="Q" x1="1386.76" x2="1315.19" y1="84.3" y2="84.3" xlink:href="#d"/>
    <linearGradient id="R" x1="1396.72" x2="1264.07" y1="83.7" y2="83.7" xlink:href="#c"/>
    <linearGradient id="S" x1="1366.97" x2="1352.86" y1="37.05" y2="-10.71" xlink:href="#f"/>
    <linearGradient id="T" x1="1386.76" x2="1315.19" y1="-60.4" y2="-60.4" xlink:href="#d"/>
    <linearGradient id="U" x1="1396.72" x2="1264.07" y1="-61" y2="-61" xlink:href="#c"/>
    <linearGradient id="V" x1="1366.98" x2="1352.88" y1="-75.92" y2="-123.68" xlink:href="#f"/>
    <linearGradient id="W" x1="1382.45" x2="1337.71" y1="290.15" y2="135.44" xlink:href="#c"/>
    <linearGradient id="X" x1="1405.17" x2="1304.08" y1="255.1" y2="255.1" xlink:href="#d"/>
    <linearGradient id="Y" x1="1419.26" x2="1231.87" y1="254.3" y2="254.3" xlink:href="#c"/>
    <linearGradient id="Z" x1="1377.23" x2="1357.31" y1="252.21" y2="184.75" xlink:href="#f"/>
    <linearGradient id="aa" x1="1594.76" x2="1556.31" y1="251.43" y2="109.34" xlink:href="#c"/>
    <linearGradient id="ab" x1="1622.47" x2="1517.79" y1="188.5" y2="188.5" xlink:href="#d"/>
    <linearGradient id="ac" x1="1636.65" x2="1442.56" y1="187.65" y2="187.65" xlink:href="#c"/>
    <linearGradient id="ad" x1="1557.63" x2="1470.02" y1="187.37" y2="116.53" xlink:href="#e"/>
    <linearGradient id="ae" x1="1612.16" x2="1566.29" y1="186.88" y2="150.43" xlink:href="#e"/>
    <linearGradient id="af" x1="1593.47" x2="1572.96" y1="163.87" y2="94.52" xlink:href="#f"/>
    <linearGradient id="ag" x1="1331.97" x2="1371.39" y1="218.58" y2="192.26" xlink:href="#a"/>
    <linearGradient id="ah" x1="1414.25" x2="1357.31" y1="214.9" y2="187.49" xlink:href="#a"/>
    <linearGradient id="ai" x1="1549.84" x2="1583.79" y1="134.82" y2="108.25" xlink:href="#a"/>
    <linearGradient id="aj" x1="1626.92" x2="1577.98" y1="132.72" y2="105.24" xlink:href="#a"/>
    <linearGradient id="ak" x1="1622.47" x2="1517.79" y1="53.7" y2="53.7" gradientTransform="translate(0 120.8)" gradientUnits="userSpaceOnUse">
      <stop offset=".02" stop-color="#0099be"/>
      <stop offset=".24" stop-color="#0098bd"/>
      <stop offset=".52" stop-color="#0087b2"/>
      <stop offset=".77" stop-color="#005d97"/>
      <stop offset=".98" stop-color="#005d97"/>
    </linearGradient>
    <linearGradient id="al" x1="1636.65" x2="1442.56" y1="52.85" y2="52.85" gradientTransform="translate(0 120.8)" gradientUnits="userSpaceOnUse">
      <stop offset=".02" stop-color="#0099be"/>
      <stop offset=".12" stop-color="#0097bd"/>
      <stop offset=".48" stop-color="#0089b3"/>
      <stop offset=".78" stop-color="#005d97"/>
      <stop offset=".98" stop-color="#005d97"/>
    </linearGradient>
    <linearGradient id="am" x1="1567.25" x2="1523.46" y1="46.06" y2="86.49" gradientTransform="translate(0 120.8)" gradientUnits="userSpaceOnUse">
      <stop offset="0" stop-color="#fff" stop-opacity="0"/>
      <stop offset="1" stop-color="#005e9a" stop-opacity=".5"/>
    </linearGradient>
    <linearGradient id="an" x1="1658.25" x2="1614.27" y1="94.56" y2="53.91" gradientTransform="translate(0 120.8)" gradientUnits="userSpaceOnUse">
      <stop offset="0" stop-color="#005e9a" stop-opacity=".5"/>
      <stop offset="1" stop-color="#fff" stop-opacity="0"/>
    </linearGradient>
    <linearGradient id="ao" x1="1593.47" x2="1572.95" y1="29.08" y2="-40.27" gradientTransform="translate(0 120.8)" gradientUnits="userSpaceOnUse">
      <stop offset=".07" stop-color="#0099be"/>
      <stop offset=".29" stop-color="#0085b1"/>
      <stop offset=".67" stop-color="#005d97"/>
      <stop offset="1" stop-color="#005c97"/>
    </linearGradient>
    <linearGradient id="ap" x1="1332.7" x2="1364.66" y1="4.9" y2="-12.86" xlink:href="#a"/>
    <linearGradient id="aq" x1="1395.1" x2="1348.85" y1="3.47" y2="-15.03" xlink:href="#a"/>
    <linearGradient id="ar" x1="353.43" x2="249.4" y1="352.38" y2="-31.54" gradientTransform="translate(0 120.8)" gradientUnits="userSpaceOnUse">
      <stop offset="0" stop-color="#31344d"/>
      <stop offset=".18" stop-color="#31344d"/>
      <stop offset=".5" stop-color="#14162f"/>
      <stop offset=".78" stop-color="#14162f"/>
      <stop offset=".98" stop-color="#14162f"/>
    </linearGradient>
    <linearGradient id="as" x1="297.22" x2="372.02" y1="549.77" y2="549.77" gradientTransform="matrix(1 0 0 -1 0 804.95)" xlink:href="#b"/>
    <linearGradient id="at" x1="364.13" x2="425.33" y1="549.7" y2="549.7" gradientTransform="matrix(1 0 0 -1 0 804.95)" xlink:href="#b"/>
    <linearGradient id="j" x1="383.21" x2="342.51" y1="200.2" y2="50.12" gradientTransform="translate(0 120.8)" gradientUnits="userSpaceOnUse">
      <stop offset=".02" stop-color="#31344d"/>
      <stop offset=".98" stop-color="#14162f"/>
    </linearGradient>
    <linearGradient id="au" x1="381.92" x2="343.78" y1="188.71" y2="48.01" xlink:href="#j"/>
    <linearGradient id="av" x1="363.73" x2="416.33" y1="564" y2="564" gradientTransform="matrix(1 0 0 -1 0 804.95)" xlink:href="#b"/>
    <linearGradient id="aw" x1="380.1" x2="345.14" y1="176.86" y2="47.79" xlink:href="#j"/>
    <linearGradient id="ax" x1="385.57" x2="322.52" y1="61.7" y2="61.7" xlink:href="#k"/>
    <linearGradient id="ay" x1="394.36" x2="277.48" y1="61.2" y2="61.2" xlink:href="#g"/>
    <linearGradient id="az" x1="368.14" x2="355.71" y1="17.26" y2="-24.81" xlink:href="#l"/>
    <linearGradient id="aA" x1="330.93" x2="396.63" y1="681.65" y2="681.65" gradientTransform="matrix(1 0 0 -1 0 804.95)" gradientUnits="userSpaceOnUse">
      <stop offset="0" stop-color="#2c314d"/>
      <stop offset="1" stop-color="#0b0e2c"/>
    </linearGradient>
    <linearGradient id="aB" x1="228.9" x2="148.43" y1="319.62" y2="41.53" xlink:href="#c"/>
    <linearGradient id="aC" x1="224.74" x2="153.22" y1="296.8" y2="49.55" xlink:href="#c"/>
    <linearGradient id="aD" x1="181.19" x2="168.71" y1="182.87" y2="136.44" gradientTransform="translate(0 120.8)" gradientUnits="userSpaceOnUse">
      <stop offset="0" stop-color="#fff" stop-opacity=".3"/>
      <stop offset="1" stop-color="#fff" stop-opacity="0"/>
    </linearGradient>
    <linearGradient id="m" x1="233.11" x2="118.21" y1="159.95" y2="159.95" gradientTransform="translate(0 120.8)" gradientUnits="userSpaceOnUse">
      <stop offset=".02" stop-color="#2c314d"/>
      <stop offset=".24" stop-color="#2c314d"/>
      <stop offset=".52" stop-color="#2c314d"/>
      <stop offset=".77" stop-color="#0b0e2c"/>
      <stop offset=".98" stop-color="#0b0e2c"/>
    </linearGradient>
    <linearGradient id="aE" x1="249.11" x2="36.11" y1="159.05" y2="159.05" xlink:href="#c"/>
    <linearGradient id="aF" x1="201.32" x2="178.71" y1="125.63" y2="48.95" xlink:href="#l"/>
    <linearGradient id="aG" x1="233.11" x2="118.21" y1="-24.5" y2="-24.5" xlink:href="#k"/>
    <linearGradient id="aH" x1="249.11" x2="36.11" y1="-25.45" y2="-25.45" xlink:href="#g"/>
    <linearGradient id="aI" x1="201.34" x2="178.68" y1="-58.81" y2="-135.5" xlink:href="#l"/>
    <linearGradient id="aJ" x1="278.65" x2="221.27" y1="13.06" y2="-26.92" xlink:href="#a"/>
    <linearGradient id="aK" x1="112.77" x2="165.82" y1="12.81" y2="-26.21" xlink:href="#a"/>
    <linearGradient id="aL" x1="219.87" x2="162.49" y1="156.71" y2="116.73" xlink:href="#e"/>
    <linearGradient id="aM" x1="162.8" x2="215.86" y1="160.61" y2="121.59" xlink:href="#e"/>
    <linearGradient id="aN" x1="140.86" x2="193.56" y1="87.06" y2="51.54" xlink:href="#a"/>
    <linearGradient id="aO" x1="252.66" x2="176.55" y1="84.22" y2="47.24" xlink:href="#a"/>
    <linearGradient id="aP" x1="340.34" x2="364.15" y1="-4" y2="-20.06" xlink:href="#a"/>
    <linearGradient id="aQ" x1="390.86" x2="356.5" y1="-5.32" y2="-21.96" xlink:href="#a"/>
    <linearGradient id="aR" x1="426.16" x2="381.42" y1="274.9" y2="120.18" xlink:href="#c"/>
    <linearGradient id="aS" x1="448.91" x2="347.83" y1="239.9" y2="239.9" xlink:href="#m"/>
    <linearGradient id="aT" x1="462.99" x2="275.61" y1="239.05" y2="239.05" xlink:href="#c"/>
    <linearGradient id="aU" x1="420.94" x2="400.99" y1="236.96" y2="169.49" xlink:href="#f"/>
    <linearGradient id="aV" x1="377.47" x2="411.39" y1="205.49" y2="179.02" xlink:href="#a"/>
    <linearGradient id="aW" x1="454.61" x2="405.67" y1="203.47" y2="175.99" xlink:href="#a"/>
    <linearGradient id="aX" x1="1167.47" x2="1201.39" y1="317.49" y2="291.02" xlink:href="#a"/>
    <linearGradient id="aY" x1="1244.61" x2="1195.67" y1="315.47" y2="287.99" xlink:href="#a"/>
  </defs>
  <g fill="#fff" opacity=".70200002">
    <path style="isolation:isolate" d="M1200.82 442.9c7.1-4.1 13.5-4.7 18-2.5h.1l4.8 2.6c3.81 2.1 6.1 6.5 6.1 12.7 0 13.6-11 31-24.6 38.8-7.5 4.3-14.19 4.8-18.69 2.1l-3.5-1.8c-4.2-2-6.81-6.5-6.81-13.1-.1-13.6 11-31 24.6-38.8z" opacity=".40000001"/>
    <path style="isolation:isolate" d="M1229.82 455.7c0 13.6-11 31-24.6 38.8s-24.6 3.1-24.6-10.5 11-31 24.6-38.8 24.6-3.1 24.6 10.5z" opacity=".2"/>
    <path fill-rule="evenodd" d="M1194.43 478.9a10.21 10.21 0 0 1 1.3-2.6 14.81 14.81 0 0 1 2-2.4 11.28 11.28 0 0 1 2.5-2v-.1a4 4 0 0 1-3.4.1c-.9-.4-1.3-1.4-1.3-2.8a8.4 8.4 0 0 1 .9-3.9 15.68 15.68 0 0 1 2.5-3.3 24.11 24.11 0 0 1 3.4-2.8v-3.9l3-1.7v3.7a1.91 1.91 0 0 1 .6-.4l1.5-.9v-3.7l3-1.7v3.7l5.69-3.3a3.45 3.45 0 0 1 0 1.5l-3.19 2.7V476l3.19-.9a3.45 3.45 0 0 1 0 1.5l-5.69 3.3v3.5l-3 1.7v-3.5l-2.1 1.2v3.5l-3 1.7v-3.7a6.22 6.22 0 0 1-1.2.5 9.07 9.07 0 0 1-3.6.9 3.17 3.17 0 0 1-2.6-.9 4.48 4.48 0 0 1-.9-3.2 11.23 11.23 0 0 1 .4-2.7zm11.69-19.7a15.44 15.44 0 0 0-3.69 3.1 7 7 0 0 0-1.1 3.7c0 1.4.3 2.2 1.1 2.4s2-.1 3.69-1.1l1.41-.8v-8.1zm-5.9 21.3a1.65 1.65 0 0 0 1.2.8 3.1 3.1 0 0 0 1.8-.3 25.57 25.57 0 0 0 2.4-1.2l1.91-1.1v-9.4l-1.91 1.1a14.59 14.59 0 0 0-2.4 1.5 16.1 16.1 0 0 0-1.8 1.8 10.21 10.21 0 0 0-1.2 2.2 7.68 7.68 0 0 0-.4 2.6 4.45 4.45 0 0 0 .4 2z"/>
  </g>
  <g opacity=".50199997">
    <path fill="url(#a)" style="isolation:isolate" d="M1163.43 428.5L1203 451v76.3l-39.6-22.5z" opacity=".50199997"/>
    <path fill="url(#n)" style="isolation:isolate" d="M1242.62 427.3L1203 451v76.3l39.59-23.8z" opacity=".50199997"/>
  </g>
  <path fill="#14152b" d="M1386 557a21.24 21.24 0 0 0 9.59-18v-3.3L968 482.43l-63.1 320.4a85 85 0 0 0 39.9-14.3L1386 557z"/>
  <path fill="#14152b" d="M927.72 485.93l467.9 41.1v12a21.48 21.48 0 0 1-9.59 18l-441.21 231.5a85.7 85.7 0 0 1-39.9 14.3 75.62 75.62 0 0 1-40.3-7.4l-488-249.2a16.82 16.82 0 0 1-9.1-16.4h-.1v-13.1z"/>
  <path fill="url(#h)" d="M864.63 782.43l-488-249.2c-12.3-6.1-12.3-24 0-32.3L851.42 258c24.8-16.6 55.41-19.2 80.2-6.9L1386 510.33c12.9 6.4 12.9 25 0 33.7l-441.18 231.5c-24.82 16.6-55.4 19.3-80.19 6.9z"/>
  <path fill="url(#h)" d="M864.63 782.43l-488-249.2c-12.3-6.1-12.3-24 0-32.3L851.42 258c24.8-16.6 55.41-19.2 80.2-6.9L1386 510.33c12.9 6.4 12.9 25 0 33.7l-441.18 231.5c-24.82 16.6-55.4 19.3-80.19 6.9z"/>
  <path fill="url(#h)" d="M864.63 782.43l-488-249.2c-12.3-6.1-12.3-24 0-32.3L851.42 258c24.8-16.6 55.41-19.2 80.2-6.9L1386 510.33c12.9 6.4 12.9 25 0 33.7l-441.18 231.5c-24.82 16.6-55.4 19.3-80.19 6.9z"/>
  <path fill="url(#b)" d="M864.63 782.43l-488-249.2c-12.3-6.1-12.3-24 0-32.3L851.42 258c24.8-16.6 55.41-19.2 80.2-6.9L1386 510.33c12.9 6.4 12.9 25 0 33.7l-441.18 231.5c-24.82 16.6-55.4 19.3-80.19 6.9z"/>
  <path fill="url(#o)" d="M1097.62 461l-.09 4.6a3.71 3.71 0 0 0 2.09 3.7l96.5 53.5a19.3 19.3 0 0 0 9.41 2.3l16.3-71.8-124.1 5.6-.1 2.1z"/>
  <path fill="url(#p)" d="M1307.43 472.7a4.1 4.1 0 0 0 2.3-3.7l.1-4.6-88-11.1-16.3 71.8a19.7 19.7 0 0 0 9.4-2.4z"/>
  <path fill="#14152b" d="M1212.43 453.3l97.5 9.2-.1 6.5a4.3 4.3 0 0 1-2.3 3.7l-92.5 50a20.89 20.89 0 0 1-9.41 2.4 19.18 19.18 0 0 1-9.4-2.3l-96.5-53.5a3.91 3.91 0 0 1-2.1-3.7l.1-6.7 114.7-5.6z"/>
  <path fill="url(#c)" d="M1196.32 516.1l-96.5-53.5c-2.9-1.5-2.8-5.4.2-7l92.8-50.2a20.16 20.16 0 0 1 18.8-.1l96.2 53.4c3 1.6 2.9 5.6-.2 7.3l-92.5 50a19.88 19.88 0 0 1-18.8.1z"/>
  <path fill="#14152b" d="M1106.12 449.9l-.09 4.2a3.43 3.43 0 0 0 1.9 3.4l88.8 49.2a18.14 18.14 0 0 0 8.6 2.1l15-66.1-114.21 5.2z"/>
  <path fill="url(#q)" d="M1299.12 460.8a3.9 3.9 0 0 0 2.1-3.4l.1-4.2-81-10.2-15 66.1a17.45 17.45 0 0 0 8.6-2.2l85.2-46.1z"/>
  <path fill="#14152b" d="M1211.72 442.9l89.7 8.5-.1 6a3.8 3.8 0 0 1-2.1 3.4l-85.1 46a18.93 18.93 0 0 1-8.59 2.2 18.14 18.14 0 0 1-8.6-2.1l-88.81-49.2a3.55 3.55 0 0 1-1.9-3.4l.1-6.2z"/>
  <path fill="url(#r)" d="M1196.93 500.7l-88.81-49.2a3.61 3.61 0 0 1 .1-6.4l85.4-46.2a18.59 18.59 0 0 1 17.31-.1l88.5 49.1a3.76 3.76 0 0 1 1.57 5.1 3.83 3.83 0 0 1-1.69 1.64l-85.1 46a18.57 18.57 0 0 1-17.3.1z"/>
  <path fill="url(#d)" d="M1142.93 443.8l60.8 34.6v8.9l-60.8-34.6z"/>
  <path fill="url(#s)" d="M1264.53 441.9l-60.81 36.5v8.9l60.81-36.5z"/>
  <path fill="url(#f)" d="M1203.72 407.3l-60.8 36.5 60.8 34.6 60.81-36.5z"/>
  <path fill="#fff" style="isolation:isolate" d="M1203.72 407.3l-60.8 36.5 60.8 34.6 60.81-36.5z" opacity=".102"/>
  <path fill="#14152b" d="M465.13 471l-.1 4.8a3.93 3.93 0 0 0 2.1 3.8L567 535a20.46 20.46 0 0 0 9.7 2.4l16.9-74.4-128.4 5.8-.1 2.2zM682.22 483.1a4.46 4.46 0 0 0 2.41-3.8l.09-4.8-91.09-11.5-16.91 74.4a20.73 20.73 0 0 0 9.7-2.4z"/>
  <path fill="url(#t)" d="M583.83 463l100.9 9.6-.1 6.7a4.24 4.24 0 0 1-2.4 3.8l-95.8 51.8a20.76 20.76 0 0 1-9.7 2.4 20.46 20.46 0 0 1-9.7-2.4l-99.9-55.4a3.85 3.85 0 0 1-2.1-3.8l.2-7z"/>
  <path fill="url(#u)" d="M567.13 528l-99.91-55.4a4 4 0 0 1 .2-7.2l96-51.9a20.82 20.82 0 0 1 19.41-.1l99.59 55.2a4.16 4.16 0 0 1-.2 7.5l-95.8 51.8a20.3 20.3 0 0 1-19.29.1z"/>
  <path fill="url(#v)" d="M506.42 424l68.5 39v50l-68.5-38.9z"/>
  <path fill="url(#e)" style="isolation:isolate" d="M506.42 424l68.5 39v50l-68.5-38.9z" opacity=".50199997"/>
  <path fill="url(#w)" d="M643.33 421.9L574.92 463v50l68.41-41.1z"/>
  <path fill="url(#x)" style="isolation:isolate" d="M643.33 421.9L574.92 463v50l68.41-41.1z" opacity=".50199997"/>
  <path fill="url(#y)" d="M574.92 383l-68.5 41 68.5 39 68.41-41.1z"/>
  <path fill="#fff" style="isolation:isolate" d="M574.92 383l-68.5 41 68.5 39 68.41-41.1z" opacity=".102"/>
  <path fill="url(#z)" style="isolation:isolate" d="M523.42 341.4l51.5 29.3v74.6l-51.5-29.3z" opacity=".50199997"/>
  <path fill="url(#A)" style="isolation:isolate" d="M626.42 339.8l-51.5 30.9v74.6l51.5-30.9z" opacity=".50199997"/>
  <path fill="url(#B)" style="isolation:isolate" d="M800.53 382.7l-181.9 92.7c-3.71 2.5-3.71 7.9 0 9.8l147.9 75.5c7.5 3.7 16.8 2.9 24.3-2.1l166.89-86.2z" opacity=".80000001"/>
  <path fill="url(#C)" d="M737 536.2v1a5.19 5.19 0 0 0 2.8 5.1l152.39 77.8a23.73 23.73 0 0 0 12.6 2.3l19.7-100-187.6 10.7.1 3.1z"/>
  <path fill="#14152b" d="M1055.12 545.8a6.68 6.68 0 0 0 3-5.6v-1l-133.5-16.6-19.7 100a26.32 26.32 0 0 0 12.41-4.5z"/>
  <path fill="#14152b" d="M911.92 527.8l146.08 8.1v8.4a6.7 6.7 0 0 1-3 5.6l-137.8 72.3a26.32 26.32 0 0 1-12.4 4.5 23.7 23.7 0 0 1-12.6-2.3l-152.4-77.8a5.11 5.11 0 0 1-2.8-5.1v-4.1l174.9-9.6z"/>
  <path fill="url(#g)" d="M892.22 616.2l-152.39-77.8c-3.91-1.9-3.91-7.5 0-10.1l148.29-75.9c7.71-5.2 17.3-6 25-2.2L1055 531.1c4 2 4 7.8 0 10.5l-137.8 72.3a24.85 24.85 0 0 1-25 2.3z"/>
  <path fill="#1a1381" d="M760 518v.9a4.51 4.51 0 0 0 2.4 4.4L892.93 590a20 20 0 0 0 10.8 2l16.9-85.7-160.7 9.2v2.5z"/>
  <path fill="#2221a1" d="M1032.53 526.1a5.64 5.64 0 0 0 2.59-4.8v-.9l-114.4-14.2-16.9 85.7a22.67 22.67 0 0 0 10.7-3.8l118-62z"/>
  <path fill="#14152b" d="M909.92 510.8l125.2 7v7.2a5.64 5.64 0 0 1-2.59 4.8l-118 61.9a22.75 22.75 0 0 1-10.7 3.8 20 20 0 0 1-10.8-2l-130.5-66.7a4.51 4.51 0 0 1-2.4-4.4v-3.5z"/>
  <path fill="url(#D)" d="M893 586.4l-130.5-66.7c-3.3-1.6-3.3-6.4 0-8.6l127-65a21.63 21.63 0 0 1 21.5-1.8l121.59 69.3c3.41 1.7 3.41 6.7 0 9l-118 61.9c-6.79 4.5-15 5.2-21.59 1.9z"/>
  <path fill="#1a1381" d="M782.63 497.3v.7a3.86 3.86 0 0 0 2 3.7l109 55.7a16.46 16.46 0 0 0 9 1.6l14.1-71.6-134.2 7.7v2.2z"/>
  <path fill="#2221a1" d="M1010.22 504.1a4.74 4.74 0 0 0 2.2-4v-.7l-95.5-11.9-14.1 71.6a18.47 18.47 0 0 0 8.9-3.2l98.5-51.8z"/>
  <path fill="#14152b" d="M907.83 491.3l104.6 5.8v6a4.79 4.79 0 0 1-2.2 4l-98.6 51.7a20.09 20.09 0 0 1-8.9 3.2 17.33 17.33 0 0 1-9-1.6l-109-55.7a3.62 3.62 0 0 1-2-3.7v-2.9l125.1-6.8z"/>
  <path fill="url(#E)" d="M893.72 554.5l-109-55.7c-2.8-1.4-2.8-5.4 0-7.2l106.1-54.3a17.81 17.81 0 0 1 17.9-1.5l101.5 57.9c2.9 1.4 2.9 5.6 0 7.5l-98.6 51.7a17.84 17.84 0 0 1-17.9 1.6z"/>
  <path fill="url(#k)" d="M817 349.4l85.8 48.7v112.4L817 461.7z"/>
  <path fill="url(#F)" d="M988.53 346.7l-85.7 51.4v112.4l85.7-51.5z"/>
  <path fill="url(#G)" style="isolation:isolate" d="M817 349.4l85.8 48.7v112.4L817 461.7z" opacity=".50199997"/>
  <path fill="url(#H)" style="isolation:isolate" d="M988.53 346.7l-85.7 51.4v112.4l85.7-51.5z" opacity=".50199997"/>
  <path fill="url(#l)" d="M902.83 297.9L817 349.4l85.8 48.7 85.7-51.4z"/>
  <path fill="#fff" style="isolation:isolate" d="M902.83 297.9L817 349.4l85.8 48.7 85.7-51.4z" opacity=".102"/>
  <g opacity=".40000001">
    <path fill="url(#I)" style="isolation:isolate" d="M835.83 214.7l67 38.1v130.4l-67-38.1z" opacity=".50199997"/>
    <path fill="url(#J)" style="isolation:isolate" d="M969.72 212.6l-66.9 40.2v130.4l66.9-40.2z" opacity=".50199997"/>
  </g>
  <path fill="#1a1381" d="M825.53 696v.5a2.42 2.42 0 0 0 1.3 2.4l69.9 35.7a11.58 11.58 0 0 0 5.8 1.1l9-45.9-86 4.9z"/>
  <path fill="#2221a1" d="M971.43 700.3a3.15 3.15 0 0 0 1.4-2.6v-.5l-61.2-7.6-9 45.9a13.57 13.57 0 0 0 5.7-2l63.1-33.2z"/>
  <path fill="#14152b" d="M905.83 692.1l67 3.7v3.9a2.88 2.88 0 0 1-1.4 2.6l-63.2 33.2a11.13 11.13 0 0 1-5.7 2 10.62 10.62 0 0 1-5.8-1.1l-69.9-35.7a2.45 2.45 0 0 1-1.3-2.4v-1.9l80.3-4.3z"/>
  <path fill="url(#K)" d="M896.72 732.6l-69.9-35.7a2.63 2.63 0 0 1 0-4.6l68-34.8a11.37 11.37 0 0 1 11.5-1l65.1 37.1c1.8.9 1.8 3.6 0 4.8l-63.2 33.2a11.37 11.37 0 0 1-11.5 1z"/>
  <path fill="#fff" style="isolation:isolate" d="M896.72 732.6l-69.9-35.7a2.63 2.63 0 0 1 0-4.6l68-34.8a11.37 11.37 0 0 1 11.5-1l65.1 37.1c1.8.9 1.8 3.6 0 4.8l-63.2 33.2a11.37 11.37 0 0 1-11.5 1z" opacity=".102"/>
  <g opacity=".40000001">
    <path fill="url(#L)" style="isolation:isolate" d="M849.42 597.2l49.7 28.3v96.9l-49.7-28.3z" opacity=".50199997"/>
    <path fill="url(#M)" style="isolation:isolate" d="M948.93 595.6l-49.81 29.9v96.9l49.81-29.9z" opacity=".50199997"/>
  </g>
  <path fill="url(#N)" d="M1137.32 322.2v2h.1a10.41 10.41 0 0 0 5.5 10l282.3 159a46.08 46.08 0 0 0 24.5 4.5l38.4-194.8-350.8 13.5z"/>
  <path fill="#14152b" d="M1742.32 348.2a13.16 13.16 0 0 0 5.9-11v-2l-260-32.4-38.4 194.8a51 51 0 0 0 24.2-8.7l268.3-140.7z"/>
  <path fill="#14152b" d="M1463.62 304.9l284.6 25v7.3a13 13 0 0 1-5.9 11L1474 489a53.12 53.12 0 0 1-24.2 8.7 44.89 44.89 0 0 1-24.5-4.5l-282.3-159a10 10 0 0 1-5.5-10h-.1v-7.9l326.2-11.4z"/>
  <path fill="url(#O)" d="M1424.61 487.28l-282.3-159c-7.5-3.7-7.5-14.6 0-19.6l274.3-140.28c15.1-10.1 33.7-11.7 48.81-4.2l276.3 157.6c7.8 3.9 7.8 15.2 0 20.5l-268.3 140.8c-15.1 10.1-33.7 11.7-48.81 4.2z"/>
  <path fill="#14152b" d="M1295.82 262v.4a2.13 2.13 0 0 0 1.1 2l60.4 30.9a8.67 8.67 0 0 0 5 .9l7.8-39.7-74.4 4.3.1 1.2zM1422 265.8a2.62 2.62 0 0 0 1.19-2.2v-.4l-53-6.6-7.8 39.7a10 10 0 0 0 4.9-1.8l54.7-28.7z"/>
  <path fill="#14152b" d="M1365.22 258.7l58 3.2v3.4a2.62 2.62 0 0 1-1.19 2.2l-54.6 28.7a11.24 11.24 0 0 1-4.9 1.8 8.64 8.64 0 0 1-5-.9l-60.41-30.9a2 2 0 0 1-1.09-2v-1.6z"/>
  <path fill="url(#i)" d="M1357.43 293.7L1297 262.8a2.33 2.33 0 0 1-.79-3.21 2.14 2.14 0 0 1 .79-.79l58.8-30.1a9.86 9.86 0 0 1 9.9-.9l56.3 32.1a2.43 2.43 0 0 1 .87 3.32 2.37 2.37 0 0 1-.87.88l-54.6 28.7a10.07 10.07 0 0 1-10 .9z"/>
  <path fill="#14152b" d="M1304.43 252.5v.4a2 2 0 0 0 1 1.8l52.3 26.7a7.88 7.88 0 0 0 4.3.8l6.8-34.3-64.4 3.7v.9z"/>
  <path fill="#14152b" d="M1413.53 255.8a2.32 2.32 0 0 0 1-1.9v-.4l-45.81-5.7-6.8 34.3a8.5 8.5 0 0 0 4.3-1.5l47.31-24.8z"/>
  <path fill="#14152b" d="M1364.43 249.6l50.19 2.8v2.9a2.14 2.14 0 0 1-1 1.9l-47.3 24.8a8.5 8.5 0 0 1-4.3 1.5 7.9 7.9 0 0 1-4.3-.8l-52.3-26.7a1.82 1.82 0 0 1-1-1.8v-1.4l60-3.2z"/>
  <path fill="url(#P)" d="M1357.72 279.9l-52.3-26.7a2.07 2.07 0 0 1-.66-2.84 2.19 2.19 0 0 1 .66-.66l50.9-26a8.4 8.4 0 0 1 8.6-.7l48.7 27.8a2.06 2.06 0 0 1 .78 2.82 2 2 0 0 1-.78.78l-47.3 24.8a8.4 8.4 0 0 1-8.6.7z"/>
  <path fill="url(#Q)" d="M1324.72 141.7l37.28 21.2v105.6l-37.31-21.2z"/>
  <path fill="url(#R)" d="M1399.32 140.5L1362 162.9v105.6l37.3-22.4z"/>
  <path fill="url(#S)" d="M1362 119.3l-37.31 22.4 37.31 21.2 37.3-22.4z"/>
  <path fill="url(#T)" d="M1324.72 28.7L1362 49.9v42.2l-37.31-21.2z"/>
  <path fill="url(#U)" d="M1399.32 27.5L1362 49.9v42.2l37.3-22.4z"/>
  <path fill="url(#V)" d="M1362 6.3l-37.31 22.4L1362 49.9l37.3-22.4z"/>
  <path fill="#1a1381" d="M1285.62 369.4l-.09 3.7a3.12 3.12 0 0 0 1.59 3l76.88 42.7a15.06 15.06 0 0 0 7.5 1.8l13-57.3-99 4.5z"/>
  <path fill="#2221a1" d="M1452.93 378.7a3.54 3.54 0 0 0 1.9-3l.1-3.7-70.2-8.9-13 57.3a15.48 15.48 0 0 0 7.5-1.9l73.7-39.8z"/>
  <path fill="#14152b" d="M1377.12 363.2l77.7 7.4-.1 5.2a3.4 3.4 0 0 1-1.9 3l-73.7 39.8a16.11 16.11 0 0 1-15 .1l-76.9-42.7a3 3 0 0 1-1.6-3l.1-5.4z"/>
  <path fill="url(#W)" d="M1364.32 413.3l-76.9-42.7a3.06 3.06 0 0 1-1.33-4.12 3.13 3.13 0 0 1 1.43-1.38l74-40a15.94 15.94 0 0 1 15 0l76.7 42.5a3.23 3.23 0 0 1-.1 5.8l-73.8 39.9a15.94 15.94 0 0 1-15 0z"/>
  <path fill="url(#X)" d="M1317.53 350.1l52.69 30v21.6l-52.69-30z"/>
  <path fill="url(#Y)" d="M1422.93 348.5l-52.7 31.6v21.6l52.7-31.6z"/>
  <path fill="url(#Z)" d="M1370.22 318.5l-52.69 31.6 52.69 30 52.7-31.6z"/>
  <path fill="#fff" style="isolation:isolate" d="M1370.22 318.5l-52.69 31.6 52.69 30 52.7-31.6z" opacity=".102"/>
  <path fill="#1a1381" d="M1502.72 334.2v.5a2.55 2.55 0 0 0 1.4 2.6l77.41 39.5a11.78 11.78 0 0 0 6.4 1.2l10-50.8-95.31 5.4z"/>
  <path fill="#2221a1" d="M1664.32 339a3.5 3.5 0 0 0 1.5-2.9v-.5l-67.8-8.4L1588 378a13.34 13.34 0 0 0 6.3-2.3l70-36.7z"/>
  <path fill="#14152b" d="M1591.62 329.9l74.2 4.1v4.3a3.5 3.5 0 0 1-1.5 2.9l-70 36.7a13.82 13.82 0 0 1-6.3 2.3 11.81 11.81 0 0 1-6.4-1.2l-77.4-39.5a2.66 2.66 0 0 1-1.4-2.6v-2.1l88.8-4.9z"/>
  <path fill="url(#aa)" d="M1581.62 374.8l-77.4-39.5a2.92 2.92 0 0 1-1.12-4 2.83 2.83 0 0 1 1.12-1.13l75.31-38.5a12.67 12.67 0 0 1 12.69-1.1l72.1 41.1c2 1 2 4 0 5.3l-70 36.7a12.94 12.94 0 0 1-12.7 1.13z"/>
  <path fill="url(#ab)" d="M1532.12 261.2l54.2 30.8-.5 65.4-54.1-30.8z"/>
  <path fill="url(#ac)" d="M1640.43 259.5l-54.1 32.5-.5 65.4 54.2-32.5z"/>
  <path fill="url(#ad)" style="isolation:isolate" d="M1532.12 261.2l54.2 30.8-.5 65.4-54.1-30.8z" opacity=".50199997"/>
  <path fill="url(#ae)" style="isolation:isolate" d="M1640.43 259.5l-54.1 32.5-.5 65.4 54.2-32.5z" opacity=".50199997"/>
  <path fill="url(#af)" d="M1586.32 228.6l-54.2 32.6 54.2 30.8 54.1-32.5-54.1-30.9z"/>
  <path fill="#fff" style="isolation:isolate" d="M1362 119.3l-37.31 22.4 37.31 21.2 37.3-22.4zm224.3 109.3l-54.21 32.6 54.2 30.8 54.1-32.5-54.1-30.9z" opacity=".102"/>
  <g opacity=".50199997">
    <path fill="url(#ag)" style="isolation:isolate" d="M1332 280.78l38.22 17.22v74.4L1332 350.7z" opacity=".50199997"/>
    <path fill="url(#ah)" style="isolation:isolate" d="M1408.43 275l-38.2 23v74.4l38.2-22.9z" opacity=".50199997"/>
  </g>
  <g opacity=".50199997">
    <path fill="url(#ai)" style="isolation:isolate" d="M1548 200.9l38.3 21.7v60.6l-38.3-21.8z" opacity=".50199997"/>
    <path fill="url(#aj)" style="isolation:isolate" d="M1624.53 199.7l-38.2 22.9v60.6l38.2-23z" opacity=".50199997"/>
  </g>
  <path fill="#1d1d1b" d="M1512.32 218.9a5 5 0 0 1-.6-.7 5 5 0 0 0 .6.7z"/>
  <g opacity=".6">
    <path fill="url(#ak)" d="M1532.12 126.4l54.2 30.8-.5 65.4-54.1-30.8z"/>
    <path fill="url(#al)" d="M1640.43 124.7l-54.1 32.5-.5 65.4 54.2-32.5z"/>
    <path fill="url(#am)" style="isolation:isolate" d="M1532.12 126.4l54.2 30.8-.5 65.4-54.1-30.8z" opacity=".50199997"/>
    <path fill="url(#an)" style="isolation:isolate" d="M1640.43 124.7l-54.1 32.5-.5 65.4 54.2-32.5z" opacity=".50199997"/>
    <path fill="url(#ao)" d="M1586.32 93.8l-54.2 32.6 54.2 30.8 54.1-32.5z"/>
  </g>
  <g opacity=".40000001">
    <path fill="url(#ap)" style="isolation:isolate" d="M1336.12 77.4L1362 92.1v63.7l-25.88-14.8z" opacity=".50199997"/>
    <path fill="url(#aq)" style="isolation:isolate" d="M1387.82 76.6L1362 92.1v63.7l25.8-15.6z" opacity=".50199997"/>
  </g>
  <path fill="#14152b" d="M0 325.4v2h.1a10.38 10.38 0 0 0 5.5 10L302.42 489a46.08 46.08 0 0 0 24.5 4.5l38.4-194.8L0 319.6zM619.53 343.9a13.21 13.21 0 0 0 5.9-11v-2l-260-32.4L327 493.3a51.11 51.11 0 0 0 24.21-8.7z"/>
  <path fill="#14152b" d="M340.73 300.7l284.6 25v7.3a13.07 13.07 0 0 1-5.91 11L351.13 484.7a53.11 53.11 0 0 1-24.21 8.7 44.93 44.93 0 0 1-24.5-4.5L5.63 337.3a10 10 0 0 1-5.5-10H0v-7.9z"/>
  <path fill="url(#ar)" d="M302.42 481L5.63 329.4c-7.51-3.7-7.51-14.6 0-19.6l288.7-147.7c15.1-10.1 33.7-11.7 48.8-4.2l276.29 157.6c7.8 3.9 7.8 15.2 0 20.5L351.13 476.8c-15 10.1-33.71 11.7-48.71 4.2z"/>
  <path fill="url(#as)" d="M297.23 240.7v.4a2.1 2.1 0 0 0 1.1 2l60.8 31.1a8.74 8.74 0 0 0 5 .9l7.87-39.9-74.8 4.3v1.2z"/>
  <path fill="url(#at)" d="M424.13 244.5a2.66 2.66 0 0 0 1.2-2.2v-.4L372 235.3l-7.9 39.9a10.87 10.87 0 0 0 5-1.8z"/>
  <path fill="#14152b" d="M367 237.3l58.31 3.2v3.4a2.66 2.66 0 0 1-1.2 2.2l-55 28.9a11.69 11.69 0 0 1-5 1.8 8.64 8.64 0 0 1-5-.9l-60.8-31.1a2 2 0 0 1-1.1-2v-1.6l69.8-3.9z"/>
  <path fill="url(#j)" d="M359.13 272.6l-60.8-31.1a2.33 2.33 0 0 1-.79-3.21 2.14 2.14 0 0 1 .79-.79l59.2-30.3a10 10 0 0 1 10-.9l56.6 32.3a2.43 2.43 0 0 1 .87 3.32 2.37 2.37 0 0 1-.87.88l-55 28.9a10 10 0 0 1-10 .9z"/>
  <path fill="#14152b" d="M301.23 234.2v.4a2 2 0 0 0 1.1 1.9l57 29.1a9.62 9.62 0 0 0 4.7.9l7.4-37.4-70.2 4v1.1z"/>
  <path fill="#14152b" d="M420.23 237.8a2.38 2.38 0 0 0 1.1-2.1v-.4l-50-6.2-7.4 37.4a9.64 9.64 0 0 0 4.7-1.7l51.6-27z"/>
  <path fill="#14152b" d="M366.63 231.1l54.7 3v3.2a2.61 2.61 0 0 1-1.1 2.1l-51.5 27a10 10 0 0 1-4.71 1.7 8.42 8.42 0 0 1-4.7-.9l-57-29.1a2 2 0 0 1-1.1-1.9v-1.5l65.4-3.6z"/>
  <path fill="url(#au)" d="M359.33 264.1l-57-29.1a2.25 2.25 0 0 1-.72-3.09 2.22 2.22 0 0 1 .72-.71l55.5-28.4a9.63 9.63 0 0 1 9.4-.8l53.1 30.3a2.26 2.26 0 0 1 0 3.9l-51.5 27a9.18 9.18 0 0 1-9.5.9z"/>
  <path fill="#14152b" d="M306.13 228.6v.4a2 2 0 0 0 1 1.8l52.29 26.7a7.9 7.9 0 0 0 4.3.8l6.8-34.3-64.39 3.7z"/>
  <path fill="url(#av)" d="M415.33 231.8a2.32 2.32 0 0 0 1-1.9v-.4l-45.8-5.7-6.8 34.3a8.56 8.56 0 0 0 4.3-1.5l47.3-24.8z"/>
  <path fill="#14152b" d="M366.23 225.7l50.2 2.8v2.9a2.19 2.19 0 0 1-1 1.9l-47.3 24.8a8.56 8.56 0 0 1-4.3 1.5 7.86 7.86 0 0 1-4.3-.8l-52.3-26.7a1.79 1.79 0 0 1-1-1.8v-1.4l60-3.2z"/>
  <path fill="url(#aw)" d="M359.42 256l-52.29-26.7a2.06 2.06 0 0 1-.67-2.84 2.11 2.11 0 0 1 .67-.66l50.89-26a8.42 8.42 0 0 1 8.61-.7l48.7 27.8a2.06 2.06 0 0 1 .77 2.82 2 2 0 0 1-.77.78L368 255.3a8.84 8.84 0 0 1-8.6.7z"/>
  <path fill="url(#ax)" d="M330.92 123.8l32.8 18.7v98.7l-32.8-18.7z"/>
  <path fill="url(#ay)" d="M396.63 122.8l-32.9 19.7v98.7l32.9-19.7z"/>
  <path fill="url(#az)" d="M363.73 104.1l-32.8 19.7 32.8 18.7 32.9-19.7z"/>
  <path fill="url(#aA)" style="isolation:isolate" d="M363.73 104.1l-32.8 19.7 32.8 18.7 32.9-19.7z" opacity=".102"/>
  <path fill="#1a1381" d="M83.63 312.4l-.11 4.7a4 4 0 0 0 2.11 3.8L184 375.4a19.88 19.88 0 0 0 9.61 2.4l16.6-73.2-126.5 5.7z"/>
  <path fill="#2221a1" d="M297.42 324.4a4.21 4.21 0 0 0 2.4-3.8l.1-4.7-89.7-11.3-16.6 73.2a20.33 20.33 0 0 0 9.6-2.4z"/>
  <path fill="#14152b" d="M200.63 304.6L300 314l-.1 6.6a4.3 4.3 0 0 1-2.4 3.8l-94.3 51a20.4 20.4 0 0 1-19.2 0l-98.4-54.5a4 4 0 0 1-2.1-3.8l.1-6.8 117-5.7z"/>
  <path fill="url(#aB)" d="M184.13 368.6l-98.4-54.5a4 4 0 0 1 .2-7.1l94.59-51.2a20.5 20.5 0 0 1 19.11-.1l98.1 54.4a4.14 4.14 0 0 1-.21 7.4l-94.3 51a19.93 19.93 0 0 1-19.1.1z"/>
  <path fill="#1a1381" d="M95.63 303.8l-.11 4.2a3.55 3.55 0 0 0 1.9 3.4l87.5 48.5a17.77 17.77 0 0 0 8.5 2.1l14.8-65.1-112.5 5.1-.1 1.8z"/>
  <path fill="#2221a1" d="M285.73 314.4a3.94 3.94 0 0 0 2.1-3.4l.1-4.2-79.8-10.1-14.8 65.1a18.13 18.13 0 0 0 8.5-2.1z"/>
  <path fill="#14152b" d="M199.63 296.8l88.37 8.4-.1 5.9a3.9 3.9 0 0 1-2.1 3.4l-83.9 45.3a18.07 18.07 0 0 1-8.5 2.1 17.77 17.77 0 0 1-8.5-2.1l-87.5-48.5a3.46 3.46 0 0 1-1.9-3.4l.11-6.1 104-5z"/>
  <path fill="url(#aC)" d="M185 353.8l-87.5-48.5a3.52 3.52 0 0 1 .11-6.3l84.1-45.5a18.25 18.25 0 0 1 17-.1l87.19 48.4a3.69 3.69 0 0 1-.1 6.6l-83.9 45.3a18.05 18.05 0 0 1-16.9.1z"/>
  <path fill="url(#aD)" style="isolation:isolate" d="M183.33 253l-73.4 37.4a2.25 2.25 0 0 0-.83 3.07 2.2 2.2 0 0 0 .83.83l59.7 30.5a9.87 9.87 0 0 0 9.79-.8l67.3-34.8-63.4-36.2z" opacity=".80000001"/>
  <path fill="url(#m)" d="M133.43 220.4l60 34.1v86.6l-60-34.1z"/>
  <path fill="url(#aE)" d="M253.33 218.6l-59.9 35.9v86.6l59.9-36z"/>
  <path fill="url(#aF)" d="M193.42 184.5l-60 35.9 60 34.1 59.9-35.9z"/>
  <path fill="#fff" style="isolation:isolate" d="M193.42 184.5l-60 35.9 60 34.1 59.9-35.9z" opacity=".102"/>
  <path fill="url(#aG)" d="M133.43 36l60 34.1v86.5l-60-34.1V36z"/>
  <path fill="url(#aH)" d="M253.33 34.1l-59.9 36v86.5l59.9-36z"/>
  <path fill="url(#aI)" d="M193.42 0l-60 36 60 34.1 59.9-36z"/>
  <path fill="url(#aJ)" style="isolation:isolate" d="M253.33 34.1l-59.9 36v86.5l59.9-36z" opacity=".50199997"/>
  <path fill="url(#aK)" style="isolation:isolate" d="M133.43 36.1l60 34v86.5l-60-34z" opacity=".50199997"/>
  <path fill="url(#aL)" style="isolation:isolate" d="M253.33 218.7l-59.9 36v86.5l59.9-35.9z" opacity=".50199997"/>
  <path fill="url(#aM)" style="isolation:isolate" d="M133.43 220.7l60 34v86.5l-60-34z" opacity=".50199997"/>
  <path fill="url(#aN)" style="isolation:isolate" d="M142.13 125.4l51.5 29.3v99.2l-51.5-29.3z" opacity=".50199997"/>
  <path fill="url(#aO)" style="isolation:isolate" d="M245.13 123.8l-51.5 30.9v99.2l51.5-30.9z" opacity=".50199997"/>
  <g opacity=".70200002">
    <path fill="url(#aP)" style="isolation:isolate" d="M340.92 79.5l23.3 13.3v44.8l-23.3-13.2z" opacity=".50199997"/>
    <path fill="url(#aQ)" style="isolation:isolate" d="M387.42 78.8l-23.2 14v44.8l23.2-13.9z" opacity=".50199997"/>
  </g>
  <path fill="#1a1381" d="M329.42 354.1l-.1 3.7a3.15 3.15 0 0 0 1.6 3l76.9 42.7a15.11 15.11 0 0 0 7.5 1.8l13-57.3-99 4.5z"/>
  <path fill="#2221a1" d="M496.63 363.5a3.54 3.54 0 0 0 1.9-3l.1-3.7-70.21-8.9-13 57.3a15.21 15.21 0 0 0 7.5-1.9l73.71-39.8z"/>
  <path fill="#14152b" d="M420.83 348l77.7 7.4-.1 5.2a3.44 3.44 0 0 1-1.9 3l-73.8 39.9a16.11 16.11 0 0 1-15 .1l-76.9-42.7a3 3 0 0 1-1.6-3l.1-5.4 91.5-4.5z"/>
  <path fill="url(#aR)" d="M408 398l-76.89-42.7a3.06 3.06 0 0 1-1.34-4.12 3.11 3.11 0 0 1 1.44-1.38l74-40a15.94 15.94 0 0 1 15 0l76.69 42.5a3.25 3.25 0 0 1 1.39 4.37 3.3 3.3 0 0 1-1.48 1.43L423 398a15.94 15.94 0 0 1-15 0z"/>
  <path fill="url(#aS)" d="M361.23 334.9l52.7 30v21.6l-52.7-30z"/>
  <path fill="url(#aT)" d="M466.63 333.2l-52.71 31.7v21.6l52.71-31.7z"/>
  <path fill="url(#aU)" d="M413.92 303.2l-52.7 31.7 52.7 30 52.71-31.7z"/>
  <path fill="#fff" style="isolation:isolate" d="M413.92 303.2l-52.7 31.7 52.7 30 52.71-31.7z" opacity=".102"/>
  <g opacity=".50199997">
    <path fill="url(#aV)" style="isolation:isolate" d="M375.73 271.6l38.19 21.8v60.5l-38.2-21.7z" opacity=".50199997"/>
    <path fill="url(#aW)" style="isolation:isolate" d="M452.13 270.4l-38.21 23v60.5l38.21-22.9z" opacity=".50199997"/>
  </g>
  <g opacity=".50199997">
    <path fill="url(#aX)" style="isolation:isolate" d="M1165.72 383.6l38.2 21.8v60.5l-38.2-21.7z" opacity=".50199997"/>
    <path fill="url(#aX)" style="isolation:isolate" d="M1165.72 383.6l38.2 21.8v60.5l-38.2-21.7z" opacity=".50199997"/>
    <path fill="url(#aY)" style="isolation:isolate" d="M1242.12 382.4l-38.19 23v60.5l38.19-22.9z" opacity=".50199997"/>
  </g>
  <g opacity=".2" style="isolation:isolate">
    <path fill="#bbb" d="M875.86 300.36h-9.12l13.82-31.31h9.15l-13.85 31.31z"/>
    <path fill="#999" d="M880.12 210.64l24.27 58.43-23.83-.02-13.82 31.31h-22.66l36.04-89.72z"/>
    <path fill="#fcfcfc" d="M913.54 269.07h-9.15l-24.27-58.43h9.14l24.28 58.43zM963.57 300.51h-9.13l-56.27-134.86h9.15l56.25 134.86z"/>
    <path fill="#999" d="M898.17 165.65l56.27 134.86-25.7-.08-43.24-103.2 12.67-31.58z"/>
  </g>
</svg>
