<svg id="SvgjsSvg1008" xmlns="http://www.w3.org/2000/svg" version="1.1" xmlns:xlink="http://www.w3.org/1999/xlink" xmlns:svgjs="http://svgjs.com/svgjs" width="6" height="9"><defs id="SvgjsDefs1009"></defs><path id="SvgjsPath1010" d="M90.2478 738.432C90.0809 738.59167 90.00403 738.80575 90.01719 739.01586C90.00655 739.22336 90.08365 739.43439 90.24849999999999 739.593C90.32530999999999 739.66698 90.41396999999999 739.7225999999999 90.50859999999999 739.7598499999999L93.65379999999999 742.785C93.96329999999999 743.083 94.46489999999999 743.083 94.77459999999999 742.785C95.08399999999999 742.487 95.08399999999999 742.004 94.77459999999999 741.707L91.97251999999999 739.01277L94.77499999999999 736.3180000000001C95.08439999999999 736.0190000000001 95.08439999999999 735.5370000000001 94.77499999999999 735.2390000000001C94.46549999999999 734.9420000000001 93.96369999999999 734.9420000000001 93.65429999999999 735.2390000000001L90.5084 738.2650100000002C90.41359999999999 738.3022600000002 90.32477 738.3579200000001 90.2478 738.4320000000002Z " fill="#2dbe4c" transform="matrix(1,0,0,1,-90,-735)"></path><path id="SvgjsPath1011" d="M90.2478 738.432C90.0809 738.59167 90.00403 738.80575 90.01719 739.01586C90.00655 739.22336 90.08365 739.43439 90.24849999999999 739.593C90.32530999999999 739.66698 90.41396999999999 739.7225999999999 90.50859999999999 739.7598499999999L93.65379999999999 742.785C93.96329999999999 743.083 94.46489999999999 743.083 94.77459999999999 742.785C95.08399999999999 742.487 95.08399999999999 742.004 94.77459999999999 741.707L91.97251999999999 739.01277L94.77499999999999 736.3180000000001C95.08439999999999 736.0190000000001 95.08439999999999 735.5370000000001 94.77499999999999 735.2390000000001C94.46549999999999 734.9420000000001 93.96369999999999 734.9420000000001 93.65429999999999 735.2390000000001L90.5084 738.2650100000002C90.41359999999999 738.3022600000002 90.32477 738.3579200000001 90.2478 738.4320000000002Z " fill="#bfa97d" fill-opacity="1" transform="matrix(1,0,0,1,-90,-735)"></path></svg>