<svg id="SvgjsSvg1008" xmlns="http://www.w3.org/2000/svg" version="1.1" xmlns:xlink="http://www.w3.org/1999/xlink" xmlns:svgjs="http://svgjs.com/svgjs" width="6" height="9"><defs id="SvgjsDefs1009"></defs><path id="SvgjsPath1010" d="M72.2478 434.568C72.08073 434.40822 72.00385 434.19396 72.01715 433.98371C72.00664 433.77635 72.08373 433.56550999999996 72.2484 433.407C72.32525 433.33297999999996 72.41397 433.27734 72.50866 433.2401L75.6538 430.215C75.9633 429.917 76.4649 429.917 76.7746 430.215C77.084 430.513 77.084 430.996 76.7746 431.29299999999995L73.97252 433.98722999999995L76.775 436.68199999999996C77.0844 436.98099999999994 77.0844 437.46299999999997 76.775 437.76099999999997C76.4655 438.05899999999997 75.9637 438.05899999999997 75.6543 437.76099999999997L72.50824 434.73492999999996C72.4135 434.69768 72.32472 434.64203999999995 72.2478 434.568Z " fill="#bfa97d" transform="matrix(1,0,0,1,-72,-429)"></path><path id="SvgjsPath1011" d="M72.2478 434.568C72.08073 434.40822 72.00385 434.19396 72.01715 433.98371C72.00664 433.77635 72.08373 433.56550999999996 72.2484 433.407C72.32525 433.33297999999996 72.41397 433.27734 72.50866 433.2401L75.6538 430.215C75.9633 429.917 76.4649 429.917 76.7746 430.215C77.084 430.513 77.084 430.996 76.7746 431.29299999999995L73.97252 433.98722999999995L76.775 436.68199999999996C77.0844 436.98099999999994 77.0844 437.46299999999997 76.775 437.76099999999997C76.4655 438.05899999999997 75.9637 438.05899999999997 75.6543 437.76099999999997L72.50824 434.73492999999996C72.4135 434.69768 72.32472 434.64203999999995 72.2478 434.568Z " fill="#ffffff" fill-opacity="1" transform="matrix(1,0,0,1,-72,-429)"></path></svg>