<svg id="SvgjsSvg1012" xmlns="http://www.w3.org/2000/svg" version="1.1" xmlns:xlink="http://www.w3.org/1999/xlink" xmlns:svgjs="http://svgjs.com/svgjs" width="6" height="9"><defs id="SvgjsDefs1013"></defs><path id="SvgjsPath1014" d="M639.752 738.432C639.91985 738.59227 639.99682 738.80736 639.9829 739.01823C639.99281 739.22496 639.91584 739.43499 639.752 739.593C639.6749 739.66712 639.58592 739.7228 639.4909899999999 739.76005L636.3459999999999 742.785C636.0369999999999 743.083 635.5349999999999 743.083 635.2249999999999 742.785C634.9159999999999 742.487 634.9159999999999 742.004 635.2249999999999 741.707L638.0272799999999 739.0125L635.2249999999999 736.3180000000001C634.9159999999999 736.0190000000001 634.9159999999999 735.5370000000001 635.2249999999999 735.2390000000001C635.5349999999999 734.9420000000001 636.036 734.9420000000001 636.3459999999999 735.2390000000001L639.4923599999998 738.2652700000001C639.5868599999999 738.3025200000001 639.6753699999998 738.3580900000001 639.7519999999998 738.4320000000001Z " fill="#bfa97d" transform="matrix(1,0,0,1,-634,-735)"></path></svg>