<?xml version="1.0" encoding="utf-8"?>
<!-- Generator: Adobe Illustrator 17.0.1, SVG Export Plug-In . SVG Version: 6.00 Build 0)  -->
<!DOCTYPE svg PUBLIC "-//W3C//DTD SVG 1.1//EN" "http://www.w3.org/Graphics/SVG/1.1/DTD/svg11.dtd">
<svg version="1.1" id="SvgjsSvg1015" xmlns:svgjs="http://svgjs.com/svgjs"
	 xmlns="http://www.w3.org/2000/svg" xmlns:xlink="http://www.w3.org/1999/xlink" x="0px" y="0px" width="6px" height="9px"
	 viewBox="0 0 6 9" enable-background="new 0 0 6 9" xml:space="preserve">
<path id="SvgjsPath1017" fill="#2DBE4C" d="M0.248,4.575C0.08,4.413,0.003,4.197,0.017,3.987c-0.01-0.208,0.067-0.418,0.231-0.572
	c0.076-0.074,0.164-0.129,0.257-0.167l3.149-3.023c0.309-0.3,0.811-0.3,1.12,0c0.31,0.29,0.31,0.78,0,1.07L1.972,3.994l2.803,2.691
	c0.309,0.3,0.309,0.78,0,1.08c-0.31,0.3-0.811,0.3-1.121,0L0.505,4.742C0.412,4.704,0.324,4.649,0.248,4.575z"/>
</svg>
