<svg id="SvgjsSvg1000" xmlns="http://www.w3.org/2000/svg" version="1.1" xmlns:xlink="http://www.w3.org/1999/xlink" xmlns:svgjs="http://svgjs.com/svgjs" width="15" height="15" viewBox="0 0 15 15"><title>Shape 524</title><desc>Created with Avocode.</desc><defs id="SvgjsDefs1001"><clipPath id="SvgjsClipPath1010"><path id="SvgjsPath1009" d="M1210.65 466.354L1211.3500000000001 465.64599999999996L1223.3500000000001 477.64599999999996L1222.65 478.354Z " fill="#ffffff"></path></clipPath><clipPath id="SvgjsClipPath1014"><path id="SvgjsPath1013" d="M1224.01 465.714L1223.29 464.99L1210.99 477.286L1211.71 478.01Z " fill="#ffffff"></path></clipPath></defs><path id="SvgjsPath1007" d="M1210.65 466.354L1211.3500000000001 465.64599999999996L1223.3500000000001 477.64599999999996L1222.65 478.354Z " fill="#ffffff" fill-opacity="1" transform="matrix(1,0,0,1,-1210,-464)"></path><path id="SvgjsPath1008" d="M1210.65 466.354L1211.3500000000001 465.64599999999996L1223.3500000000001 477.64599999999996L1222.65 478.354Z " fill-opacity="0" fill="#ffffff" stroke-dasharray="0" stroke-linejoin="miter" stroke-linecap="butt" stroke-opacity="1" stroke="#bfa97d" stroke-miterlimit="50" stroke-width="6" clip-path="url(&quot;#SvgjsClipPath1010&quot;)" transform="matrix(1,0,0,1,-1210,-464)"></path><path id="SvgjsPath1011" d="M1224.01 465.714L1223.29 464.99L1210.99 477.286L1211.71 478.01Z " fill="#ffffff" fill-opacity="1" transform="matrix(1,0,0,1,-1210,-464)"></path><path id="SvgjsPath1012" d="M1224.01 465.714L1223.29 464.99L1210.99 477.286L1211.71 478.01Z " fill-opacity="0" fill="#ffffff" stroke-dasharray="0" stroke-linejoin="miter" stroke-linecap="butt" stroke-opacity="1" stroke="#bfa97d" stroke-miterlimit="50" stroke-width="6" clip-path="url(&quot;#SvgjsClipPath1014&quot;)" transform="matrix(1,0,0,1,-1210,-464)"></path></svg>