<?xml version="1.0" encoding="UTF-8"?>
<svg width="100px" height="19px" viewBox="0 0 100 19" version="1.1" xmlns="http://www.w3.org/2000/svg" xmlns:xlink="http://www.w3.org/1999/xlink">
    <title>logo</title>
    <g id="Page-1" stroke="none" stroke-width="1" fill="none" fill-rule="evenodd">
        <g id="logo" fill-rule="nonzero">
            <path d="M91,19 C94.2153903,19 97.1865336,17.2846097 98.7942287,14.5 C100.401924,11.7153903 100.401924,8.28460967 98.7942287,5.5 C97.1865336,2.71539025 94.2153903,1 91,1 C86.0294373,1 82,5.02943725 82,10 C82,14.9705627 86.0294373,19 91,19 L91,19 Z" id="Path" fill="#EE5326"></path>
            <path d="M1.23,18.0000267 C1.07,18.0000267 0.93,17.94 0.81,17.82 C0.694659433,17.710805 0.62952699,17.5588293 0.629994911,17.4 L0.629994911,1.824 C0.629994911,1.648 0.686,1.5 0.798,1.38 C0.909136001,1.26026737 1.06672722,1.19460436 1.23,1.2 L12.39,1.2 C12.566,1.2 12.714,1.26 12.834,1.38 C12.954,1.5 13.014,1.648 13.014,1.824 L13.014,4.368 C13.014,4.544 12.954,4.688 12.834,4.8 C12.7137972,4.91212172 12.5543169,4.97246559 12.39,4.968 L5.046,4.968 L5.046,8.304 L11.91,8.304 C12.086,8.304 12.234,8.364 12.354,8.484 C12.474,8.604 12.534,8.752 12.534,8.928 L12.534,11.472 C12.534,11.648 12.474,11.792 12.354,11.904 C12.2337972,12.0161217 12.0743169,12.0764656 11.91,12.072 L5.046,12.072 L5.046,17.4 C5.04707382,17.5594567 4.9842046,17.7126937 4.87144916,17.8254492 C4.75869371,17.9382046 4.60545666,18.0010738 4.446,18.0000267 L1.23,18.0000267 Z M16.134,18 C15.974,18 15.834,17.94 15.714,17.82 C15.5986594,17.710805 15.533527,17.5588293 15.5339949,17.4 L15.5339949,1.824 C15.5339949,1.648 15.59,1.5 15.702,1.38 C15.813136,1.26026737 15.9707272,1.19460436 16.134,1.2 L27.462,1.2 C27.638,1.2 27.786,1.26 27.906,1.38 C28.026,1.5 28.086,1.648 28.086,1.824 L28.086,4.2 C28.086,4.376 28.026,4.52 27.906,4.632 C27.7857972,4.74412172 27.6263169,4.80446559 27.462,4.8 L19.878,4.8 L19.878,7.848 L26.934,7.848 C27.11,7.848 27.258,7.908 27.378,8.028 C27.498,8.148 27.558,8.296 27.558,8.472 L27.558,10.656 C27.558,10.832 27.498,10.98 27.378,11.1 C27.2612098,11.2187432 27.1005075,11.2838928 26.934,11.28 L19.878,11.28 L19.878,14.4 L27.654,14.4 C27.83,14.4 27.978,14.46 28.098,14.58 C28.218,14.7 28.278,14.848 28.278,15.024 L28.278,17.4 C28.278,17.576 28.218,17.72 28.098,17.832 C27.9777972,17.9441217 27.8183169,18.0044656 27.654,18 L16.134,18 Z M31.542,18 C31.382,18 31.242,17.94 31.122,17.82 C31.0066594,17.710805 30.941527,17.5588293 30.9419949,17.4 L30.9419949,1.824 C30.9419949,1.648 30.998,1.5 31.11,1.38 C31.221136,1.26026737 31.3787272,1.19460436 31.542,1.2 L37.854,1.2 C40.222,1.2 42.062,1.764 43.374,2.892 C44.686,4.02 45.374,5.64 45.438,7.752 C45.454,8.216 45.462,8.832 45.462,9.6 C45.462,10.368 45.454,10.976 45.438,11.424 C45.278,15.808 42.79,18 37.974,18 L31.542,18 Z M37.854,14.4 C38.862,14.4 39.606,14.16 40.086,13.68 C40.566,13.2 40.822,12.432 40.854,11.376 C40.8898611,10.7766942 40.9058698,10.1763653 40.902,9.576 C40.902,8.84 40.886,8.248 40.854,7.8 C40.822,6.776 40.546,6.02 40.026,5.532 C39.506,5.044 38.742,4.8 37.734,4.8 L35.454,4.8 L35.454,14.4 L37.854,14.4 Z M49.782,16.584 C48.47,15.48 47.774,13.856 47.694,11.712 C47.6768926,11.1241592 47.6688916,10.5360886 47.6698144,9.948 L47.6698144,9.648 C47.6698144,8.72 47.678,8.024 47.694,7.56 C47.758,5.448 48.458,3.82 49.794,2.676 C51.13,1.532 52.918,0.96 55.158,0.96 C57.382,0.96 59.162,1.532 60.498,2.676 C61.834,3.82 62.534,5.448 62.598,7.56 C62.626,8.385 62.642,9.026 62.645,9.485 L62.646,9.648 C62.646,10.128 62.63,10.816 62.598,11.712 C62.518,13.856 61.826,15.48 60.522,16.584 C59.218,17.688 57.43,18.24 55.158,18.24 C52.886,18.24 51.094,17.688 49.782,16.584 L49.782,16.584 Z M57.15,13.884 C57.646,13.38 57.91,12.608 57.942,11.568 C57.968029,10.9042796 57.9840308,10.2402038 57.99,9.576 C57.99,9.176 57.974,8.528 57.942,7.632 C57.91,6.592 57.646,5.82 57.15,5.316 C56.654,4.812 55.99,4.56 55.158,4.56 C54.31,4.56 53.638,4.812 53.142,5.316 C52.646,5.82 52.382,6.592 52.35,7.632 C52.331278,8.27982327 52.3232769,8.92791198 52.326,9.576 C52.326,10.44 52.334,11.104 52.35,11.568 C52.382,12.608 52.646,13.38 53.142,13.884 C53.638,14.388 54.31,14.64 55.158,14.64 C55.99,14.64 56.654,14.388 57.15,13.884 L57.15,13.884 Z M65.958,18 C65.798,18 65.658,17.94 65.538,17.82 C65.4226594,17.710805 65.357527,17.5588293 65.3579949,17.4 L65.3579949,1.824 C65.3579949,1.648 65.414,1.5 65.526,1.38 C65.637136,1.26026737 65.7947272,1.19460436 65.958,1.2 L72.558,1.2 C74.67,1.2 76.322,1.68 77.514,2.64 C78.706,3.6 79.302,4.952 79.302,6.696 C79.302,7.816 79.042,8.768 78.522,9.552 C78.002,10.336 77.286,10.944 76.374,11.376 L79.614,17.232 C79.6581162,17.3132386 79.6827636,17.4036124 79.686,17.496 C79.6850864,17.6263134 79.6334329,17.7511429 79.542,17.844 C79.4504804,17.9459953 79.3190039,18.0029685 79.182,18 L75.798,18 C75.334,18 75.006,17.784 74.814,17.352 L72.174,12.144 L69.87,12.144 L69.87,17.4 C69.87,17.576 69.81,17.72 69.69,17.832 C69.5697972,17.9441217 69.4103169,18.0044656 69.246,18 L65.958,18 Z M72.534,8.616 C73.222,8.616 73.746,8.444 74.106,8.1 C74.466,7.756 74.646,7.28 74.646,6.672 C74.646,6.064 74.466,5.576 74.106,5.208 C73.746,4.84 73.222,4.656 72.534,4.656 L69.87,4.656 L69.87,8.616 L72.534,8.616 Z" id="Shape" fill="#000102"></path>
        </g>
    </g>
</svg>