<svg xmlns="http://www.w3.org/2000/svg" id="Слой_1" viewBox="0 0 355.9 605.3">
  <g opacity=".3">
    <g class="st1">
      <g class="st1">
        <linearGradient id="SVGID_1_" x1="-124.3751" x2="-124.3193" y1="775.5125" y2="776.2554" gradientTransform="matrix(45.535 0 0 -40.7 5910.6177 31875.5332)" gradientUnits="userSpaceOnUse">
          <stop offset=".019" stop-color="#34b2c7"/>
          <stop offset=".221" stop-color="#30adc4"/>
          <stop offset=".474" stop-color="#269dbb"/>
          <stop offset=".751" stop-color="#1584ad"/>
          <stop offset=".977" stop-color="#046a9f"/>
        </linearGradient>
        <path fill="url(#SVGID_1_)" d="M258.8 278.8l-20-1.2c-.7 0-1.4.3-1.8.9l-11.2 18.8c-.3.7-.3 1.3 0 2l10.5 17c.3.5.9.9 1.5.9l20 1.2c.7 0 1.4-.3 1.8-.9l11.2-18.8c.3-.7.3-1.3 0-2l-10.5-17c-.4-.4-.9-.7-1.5-.9z"/>
      </g>
    </g>
    <g class="st1">
      <linearGradient id="SVGID_2_" x1="-124.3564" x2="-124.3347" y1="774.101" y2="775.5021" gradientTransform="matrix(34.249 0 0 -22.07 4512.811 17402.7402)" gradientUnits="userSpaceOnUse">
        <stop offset=".205" stop-color="#34bec7"/>
        <stop offset=".356" stop-color="#34b9c2"/>
        <stop offset=".544" stop-color="#32a9b5"/>
        <stop offset=".752" stop-color="#3190a0"/>
        <stop offset=".973" stop-color="#2e6d82"/>
        <stop offset=".977" stop-color="#2e6c81"/>
      </linearGradient>
      <path fill="url(#SVGID_2_)" d="M249.4 296.4l21.3 1.3c.3 0 .5.4.3.7l-11.6 19.4c-.2.4-.7.7-1.2.7l-21.3-1.3 12.5-20.8z"/>
    </g>
    <g class="st1">
      <linearGradient id="SVGID_3_" x1="-123.9543" x2="-124.8486" y1="775.6347" y2="776.018" gradientTransform="matrix(23.893 0 0 -39.205 3208.5129 30712.9082)" gradientUnits="userSpaceOnUse">
        <stop offset=".073" stop-color="#34b2c7"/>
        <stop offset=".264" stop-color="#30adc4"/>
        <stop offset=".502" stop-color="#269dbb"/>
        <stop offset=".764" stop-color="#1584ad"/>
        <stop offset=".977" stop-color="#046a9f"/>
      </linearGradient>
      <path fill="url(#SVGID_3_)" d="M225.7 298.9l11.3 18.2 12.4-20.7-11.3-18.3c-.1-.2-.6-.2-.7 0l-11.7 19.5c-.3.4-.3.9 0 1.3z"/>
    </g>
    <linearGradient id="SVGID_4_" x1="-124.8254" x2="-123.8444" y1="762.0718" y2="762.0718" gradientTransform="matrix(4 0 0 -3.99 737.3567 3306.0913)" gradientUnits="userSpaceOnUse">
      <stop offset=".073" stop-color="#34b2c7"/>
      <stop offset=".264" stop-color="#30adc4"/>
      <stop offset=".502" stop-color="#269dbb"/>
      <stop offset=".764" stop-color="#1584ad"/>
      <stop offset=".977" stop-color="#046a9f"/>
    </linearGradient>
    <path fill="url(#SVGID_4_)" d="M240 267.4c1.1 0 2-.9 2-2s-.9-2-2-2-2 .9-2 2 .9 2 2 2z"/>
    <linearGradient id="SVGID_5_" x1="-124.8537" x2="-123.87" y1="762.11" y2="762.11" gradientTransform="matrix(3.99 0 0 -4 748.6483 3300.1101)" gradientUnits="userSpaceOnUse">
      <stop offset=".073" stop-color="#34b2c7"/>
      <stop offset=".264" stop-color="#30adc4"/>
      <stop offset=".502" stop-color="#269dbb"/>
      <stop offset=".764" stop-color="#1584ad"/>
      <stop offset=".977" stop-color="#046a9f"/>
    </linearGradient>
    <path fill="url(#SVGID_5_)" d="M252.5 253.7c1.1 0 2-.9 2-2s-.9-2-2-2-2 .9-2 2 .9 2 2 2z"/>
    <linearGradient id="SVGID_6_" x1="-124.8441" x2="-123.8604" y1="762.0718" y2="762.0718" gradientTransform="matrix(3.99 0 0 -3.99 746.6483 3264.1614)" gradientUnits="userSpaceOnUse">
      <stop offset=".073" stop-color="#34b2c7"/>
      <stop offset=".264" stop-color="#30adc4"/>
      <stop offset=".502" stop-color="#269dbb"/>
      <stop offset=".764" stop-color="#1584ad"/>
      <stop offset=".977" stop-color="#046a9f"/>
    </linearGradient>
    <path fill="url(#SVGID_6_)" d="M250.5 225.5c1.1 0 2-.9 2-2s-.9-2-2-2-2 .9-2 2 .9 2 2 2z"/>
    <g class="st1">
      <g class="st1">
        <linearGradient id="SVGID_7_" x1="-124.015" x2="-124.8113" y1="776.601" y2="776.7302" gradientTransform="matrix(80.736 0 0 -86.544 10098.6543 67485.9219)" gradientUnits="userSpaceOnUse">
          <stop offset=".073" stop-color="#34b2c7"/>
          <stop offset=".264" stop-color="#30adc4"/>
          <stop offset=".502" stop-color="#269dbb"/>
          <stop offset=".764" stop-color="#1584ad"/>
          <stop offset=".977" stop-color="#046a9f"/>
        </linearGradient>
        <path fill="url(#SVGID_7_)" d="M24.7 248l-5.8 37.7c-.2 1.3.3 2.7 1.4 3.5L54 313.7c1.1.8 2.6.9 3.8.3l34-17.2c1.1-.5 1.8-1.5 2-2.7l5.8-37.7c.2-1.3-.3-2.7-1.4-3.6l-33.6-24.4c-1.1-.8-2.5-.9-3.8-.3l-34.1 17.2c-1.1.6-1.8 1.6-2 2.7z"/>
      </g>
    </g>
    <g class="st1">
      <linearGradient id="SVGID_8_" x1="-123.8733" x2="-125.9648" y1="776.4305" y2="776.5814" gradientTransform="matrix(43.501 0 0 -68.087 5487.333 53128.9961)" gradientUnits="userSpaceOnUse">
        <stop offset=".073" stop-color="#34b2c7"/>
        <stop offset=".264" stop-color="#30adc4"/>
        <stop offset=".502" stop-color="#269dbb"/>
        <stop offset=".764" stop-color="#1584ad"/>
        <stop offset=".977" stop-color="#046a9f"/>
      </linearGradient>
      <path fill="url(#SVGID_8_)" d="M56.3 268.9l6.2-40.3c.1-.7.9-1 1.4-.5l34.8 25.3c.8.6 1.1 1.5 1 2.3L93.5 296l-37.2-27.1z"/>
    </g>
    <g class="st1">
      <linearGradient id="SVGID_9_" x1="-124.1817" x2="-124.4336" y1="776.3649" y2="775.8436" gradientTransform="matrix(74.305 0 0 -45.595 9296.1436 35674.4961)" gradientUnits="userSpaceOnUse">
        <stop offset=".073" stop-color="#34b2c7"/>
        <stop offset=".264" stop-color="#30adc4"/>
        <stop offset=".502" stop-color="#269dbb"/>
        <stop offset=".764" stop-color="#1584ad"/>
        <stop offset=".977" stop-color="#046a9f"/>
      </linearGradient>
      <path fill="url(#SVGID_9_)" d="M57.2 314.3L93.6 296l-37.3-27-36.6 18.4c-.6.2-.6 1-.1 1.3l35.1 25.4c.7.6 1.6.6 2.5.2z"/>
    </g>
    <linearGradient id="SVGID_10_" x1="-124.8504" x2="-123.8496" y1="767.9278" y2="768.4456" gradientTransform="matrix(6.65 0 0 -6.65 892.0763 5319.519)" gradientUnits="userSpaceOnUse">
      <stop offset=".073" stop-color="#34b2c7"/>
      <stop offset=".264" stop-color="#30adc4"/>
      <stop offset=".502" stop-color="#269dbb"/>
      <stop offset=".764" stop-color="#1584ad"/>
      <stop offset=".977" stop-color="#046a9f"/>
    </linearGradient>
    <path fill="url(#SVGID_10_)" d="M65.2 214.4c1.8 0 3.3-1.5 3.3-3.3 0-1.8-1.5-3.3-3.3-3.3-1.8 0-3.3 1.5-3.3 3.3-.1 1.8 1.4 3.3 3.3 3.3z"/>
    <linearGradient id="SVGID_11_" x1="-124.8506" x2="-123.8502" y1="767.9412" y2="768.4587" gradientTransform="matrix(6.65 0 0 -6.66 861.1263 5313.3174)" gradientUnits="userSpaceOnUse">
      <stop offset=".073" stop-color="#34b2c7"/>
      <stop offset=".264" stop-color="#30adc4"/>
      <stop offset=".502" stop-color="#269dbb"/>
      <stop offset=".764" stop-color="#1584ad"/>
      <stop offset=".977" stop-color="#046a9f"/>
    </linearGradient>
    <path fill="url(#SVGID_11_)" d="M34.2 200.4c1.8 0 3.3-1.5 3.3-3.3s-1.5-3.3-3.3-3.3c-1.8 0-3.3 1.5-3.3 3.3s1.5 3.3 3.3 3.3z"/>
    <linearGradient id="SVGID_12_" x1="-124.8494" x2="-123.8486" y1="767.9283" y2="768.446" gradientTransform="matrix(6.65 0 0 -6.65 875.2163 5248.3091)" gradientUnits="userSpaceOnUse">
      <stop offset=".073" stop-color="#34b2c7"/>
      <stop offset=".264" stop-color="#30adc4"/>
      <stop offset=".502" stop-color="#269dbb"/>
      <stop offset=".764" stop-color="#1584ad"/>
      <stop offset=".977" stop-color="#046a9f"/>
    </linearGradient>
    <path fill="url(#SVGID_12_)" d="M48.3 143.2c1.8 0 3.3-1.5 3.3-3.3 0-1.8-1.5-3.3-3.3-3.3-1.8 0-3.3 1.5-3.3 3.3 0 1.8 1.5 3.3 3.3 3.3z"/>
    <g class="st1">
      <linearGradient id="SVGID_13_" x1="-124.7198" x2="-123.9331" y1="775.7095" y2="776.3928" gradientTransform="matrix(52.518 0 0 -45.92 6706.0742 36114.8711)" gradientUnits="userSpaceOnUse">
        <stop offset=".073" stop-color="#34b2c7"/>
        <stop offset=".264" stop-color="#30adc4"/>
        <stop offset=".502" stop-color="#269dbb"/>
        <stop offset=".764" stop-color="#1584ad"/>
        <stop offset=".977" stop-color="#046a9f"/>
      </linearGradient>
      <path fill="url(#SVGID_13_)" d="M187.7 457.4l13.6 18.8c.4.7.6 1.5.2 2.3L190.3 501c-.3.8-1.1 1.2-2 1.2l-23.2.2c-.7 0-1.4-.3-1.8-.9l-13.7-18.7c-.4-.7-.5-1.6-.2-2.3l11.3-22.5c.3-.8 1.1-1.2 2-1.2l23.2-.2c.7-.1 1.4.3 1.8.8z"/>
    </g>
    <linearGradient id="SVGID_14_" x1="-124.7554" x2="-123.0177" y1="775.8508" y2="776.5529" gradientTransform="matrix(27.333 0 0 -45.273 3561.6831 35612.3516)" gradientUnits="userSpaceOnUse">
      <stop offset=".073" stop-color="#34b2c7"/>
      <stop offset=".264" stop-color="#30adc4"/>
      <stop offset=".502" stop-color="#269dbb"/>
      <stop offset=".764" stop-color="#1584ad"/>
      <stop offset=".977" stop-color="#046a9f"/>
    </linearGradient>
    <path fill="url(#SVGID_14_)" d="M176.5 477.5l-14.5-20c-.2-.3-.8-.3-.9.1L149.3 481c-.2.4-.2 1.1.1 1.5l14.5 20 12.6-25z"/>
    <linearGradient id="SVGID_15_" x1="-124.756" x2="-123.9913" y1="775.2122" y2="774.6899" gradientTransform="matrix(37.849 0 0 -25.18 4889.2773 20002.7949)" gradientUnits="userSpaceOnUse">
      <stop offset=".073" stop-color="#34b2c7"/>
      <stop offset=".264" stop-color="#30adc4"/>
      <stop offset=".502" stop-color="#269dbb"/>
      <stop offset=".764" stop-color="#1584ad"/>
      <stop offset=".977" stop-color="#046a9f"/>
    </linearGradient>
    <path fill="url(#SVGID_15_)" d="M188.6 502.2l-24.7.2 12.5-25 24.9-.2c.3 0 .5.3.4.7l-11.8 23.5c-.2.5-.7.8-1.3.8z"/>
    <linearGradient id="SVGID_16_" x1="-124.8489" x2="-123.851" y1="764.86" y2="764.86" gradientTransform="matrix(4.88 0 0 -4.88 821.4938 4200.3667)" gradientUnits="userSpaceOnUse">
      <stop offset=".073" stop-color="#34b2c7"/>
      <stop offset=".264" stop-color="#30adc4"/>
      <stop offset=".502" stop-color="#269dbb"/>
      <stop offset=".764" stop-color="#1584ad"/>
      <stop offset=".977" stop-color="#046a9f"/>
    </linearGradient>
    <path fill="url(#SVGID_16_)" d="M214.7 470.3c1.4 0 2.4-1.1 2.4-2.4 0-1.3-1.1-2.4-2.4-2.4-1.3 0-2.4 1.1-2.4 2.4-.1 1.3 1 2.4 2.4 2.4z"/>
    <linearGradient id="SVGID_17_" x1="-124.8489" x2="-123.8512" y1="764.86" y2="764.86" gradientTransform="matrix(4.88 0 0 -4.88 806.0738 4180.8467)" gradientUnits="userSpaceOnUse">
      <stop offset=".073" stop-color="#34b2c7"/>
      <stop offset=".264" stop-color="#30adc4"/>
      <stop offset=".502" stop-color="#269dbb"/>
      <stop offset=".764" stop-color="#1584ad"/>
      <stop offset=".977" stop-color="#046a9f"/>
    </linearGradient>
    <path fill="url(#SVGID_17_)" d="M199.3 450.8c1.4 0 2.4-1.1 2.4-2.4 0-1.3-1.1-2.4-2.4-2.4-1.3 0-2.4 1.1-2.4 2.4-.1 1.3 1 2.4 2.4 2.4z"/>
    <linearGradient id="SVGID_18_" x1="-124.8469" x2="-123.8491" y1="764.86" y2="764.86" gradientTransform="matrix(4.88 0 0 -4.88 834.4738 4148.457)" gradientUnits="userSpaceOnUse">
      <stop offset=".073" stop-color="#34b2c7"/>
      <stop offset=".264" stop-color="#30adc4"/>
      <stop offset=".502" stop-color="#269dbb"/>
      <stop offset=".764" stop-color="#1584ad"/>
      <stop offset=".977" stop-color="#046a9f"/>
    </linearGradient>
    <path fill="url(#SVGID_18_)" d="M227.7 418.4c1.4 0 2.4-1.1 2.4-2.4 0-1.4-1.1-2.4-2.4-2.4s-2.4 1.1-2.4 2.4c-.1 1.3 1 2.4 2.4 2.4z"/>
    <g class="st1">
      <linearGradient id="SVGID_19_" x1="-124.2549" x2="-124.8097" y1="775.6895" y2="776.2485" gradientTransform="matrix(42.59 0 0 -38.71 5624.606 30616.5293)" gradientUnits="userSpaceOnUse">
        <stop offset=".073" stop-color="#34b2c7"/>
        <stop offset=".264" stop-color="#30adc4"/>
        <stop offset=".502" stop-color="#269dbb"/>
        <stop offset=".764" stop-color="#1584ad"/>
        <stop offset=".977" stop-color="#046a9f"/>
      </linearGradient>
      <path fill="url(#SVGID_19_)" d="M319.9 567.2l-12.2 14.4c-.4.6-.5 1.2-.3 1.9l7.9 19.1c.2.7.9 1.1 1.6 1.1l18.9 1.5c.6 0 1.1-.2 1.6-.7l12.2-14.4c.4-.5.5-1.2.3-1.9l-7.9-19.1c-.2-.7-.9-1.1-1.6-1.1l-18.9-1.5c-.7.1-1.2.3-1.6.7z"/>
    </g>
    <linearGradient id="SVGID_20_" x1="-123.6743" x2="-125.3752" y1="775.2512" y2="776.3801" gradientTransform="matrix(22.074 0 0 -36.643 3083.8357 29010.7617)" gradientUnits="userSpaceOnUse">
      <stop offset=".073" stop-color="#34b2c7"/>
      <stop offset=".264" stop-color="#30adc4"/>
      <stop offset=".502" stop-color="#269dbb"/>
      <stop offset=".764" stop-color="#1584ad"/>
      <stop offset=".977" stop-color="#046a9f"/>
    </linearGradient>
    <path fill="url(#SVGID_20_)" d="M327.9 584.2l13-15.4c.2-.2.7-.2.8.1l8.2 19.7c.2.4.1.9-.2 1.2l-13 15.4-8.8-21z"/>
    <linearGradient id="SVGID_21_" x1="-123.7389" x2="-124.6336" y1="775.0022" y2="774.5225" gradientTransform="matrix(29.321 0 0 -22.74 3967.9448 18210.0762)" gradientUnits="userSpaceOnUse">
      <stop offset=".073" stop-color="#34b2c7"/>
      <stop offset=".264" stop-color="#30adc4"/>
      <stop offset=".502" stop-color="#269dbb"/>
      <stop offset=".764" stop-color="#1584ad"/>
      <stop offset=".977" stop-color="#046a9f"/>
    </linearGradient>
    <path fill="url(#SVGID_21_)" d="M316.5 603.6l20.1 1.7-8.8-21.1-20.2-1.7c-.3 0-.4.2-.3.6l8.2 19.9c.2.3.6.6 1 .6z"/>
    <linearGradient id="SVGID_22_" x1="-124.833" x2="-123.8418" y1="762.905" y2="762.905" gradientTransform="matrix(4.22 0 0 -4.22 867.3134 3773.0491)" gradientUnits="userSpaceOnUse">
      <stop offset=".073" stop-color="#34b2c7"/>
      <stop offset=".264" stop-color="#30adc4"/>
      <stop offset=".502" stop-color="#269dbb"/>
      <stop offset=".764" stop-color="#1584ad"/>
      <stop offset=".977" stop-color="#046a9f"/>
    </linearGradient>
    <path fill="url(#SVGID_22_)" d="M342.6 555.7c1.2 0 2.1-.9 2.1-2.1 0-1.2-.9-2.1-2.1-2.1s-2.1 1-2.1 2.1c0 1.2.9 2.1 2.1 2.1z"/>
    <linearGradient id="SVGID_23_" x1="-124.8442" x2="-123.8529" y1="762.8707" y2="762.8707" gradientTransform="matrix(4.22 0 0 -4.21 854.1135 3748.5305)" gradientUnits="userSpaceOnUse">
      <stop offset=".073" stop-color="#34b2c7"/>
      <stop offset=".264" stop-color="#30adc4"/>
      <stop offset=".502" stop-color="#269dbb"/>
      <stop offset=".764" stop-color="#1584ad"/>
      <stop offset=".977" stop-color="#046a9f"/>
    </linearGradient>
    <path fill="url(#SVGID_23_)" d="M329.4 539c1.2 0 2.1-.9 2.1-2.1 0-1.2-.9-2.1-2.1-2.1-1.2 0-2.1.9-2.1 2.1 0 1.1.9 2.1 2.1 2.1z"/>
    <linearGradient id="SVGID_24_" x1="-124.8461" x2="-123.8525" y1="762.905" y2="762.905" gradientTransform="matrix(4.21 0 0 -4.22 877.275 3728.459)" gradientUnits="userSpaceOnUse">
      <stop offset=".073" stop-color="#34b2c7"/>
      <stop offset=".264" stop-color="#30adc4"/>
      <stop offset=".502" stop-color="#269dbb"/>
      <stop offset=".764" stop-color="#1584ad"/>
      <stop offset=".977" stop-color="#046a9f"/>
    </linearGradient>
    <path fill="url(#SVGID_24_)" d="M353.8 511.1c1.2 0 2.1-.9 2.1-2.1 0-1.2-.9-2.1-2.1-2.1-1.2 0-2.1.9-2.1 2.1 0 1.2.9 2.1 2.1 2.1z"/>
    <g class="st1">
      <linearGradient id="SVGID_25_" x1="-124.2552" x2="-124.8099" y1="775.6897" y2="776.2486" gradientTransform="matrix(42.596 0 0 -38.71 5318.1079 30098.5391)" gradientUnits="userSpaceOnUse">
        <stop offset=".073" stop-color="#34b2c7"/>
        <stop offset=".264" stop-color="#30adc4"/>
        <stop offset=".502" stop-color="#269dbb"/>
        <stop offset=".764" stop-color="#1584ad"/>
        <stop offset=".977" stop-color="#046a9f"/>
      </linearGradient>
      <path fill="url(#SVGID_25_)" d="M12.7 49.2L.5 63.7c-.4.6-.6 1.2-.3 1.9l7.8 19c.2.7.9 1.1 1.5 1.1l18.9 1.5c.6 0 1.1-.2 1.6-.7l12.2-14.4c.5-.5.6-1.2.3-1.9l-7.9-19.1c-.2-.7-.9-1.1-1.6-1.1l-18.9-1.5c-.5.1-1.1.3-1.4.7z"/>
    </g>
    <linearGradient id="SVGID_26_" x1="-123.6747" x2="-125.3756" y1="775.2514" y2="776.3804" gradientTransform="matrix(22.074 0 0 -36.643 2776.5957 28492.7715)" gradientUnits="userSpaceOnUse">
      <stop offset=".073" stop-color="#34b2c7"/>
      <stop offset=".264" stop-color="#30adc4"/>
      <stop offset=".502" stop-color="#269dbb"/>
      <stop offset=".764" stop-color="#1584ad"/>
      <stop offset=".977" stop-color="#046a9f"/>
    </linearGradient>
    <path fill="url(#SVGID_26_)" d="M20.7 66.2l13-15.4c.2-.2.7-.2.8.1l8.2 19.7c.2.4.1.9-.2 1.2l-13 15.4-8.8-21z"/>
    <linearGradient id="SVGID_27_" x1="-123.7388" x2="-124.6332" y1="775.0022" y2="774.5226" gradientTransform="matrix(29.331 0 0 -22.74 3661.9431 17692.0859)" gradientUnits="userSpaceOnUse">
      <stop offset=".073" stop-color="#34b2c7"/>
      <stop offset=".264" stop-color="#30adc4"/>
      <stop offset=".502" stop-color="#269dbb"/>
      <stop offset=".764" stop-color="#1584ad"/>
      <stop offset=".977" stop-color="#046a9f"/>
    </linearGradient>
    <path fill="url(#SVGID_27_)" d="M9.3 85.6l20.1 1.7-8.8-21.1L.4 64.6c-.3 0-.5.2-.3.6L8.3 85c.2.3.5.6 1 .6z"/>
    <linearGradient id="SVGID_28_" x1="-124.8342" x2="-123.8406" y1="762.8707" y2="762.8707" gradientTransform="matrix(4.21 0 0 -4.21 573.245 3258.3806)" gradientUnits="userSpaceOnUse">
      <stop offset=".073" stop-color="#34b2c7"/>
      <stop offset=".264" stop-color="#30adc4"/>
      <stop offset=".502" stop-color="#269dbb"/>
      <stop offset=".764" stop-color="#1584ad"/>
      <stop offset=".977" stop-color="#046a9f"/>
    </linearGradient>
    <path fill="url(#SVGID_28_)" d="M49.7 48.8c1.2 0 2.1-.9 2.1-2.1 0-1.2-.9-2.1-2.1-2.1-1.2 0-2.1.9-2.1 2.1 0 1.2 1 2.1 2.1 2.1z"/>
    <linearGradient id="SVGID_29_" x1="-124.8453" x2="-123.8518" y1="762.8707" y2="762.8707" gradientTransform="matrix(4.21 0 0 -4.21 560.045 3241.6306)" gradientUnits="userSpaceOnUse">
      <stop offset=".073" stop-color="#34b2c7"/>
      <stop offset=".264" stop-color="#30adc4"/>
      <stop offset=".502" stop-color="#269dbb"/>
      <stop offset=".764" stop-color="#1584ad"/>
      <stop offset=".977" stop-color="#046a9f"/>
    </linearGradient>
    <path fill="url(#SVGID_29_)" d="M36.5 32.1c1.2 0 2.1-.9 2.1-2.1 0-1.2-.9-2.1-2.1-2.1-1.2 0-2.1.9-2.1 2.1 0 1.1 1 2.1 2.1 2.1z"/>
    <linearGradient id="SVGID_30_" x1="-124.8449" x2="-123.8536" y1="762.8707" y2="762.8707" gradientTransform="matrix(4.22 0 0 -4.21 585.6934 3213.7905)" gradientUnits="userSpaceOnUse">
      <stop offset=".073" stop-color="#34b2c7"/>
      <stop offset=".264" stop-color="#30adc4"/>
      <stop offset=".502" stop-color="#269dbb"/>
      <stop offset=".764" stop-color="#1584ad"/>
      <stop offset=".977" stop-color="#046a9f"/>
    </linearGradient>
    <path fill="url(#SVGID_30_)" d="M60.9 4.2c1.2 0 2.1-.9 2.1-2.1C63 .9 62.1 0 60.9 0c-1.2 0-2.1.9-2.1 2.1 0 1.2 1 2.1 2.1 2.1z"/>
  </g>
</svg>
