<svg xmlns="http://www.w3.org/2000/svg" viewBox="0 0 409.18 624.18">
  <defs>
    <linearGradient id="a" x1="275.15" x2="107.37" y1="640.01" y2="310.77" gradientTransform="matrix(-1 0 0 1 433.58 0)" gradientUnits="userSpaceOnUse">
      <stop offset=".02" stop-color="#2e314e"/>
      <stop offset=".5" stop-color="#212742"/>
      <stop offset=".98" stop-color="#1a213c"/>
    </linearGradient>
    <linearGradient id="b" x1="321.32" x2="76.79" y1="482.28" y2="482.28" gradientTransform="matrix(-1 0 0 1 433.58 0)" gradientUnits="userSpaceOnUse">
      <stop offset=".02" stop-color="#2d304b"/>
      <stop offset=".47" stop-color="#232641"/>
      <stop offset=".98" stop-color="#1e213c"/>
    </linearGradient>
    <linearGradient id="c" x1="355.39" x2="-97.91" y1="481.01" y2="481.01" gradientTransform="matrix(-1 0 0 1 433.58 0)" gradientUnits="userSpaceOnUse">
      <stop offset=".02" stop-color="#2d304b"/>
      <stop offset=".48" stop-color="#212742"/>
      <stop offset=".98" stop-color="#1a213c"/>
    </linearGradient>
    <linearGradient id="d" x1="260.43" x2="193.45" y1="466.67" y2="334.12" gradientTransform="matrix(-1 0 0 1 433.58 0)" gradientUnits="userSpaceOnUse">
      <stop offset=".07" stop-color="#2d304b"/>
      <stop offset=".68" stop-color="#222742"/>
      <stop offset="1" stop-color="#1a213c"/>
    </linearGradient>
    <linearGradient id="e" x1="302.84" x2="208.03" y1="473.07" y2="400.43" gradientTransform="matrix(-1 0 0 1 433.58 0)" gradientUnits="userSpaceOnUse">
      <stop offset=".02" stop-color="#2d304b"/>
      <stop offset=".98" stop-color="#1e213c"/>
    </linearGradient>
    <linearGradient id="f" x1="279.48" x2="155.96" y1="421.97" y2="421.97" gradientTransform="matrix(-1 0 0 1 433.58 0)" gradientUnits="userSpaceOnUse">
      <stop offset=".07" stop-color="#37b0c6"/>
      <stop offset=".27" stop-color="#33abc3"/>
      <stop offset=".52" stop-color="#279bba"/>
      <stop offset=".79" stop-color="#1282ac"/>
      <stop offset=".98" stop-color="#016ca0"/>
    </linearGradient>
    <linearGradient id="g" x1="296.69" x2="67.71" y1="421.32" y2="421.32" gradientTransform="matrix(-1 0 0 1 433.58 0)" gradientUnits="userSpaceOnUse">
      <stop offset=".21" stop-color="#3dbac2"/>
      <stop offset=".36" stop-color="#3cb5be"/>
      <stop offset=".56" stop-color="#39a5b1"/>
      <stop offset=".77" stop-color="#348c9c"/>
      <stop offset=".98" stop-color="#2e6d82"/>
    </linearGradient>
    <linearGradient id="h" x1="275.1" x2="216.18" y1="439.72" y2="370.6" gradientTransform="matrix(-1 0 0 1 433.58 0)" gradientUnits="userSpaceOnUse">
      <stop offset=".02" stop-color="#37b0c6"/>
      <stop offset=".98" stop-color="#016ca0"/>
    </linearGradient>
    <linearGradient id="i" x1="278.28" x2="260.09" y1="437.31" y2="406.06" gradientTransform="matrix(-1 0 0 1 433.58 0)" gradientUnits="userSpaceOnUse">
      <stop offset="0" stop-color="#2782c4"/>
      <stop offset=".03" stop-color="#2782c4" stop-opacity=".94"/>
      <stop offset=".16" stop-color="#2782c4" stop-opacity=".69"/>
      <stop offset=".29" stop-color="#2782c4" stop-opacity=".48"/>
      <stop offset=".43" stop-color="#2782c4" stop-opacity=".31"/>
      <stop offset=".56" stop-color="#2782c4" stop-opacity=".17"/>
      <stop offset=".7" stop-color="#2782c4" stop-opacity=".08"/>
      <stop offset=".84" stop-color="#2782c4" stop-opacity=".02"/>
      <stop offset="1" stop-color="#2782c4" stop-opacity="0"/>
    </linearGradient>
    <linearGradient id="j" x1="196.35" x2="211.15" y1="437.67" y2="409.13" gradientTransform="matrix(-1 0 0 1 433.58 0)" gradientUnits="userSpaceOnUse">
      <stop offset="0" stop-color="#2782c4"/>
      <stop offset=".07" stop-color="#2782c4" stop-opacity=".8"/>
      <stop offset=".16" stop-color="#2782c4" stop-opacity=".56"/>
      <stop offset=".25" stop-color="#2782c4" stop-opacity=".36"/>
      <stop offset=".34" stop-color="#2782c4" stop-opacity=".2"/>
      <stop offset=".43" stop-color="#2782c4" stop-opacity=".09"/>
      <stop offset=".52" stop-color="#2782c4" stop-opacity=".02"/>
      <stop offset=".6" stop-color="#2782c4" stop-opacity="0"/>
    </linearGradient>
    <linearGradient id="k" x1="322.85" x2="78.33" y1="246.42" y2="246.42" gradientTransform="matrix(-1 0 0 1 433.58 0)" gradientUnits="userSpaceOnUse">
      <stop offset=".02" stop-color="#2e314e"/>
      <stop offset=".53" stop-color="#222440"/>
      <stop offset=".98" stop-color="#1d1f3b"/>
    </linearGradient>
    <linearGradient id="l" x1="356.93" x2="-96.38" y1="245.15" y2="245.15" gradientTransform="matrix(-1 0 0 1 433.58 0)" gradientUnits="userSpaceOnUse">
      <stop offset=".02" stop-color="#2e314e"/>
      <stop offset=".48" stop-color="#232642"/>
      <stop offset=".98" stop-color="#1d1f3b"/>
    </linearGradient>
    <linearGradient id="m" x1="261.97" x2="194.99" y1="154.96" y2="22.41" gradientTransform="matrix(-1 0 0 1 433.58 0)" gradientUnits="userSpaceOnUse">
      <stop offset=".07" stop-color="#2e314e"/>
      <stop offset=".68" stop-color="#242743"/>
      <stop offset="1" stop-color="#1d1f3b"/>
    </linearGradient>
    <linearGradient id="n" x1="322.85" x2="78.33" y1="84.06" y2="84.06" gradientTransform="matrix(-1 0 0 1 433.58 0)" gradientUnits="userSpaceOnUse">
      <stop offset=".02" stop-color="#009abe"/>
      <stop offset=".19" stop-color="#0088b2"/>
      <stop offset=".48" stop-color="#0070a1"/>
      <stop offset=".75" stop-color="#006197"/>
      <stop offset=".98" stop-color="#005c94"/>
    </linearGradient>
    <linearGradient id="o" x1="356.93" x2="-96.38" y1="82.78" y2="82.78" gradientTransform="matrix(-1 0 0 1 433.58 0)" gradientUnits="userSpaceOnUse">
      <stop offset=".02" stop-color="#009abe"/>
      <stop offset=".05" stop-color="#0097bc"/>
      <stop offset=".43" stop-color="#0077a6"/>
      <stop offset=".76" stop-color="#006399"/>
      <stop offset=".98" stop-color="#005c94"/>
    </linearGradient>
    <linearGradient id="p" x1="261.97" x2="194.99" y1="94.34" y2="-38.22" gradientTransform="matrix(-1 0 0 1 433.58 0)" gradientUnits="userSpaceOnUse">
      <stop offset=".07" stop-color="#009abe"/>
      <stop offset=".31" stop-color="#008fb7"/>
      <stop offset=".74" stop-color="#0072a3"/>
      <stop offset="1" stop-color="#005c94"/>
    </linearGradient>
  </defs>
  <g data-name="Слой 1">
    <path fill="#2b2f71" d="M409.16 550.54v.84c.15 1.69-1 3.34-3.63 4.17l-194.21 63.19a44.89 44.89 0 0 1-16 1.87l-25.1-81.24 239 8.7z"/>
    <path fill="#26368b" d="M3.85 558.28C1.24 557.17 0 555.4 0 553.71v-.84l170.15-13.5 25.1 81.24a47.65 47.65 0 0 1-15.84-3.61z"/>
    <path fill="#16182f" d="M186.22 543.73L0 550.34v6.86c0 1.68 1.21 3.45 3.83 4.57l175.56 58.71a47.66 47.66 0 0 0 15.86 3.62 45.34 45.34 0 0 0 16-1.87L405.5 559c2.6-.82 3.78-2.48 3.63-4.16v-3.31z"/>
    <path fill="url(#a)" d="M211.32 615.45l194.18-63.2c4.91-1.56 4.91-6.08 0-8.18l-188.93-61.6a47.82 47.82 0 0 0-31.91-1.75L3.85 546.45c-5.13 1.62-5.13 6.35 0 8.54l175.56 58.71a47.82 47.82 0 0 0 31.91 1.75z"/>
    <path fill="url(#b)" d="M324.3 421.12l-127.49 46.24v76.08L324.3 497.2v-76.08z"/>
    <path fill="url(#c)" d="M69.32 418.57l127.49 48.79v76.08L69.32 494.65v-76.08z"/>
    <path fill="url(#d)" d="M196.81 372.33l127.49 48.79-127.49 46.24-127.49-48.78 127.49-46.25z"/>
    <path fill="url(#e)" d="M266.81 423.19l-70.12-26.83-69.89 25.34 70.12 26.84 69.89-25.35z"/>
    <path fill="url(#f)" d="M261.21 395.39l-64.4 23.36v29.79l64.4-23.36v-29.79z"/>
    <path fill="url(#g)" d="M132.41 394.11l64.4 24.64v29.79l-64.4-24.65v-29.78z"/>
    <path fill="url(#h)" d="M196.81 370.75l64.4 24.64-64.4 23.36-64.4-24.64 64.4-23.36z"/>
    <path fill="url(#i)" d="M132.25 394.11l64.72 24.64v29.79l-64.72-24.65v-29.78z" style="mix-blend-mode:multiply"/>
    <path fill="url(#j)" d="M261.21 395.39l-64.24 23.36v29.79l64.24-23.36v-29.79z" style="mix-blend-mode:multiply"/>
    <path fill="url(#k)" d="M322.76 109.41l-127.49 46.24v227.78l127.49-46.24V109.41z"/>
    <path fill="url(#l)" d="M67.78 106.87l127.49 48.78v227.78L67.78 334.64V106.87z"/>
    <path fill="url(#m)" d="M195.27 60.62l127.49 48.79-127.49 46.24-127.49-48.78 127.49-46.25z"/>
    <path fill="url(#n)" d="M322.76 48.79L195.27 95.03v24.3l127.49-46.24v-24.3z"/>
    <path fill="url(#o)" d="M67.78 46.24l127.49 48.79v24.3L67.78 70.54v-24.3z"/>
    <path fill="url(#p)" d="M195.27 0l127.49 48.79-127.49 46.24L67.78 46.24 195.27 0z"/>
  </g>
</svg>
