<svg xmlns="http://www.w3.org/2000/svg" viewBox="0 0 481.2 899.8">
  <path fill="#2b2f71" d="M445.2 786.3v.8c.2 1.7-1 3.3-3.6 4.2l-194.2 63.2c-5 1.6-10.5 2.2-16 1.9l-25.1-81.2 239 8.7-.1 2.4z"/>
  <path fill="#26368b" d="M39.8 794c-2.6-1.1-3.9-2.9-3.8-4.6v-.8l170.2-13.5 25.1 81.2c-5.5-.3-11-1.5-15.9-3.6L39.8 794z"/>
  <path fill="#16182f" d="M222.2 779.5L36 786.1v6.9c0 1.7 1.2 3.5 3.8 4.6l175.6 58.7c4.9 2.1 10.4 3.3 15.9 3.6 5.5.3 11.1-.3 16-1.9l194.2-63.2c2.6-.8 3.8-2.5 3.6-4.2v-3.3l-222.9-7.8z"/>
  <linearGradient id="a" x1="311.3974" x2="143.6102" y1="875.7401" y2="546.4975" gradientTransform="matrix(-1 0 0 1 505.8185 0)" gradientUnits="userSpaceOnUse">
    <stop offset=".01872469" stop-color="#2e314e"/>
    <stop offset=".1392" stop-color="#2a2e4a"/>
    <stop offset=".638" stop-color="#1e243f"/>
    <stop offset=".9769" stop-color="#1a213c"/>
  </linearGradient>
  <path fill="url(#a)" d="M247.3 851.2L441.5 788c4.9-1.6 4.9-6.1 0-8.2l-188.9-61.6c-9.9-4.2-22.1-4.9-31.9-1.7L39.8 782.2c-5.1 1.6-5.1 6.4 0 8.5l175.6 58.7c9.9 4.2 22.1 4.9 31.9 1.8z"/>
  <linearGradient id="b" x1="357.5626" x2="113.038" y1="718.0093" y2="718.0093" gradientTransform="matrix(-1 0 0 1 505.8185 0)" gradientUnits="userSpaceOnUse">
    <stop offset=".01872469" stop-color="#2d304b"/>
    <stop offset=".1746" stop-color="#292c47"/>
    <stop offset=".6133" stop-color="#21233f"/>
    <stop offset=".9769" stop-color="#1e213c"/>
  </linearGradient>
  <path fill="url(#b)" d="M360.3 656.8l-127.5 46.3v76.1l127.5-46.3z"/>
  <linearGradient id="c" x1="391.636" x2="-61.667" y1="716.7351" y2="716.7351" gradientTransform="matrix(-1 0 0 1 505.8185 0)" gradientUnits="userSpaceOnUse">
    <stop offset=".01872469" stop-color="#2d304b"/>
    <stop offset=".0397004" stop-color="#2c304b"/>
    <stop offset=".5978" stop-color="#1f253f"/>
    <stop offset=".9769" stop-color="#1a213c"/>
  </linearGradient>
  <path fill="url(#c)" d="M105.3 654.3l127.5 48.8v76.1l-127.5-48.8z"/>
  <linearGradient id="d" x1="296.6745" x2="229.6978" y1="702.4032" y2="569.8452" gradientTransform="matrix(-1 0 0 1 505.8185 0)" gradientUnits="userSpaceOnUse">
    <stop offset=".07044823" stop-color="#2d304b"/>
    <stop offset=".5206" stop-color="#252a45"/>
    <stop offset="1" stop-color="#1a213c"/>
  </linearGradient>
  <path fill="url(#d)" d="M232.8 608.1l127.5 48.7-127.5 46.3-127.5-48.8z"/>
  <linearGradient id="e" x1="339.0886" x2="244.2718" y1="708.7976" y2="636.1558" gradientTransform="matrix(-1 0 0 1 505.8185 0)" gradientUnits="userSpaceOnUse">
    <stop offset=".01872469" stop-color="#2d304b"/>
    <stop offset=".882" stop-color="#20223e"/>
    <stop offset=".9769" stop-color="#1e213c"/>
  </linearGradient>
  <path fill="url(#e)" d="M302.8 658.9l-70.1-26.8-69.9 25.3 70.1 26.9z"/>
  <linearGradient id="f" x1="315.7242" x2="192.2029" y1="657.6957" y2="657.6957" gradientTransform="matrix(-1 0 0 1 505.8185 0)" gradientUnits="userSpaceOnUse">
    <stop offset=".07290727" stop-color="#37b0c6"/>
    <stop offset=".2207" stop-color="#34adc5"/>
    <stop offset=".405" stop-color="#2ba3c0"/>
    <stop offset=".6088" stop-color="#1b94b8"/>
    <stop offset=".825" stop-color="#087eab"/>
    <stop offset=".9769" stop-color="#016ca0"/>
  </linearGradient>
  <path fill="url(#f)" d="M297.2 631.1l-64.4 23.4v29.8l64.4-23.4z"/>
  <linearGradient id="g" x1="332.9363" x2="103.951" y1="657.052" y2="657.052" gradientTransform="matrix(-1 0 0 1 505.8185 0)" gradientUnits="userSpaceOnUse">
    <stop offset=".2053" stop-color="#3dbac2"/>
    <stop offset=".3364" stop-color="#3cb5bf"/>
    <stop offset=".5" stop-color="#38a9b5"/>
    <stop offset=".6808" stop-color="#3396a5"/>
    <stop offset=".8728" stop-color="#307d8f"/>
    <stop offset=".9769" stop-color="#2e6d82"/>
  </linearGradient>
  <path fill="url(#g)" d="M168.4 629.8l64.4 24.7v29.8l-64.4-24.7z"/>
  <linearGradient id="h" x1="311.3475" x2="252.4245" y1="675.4481" y2="606.3268" gradientTransform="matrix(-1 0 0 1 505.8185 0)" gradientUnits="userSpaceOnUse">
    <stop offset=".01872469" stop-color="#37b0c6"/>
    <stop offset=".7079" stop-color="#097fac"/>
    <stop offset=".9769" stop-color="#016ca0"/>
  </linearGradient>
  <path fill="url(#h)" d="M232.8 606.5l64.4 24.6-64.4 23.4-64.4-24.7z"/>
  <linearGradient id="i" x1="314.5234" x2="296.3305" y1="673.0422" y2="641.7875" gradientTransform="matrix(-1 0 0 1 505.8185 0)" gradientUnits="userSpaceOnUse">
    <stop offset="0" stop-color="#2782c4"/>
    <stop offset=".03984821" stop-color="#2782c4" stop-opacity=".9602"/>
    <stop offset="1" stop-color="#2782c4" stop-opacity="0"/>
  </linearGradient>
  <path fill="url(#i)" d="M168.2 629.8l64.8 24.7v29.8l-64.8-24.7z"/>
  <linearGradient id="j" x1="232.5942" x2="247.3908" y1="673.3945" y2="644.8582" gradientTransform="matrix(-1 0 0 1 505.8185 0)" gradientUnits="userSpaceOnUse">
    <stop offset="0" stop-color="#2782c4"/>
    <stop offset=".5952" stop-color="#2782c4" stop-opacity="0"/>
  </linearGradient>
  <path fill="url(#j)" d="M297.2 631.1L233 654.5v29.8l64.2-23.4z"/>
  <linearGradient id="k" x1="357.5626" x2="113.038" y1="561.2352" y2="561.2352" gradientTransform="matrix(-1 0 0 1 505.8185 0)" gradientUnits="userSpaceOnUse">
    <stop offset=".01872469" stop-color="#2d304b"/>
    <stop offset=".2368" stop-color="#272945"/>
    <stop offset=".6415" stop-color="#1f213d"/>
    <stop offset=".9769" stop-color="#1d1f3b"/>
  </linearGradient>
  <path fill="url(#k)" d="M360.3 509.3l-127.5 46.2v57.7L360.3 567z"/>
  <linearGradient id="l" x1="391.636" x2="-61.667" y1="559.961" y2="559.961" gradientTransform="matrix(-1 0 0 1 505.8185 0)" gradientUnits="userSpaceOnUse">
    <stop offset=".01872469" stop-color="#2d304b"/>
    <stop offset=".1026" stop-color="#2a2e49"/>
    <stop offset=".6233" stop-color="#20223e"/>
    <stop offset=".9769" stop-color="#1d1f3b"/>
  </linearGradient>
  <path fill="url(#l)" d="M105.3 506.7l127.5 48.8v57.7l-127.5-48.8z"/>
  <linearGradient id="m" x1="296.6745" x2="229.6978" y1="554.8229" y2="422.2649" gradientTransform="matrix(-1 0 0 1 505.8185 0)" gradientUnits="userSpaceOnUse">
    <stop offset=".07044823" stop-color="#2e314e"/>
    <stop offset=".4665" stop-color="#272c47"/>
    <stop offset="1" stop-color="#1a213c"/>
  </linearGradient>
  <path fill="url(#m)" d="M232.8 460.5l127.5 48.8-127.5 46.2-127.5-48.8z"/>
  <linearGradient id="n" x1="357.4019" x2="112.8774" y1="467.705" y2="467.705" gradientTransform="matrix(-1 0 0 1 505.8185 0)" gradientUnits="userSpaceOnUse">
    <stop offset=".01872469" stop-color="#2e304b"/>
    <stop offset=".1915" stop-color="#282c46"/>
    <stop offset=".621" stop-color="#1e243e"/>
    <stop offset=".9769" stop-color="#1a213c"/>
  </linearGradient>
  <path fill="url(#n)" d="M360.5 406.5L233 452.8v76.1l127.5-46.3z"/>
  <linearGradient id="o" x1="391.4753" x2="-61.8277" y1="466.4308" y2="466.4308" gradientTransform="matrix(-1 0 0 1 505.8185 0)" gradientUnits="userSpaceOnUse">
    <stop offset=".01872469" stop-color="#2d304b"/>
    <stop offset=".0397004" stop-color="#2c304b"/>
    <stop offset=".5978" stop-color="#1f253f"/>
    <stop offset=".9769" stop-color="#1a213c"/>
  </linearGradient>
  <path fill="url(#o)" d="M105.5 404L233 452.8v76.1l-127.5-48.8z"/>
  <linearGradient id="p" x1="296.5138" x2="229.5371" y1="452.0988" y2="319.5408" gradientTransform="matrix(-1 0 0 1 505.8185 0)" gradientUnits="userSpaceOnUse">
    <stop offset=".07044823" stop-color="#2e314e"/>
    <stop offset=".4573" stop-color="#282b47"/>
    <stop offset="1" stop-color="#1d1f3b"/>
  </linearGradient>
  <path fill="url(#p)" d="M233 357.8l127.5 48.7L233 452.8 105.5 404z"/>
  <linearGradient id="q" x1="359.0978" x2="114.5733" y1="273.713" y2="273.713" gradientTransform="matrix(-1 0 0 1 505.8185 0)" gradientUnits="userSpaceOnUse">
    <stop offset=".01872469" stop-color="#0093b8"/>
    <stop offset=".2216" stop-color="#0080ab"/>
    <stop offset=".4345" stop-color="#006f9f"/>
    <stop offset=".6371" stop-color="#006396"/>
    <stop offset=".8231" stop-color="#005b90"/>
    <stop offset=".9769" stop-color="#00598e"/>
  </linearGradient>
  <path fill="url(#q)" d="M358.8 136.7l-127.5 46.2v227.8l127.5-46.2z"/>
  <linearGradient id="r" x1="393.1712" x2="-60.1318" y1="272.4409" y2="272.4409" gradientTransform="matrix(-1 0 0 1 505.8185 0)" gradientUnits="userSpaceOnUse">
    <stop offset=".01872469" stop-color="#0099bc"/>
    <stop offset=".175" stop-color="#007999"/>
    <stop offset=".3813" stop-color="#005574"/>
    <stop offset=".572" stop-color="#0c3c5a"/>
    <stop offset=".7409" stop-color="#192b4a"/>
    <stop offset=".8816" stop-color="#1c2241"/>
    <stop offset=".9769" stop-color="#1c1f3e"/>
  </linearGradient>
  <path fill="url(#r)" d="M103.8 134.2l127.5 48.7v227.8l-127.5-48.8z"/>
  <linearGradient id="s" x1="298.2097" x2="231.233" y1="182.2572" y2="49.6992" gradientTransform="matrix(-1 0 0 1 505.8185 0)" gradientUnits="userSpaceOnUse">
    <stop offset=".07044823" stop-color="#009abe"/>
    <stop offset=".163" stop-color="#0092b6"/>
    <stop offset=".3262" stop-color="#0080a0"/>
    <stop offset=".5407" stop-color="#006280"/>
    <stop offset=".7953" stop-color="#013d5a"/>
    <stop offset="1" stop-color="#1b213e"/>
  </linearGradient>
  <path fill="url(#s)" d="M231.3 87.9l127.5 48.8-127.5 46.2-127.5-48.7z"/>
  <linearGradient id="t" x1="359.0978" x2="114.5733" y1="120.0283" y2="120.0283" gradientTransform="matrix(-1 0 0 1 505.8185 0)" gradientUnits="userSpaceOnUse">
    <stop offset=".01872469" stop-color="#2e314e"/>
    <stop offset=".2756" stop-color="#262945"/>
    <stop offset=".6591" stop-color="#1f213d"/>
    <stop offset=".9769" stop-color="#1d1f3b"/>
  </linearGradient>
  <path fill="url(#t)" d="M358.8 84.8L231.3 131v24.3l127.5-46.2z"/>
  <linearGradient id="u" x1="393.1712" x2="-60.1317" y1="118.7562" y2="118.7562" gradientTransform="matrix(-1 0 0 1 505.8185 0)" gradientUnits="userSpaceOnUse">
    <stop offset=".01872469" stop-color="#2e314e"/>
    <stop offset=".156" stop-color="#2a2d49"/>
    <stop offset=".6449" stop-color="#20223e"/>
    <stop offset=".9769" stop-color="#1d1f3b"/>
  </linearGradient>
  <path fill="url(#u)" d="M103.8 82.2L231.3 131v24.3l-127.5-48.8z"/>
  <linearGradient id="v" x1="298.2097" x2="231.233" y1="130.3116" y2="-2.2465" gradientTransform="matrix(-1 0 0 1 505.8185 0)" gradientUnits="userSpaceOnUse">
    <stop offset=".07044823" stop-color="#32344c"/>
    <stop offset=".3401" stop-color="#2b2d46"/>
    <stop offset=".8133" stop-color="#1d1e36"/>
    <stop offset="1" stop-color="#16182f"/>
  </linearGradient>
  <path fill="url(#v)" d="M231.3 36l127.5 48.8L231.3 131 103.8 82.2z"/>
</svg>
