<svg xmlns="http://www.w3.org/2000/svg" viewBox="0 0 374.72 595.1">
  <defs>
    <radialGradient id="a" cx="-212.6" cy="16.72" r="714.28" gradientTransform="rotate(90 187.36 297.55)" gradientUnits="userSpaceOnUse">
      <stop offset="0" stop-color="#35374d"/>
      <stop offset="1" stop-color="#1b1c32"/>
    </radialGradient>
  </defs>
  <g data-name="Reflection">
    <rect width="374.72" height="595.1" fill="url(#a)" rx="17.01"/>
    <g fill="#fff" opacity=".9">
      <path d="M97.87 43.55l-1.16 3.24h-1.43L99.13 36h1.76l4 10.79h-1.53l-1.19-3.24zm3.94-1.22c-1-2.84-1.59-4.35-1.83-5.17-.27.92-.9 2.74-1.73 5.17zM115 43.73a4.1 4.1 0 0 1-4.3 3.2c-3.23 0-4.86-2.45-4.86-5.5s1.63-5.59 4.91-5.59A3.93 3.93 0 0 1 115 39.1h-1.43a2.73 2.73 0 0 0-2.87-2.1c-2.38 0-3.36 2.16-3.36 4.34s.93 4.35 3.42 4.35a2.78 2.78 0 0 0 2.8-2zM117.9 43.79a2.48 2.48 0 0 0 2.75 2c1.68 0 2.35-.79 2.35-1.81s-.54-1.69-2.7-2.21c-2.54-.62-3.43-1.49-3.43-3s1.19-2.91 3.6-2.91c2.57 0 3.62 1.49 3.77 2.91h-1.46a2.09 2.09 0 0 0-2.37-1.77c-1.31 0-2 .59-2 1.62s.61 1.41 2.5 1.87c3.08.75 3.62 1.95 3.62 3.33 0 1.74-1.29 3.11-3.93 3.11s-3.88-1.49-4.1-3.14zM127.4 43.79a2.46 2.46 0 0 0 2.74 2c1.68 0 2.35-.79 2.35-1.81s-.53-1.69-2.7-2.21c-2.54-.62-3.42-1.49-3.42-3s1.18-2.91 3.59-2.91c2.57 0 3.63 1.49 3.77 2.91h-1.45a2.1 2.1 0 0 0-2.37-1.77c-1.32 0-2.06.59-2.06 1.62s.61 1.41 2.51 1.87c3.07.75 3.62 1.95 3.62 3.33 0 1.74-1.29 3.11-3.93 3.11s-3.89-1.49-4.11-3.14zM96.29 56.11L95.6 58h-.42l2-5.42h.49L99.74 58h-.46l-.7-1.87zm2.15-.39c-.61-1.61-.92-2.39-1-2.75-.13.41-.48 1.37-1 2.75zM103.38 56.85v1.13H103a4.73 4.73 0 0 1 0-.67 1.19 1.19 0 0 1-1.25.77c-.55 0-1.27-.22-1.27-1.41v-2.56h.38v2.47c0 .57.18 1.12 1 1.12s1.19-.49 1.19-1.6v-2h.39zM104.16 54.11h.73V52.9h.38v1.21h.93v.36h-.93V57c0 .43.1.68.47.68a1.87 1.87 0 0 0 .4 0V58a1.47 1.47 0 0 1-.48.07c-.5 0-.77-.25-.77-.87v-2.7h-.73zM110.08 56a1.83 1.83 0 0 1-1.75 2c-1 0-1.7-.86-1.7-2a1.81 1.81 0 0 1 1.74-2c1.03 0 1.71.82 1.71 2zm-3 0c0 .93.5 1.67 1.32 1.67s1.31-.69 1.31-1.67-.47-1.66-1.33-1.66S107 55.11 107 56zM111 55.11v-1h.38v.69a1.21 1.21 0 0 1 1.16-.79 1.11 1.11 0 0 1 1.13.77A1.32 1.32 0 0 1 115 54c.6 0 1.22.34 1.22 1.42V58h-.39v-2.5c0-.52-.18-1.09-.91-1.09s-1.09.61-1.09 1.36V58h-.38v-2.51c0-.57-.17-1.1-.88-1.1s-1.12.67-1.12 1.46V58H111zM120.09 57.25a4.85 4.85 0 0 0 0 .73h-.37a2.24 2.24 0 0 1-.07-.59 1.28 1.28 0 0 1-1.27.69 1.16 1.16 0 0 1-1.29-1.17c0-.85.66-1.24 1.82-1.24h.74v-.39c0-.39-.12-.91-1-.91s-.9.41-1 .73h-.38a1.2 1.2 0 0 1 1.44-1.1c.88 0 1.38.38 1.38 1.23zm-.38-1.25H119c-.86 0-1.4.22-1.4.89a.81.81 0 0 0 .89.82c1.11 0 1.27-.74 1.27-1.57zM120.75 54.11h.72V52.9h.39v1.21h.92v.36h-.92V57c0 .43.09.68.46.68a1.81 1.81 0 0 0 .4 0V58a1.43 1.43 0 0 1-.48.07c-.49 0-.77-.25-.77-.87v-2.7h-.72zM123.57 52.27h.43V53h-.39zm0 1.84h.43V58h-.39zM128.08 56.84a1.48 1.48 0 0 1-1.5 1.24c-1 0-1.66-.73-1.66-2 0-1.06.57-2.05 1.7-2.05a1.39 1.39 0 0 1 1.46 1.24h-.39a1 1 0 0 0-1.07-.87c-.82 0-1.29.7-1.29 1.66s.43 1.67 1.25 1.67a1.1 1.1 0 0 0 1.11-.87zM135.22 56.53a2 2 0 0 1-2 1.51c-1.56 0-2.38-1.24-2.38-2.76s.8-2.8 2.39-2.8a1.89 1.89 0 0 1 2 1.56h-.41a1.57 1.57 0 0 0-1.65-1.17c-1.35 0-1.91 1.23-1.91 2.4s.56 2.39 1.94 2.39a1.59 1.59 0 0 0 1.61-1.13zM136.13 55.16v-1h.38v.87a1.47 1.47 0 0 1 1.35-1v.42a1.41 1.41 0 0 0-1.35 1.55v2h-.38zM141.72 56a1.83 1.83 0 0 1-1.76 2c-1 0-1.69-.86-1.69-2a1.81 1.81 0 0 1 1.73-2c1 0 1.72.82 1.72 2zm-3 0c0 .93.49 1.67 1.32 1.67s1.31-.69 1.31-1.67-.47-1.66-1.33-1.66-1.34.77-1.34 1.66zM142.76 56.91a1 1 0 0 0 1.1.81c.69 0 1-.32 1-.75s-.19-.66-1.06-.87-1.25-.54-1.25-1.06.41-1 1.28-1a1.24 1.24 0 0 1 1.36 1.09h-.39a.91.91 0 0 0-1-.73c-.68 0-.87.33-.87.64s.19.54 1 .72c1.1.27 1.37.62 1.37 1.21s-.58 1.14-1.39 1.14a1.35 1.35 0 0 1-1.49-1.17zM146.29 56.91a1 1 0 0 0 1.1.81c.69 0 1-.32 1-.75s-.18-.66-1.05-.87-1.25-.54-1.25-1.06.4-1 1.28-1a1.25 1.25 0 0 1 1.36 1.09h-.39a.92.92 0 0 0-1-.73c-.67 0-.86.33-.86.64s.18.54.95.72c1.09.27 1.36.62 1.36 1.21s-.57 1.14-1.38 1.14a1.35 1.35 0 0 1-1.49-1.17zM151.43 55.81v.38h-2v-.38zM155.44 56.84a1.48 1.48 0 0 1-1.5 1.24c-1 0-1.66-.73-1.66-2A1.82 1.82 0 0 1 154 54a1.38 1.38 0 0 1 1.45 1.24h-.39a1 1 0 0 0-1.07-.87c-.82 0-1.29.7-1.29 1.66s.44 1.67 1.25 1.67a1.1 1.1 0 0 0 1.11-.87zM156.73 52.27v2.49A1.35 1.35 0 0 1 158 54c.55 0 1.31.28 1.31 1.51V58h-.39v-2.4c0-.77-.34-1.21-1-1.21s-1.21.48-1.21 1.43V58h-.38v-5.73zM163.21 57.25a4.85 4.85 0 0 0 0 .73h-.37a2.81 2.81 0 0 1-.07-.59 1.28 1.28 0 0 1-1.27.69 1.16 1.16 0 0 1-1.29-1.17c0-.85.66-1.24 1.82-1.24h.74v-.39c0-.39-.12-.91-1-.91s-.9.41-1 .73h-.39a1.2 1.2 0 0 1 1.45-1.1c.88 0 1.38.38 1.38 1.23zm-.38-1.25h-.76c-.86 0-1.4.22-1.4.89a.81.81 0 0 0 .89.82c1.11 0 1.27-.74 1.27-1.57zM164.49 52.27h.39V53h-.39zm0 1.84h.39V58h-.39zM166.15 55.08v-1h.38v.73a1.26 1.26 0 0 1 1.28-.83c.69 0 1.31.39 1.31 1.46V58h-.39v-2.47c0-.69-.29-1.14-1-1.14-.93 0-1.24.77-1.24 1.62v2h-.39zM95.77 65.83A1.41 1.41 0 0 0 97.31 67c1 0 1.37-.5 1.37-1.09s-.27-1-1.47-1.28-1.64-.66-1.64-1.44.52-1.38 1.68-1.38A1.58 1.58 0 0 1 99 63.17h-.43a1.22 1.22 0 0 0-1.36-1c-.78 0-1.21.37-1.21 1s.36.83 1.36 1.08c1.52.38 1.75 1 1.75 1.64s-.58 1.49-1.84 1.49a1.74 1.74 0 0 1-2-1.52zM100.28 65.4c0 1 .51 1.62 1.25 1.62a1.09 1.09 0 0 0 1.12-.73h.4a1.5 1.5 0 0 1-1.53 1.09c-1.18 0-1.64-1-1.64-2s.55-2.06 1.69-2.06a1.6 1.6 0 0 1 1.57 1.76v.32zm2.46-.34a1.22 1.22 0 0 0-1.19-1.37c-.8 0-1.16.55-1.25 1.37zM103.57 63.41h.72V62.2h.39v1.21h.92v.37h-.92v2.52c0 .43.09.68.46.68a1.37 1.37 0 0 0 .4 0v.34a1.21 1.21 0 0 1-.48.07c-.49 0-.77-.24-.77-.86v-2.7h-.72zM105.84 63.41h.72V62.2h.44v1.21h.92v.37H107v2.52c0 .43.09.68.46.68a1.48 1.48 0 0 0 .41 0v.34a1.27 1.27 0 0 1-.48.07c-.5 0-.78-.24-.78-.86v-2.7h-.72zM108.64 67.29v-5.71h.36v5.71zM110.38 65.4c0 1 .52 1.62 1.26 1.62a1.09 1.09 0 0 0 1.12-.73h.39a1.48 1.48 0 0 1-1.53 1.09c-1.17 0-1.63-1-1.63-2s.55-2.06 1.68-2.06a1.6 1.6 0 0 1 1.57 1.76v.32zm2.46-.34c0-.77-.42-1.37-1.18-1.37s-1.17.55-1.25 1.37zM114.19 64.41v-1h.37v.69a1.22 1.22 0 0 1 1.16-.78 1.1 1.1 0 0 1 1.13.77 1.32 1.32 0 0 1 1.26-.77c.6 0 1.22.34 1.22 1.42v2.55H119v-2.5c0-.52-.19-1.09-.91-1.09s-1.09.61-1.09 1.36v2.23h-.38v-2.5c0-.56-.17-1.09-.88-1.09s-1.12.67-1.12 1.46v2.13h-.39zM120.71 65.4c0 1 .51 1.62 1.25 1.62a1.09 1.09 0 0 0 1.12-.73h.39a1.48 1.48 0 0 1-1.47 1.09c-1.18 0-1.64-1-1.64-2s.55-2.06 1.68-2.06a1.6 1.6 0 0 1 1.58 1.76v.32zm2.45-.34a1.21 1.21 0 0 0-1.16-1.37c-.8 0-1.16.55-1.25 1.37zM124.52 64.39v-1h.38v.74a1.28 1.28 0 0 1 1.29-.83c.69 0 1.3.39 1.3 1.46v2.51h-.39v-2.43c0-.69-.28-1.14-1-1.14-.92 0-1.24.77-1.24 1.61v2h-.38zM128.16 63.41h.72V62.2h.39v1.21h.92v.37h-.92v2.52c0 .43.09.68.46.68a1.48 1.48 0 0 0 .41 0v.34a1.24 1.24 0 0 1-.48.07c-.5 0-.78-.24-.78-.86v-2.7h-.72zM133.16 65.83A1.41 1.41 0 0 0 134.7 67c1 0 1.37-.5 1.37-1.09s-.27-1-1.47-1.28-1.6-.63-1.6-1.46.52-1.38 1.68-1.38a1.58 1.58 0 0 1 1.77 1.38H136a1.22 1.22 0 0 0-1.36-1c-.78 0-1.21.37-1.21 1s.36.83 1.36 1.08c1.53.38 1.75 1 1.75 1.64s-.58 1.49-1.84 1.49a1.74 1.74 0 0 1-2-1.52zM137.4 63.41c.78 2.22 1.12 3.14 1.25 3.55l1.22-3.55h.4l-1.46 4.1c-.41 1.15-.69 1.41-1.38 1.41a2 2 0 0 1-.36 0v-.38h.35c.56 0 .74-.27 1-1.07l-1.48-4zM141.14 66.22a1 1 0 0 0 1.1.81c.69 0 1-.32 1-.76s-.19-.65-1.06-.86-1.25-.55-1.25-1.06.41-1 1.28-1a1.24 1.24 0 0 1 1.36 1.09h-.39a.91.91 0 0 0-1-.73c-.68 0-.87.33-.87.64s.19.54.95.72c1.1.27 1.37.62 1.37 1.2s-.58 1.14-1.39 1.14a1.35 1.35 0 0 1-1.49-1.16zM144 63.41h.72V62.2h.38v1.21h.9v.37h-.93v2.52c0 .43.1.68.47.68a1.37 1.37 0 0 0 .4 0v.34a1.24 1.24 0 0 1-.48.07c-.49 0-.77-.24-.77-.86v-2.7H144zM146.84 65.4c0 1 .51 1.62 1.25 1.62a1.09 1.09 0 0 0 1.12-.73h.39a1.48 1.48 0 0 1-1.52 1.09c-1.18 0-1.64-1-1.64-2s.55-2.06 1.68-2.06a1.6 1.6 0 0 1 1.58 1.76v.32zm2.45-.34a1.21 1.21 0 0 0-1.18-1.37c-.8 0-1.16.55-1.25 1.37zM150.65 64.41v-1h.35v.69a1.23 1.23 0 0 1 1.17-.78 1.1 1.1 0 0 1 1.12.77 1.32 1.32 0 0 1 1.26-.77c.6 0 1.22.34 1.22 1.42v2.55h-.39v-2.5c0-.52-.18-1.09-.9-1.09s-1.1.61-1.1 1.36v2.23H153v-2.5c0-.56-.17-1.09-.88-1.09s-1.12.67-1.12 1.46v2.13h-.38z"/>
    </g>
    <path fill="#fff" d="M374.72 458.24V17a17.05 17.05 0 0 0-17-17H17A17.05 17.05 0 0 0 0 17v92c186.65 25.65 336.42 166.93 374.72 349.24z" opacity=".01"/>
    <g fill="#fff" opacity=".9">
      <path d="M159.93 547.34a5.28 5.28 0 0 1-2.66-.67 5.08 5.08 0 0 1-1.9-1.84 5 5 0 0 1-.7-2.63.83.83 0 0 1 .17-.52.64.64 0 0 1 .52-.21.61.61 0 0 1 .49.21.78.78 0 0 1 .18.52 3.66 3.66 0 0 0 .52 1.94 3.91 3.91 0 0 0 1.45 1.36 4 4 0 0 0 2 .5 3.91 3.91 0 0 0 3-1.08 3.74 3.74 0 0 0 1-2.69 4 4 0 0 0-.51-2.07 3.55 3.55 0 0 0-1.4-1.32 4.29 4.29 0 0 0-2-.45.66.66 0 0 1-.48-.19.65.65 0 0 1-.19-.48.65.65 0 0 1 .67-.67 3 3 0 0 0 1.59-.44 3.25 3.25 0 0 0 1.12-1.15 3.2 3.2 0 0 0-.44-3.74 3.11 3.11 0 0 0-2.34-.88 3.9 3.9 0 0 0-1.76.38 2.88 2.88 0 0 0-1.19 1 2.74 2.74 0 0 0-.42 1.51.69.69 0 0 1-.19.48.72.72 0 0 1-.5.19.65.65 0 0 1-.5-.2.73.73 0 0 1-.17-.47 4 4 0 0 1 .6-2.17 4.24 4.24 0 0 1 1.67-1.52 5.31 5.31 0 0 1 2.46-.56 4.6 4.6 0 0 1 2.32.59 4.31 4.31 0 0 1 1.63 1.57 4.24 4.24 0 0 1 .6 2.24 3.38 3.38 0 0 1-.34 1.42 4.84 4.84 0 0 1-.95 1.36 4.35 4.35 0 0 1-1.36.95 4.28 4.28 0 0 1 1.89 1 4.5 4.5 0 0 1 1.14 1.64 5.05 5.05 0 0 1 .38 2 5 5 0 0 1-2.59 4.44 5.54 5.54 0 0 1-2.81.65zM168.55 547.5a1.07 1.07 0 0 1-.81-.33 1.09 1.09 0 0 1-.33-.81 1 1 0 0 1 .34-.81 1.16 1.16 0 0 1 .8-.31 1.12 1.12 0 0 1 .79 1.92 1.07 1.07 0 0 1-.79.34zM177.46 547.14a5.29 5.29 0 0 1-2.66-.68 5.08 5.08 0 0 1-1.87-1.87 5.23 5.23 0 0 1 1.87-7.18 5.23 5.23 0 0 1 7.18 1.86 5.54 5.54 0 0 1 0 5.32 5 5 0 0 1-1.85 1.87 5.25 5.25 0 0 1-2.67.68zm-4.62-7.73l5.71-9.35a.74.74 0 0 1 .63-.38.61.61 0 0 1 .44.16.71.71 0 0 1 .24.4.63.63 0 0 1-.1.49l-4 6.5zm4.62 6.41a3.88 3.88 0 0 0 2-.51 3.78 3.78 0 0 0 1.38-1.4 3.86 3.86 0 0 0 .51-2 3.92 3.92 0 0 0-.51-2 3.76 3.76 0 0 0-3.37-1.91 4 4 0 0 0-2 .51 3.86 3.86 0 0 0-1.92 3.4 3.85 3.85 0 0 0 1.92 3.37 4 4 0 0 0 1.99.54zM186.57 547.14a.66.66 0 0 1-.48-.19.65.65 0 0 1-.19-.48v-16.1a.65.65 0 0 1 .19-.48.66.66 0 0 1 .48-.19.62.62 0 0 1 .6.34l7.9 15.6h-.78l7.79-15.6a.68.68 0 0 1 .61-.34.63.63 0 0 1 .46.19.68.68 0 0 1 .18.48v16.1a.68.68 0 0 1-.18.48.63.63 0 0 1-.46.19.74.74 0 0 1-.5-.19.66.66 0 0 1-.2-.48V532l.34.11-7.12 14.51a.59.59 0 0 1-.58.31.69.69 0 0 1-.63-.42l-7.21-14.4.45-.11v14.49a.65.65 0 0 1-.67.67zM213.8 547.27a6.3 6.3 0 0 1-3.15-.8 6.13 6.13 0 0 1-2.22-2.19 6.39 6.39 0 0 1-.86-3.12v-10.79a.66.66 0 0 1 .19-.49.68.68 0 0 1 .48-.18.64.64 0 0 1 .49.18.66.66 0 0 1 .18.49v7a5.18 5.18 0 0 1 2-1.85 5.91 5.91 0 0 1 2.89-.7 6.39 6.39 0 0 1 3.21.82 6 6 0 0 1 2.23 2.22 6.28 6.28 0 0 1 .81 3.19 6.38 6.38 0 0 1-.81 3.21 6.11 6.11 0 0 1-2.23 2.23 6.38 6.38 0 0 1-3.21.78zm0-1.25a4.77 4.77 0 0 0 2.51-.66 4.92 4.92 0 0 0 1.76-1.78 5.07 5.07 0 0 0 .64-2.56 4.86 4.86 0 0 0-2.4-4.32 4.77 4.77 0 0 0-2.51-.66 4.84 4.84 0 0 0-2.5.66 4.75 4.75 0 0 0-1.75 1.78 5.07 5.07 0 0 0-.64 2.54 5.17 5.17 0 0 0 .64 2.56 4.75 4.75 0 0 0 1.75 1.78 4.84 4.84 0 0 0 2.5.64z"/>
    </g>
    <g fill="#fff" opacity=".9">
      <path d="M100.31 308.38a15.26 15.26 0 0 1-5.79-1.06 13 13 0 0 1-4.52-3 13.51 13.51 0 0 1-2.94-4.57 16.72 16.72 0 0 1 0-11.61A13.62 13.62 0 0 1 90 283.6a13.17 13.17 0 0 1 4.52-3 16.32 16.32 0 0 1 11.57 0 13.28 13.28 0 0 1 7.47 7.54 16.72 16.72 0 0 1 0 11.61 13.24 13.24 0 0 1-7.47 7.56 15.14 15.14 0 0 1-5.78 1.07zm0-3.38a10.7 10.7 0 0 0 4.31-.85 10.33 10.33 0 0 0 3.4-2.34 10.12 10.12 0 0 0 2.21-3.51 12.55 12.55 0 0 0 0-8.71 10.15 10.15 0 0 0-5.61-5.83 11.58 11.58 0 0 0-8.61 0 9.9 9.9 0 0 0-3.38 2.32 10.81 10.81 0 0 0-2.22 3.51 12.4 12.4 0 0 0 0 8.71 10.6 10.6 0 0 0 2.22 3.51 10 10 0 0 0 3.37 2.34 10.65 10.65 0 0 0 4.31.85zM122.31 308a1.76 1.76 0 0 1-1.32-.54 1.87 1.87 0 0 1-.52-1.33v-24.35a1.86 1.86 0 0 1 .52-1.35 1.79 1.79 0 0 1 1.32-.52 1.84 1.84 0 0 1 1.44.68l15.69 20.88v-19.69a1.8 1.8 0 0 1 .54-1.35 1.85 1.85 0 0 1 1.34-.52 1.76 1.76 0 0 1 1.33.52 1.89 1.89 0 0 1 .5 1.35v24.37a1.89 1.89 0 0 1-.5 1.33 1.74 1.74 0 0 1-1.33.54 2.13 2.13 0 0 1-.78-.16 1.55 1.55 0 0 1-.66-.48l-15.7-20.88v19.65a1.82 1.82 0 0 1-.52 1.33 1.8 1.8 0 0 1-1.35.52zM152.22 308a1.84 1.84 0 0 1-1.87-1.87v-24.35a1.8 1.8 0 0 1 .54-1.35 1.84 1.84 0 0 1 1.33-.52h16.28a1.86 1.86 0 0 1 1.33.48 1.74 1.74 0 0 1 .5 1.28 1.61 1.61 0 0 1-.5 1.23 1.89 1.89 0 0 1-1.33.46h-14.4v8.75h10.33a1.82 1.82 0 0 1 1.33.49 1.79 1.79 0 0 1 0 2.48 1.82 1.82 0 0 1-1.33.49H154.1v9h14.4a1.85 1.85 0 0 1 1.33.47 1.61 1.61 0 0 1 .5 1.22 1.73 1.73 0 0 1-.5 1.28 1.86 1.86 0 0 1-1.33.48zM187.18 308a1 1 0 0 1-1.08-1.08V281a1 1 0 0 1 .31-.79 1 1 0 0 1 .77-.29h7.2a9.25 9.25 0 0 1 4.66 1.15 8.29 8.29 0 0 1 3.19 3.19 9.25 9.25 0 0 1 1.15 4.66 9.38 9.38 0 0 1-1.15 4.68 8.25 8.25 0 0 1-3.19 3.2 9.25 9.25 0 0 1-4.66 1.15h-6.12v9a1.11 1.11 0 0 1-.29.78 1 1 0 0 1-.79.27zm1.08-12.24h6.12a7 7 0 0 0 3.55-.88 6.46 6.46 0 0 0 2.41-2.43 7 7 0 0 0 .88-3.56 7 7 0 0 0-.88-3.55 6.48 6.48 0 0 0-2.41-2.41 7 7 0 0 0-3.55-.88h-6.12zM215.8 308.24a10.27 10.27 0 0 1-5.17-1.31 9.72 9.72 0 0 1-3.6-3.6 10.78 10.78 0 0 1 0-10.3 9.72 9.72 0 0 1 3.6-3.6 10.17 10.17 0 0 1 5.17-1.31 10 10 0 0 1 5.15 1.31 9.74 9.74 0 0 1 3.58 3.6 10.14 10.14 0 0 1 1.31 5.17l-.9 1.44a8.2 8.2 0 0 1-1.2 4.39 8.85 8.85 0 0 1-3.26 3.08 9.59 9.59 0 0 1-4.68 1.13zm0-2a7.67 7.67 0 0 0 6.86-3.94 8.18 8.18 0 0 0 1-4.08 8.32 8.32 0 0 0-1-4.13 7.67 7.67 0 0 0-6.86-3.94 7.8 7.8 0 0 0-6.88 3.94 8.23 8.23 0 0 0-1 4.13 8.09 8.09 0 0 0 1 4.08 7.87 7.87 0 0 0 2.85 2.88 7.75 7.75 0 0 0 4.03 1.04zm9 1.8a1 1 0 0 1-.77-.3 1.08 1.08 0 0 1-.31-.78v-6.58l.69-2.16h1.47v8.74a1.1 1.1 0 0 1-.28.78 1.07 1.07 0 0 1-.84.26zM240.24 308.24a10.32 10.32 0 0 1-5.22-1.3 9.36 9.36 0 0 1-3.56-3.56 10.29 10.29 0 0 1-1.3-5.18 10.09 10.09 0 0 1 1.34-5.2 9.59 9.59 0 0 1 3.61-3.57 11 11 0 0 1 10.34 0A9.41 9.41 0 0 1 249 293a10.27 10.27 0 0 1 1.3 5.22l-1.3 1.42a8.74 8.74 0 0 1-1.12 4.46 7.86 7.86 0 0 1-3.09 3 9.21 9.21 0 0 1-4.55 1.14zm.15 7.31a10.43 10.43 0 0 1-8.57-4 1.21 1.21 0 0 1-.29-.76.77.77 0 0 1 .36-.65 1.05 1.05 0 0 1 .85-.21 1 1 0 0 1 .74.47 9.06 9.06 0 0 0 2.84 2.21 8.82 8.82 0 0 0 4.07.88 7.42 7.42 0 0 0 4-1.08 7.65 7.65 0 0 0 2.75-3 8.87 8.87 0 0 0 1-4.23v-5.72l1-1.33h1.19v7.05a10.6 10.6 0 0 1-1.3 5.26 9.71 9.71 0 0 1-3.53 3.69 9.59 9.59 0 0 1-5.11 1.42zm-.15-9.33a8.09 8.09 0 0 0 4.09-1 7.28 7.28 0 0 0 2.79-2.85 8.42 8.42 0 0 0 1-4.15 8.56 8.56 0 0 0-1-4.2 7.26 7.26 0 0 0-2.79-2.84 8 8 0 0 0-4.09-1 8.08 8.08 0 0 0-4.1 1 7.24 7.24 0 0 0-2.81 2.84 8.56 8.56 0 0 0-1 4.2 8.42 8.42 0 0 0 1 4.15 7.26 7.26 0 0 0 2.81 2.85 8.18 8.18 0 0 0 4.1 1zM264.4 308.2a10 10 0 0 1-5.06-1.27 9.25 9.25 0 0 1-3.47-3.55 10.48 10.48 0 0 1-1.26-5.18 10.91 10.91 0 0 1 1.19-5.2 9 9 0 0 1 3.27-3.54 8.84 8.84 0 0 1 4.79-1.3 9 9 0 0 1 4.72 1.24 8.72 8.72 0 0 1 3.2 3.42 10.6 10.6 0 0 1 1.15 5 .92.92 0 0 1-.29.73 1 1 0 0 1-.75.27h-15.84V297h16.41l-1.58 1.19a8.86 8.86 0 0 0-.79-4.14 6.6 6.6 0 0 0-6.23-3.85 6.62 6.62 0 0 0-3.65 1 7.14 7.14 0 0 0-2.52 2.83 9 9 0 0 0-.92 4.18 8.55 8.55 0 0 0 1 4.14 7.18 7.18 0 0 0 2.7 2.82 7.54 7.54 0 0 0 4 1 8.56 8.56 0 0 0 2.83-.49 6.07 6.07 0 0 0 2.25-1.28 1 1 0 0 1 .7-.3 1 1 0 0 1 .7.23 1 1 0 0 1 .41.72.89.89 0 0 1-.34.72 9 9 0 0 1-3 1.73 10.17 10.17 0 0 1-3.62.7zM278.69 308a1 1 0 0 1-1.08-1.08v-17.51a1 1 0 0 1 .31-.79 1.08 1.08 0 0 1 .77-.29 1.07 1.07 0 0 1 .79.29 1 1 0 0 1 .29.79v17.53a1.06 1.06 0 0 1-.29.78 1 1 0 0 1-.79.28zm-.36-12a9.72 9.72 0 0 1 1.26-4.09 8 8 0 0 1 2.7-2.79 6.93 6.93 0 0 1 3.67-1 5.51 5.51 0 0 1 2.13.32.91.91 0 0 1 .57 1.15.74.74 0 0 1-.5.65 2.29 2.29 0 0 1-1 0 8 8 0 0 0-1.25-.09 6.69 6.69 0 0 0-3.2.75 5.7 5.7 0 0 0-2.2 2.07 5.8 5.8 0 0 0-.79 3z"/>
    </g>
    <g fill="#fff" opacity=".9">
      <path d="M22.94 74.37l13.84-.02 23.31-37.22-6.84-11.39-30.31 48.63zM62.99 41.96L49.91 63.04l12.83-.01 7.46 11.3h12.22L62.99 41.96z"/>
    </g>
  </g>
</svg>
