<svg xmlns="http://www.w3.org/2000/svg" viewBox="0 0 172 172">
  <g fill="none" stroke-miterlimit="10" font-family="none" font-size="none" font-weight="none" style="mix-blend-mode:normal" text-anchor="none">
    <path d="M0 172V0h172v172z"/>
    <path fill="#ecf0f1" d="M86 6.61538C42.22476 6.61538 6.61538 42.22476 6.61538 86S42.22476 165.38462 86 165.38462 165.38462 129.77525 165.38462 86c0-43.77524-35.60937-79.38462-79.38462-79.38462zm0 13.23077c36.61719 0 66.15385 29.53666 66.15385 66.15385 0 36.61719-29.53666 66.15385-66.15385 66.15385-36.61719 0-66.15385-29.53666-66.15385-66.15385 0-36.61719 29.53666-66.15385 66.15385-66.15385zm0 33.07693L46.30769 92.61539v19.84615L86 72.76923l39.69231 39.69231V92.61539z"/>
  </g>
</svg>
